<svg xmlns="http://www.w3.org/2000/svg" style="display: none;">
  <defs>
  <!-- burger -->
    <symbol id="burger-icon" width="20" height="14" viewBox="0 0 20 14" fill="none">
        <path d="M0.75 6.75H12.75M0.75 0.75H18.75M0.75 12.75H18.75" stroke="currentColor" stroke-width="1.5" stroke-linecap="round" stroke-linejoin="round"/>
    </symbol>
    <!-- bamper logo -->
    <symbol id="bamper-logo" width="139" height="24" viewBox="0 0 139 24" fill="none">
        <path d="M0 0.0970351H6.0975C8.58226 0.0970351 10.3914 0.57682 11.5248 1.53639C12.6582 2.48518 13.2249 4 13.2249 6.08086C13.2249 7.45014 12.9252 8.59838 12.3258 9.52561C11.7264 10.442 10.909 10.9973 9.87369 11.1914V11.3531C11.2251 11.6873 12.2004 12.3127 12.7998 13.2291C13.3992 14.1456 13.6989 15.3639 13.6989 16.8841C13.6989 19.0296 13.1159 20.7116 11.9498 21.9299C10.7946 23.1375 9.20891 23.7412 7.19276 23.7412H0V0.0970351ZM4.18488 9.60647H6.22827C7.16551 9.60647 7.82485 9.35849 8.20628 8.86253C8.58771 8.36658 8.77843 7.62803 8.77843 6.6469C8.77843 5.66577 8.56047 4.96496 8.12454 4.54447C7.68862 4.11321 7.00204 3.89757 6.0648 3.89757H4.18488V9.60647ZM4.18488 13.2776V19.8922H6.42444C7.35078 19.8922 8.03736 19.6119 8.48418 19.0512C8.9419 18.4906 9.17076 17.6226 9.17076 16.4474C9.17076 14.3342 8.23353 13.2776 6.35905 13.2776H4.18488Z" fill="currentColor"/>
        <path d="M28.2806 23.7412L26.9074 17.7736H20.6792L19.306 23.7412H14.8596L20.7773 0H26.8094L32.7434 23.7412H28.2806ZM26.0737 13.876L24.7987 8.37736C24.7224 8.04313 24.548 7.20755 24.2756 5.87062C24.014 4.52291 23.856 3.62264 23.8015 3.16981C23.6598 4.09704 23.48 5.12129 23.262 6.24259C23.0441 7.3531 22.4774 9.89757 21.5619 13.876H26.0737Z" fill="currentColor"/>
        <path d="M43.3854 23.7412L38.8409 3.60647H38.6611C38.8681 5.15903 38.9717 6.58221 38.9717 7.87601V23.7412H34.8522V0.0970351H41.6853L45.7721 18.6792H45.9029L49.957 0.0970351H56.8882V23.7412H52.6706V7.71429C52.6706 6.38814 52.7469 5.02965 52.8994 3.63881H52.7687L48.2405 23.7412H43.3854Z" fill="currentColor"/>
        <path d="M74.1344 7.37466C74.1344 9.88679 73.4914 11.8167 72.2055 13.1644C70.9304 14.5013 69.0831 15.1698 66.6638 15.1698H65.5522V23.7412H61.1057V0.0970351H67.1705C71.8131 0.0970351 74.1344 2.52291 74.1344 7.37466ZM65.5522 11.3531H66.4022C67.492 11.3531 68.3039 11.0566 68.8379 10.4636C69.3719 9.87062 69.639 8.90027 69.639 7.55256C69.639 6.31267 69.3937 5.39623 68.9033 4.80324C68.4129 4.19946 67.6555 3.89757 66.6311 3.89757H65.5522V11.3531Z" fill="currentColor"/>
        <path d="M87.9314 23.7412H77.1587V0.0970351H87.9314V3.89757H81.6051V9.52561H87.4737V13.3423H81.6051V19.8922H87.9314V23.7412Z" fill="currentColor"/>
        <path d="M95.8598 14.5391V23.7412H91.4134V0.0970351H97.233C99.696 0.0970351 101.51 0.673855 102.677 1.82749C103.854 2.98113 104.442 4.74394 104.442 7.1159C104.442 10.1024 103.423 12.1887 101.385 13.3747L105.979 23.7412H101.222L97.4455 14.5391H95.8598ZM95.8598 10.7547H97.0041C98.0503 10.7547 98.8023 10.4636 99.26 9.8814C99.7178 9.28841 99.9466 8.4097 99.9466 7.24528C99.9466 6.03774 99.7014 5.18059 99.211 4.67385C98.7315 4.15633 97.9849 3.89757 96.9714 3.89757H95.8598V10.7547Z" fill="currentColor"/>
        <path d="M108.218 22.2857C108.218 21.1321 108.643 20.5553 109.493 20.5553C109.842 20.5553 110.142 20.6846 110.392 20.9434C110.643 21.2022 110.768 21.6496 110.768 22.2857C110.768 22.9003 110.643 23.3423 110.392 23.6119C110.142 23.8706 109.842 24 109.493 24C108.643 24 108.218 23.4286 108.218 22.2857Z" fill="currentColor"/>
        <path d="M115.558 0.0970351H120.135C122.01 0.0970351 123.448 0.571429 124.451 1.52022C125.465 2.469 125.971 3.87062 125.971 5.72507C125.971 8.92722 124.789 10.7601 122.424 11.2237V11.3531C123.786 11.6334 124.8 12.2372 125.465 13.1644C126.129 14.0809 126.462 15.3639 126.462 17.0135C126.462 19.1267 125.988 20.7763 125.04 21.9623C124.091 23.1483 122.762 23.7412 121.051 23.7412H115.558V0.0970351ZM117.16 10.6253H120.168C121.661 10.6253 122.724 10.221 123.356 9.4124C123.999 8.59299 124.32 7.3531 124.32 5.69272C124.32 4.3558 123.966 3.33154 123.258 2.61995C122.56 1.90836 121.519 1.55256 120.135 1.55256H117.16V10.6253ZM117.16 12.0809V22.2857H120.838C123.476 22.2857 124.794 20.5175 124.794 16.9811C124.794 15.407 124.407 14.1995 123.634 13.3585C122.86 12.5067 121.776 12.0809 120.381 12.0809H117.16Z" fill="currentColor"/>
        <path d="M133.409 12.3073L137.3 0.0970351H139L134.178 14.5067V23.7412H132.576V14.5067L127.786 0.0970351H129.486L133.409 12.3073Z" fill="currentColor"/>
    </symbol>
    <!-- избранное  -->
    <symbol id="favorite" width="22" height="20" viewBox="0 0 22 20" fill="none">
        <path d="M14.8611 0.75C18.3833 0.75 20.75 4.1025 20.75 7.23C20.75 13.5638 10.9278 18.75 10.75 18.75C10.5722 18.75 0.75 13.5638 0.75 7.23C0.75 4.1025 3.11667 0.75 6.63889 0.75C8.66111 0.75 9.98333 1.77375 10.75 2.67375C11.5167 1.77375 12.8389 0.75 14.8611 0.75Z" stroke="currentColor" stroke-width="1.5" stroke-linecap="round" stroke-linejoin="round"/>
    </symbol>
    <!-- user -->
    <symbol id="user_header" width="40" height="40" viewBox="0 0 40 40" fill="none">
        <circle cx="20" cy="20" r="19.5" stroke="currentColor"/>
        <path d="M28 29C28 27.6044 28 26.9067 27.8278 26.3389C27.44 25.0605 26.4395 24.06 25.1611 23.6722C24.5933 23.5 23.8956 23.5 22.5 23.5H17.5C16.1044 23.5 15.4067 23.5 14.8389 23.6722C13.5605 24.06 12.56 25.0605 12.1722 26.3389C12 26.9067 12 27.6044 12 29M24.5 15.5C24.5 17.9853 22.4853 20 20 20C17.5147 20 15.5 17.9853 15.5 15.5C15.5 13.0147 17.5147 11 20 11C22.4853 11 24.5 13.0147 24.5 15.5Z" stroke="currentColor" stroke-width="1.5" stroke-linecap="round" stroke-linejoin="round"/>
    </symbol>
    <!-- search -->
    <symbol id="search" width="21" height="21" viewBox="0 0 21 21" fill="none">
        <path d="M18.75 19.7515L15.2605 16.2618M15.2605 16.2618L15.2501 16.2515M15.2605 16.2618C16.7986 14.7237 17.75 12.5987 17.75 10.2515M15.2605 16.2618C13.7223 17.8001 11.5972 18.7515 9.25 18.7515C4.55558 18.7515 0.75 14.9459 0.75 10.2515C0.75 5.55707 4.55558 1.75149 9.25 1.75149M15.7473 1.6143C14.9475 0.670045 13.6139 0.416043 12.6119 1.2807C11.6099 2.14535 11.4688 3.59101 12.2557 4.61364C12.7597 5.26864 14.0505 6.48327 14.9134 7.27192C15.2001 7.53401 15.3435 7.66505 15.5153 7.7176C15.6629 7.76278 15.8316 7.76278 15.9793 7.7176C16.151 7.66505 16.2944 7.53401 16.5811 7.27192C17.4441 6.48327 18.7348 5.26864 19.2388 4.61364C20.0257 3.59101 19.9019 2.13626 18.8826 1.2807C17.8634 0.425138 16.547 0.670045 15.7473 1.6143Z" stroke="currentColor" stroke-width="1.5" stroke-linecap="round" stroke-linejoin="round"/>
    </symbol>
  </defs>
</svg>