<svg xmlns="http://www.w3.org/2000/svg" style="display: none;">
  <defs>
    <symbol id="burger-icon" width="24" height="24" viewBox="0 0 24 24" fill="none">
        <path d="M3 12H15M3 6H21M3 18H21" stroke-width="1.5" stroke-linecap="round" stroke-linejoin="round" />
    </symbol>
    <symbol id="bamper-logo" width="139" height="24" viewBox="0 0 139 24" fill="none">
        <path d="M0 0.0970351H6.0975C8.58226 0.0970351 10.3914 0.57682 11.5248 1.53639C12.6582 2.48518 13.2249 4 13.2249 6.08086C13.2249 7.45014 12.9252 8.59838 12.3258 9.52561C11.7264 10.442 10.909 10.9973 9.87369 11.1914V11.3531C11.2251 11.6873 12.2004 12.3127 12.7998 13.2291C13.3992 14.1456 13.6989 15.3639 13.6989 16.8841C13.6989 19.0296 13.1159 20.7116 11.9498 21.9299C10.7946 23.1375 9.20891 23.7412 7.19276 23.7412H0V0.0970351ZM4.18488 9.60647H6.22827C7.16551 9.60647 7.82485 9.35849 8.20628 8.86253C8.58771 8.36658 8.77843 7.62803 8.77843 6.6469C8.77843 5.66577 8.56047 4.96496 8.12454 4.54447C7.68862 4.11321 7.00204 3.89757 6.0648 3.89757H4.18488V9.60647ZM4.18488 13.2776V19.8922H6.42444C7.35078 19.8922 8.03736 19.6119 8.48418 19.0512C8.9419 18.4906 9.17076 17.6226 9.17076 16.4474C9.17076 14.3342 8.23353 13.2776 6.35905 13.2776H4.18488Z" fill="currentColor"/>
        <path d="M28.2806 23.7412L26.9074 17.7736H20.6792L19.306 23.7412H14.8596L20.7773 0H26.8094L32.7434 23.7412H28.2806ZM26.0737 13.876L24.7987 8.37736C24.7224 8.04313 24.548 7.20755 24.2756 5.87062C24.014 4.52291 23.856 3.62264 23.8015 3.16981C23.6598 4.09704 23.48 5.12129 23.262 6.24259C23.0441 7.3531 22.4774 9.89757 21.5619 13.876H26.0737Z" fill="currentColor"/>
        <path d="M43.3854 23.7412L38.8409 3.60647H38.6611C38.8681 5.15903 38.9717 6.58221 38.9717 7.87601V23.7412H34.8522V0.0970351H41.6853L45.7721 18.6792H45.9029L49.957 0.0970351H56.8882V23.7412H52.6706V7.71429C52.6706 6.38814 52.7469 5.02965 52.8994 3.63881H52.7687L48.2405 23.7412H43.3854Z" fill="currentColor"/>
        <path d="M74.1344 7.37466C74.1344 9.88679 73.4914 11.8167 72.2055 13.1644C70.9304 14.5013 69.0831 15.1698 66.6638 15.1698H65.5522V23.7412H61.1057V0.0970351H67.1705C71.8131 0.0970351 74.1344 2.52291 74.1344 7.37466ZM65.5522 11.3531H66.4022C67.492 11.3531 68.3039 11.0566 68.8379 10.4636C69.3719 9.87062 69.639 8.90027 69.639 7.55256C69.639 6.31267 69.3937 5.39623 68.9033 4.80324C68.4129 4.19946 67.6555 3.89757 66.6311 3.89757H65.5522V11.3531Z" fill="currentColor"/>
        <path d="M87.9314 23.7412H77.1587V0.0970351H87.9314V3.89757H81.6051V9.52561H87.4737V13.3423H81.6051V19.8922H87.9314V23.7412Z" fill="currentColor"/>
        <path d="M95.8598 14.5391V23.7412H91.4134V0.0970351H97.233C99.696 0.0970351 101.51 0.673855 102.677 1.82749C103.854 2.98113 104.442 4.74394 104.442 7.1159C104.442 10.1024 103.423 12.1887 101.385 13.3747L105.979 23.7412H101.222L97.4455 14.5391H95.8598ZM95.8598 10.7547H97.0041C98.0503 10.7547 98.8023 10.4636 99.26 9.8814C99.7178 9.28841 99.9466 8.4097 99.9466 7.24528C99.9466 6.03774 99.7014 5.18059 99.211 4.67385C98.7315 4.15633 97.9849 3.89757 96.9714 3.89757H95.8598V10.7547Z" fill="currentColor"/>
        <path d="M108.218 22.2857C108.218 21.1321 108.643 20.5553 109.493 20.5553C109.842 20.5553 110.142 20.6846 110.392 20.9434C110.643 21.2022 110.768 21.6496 110.768 22.2857C110.768 22.9003 110.643 23.3423 110.392 23.6119C110.142 23.8706 109.842 24 109.493 24C108.643 24 108.218 23.4286 108.218 22.2857Z" fill="currentColor"/>
        <path d="M115.558 0.0970351H120.135C122.01 0.0970351 123.448 0.571429 124.451 1.52022C125.465 2.469 125.971 3.87062 125.971 5.72507C125.971 8.92722 124.789 10.7601 122.424 11.2237V11.3531C123.786 11.6334 124.8 12.2372 125.465 13.1644C126.129 14.0809 126.462 15.3639 126.462 17.0135C126.462 19.1267 125.988 20.7763 125.04 21.9623C124.091 23.1483 122.762 23.7412 121.051 23.7412H115.558V0.0970351ZM117.16 10.6253H120.168C121.661 10.6253 122.724 10.221 123.356 9.4124C123.999 8.59299 124.32 7.3531 124.32 5.69272C124.32 4.3558 123.966 3.33154 123.258 2.61995C122.56 1.90836 121.519 1.55256 120.135 1.55256H117.16V10.6253ZM117.16 12.0809V22.2857H120.838C123.476 22.2857 124.794 20.5175 124.794 16.9811C124.794 15.407 124.407 14.1995 123.634 13.3585C122.86 12.5067 121.776 12.0809 120.381 12.0809H117.16Z" fill="currentColor"/>
        <path d="M133.409 12.3073L137.3 0.0970351H139L134.178 14.5067V23.7412H132.576V14.5067L127.786 0.0970351H129.486L133.409 12.3073Z" fill="currentColor"/>
    </symbol>
    <symbol id="favorite" width="24" height="24" viewBox="0 0 24 24" fill="none">
        <path d="M16.1111 3C19.6333 3 22 6.3525 22 9.48C22 15.8138 12.1778 21 12 21C11.8222 21 2 15.8138 2 9.48C2 6.3525 4.36667 3 7.88889 3C9.91111 3 11.2333 4.02375 12 4.92375C12.7667 4.02375 14.0889 3 16.1111 3Z" stroke-width="1.5" stroke-linecap="round" stroke-linejoin="round" />
    </symbol>
    <symbol id="plus-btn" width="20" height="20" viewBox="0 0 20 20" fill="none">
        <path d="M9.99935 4.16675V15.8334M4.16602 10.0001H15.8327" stroke-width="1.5" stroke-linecap="round" stroke-linejoin="round"/>
    </symbol>
    <symbol id="add" width="16" height="16" viewBox="0 0 16 16" fill="none">
        <path d="M7.99992 3.33325V12.6666M3.33325 7.99992H12.6666" stroke-width="1.5" stroke-linecap="round" stroke-linejoin="round" />
    </symbol>
    <symbol id="user_header" width="40" height="40" viewBox="0 0 40 40" fill="none">
        <circle cx="20" cy="20" r="19.5" stroke="currentColor"/>
        <path d="M28 29C28 27.6044 28 26.9067 27.8278 26.3389C27.44 25.0605 26.4395 24.06 25.1611 23.6722C24.5933 23.5 23.8956 23.5 22.5 23.5H17.5C16.1044 23.5 15.4067 23.5 14.8389 23.6722C13.5605 24.06 12.56 25.0605 12.1722 26.3389C12 26.9067 12 27.6044 12 29M24.5 15.5C24.5 17.9853 22.4853 20 20 20C17.5147 20 15.5 17.9853 15.5 15.5C15.5 13.0147 17.5147 11 20 11C22.4853 11 24.5 13.0147 24.5 15.5Z" stroke-width="1.5" stroke-linecap="round" stroke-linejoin="round"/>
    </symbol>
    <symbol id="profile_avatar" width="48" height="48" viewBox="0 0 48 48" fill="none">
        <rect x="0.5" y="0.5" width="47" height="47" rx="23.5" fill="transparent"/>
        <rect x="0.5" y="0.5" width="47" height="47" rx="23.5" stroke="black"/>
        <path d="M33.3333 34.5C33.3333 32.8718 33.3333 32.0578 33.1324 31.3953C32.68 29.9039 31.5128 28.7367 30.0213 28.2843C29.3589 28.0833 28.5448 28.0833 26.9167 28.0833H21.0833C19.4552 28.0833 18.6411 28.0833 17.9787 28.2843C16.4872 28.7367 15.32 29.9039 14.8676 31.3953C14.6667 32.0578 14.6667 32.8718 14.6667 34.5M29.25 18.75C29.25 21.6495 26.8995 24 24 24C21.1005 24 18.75 21.6495 18.75 18.75C18.75 15.8505 21.1005 13.5 24 13.5C26.8995 13.5 29.25 15.8505 29.25 18.75Z" stroke="black" stroke-width="2.33" stroke-linecap="round" stroke-linejoin="round"/>
    </symbol>
    <symbol id="search" width="24" height="24" viewBox="0 0 24 24" fill="none">
        <path d="M21 21L17.5105 17.5104M17.5105 17.5104L17.5001 17.5M17.5105 17.5104C19.0486 15.9722 20 13.8472 20 11.5M17.5105 17.5104C15.9723 19.0486 13.8472 20 11.5 20C6.80558 20 3 16.1944 3 11.5C3 6.80558 6.80558 3 11.5 3M17.9973 2.86281C17.1975 1.91856 15.8639 1.66456 14.8619 2.52921C13.8599 3.39387 13.7188 4.83953 14.5057 5.86216C15.0097 6.51716 16.3005 7.73179 17.1634 8.52044C17.4501 8.78252 17.5935 8.91356 17.7653 8.96612C17.9129 9.01129 18.0816 9.01129 18.2293 8.96612C18.401 8.91356 18.5444 8.78252 18.8311 8.52044C19.6941 7.73179 20.9848 6.51716 21.4888 5.86216C22.2757 4.83953 22.1519 3.38477 21.1326 2.52921C20.1134 1.67365 18.797 1.91856 17.9973 2.86281Z" stroke="currentColor" stroke-width="1.5" stroke-linecap="round" stroke-linejoin="round" />
    </symbol>
    <symbol id="shevron" width="24" height="24" viewBox="0 0 24 24" fill="none">
        <path d="M6 9L12 15L18 9" stroke="currentColor" stroke-width="1.5" stroke-linecap="round" stroke-linejoin="round"/>
    </symbol>
    <symbol id="shevron-back" width="20" height="20" viewBox="0 0 20 20" fill="none">
        <path d="M12.5 15L7.5 10L12.5 5" stroke-width="1.5" stroke-linecap="round" stroke-linejoin="round" />
    </symbol>
    <symbol id="advertisements" width="24" height="24" viewBox="0 0 24 24" fill="none">
        <path d="M21 12L9 12M21 6L9 6M21 18L9 18M5 12C5 12.5523 4.55228 13 4 13C3.44772 13 3 12.5523 3 12C3 11.4477 3.44772 11 4 11C4.55228 11 5 11.4477 5 12ZM5 6C5 6.55228 4.55228 7 4 7C3.44772 7 3 6.55228 3 6C3 5.44772 3.44772 5 4 5C4.55228 5 5 5.44772 5 6ZM5 18C5 18.5523 4.55228 19 4 19C3.44772 19 3 18.5523 3 18C3 17.4477 3.44772 17 4 17C4.55228 17 5 17.4477 5 18Z" stroke-width="1.5" stroke-linecap="round" stroke-linejoin="round" />
    </symbol>
    <symbol id="tarif" width="24" height="24" viewBox="0 0 24 24" fill="none">
        <path d="M12 4V20M18 6L6 18M20 12H4M18 18L6 6" stroke-width="1.5" stroke-linecap="round" stroke-linejoin="round" />
    </symbol>
    <symbol id="tarif-money" width="24" height="24" viewBox="0 0 24 24" fill="none">
        <path d="M12 17C12 19.7614 14.2386 22 17 22C19.7614 22 22 19.7614 22 17C22 14.2386 19.7614 12 17 12C14.2386 12 12 14.2386 12 17ZM12 17C12 15.8742 12.3721 14.8353 13 13.9995V5M12 17C12 17.8254 12.2 18.604 12.5541 19.2901C11.7117 20.0018 9.76584 20.5 7.5 20.5C4.46243 20.5 2 19.6046 2 18.5V5M13 5C13 6.10457 10.5376 7 7.5 7C4.46243 7 2 6.10457 2 5M13 5C13 3.89543 10.5376 3 7.5 3C4.46243 3 2 3.89543 2 5M2 14C2 15.1046 4.46243 16 7.5 16C9.689 16 11.5793 15.535 12.4646 14.8618M13 9.5C13 10.6046 10.5376 11.5 7.5 11.5C4.46243 11.5 2 10.6046 2 9.5" stroke-width="1.2" stroke-linecap="round" stroke-linejoin="round" />
    </symbol>
    <symbol id="message" width="24" height="24" viewBox="0 0 24 24" fill="none">
        <path d="M6.09436 11.2288C6.03221 10.8282 5.99996 10.4179 5.99996 10C5.99996 5.58172 9.60525 2 14.0526 2C18.4999 2 22.1052 5.58172 22.1052 10C22.1052 10.9981 21.9213 11.9535 21.5852 12.8345C21.5154 13.0175 21.4804 13.109 21.4646 13.1804C21.4489 13.2512 21.4428 13.301 21.4411 13.3735C21.4394 13.4466 21.4493 13.5272 21.4692 13.6883L21.8717 16.9585C21.9153 17.3125 21.9371 17.4895 21.8782 17.6182C21.8266 17.731 21.735 17.8205 21.6211 17.8695C21.4911 17.9254 21.3146 17.8995 20.9617 17.8478L17.7765 17.3809C17.6101 17.3565 17.527 17.3443 17.4512 17.3448C17.3763 17.3452 17.3245 17.3507 17.2511 17.3661C17.177 17.3817 17.0823 17.4172 16.893 17.4881C16.0097 17.819 15.0524 18 14.0526 18C13.6344 18 13.2237 17.9683 12.8227 17.9073M7.63158 22C10.5965 22 13 19.5376 13 16.5C13 13.4624 10.5965 11 7.63158 11C4.66668 11 2.26316 13.4624 2.26316 16.5C2.26316 17.1106 2.36028 17.6979 2.53955 18.2467C2.61533 18.4787 2.65322 18.5947 2.66566 18.6739C2.67864 18.7567 2.68091 18.8031 2.67608 18.8867C2.67145 18.9668 2.65141 19.0573 2.61134 19.2383L2 22L4.9948 21.591C5.15827 21.5687 5.24 21.5575 5.31137 21.558C5.38652 21.5585 5.42641 21.5626 5.50011 21.5773C5.5701 21.5912 5.67416 21.6279 5.88227 21.7014C6.43059 21.8949 7.01911 22 7.63158 22Z" stroke-width="1.5" stroke-linecap="round" stroke-linejoin="round" />
    </symbol>
    <symbol id="statistic" width="24" height="24" viewBox="0 0 24 24" fill="none">
        <path d="M18 20V4M6 20V16M12 20V10" stroke-width="1.5" stroke-linecap="round" stroke-linejoin="round" />
    </symbol>
    <symbol id="settings" width="24" height="24" viewBox="0 0 24 24" fill="none">
        <path d="M12 15C13.6569 15 15 13.6569 15 12C15 10.3431 13.6569 9 12 9C10.3431 9 9 10.3431 9 12C9 13.6569 10.3431 15 12 15Z" stroke-width="1.5" stroke-linecap="round" stroke-linejoin="round" />
        <path d="M18.7273 14.7273C18.6063 15.0015 18.5702 15.3056 18.6236 15.6005C18.6771 15.8954 18.8177 16.1676 19.0273 16.3818L19.0818 16.4364C19.2509 16.6052 19.385 16.8057 19.4765 17.0265C19.568 17.2472 19.6151 17.4838 19.6151 17.7227C19.6151 17.9617 19.568 18.1983 19.4765 18.419C19.385 18.6397 19.2509 18.8402 19.0818 19.0091C18.913 19.1781 18.7124 19.3122 18.4917 19.4037C18.271 19.4952 18.0344 19.5423 17.7955 19.5423C17.5565 19.5423 17.3199 19.4952 17.0992 19.4037C16.8785 19.3122 16.678 19.1781 16.5091 19.0091L16.4545 18.9545C16.2403 18.745 15.9682 18.6044 15.6733 18.5509C15.3784 18.4974 15.0742 18.5335 14.8 18.6545C14.5311 18.7698 14.3018 18.9611 14.1403 19.205C13.9788 19.4489 13.8921 19.7347 13.8909 20.0273V20.1818C13.8909 20.664 13.6994 21.1265 13.3584 21.4675C13.0174 21.8084 12.5549 22 12.0727 22C11.5905 22 11.1281 21.8084 10.7871 21.4675C10.4461 21.1265 10.2545 20.664 10.2545 20.1818V20.1C10.2475 19.7991 10.1501 19.5073 9.97501 19.2625C9.79991 19.0176 9.55521 18.8312 9.27273 18.7273C8.99853 18.6063 8.69437 18.5702 8.39947 18.6236C8.10456 18.6771 7.83244 18.8177 7.61818 19.0273L7.56364 19.0818C7.39478 19.2509 7.19425 19.385 6.97353 19.4765C6.7528 19.568 6.51621 19.6151 6.27727 19.6151C6.03834 19.6151 5.80174 19.568 5.58102 19.4765C5.36029 19.385 5.15977 19.2509 4.99091 19.0818C4.82186 18.913 4.68775 18.7124 4.59626 18.4917C4.50476 18.271 4.45766 18.0344 4.45766 17.7955C4.45766 17.5565 4.50476 17.3199 4.59626 17.0992C4.68775 16.8785 4.82186 16.678 4.99091 16.5091L5.04545 16.4545C5.25503 16.2403 5.39562 15.9682 5.4491 15.6733C5.50257 15.3784 5.46647 15.0742 5.34545 14.8C5.23022 14.5311 5.03887 14.3018 4.79497 14.1403C4.55107 13.9788 4.26526 13.8921 3.97273 13.8909H3.81818C3.33597 13.8909 2.87351 13.6994 2.53253 13.3584C2.19156 13.0174 2 12.5549 2 12.0727C2 11.5905 2.19156 11.1281 2.53253 10.7871C2.87351 10.4461 3.33597 10.2545 3.81818 10.2545H3.9C4.2009 10.2475 4.49273 10.1501 4.73754 9.97501C4.98236 9.79991 5.16883 9.55521 5.27273 9.27273C5.39374 8.99853 5.42984 8.69437 5.37637 8.39947C5.3229 8.10456 5.18231 7.83244 4.97273 7.61818L4.91818 7.56364C4.74913 7.39478 4.61503 7.19425 4.52353 6.97353C4.43203 6.7528 4.38493 6.51621 4.38493 6.27727C4.38493 6.03834 4.43203 5.80174 4.52353 5.58102C4.61503 5.36029 4.74913 5.15977 4.91818 4.99091C5.08704 4.82186 5.28757 4.68775 5.50829 4.59626C5.72901 4.50476 5.96561 4.45766 6.20455 4.45766C6.44348 4.45766 6.68008 4.50476 6.9008 4.59626C7.12152 4.68775 7.32205 4.82186 7.49091 4.99091L7.54545 5.04545C7.75971 5.25503 8.03183 5.39562 8.32674 5.4491C8.62164 5.50257 8.9258 5.46647 9.2 5.34545H9.27273C9.54161 5.23022 9.77093 5.03887 9.93245 4.79497C10.094 4.55107 10.1807 4.26526 10.1818 3.97273V3.81818C10.1818 3.33597 10.3734 2.87351 10.7144 2.53253C11.0553 2.19156 11.5178 2 12 2C12.4822 2 12.9447 2.19156 13.2856 2.53253C13.6266 2.87351 13.8182 3.33597 13.8182 3.81818V3.9C13.8193 4.19253 13.906 4.47834 14.0676 4.72224C14.2291 4.96614 14.4584 5.15749 14.7273 5.27273C15.0015 5.39374 15.3056 5.42984 15.6005 5.37637C15.8954 5.3229 16.1676 5.18231 16.3818 4.97273L16.4364 4.91818C16.6052 4.74913 16.8057 4.61503 17.0265 4.52353C17.2472 4.43203 17.4838 4.38493 17.7227 4.38493C17.9617 4.38493 18.1983 4.43203 18.419 4.52353C18.6397 4.61503 18.8402 4.74913 19.0091 4.91818C19.1781 5.08704 19.3122 5.28757 19.4037 5.50829C19.4952 5.72901 19.5423 5.96561 19.5423 6.20455C19.5423 6.44348 19.4952 6.68008 19.4037 6.9008C19.3122 7.12152 19.1781 7.32205 19.0091 7.49091L18.9545 7.54545C18.745 7.75971 18.6044 8.03183 18.5509 8.32674C18.4974 8.62164 18.5335 8.9258 18.6545 9.2V9.27273C18.7698 9.54161 18.9611 9.77093 19.205 9.93245C19.4489 10.094 19.7347 10.1807 20.0273 10.1818H20.1818C20.664 10.1818 21.1265 10.3734 21.4675 10.7144C21.8084 11.0553 22 11.5178 22 12C22 12.4822 21.8084 12.9447 21.4675 13.2856C21.1265 13.6266 20.664 13.8182 20.1818 13.8182H20.1C19.8075 13.8193 19.5217 13.906 19.2778 14.0676C19.0339 14.2291 18.8425 14.4584 18.7273 14.7273Z" stroke-width="1.5" stroke-linecap="round" stroke-linejoin="round" />
    </symbol>
    <symbol id="help" width="24" height="24" viewBox="0 0 24 24" fill="none">
        <path d="M8.46445 8.46448L4.92893 4.92896M4.92893 19.0711L8.46448 15.5355M15.5355 15.5355L19.0711 19.071M19.0711 4.92891L15.5355 8.46445M22 12C22 17.5228 17.5228 22 12 22C6.47715 22 2 17.5228 2 12C2 6.47715 6.47715 2 12 2C17.5228 2 22 6.47715 22 12ZM17 12C17 14.7614 14.7614 17 12 17C9.23858 17 7 14.7614 7 12C7 9.23858 9.23858 7 12 7C14.7614 7 17 9.23858 17 12Z" stroke-width="1.5" stroke-linecap="round" stroke-linejoin="round" />
    </symbol>
    <symbol id="rules" width="24" height="24" viewBox="0 0 24 24" fill="none">
        <path d="M12 16V12M12 8H12.01M22 12C22 17.5228 17.5228 22 12 22C6.47715 22 2 17.5228 2 12C2 6.47715 6.47715 2 12 2C17.5228 2 22 6.47715 22 12Z" stroke-width="1.5" stroke-linecap="round" stroke-linejoin="round" />
    </symbol>
    <symbol id="pause" width="24" height="24" viewBox="0 0 24 24" fill="none">
        <path d="M9.5 15V9M14.5 15V9M22 12C22 17.5228 17.5228 22 12 22C6.47715 22 2 17.5228 2 12C2 6.47715 6.47715 2 12 2C17.5228 2 22 6.47715 22 12Z" stroke-width="1.5" stroke-linecap="round" stroke-linejoin="round" />
    </symbol>
    <symbol id="exit" width="24" height="24" viewBox="0 0 24 24" fill="none">
        <path d="M18 8L22 12M22 12L18 16M22 12H9M15 4.20404C13.7252 3.43827 12.2452 3 10.6667 3C5.8802 3 2 7.02944 2 12C2 16.9706 5.8802 21 10.6667 21C12.2452 21 13.7252 20.5617 15 19.796" stroke-width="1.5" stroke-linecap="round" stroke-linejoin="round" />
    </symbol>
    <symbol id="camera-plus" width="32" height="32" viewBox="0 0 32 32" fill="none">
        <path d="M29.3334 15.3333V19.4667C29.3334 22.4536 29.3334 23.9471 28.7521 25.088C28.2408 26.0915 27.4249 26.9074 26.4214 27.4187C25.2805 28 23.787 28 20.8001 28H11.2001C8.21313 28 6.71966 28 5.5788 27.4187C4.57527 26.9074 3.75937 26.0915 3.24805 25.088C2.66675 23.9471 2.66675 22.4536 2.66675 19.4667V12.5333C2.66675 9.54639 2.66675 8.05292 3.24805 6.91206C3.75937 5.90852 4.57527 5.09263 5.5788 4.5813C6.71966 4.00001 8.21313 4.00001 11.2001 4.00001H16.6667M25.3334 10.6667V2.66667M21.3334 6.66667H29.3334M21.3334 16C21.3334 18.9455 18.9456 21.3333 16.0001 21.3333C13.0546 21.3333 10.6667 18.9455 10.6667 16C10.6667 13.0545 13.0546 10.6667 16.0001 10.6667C18.9456 10.6667 21.3334 13.0545 21.3334 16Z" stroke-width="1.5" stroke-linecap="round" stroke-linejoin="round" />
    </symbol>
    <symbol id="delete-icon" width="20" height="20" viewBox="0 0 20 20" fill="none">
         <path d="M13.3333 5.00008V4.33341C13.3333 3.39999 13.3333 2.93328 13.1517 2.57676C12.9919 2.26316 12.7369 2.00819 12.4233 1.8484C12.0668 1.66675 11.6001 1.66675 10.6667 1.66675H9.33333C8.39991 1.66675 7.9332 1.66675 7.57668 1.8484C7.26308 2.00819 7.00811 2.26316 6.84832 2.57676C6.66667 2.93328 6.66667 3.39999 6.66667 4.33341V5.00008M8.33333 9.58341V13.7501M11.6667 9.58341V13.7501M2.5 5.00008H17.5M15.8333 5.00008V14.3334C15.8333 15.7335 15.8333 16.4336 15.5608 16.9684C15.3212 17.4388 14.9387 17.8212 14.4683 18.0609C13.9335 18.3334 13.2335 18.3334 11.8333 18.3334H8.16667C6.76654 18.3334 6.06647 18.3334 5.53169 18.0609C5.06129 17.8212 4.67883 17.4388 4.43915 16.9684C4.16667 16.4336 4.16667 15.7335 4.16667 14.3334V5.00008" stroke-width="1.5" stroke-linecap="round" stroke-linejoin="round" />
    </symbol>
    <symbol id="rewrite-icon" width="20" height="20" viewBox="0 0 20 20" fill="none">
        <path d="M9.99998 16.6667H17.5M2.5 16.6667H3.89545C4.3031 16.6667 4.50693 16.6667 4.69874 16.6206C4.8688 16.5798 5.03138 16.5125 5.1805 16.4211C5.34869 16.318 5.49282 16.1739 5.78107 15.8856L16.25 5.41669C16.9404 4.72634 16.9404 3.60705 16.25 2.91669C15.5597 2.22634 14.4404 2.22634 13.75 2.91669L3.28105 13.3856C2.9928 13.6739 2.84867 13.818 2.7456 13.9862C2.65422 14.1353 2.58688 14.2979 2.54605 14.468C2.5 14.6598 2.5 14.8636 2.5 15.2713V16.6667Z" stroke-width="1.5" stroke-linecap="round" stroke-linejoin="round" />
    </symbol>
    <symbol id="tip-info" width="15" height="15" viewBox="0 0 15 15" fill="none">
        <path d="M7.41667 10.0833V7.41667M7.41667 4.75H7.42333M14.0833 7.41667C14.0833 11.0986 11.0986 14.0833 7.41667 14.0833C3.73477 14.0833 0.75 11.0986 0.75 7.41667C0.75 3.73477 3.73477 0.75 7.41667 0.75C11.0986 0.75 14.0833 3.73477 14.0833 7.41667Z" stroke-width="1.5" stroke-linecap="round" stroke-linejoin="round" />
    </symbol>
    <symbol id="blue-info" width="19" height="19" viewBox="0 0 19 19" fill="none">
        <path d="M9.08333 12.4167V9.08333M9.08333 5.75H9.09167M17.4167 9.08333C17.4167 13.6857 13.6857 17.4167 9.08333 17.4167C4.48096 17.4167 0.75 13.6857 0.75 9.08333C0.75 4.48096 4.48096 0.75 9.08333 0.75C13.6857 0.75 17.4167 4.48096 17.4167 9.08333Z" stroke-width="1.5" stroke-linecap="round" stroke-linejoin="round" />
    </symbol>
    <symbol id="close-select" width="20" height="20" viewBox="0 0 20 20" fill="none">
        <path d="M14.1667 5.83333L5.83337 14.1667M5.83337 5.83333L14.1667 14.1667" stroke-width="1.5" stroke-linecap="round" stroke-linejoin="round" />
    </symbol>
    <symbol id="left-arrow" width="16" height="16" viewBox="0 0 16 16" fill="none">
        <path d="M12.6666 7.99998H3.33325M3.33325 7.99998L7.99992 12.6666M3.33325 7.99998L7.99992 3.33331" stroke-width="1.5" stroke-linecap="round" stroke-linejoin="round" />
    </symbol>
    <symbol id="right-arrow" width="16" height="16" viewBox="0 0 16 16" fill="none">
        <path d="M3.33325 7.99998H12.6666M12.6666 7.99998L7.99992 3.33331M12.6666 7.99998L7.99992 12.6666" stroke-width="1.5" stroke-linecap="round" stroke-linejoin="round" />
    </symbol>
    <symbol id="close-modal" width="12" height="12" viewBox="0 0 12 12" fill="none">
        <path d="M10.75 0.75L0.75 10.75M0.75 0.75L10.75 10.75" stroke-width="1.5" stroke-linecap="round" stroke-linejoin="round" />
    </symbol>
    <symbol id="selected" width="20" height="20" viewBox="0 0 20 20" fill="none">
        <path d="M16.6668 5L7.50016 14.1667L3.3335 10" stroke-width="1.67" stroke-linecap="round" stroke-linejoin="round" />
    </symbol>
    <symbol id="checked-icon" width="10" height="8" viewBox="0 0 10 8"  fill="none" >
        <path d="M8.83325 0.833252L3.33325 6.33325L0.833252 3.83325" stroke="#ffffff" stroke-width="1.6666" stroke-linecap="round" stroke-linejoin="round" />
    </symbol>
    <symbol id="checked-profile" width="20" height="20" viewBox="0 0 20 20" fill="none">
        <path d="M16.6667 5L7.50004 14.1667L3.33337 10" stroke-width="1.67" stroke-linecap="round" stroke-linejoin="round"/>
    </symbol>
    <symbol id="search-input" width="20" height="20" viewBox="0 0 20 20" fill="none">
        <path d="M17.5 17.5L12.5001 12.5M14.1667 8.33333C14.1667 11.555 11.555 14.1667 8.33333 14.1667C5.11167 14.1667 2.5 11.555 2.5 8.33333C2.5 5.11167 5.11167 2.5 8.33333 2.5C11.555 2.5 14.1667 5.11167 14.1667 8.33333Z" stroke-width="1.5" stroke-linecap="round" stroke-linejoin="round" />
    </symbol>
    <symbol id="search-car" width="20" height="20" viewBox="0 0 20 20" fill="none">
        <path d="M4.16667 10.8333H6.66667M1.66667 7.49992L3.33333 8.33325L4.3922 5.15664C4.61076 4.50096 4.72005 4.17312 4.92274 3.93074C5.10173 3.7167 5.3316 3.55102 5.59126 3.4489C5.8853 3.33325 6.23087 3.33325 6.92203 3.33325H13.078C13.7691 3.33325 14.1147 3.33325 14.4087 3.4489C14.6684 3.55102 14.8983 3.7167 15.0773 3.93074C15.28 4.17312 15.3892 4.50096 15.6078 5.15664L16.6667 8.33325L18.3333 7.49992M13.3333 10.8333H15.8333M5.66667 8.33325H14.3333C15.7335 8.33325 16.4335 8.33325 16.9683 8.60574C17.4387 8.84542 17.8212 9.22787 18.0609 9.69828C18.3333 10.2331 18.3333 10.9331 18.3333 12.3333V14.5833C18.3333 14.9705 18.3333 15.1641 18.3013 15.3251C18.1698 15.9862 17.653 16.503 16.9918 16.6346C16.8308 16.6666 16.6372 16.6666 16.25 16.6666H15.8333C14.9129 16.6666 14.1667 15.9204 14.1667 14.9999C14.1667 14.7698 13.9801 14.5833 13.75 14.5833H6.25C6.01988 14.5833 5.83333 14.7698 5.83333 14.9999C5.83333 15.9204 5.08714 16.6666 4.16667 16.6666H3.75C3.36279 16.6666 3.16918 16.6666 3.00818 16.6346C2.34703 16.503 1.8302 15.9862 1.69869 15.3251C1.66667 15.1641 1.66667 14.9705 1.66667 14.5833V12.3333C1.66667 10.9331 1.66667 10.2331 1.93915 9.69828C2.17884 9.22787 2.56129 8.84542 3.03169 8.60574C3.56647 8.33325 4.26654 8.33325 5.66667 8.33325Z" stroke-width="1.5" stroke-linecap="round" stroke-linejoin="round"/>
    </symbol>
    <symbol id="search-moto" width="20" height="20" viewBox="0 0 20 20" fill="none">
        <path d="M5.83333 13.3334C5.83333 14.7141 4.71404 15.8334 3.33333 15.8334C1.95262 15.8334 0.833328 14.7141 0.833328 13.3334C0.833328 11.9527 1.95262 10.8334 3.33333 10.8334C4.71404 10.8334 5.83333 11.9527 5.83333 13.3334ZM5.83333 13.3334H10M10 13.3334L6.66666 7.74344M10 13.3334L14.2708 6.66675M10 4.16675H13.3333L14.2708 6.66675M2.49999 8.33341L6.66666 7.74344M6.66666 7.74344L14.2708 6.66675M15.8333 10.8334L14.2708 6.66675M19.1667 13.3334C19.1667 14.7141 18.0474 15.8334 16.6667 15.8334C15.286 15.8334 14.1667 14.7141 14.1667 13.3334C14.1667 11.9527 15.286 10.8334 16.6667 10.8334C18.0474 10.8334 19.1667 11.9527 19.1667 13.3334Z" stroke-width="1.5" />
    </symbol>
    <symbol id="search-disk" width="20" height="20" viewBox="0 0 20 20" fill="none">
        <path d="M17.2169 14.1669C16.1117 16.0809 14.2915 17.4775 12.1567 18.0495M17.2169 14.1669C18.3219 12.2528 18.6214 9.9782 18.0494 7.84337M17.2169 14.1669L11.6037 10.926M12.1567 18.0495C10.0219 18.6215 7.74725 18.322 5.83321 17.2169M12.1567 18.0495L10.4793 11.7888M5.83321 17.2169C3.91921 16.1118 2.52261 14.2916 1.95061 12.1568M5.83321 17.2169L9.07404 11.6038M18.0494 7.84337C17.4774 5.70853 16.0808 3.88835 14.1668 2.78322M18.0494 7.84337L11.7887 9.52081M14.1668 2.78322C12.2527 1.67817 9.97811 1.3787 7.84327 1.9507M14.1668 2.78322L10.9259 8.39633M11.6037 10.926C11.3582 11.3514 10.9537 11.6617 10.4793 11.7888M11.6037 10.926C11.8493 10.5007 11.9159 9.99522 11.7887 9.52081M1.95061 12.1568C1.37861 10.022 1.67808 7.74734 2.78312 5.8333M1.95061 12.1568L8.21124 10.4793M2.78312 5.8333C3.88826 3.91931 5.70844 2.5227 7.84327 1.9507M2.78312 5.8333L8.39624 9.07413M9.07404 11.6038C9.49938 11.8494 10.0049 11.9159 10.4793 11.7888M9.07404 11.6038C8.64871 11.3582 8.33835 10.9538 8.21124 10.4793M7.84327 1.9507L9.52072 8.21133M8.39624 9.07413C8.15067 9.49947 8.08413 10.0049 8.21124 10.4793M8.39624 9.07413C8.64183 8.6488 9.04631 8.33844 9.52072 8.21133M10.9259 8.39633C11.3513 8.64192 11.6616 9.0464 11.7887 9.52081M10.9259 8.39633C10.5006 8.15077 9.99513 8.08422 9.52072 8.21133" stroke-width="1.5" stroke-linecap="round" stroke-linejoin="round" />
    </symbol>
    <symbol id="search-tire" width="20" height="20" viewBox="0 0 20 20" fill="none">
        <path d="M9.99999 18.3334C14.6024 18.3334 18.3333 14.6025 18.3333 10.0001C18.3333 5.39771 14.6024 1.66675 9.99999 1.66675C5.39762 1.66675 1.66666 5.39771 1.66666 10.0001C1.66666 14.6025 5.39762 18.3334 9.99999 18.3334Z" stroke-width="1.5" />
        <path d="M10 15C12.7614 15 15 12.7614 15 10C15 7.23858 12.7614 5 10 5C7.23858 5 5 7.23858 5 10C5 12.7614 7.23858 15 10 15Z" stroke-width="1.5" />
        <path d="M9.99998 11.6668C10.9205 11.6668 11.6666 10.9206 11.6666 10.0002C11.6666 9.07969 10.9205 8.3335 9.99998 8.3335C9.07951 8.3335 8.33331 9.07969 8.33331 10.0002C8.33331 10.9206 9.07951 11.6668 9.99998 11.6668Z" stroke-width="1.5" />
        <path d="M5 10.0002H8.33333M11.6667 10.0002H15M7.5 14.3302L9.16667 11.4435M10.8333 8.55683L12.5 5.67017M12.5 14.3302L10.8333 11.4435M9.16667 8.55683L7.5 5.67017" stroke-width="1.5" stroke-linecap="round" />
    </symbol>
    <symbol id="search-bazar" width="19" height="19" viewBox="0 0 19 19" fill="none">
        <path d="M3.25012 10.75H14.1966C15.0406 10.75 15.4626 10.75 15.7985 10.5926C16.0945 10.454 16.3431 10.2315 16.5136 9.95263C16.7071 9.6361 16.7537 9.21667 16.8469 8.37782L17.3344 3.99029C17.3629 3.73407 17.3771 3.60596 17.3359 3.5068C17.2997 3.41971 17.2351 3.34748 17.1525 3.3019C17.0585 3.25 16.9296 3.25 16.6718 3.25H2.83345M0.75 0.75H1.79037C2.01089 0.75 2.12114 0.75 2.20741 0.791937C2.28335 0.828857 2.34628 0.887978 2.38786 0.961468C2.4351 1.04495 2.44198 1.15499 2.45573 1.37508L3.21093 13.4583C3.22469 13.6783 3.23157 13.7884 3.2788 13.8719C3.32039 13.9454 3.38332 14.0045 3.45926 14.0414C3.54552 14.0833 3.65578 14.0833 3.8763 14.0833H14.9167M5.33333 17H5.34167M12.8333 17H12.8417M5.75 17C5.75 17.2301 5.56345 17.4167 5.33333 17.4167C5.10321 17.4167 4.91667 17.2301 4.91667 17C4.91667 16.7699 5.10321 16.5833 5.33333 16.5833C5.56345 16.5833 5.75 16.7699 5.75 17ZM13.25 17C13.25 17.2301 13.0635 17.4167 12.8333 17.4167C12.6032 17.4167 12.4167 17.2301 12.4167 17C12.4167 16.7699 12.6032 16.5833 12.8333 16.5833C13.0635 16.5833 13.25 16.7699 13.25 17Z" stroke-width="1.5" stroke-linecap="round" stroke-linejoin="round" />
    </symbol>
    <symbol id="search-sto" width="20" height="20" viewBox="0 0 20 20" fill="none">
        <path d="M5.00002 5.00008L8.75002 8.75008M5.00002 5.00008H2.50002L1.66669 2.50008L2.50002 1.66675L5.00002 2.50008V5.00008ZM16.0492 2.28426L13.8595 4.47394C13.5295 4.80395 13.3645 4.96896 13.3027 5.15923C13.2483 5.3266 13.2483 5.50689 13.3027 5.67426C13.3645 5.86454 13.5295 6.02954 13.8595 6.35956L14.0572 6.55727C14.3872 6.88729 14.5522 7.05229 14.7425 7.11412C14.9099 7.1685 15.0902 7.1685 15.2575 7.11412C15.4478 7.05229 15.6128 6.88729 15.9428 6.55727L17.9911 4.50901C18.2117 5.04582 18.3334 5.63374 18.3334 6.25008C18.3334 8.78139 16.2813 10.8334 13.75 10.8334C13.4448 10.8334 13.1466 10.8036 12.8582 10.7467C12.453 10.6668 12.2505 10.6268 12.1277 10.6391C11.9971 10.6521 11.9328 10.6717 11.8171 10.7336C11.7083 10.7918 11.5992 10.9009 11.3809 11.1192L5.41669 17.0834C4.72633 17.7738 3.60704 17.7738 2.91669 17.0834C2.22633 16.393 2.22633 15.2738 2.91669 14.5834L8.88088 8.61922C9.09916 8.40094 9.20831 8.29179 9.26653 8.18299C9.32844 8.06731 9.34801 8.00297 9.36102 7.87242C9.37325 7.74963 9.33331 7.54707 9.25341 7.14195C9.19651 6.85346 9.16669 6.55526 9.16669 6.25008C9.16669 3.71878 11.2187 1.66675 13.75 1.66675C14.5879 1.66675 15.3733 1.8916 16.0492 2.28426ZM10.0001 12.5L14.5834 17.0833C15.2737 17.7737 16.393 17.7737 17.0833 17.0833C17.7737 16.393 17.7737 15.2737 17.0833 14.5833L13.3128 10.8128C13.0459 10.7876 12.7856 10.7394 12.534 10.6704C12.2098 10.5814 11.8541 10.646 11.6164 10.8837L10.0001 12.5Z" stroke-width="1.5" stroke-linecap="round" stroke-linejoin="round" />
    </symbol>
    <symbol id="search-complect" width="20" height="20" viewBox="0 0 20 20" fill="none">
         <path d="M13.0262 6.35956C12.6962 6.02954 12.5311 5.86454 12.4693 5.67426C12.4149 5.50689 12.4149 5.3266 12.4693 5.15923C12.5311 4.96896 12.6962 4.80395 13.0262 4.47394L15.3915 2.10863C14.7638 1.82477 14.067 1.66675 13.3334 1.66675C10.5719 1.66675 8.33336 3.90532 8.33336 6.66675C8.33336 7.07595 8.38252 7.47367 8.47524 7.85432C8.57454 8.26195 8.62419 8.46576 8.61538 8.59452C8.60615 8.72932 8.58605 8.80104 8.52389 8.92101C8.46451 9.0356 8.35074 9.14937 8.12321 9.3769L2.91669 14.5834C2.22634 15.2738 2.22634 16.3931 2.91669 17.0834C3.60705 17.7738 4.72634 17.7738 5.41669 17.0834L10.6232 11.8769C10.8507 11.6494 10.9645 11.5356 11.0791 11.4762C11.1991 11.4141 11.2708 11.394 11.4056 11.3847C11.5343 11.3759 11.7382 11.4256 12.1458 11.5249C12.5264 11.6176 12.9242 11.6667 13.3334 11.6667C16.0948 11.6667 18.3334 9.42817 18.3334 6.66675C18.3334 5.93307 18.1753 5.23631 17.8915 4.60863L15.5262 6.97394C15.1962 7.30395 15.0311 7.46896 14.8409 7.53078C14.6735 7.58517 14.4932 7.58517 14.3258 7.53078C14.1356 7.46896 13.9706 7.30395 13.6405 6.97394L13.0262 6.35956Z" stroke-width="1.5" stroke-linecap="round" stroke-linejoin="round" />
    </symbol>
    <symbol id="search-media"  width="20" height="20" viewBox="0 0 20 20" fill="none">
        <path d="M7.91667 7.47111C7.91667 7.07337 7.91667 6.8745 7.99978 6.76348C8.07222 6.66673 8.18309 6.6062 8.30365 6.59759C8.44199 6.58771 8.60927 6.69524 8.94384 6.91032L12.8777 9.43921C13.168 9.62585 13.3131 9.71917 13.3633 9.83783C13.4071 9.9415 13.4071 10.0585 13.3633 10.1622C13.3131 10.2808 13.168 10.3742 12.8777 10.5608L8.94384 13.0897C8.60927 13.3048 8.44199 13.4123 8.30365 13.4024C8.18309 13.3938 8.07222 13.3333 7.99978 13.2365C7.91667 13.1255 7.91667 12.9266 7.91667 12.5289V7.47111Z" stroke-width="1.5" stroke-linecap="round" stroke-linejoin="round" />
        <path d="M2.5 6.5C2.5 5.09987 2.5 4.3998 2.77248 3.86502C3.01217 3.39462 3.39462 3.01217 3.86502 2.77248C4.3998 2.5 5.09987 2.5 6.5 2.5H13.5C14.9001 2.5 15.6002 2.5 16.135 2.77248C16.6054 3.01217 16.9878 3.39462 17.2275 3.86502C17.5 4.3998 17.5 5.09987 17.5 6.5V13.5C17.5 14.9001 17.5 15.6002 17.2275 16.135C16.9878 16.6054 16.6054 16.9878 16.135 17.2275C15.6002 17.5 14.9001 17.5 13.5 17.5H6.5C5.09987 17.5 4.3998 17.5 3.86502 17.2275C3.39462 16.9878 3.01217 16.6054 2.77248 16.135C2.5 15.6002 2.5 14.9001 2.5 13.5V6.5Z" stroke-width="1.5" stroke-linecap="round" stroke-linejoin="round" />
    </symbol>
    <symbol id="search-parametres" width="16" height="16" viewBox="0 0 16 16" fill="none">
        <path d="M4 6L8 10L12 6" stroke-width="1.5" stroke-linecap="round" stroke-linejoin="round" />
    </symbol>
    <symbol id="search-reset" width="16" height="16" viewBox="0 0 16 16" fill="none">
        <path d="M11.3332 4.66675L4.6665 11.3334M4.6665 4.66675L11.3332 11.3334" stroke-width="1.5" stroke-linecap="round" stroke-linejoin="round" />
    </symbol>
    <symbol id="up-update" width="16" height="16" viewBox="0 0 16 16" fill="none">
        <path d="M10.6667 7.99998L8 5.33331M8 5.33331L5.33334 7.99998M8 5.33331V11.4666C8 12.3938 8 12.8574 8.36702 13.3764C8.61087 13.7212 9.31295 14.1469 9.73148 14.2036C10.3614 14.2889 10.6006 14.1641 11.0791 13.9146C13.2111 12.8024 14.6667 10.5712 14.6667 7.99998C14.6667 4.31808 11.6819 1.33331 8 1.33331C4.3181 1.33331 1.33334 4.31808 1.33334 7.99998C1.33334 10.4676 2.674 12.6221 4.66667 13.7748" stroke-width="1.5" stroke-linecap="round" stroke-linejoin="round" />
    </symbol>
    <symbol id="download-mini" width="16" height="16" viewBox="0 0 16 16" fill="none">
        <path d="M14 14H2M12 7.33333L8 11.3333M8 11.3333L4 7.33333M8 11.3333V2" stroke-width="1.5" stroke-linecap="round" stroke-linejoin="round"/>
    </symbol>
    <symbol id="download-big" width="20" height="20" viewBox="0 0 20 20" fill="none">
        <path d="M17.5 17.5H2.5M15 9.16667L10 14.1667M10 14.1667L5 9.16667M10 14.1667V2.5" stroke-width="1.5" stroke-linecap="round" stroke-linejoin="round" />
    </symbol>
  </defs>
</svg>