<svg width="32" height="32" viewBox="0 0 32 32" fill="none" xmlns="http://www.w3.org/2000/svg">
<path d="M29.3334 15.3333V19.4667C29.3334 22.4536 29.3334 23.9471 28.7521 25.088C28.2408 26.0915 27.4249 26.9074 26.4214 27.4187C25.2805 28 23.787 28 20.8001 28H11.2001C8.21313 28 6.71966 28 5.5788 27.4187C4.57527 26.9074 3.75937 26.0915 3.24805 25.088C2.66675 23.9471 2.66675 22.4536 2.66675 19.4667V12.5333C2.66675 9.54639 2.66675 8.05292 3.24805 6.91206C3.75937 5.90852 4.57527 5.09263 5.5788 4.5813C6.71966 4.00001 8.21313 4.00001 11.2001 4.00001H16.6667M25.3334 10.6667V2.66667M21.3334 6.66667H29.3334M21.3334 16C21.3334 18.9455 18.9456 21.3333 16.0001 21.3333C13.0546 21.3333 10.6667 18.9455 10.6667 16C10.6667 13.0545 13.0546 10.6667 16.0001 10.6667C18.9456 10.6667 21.3334 13.0545 21.3334 16Z" stroke="#A1A1A1" stroke-width="1.5" stroke-linecap="round" stroke-linejoin="round"/>
</svg>
