<svg width="48" height="48" viewBox="0 0 48 48" fill="none" xmlns="http://www.w3.org/2000/svg">
<path d="M10 26H16M4 18L8 20L10.5413 12.3761C11.0658 10.8025 11.3281 10.0157 11.8146 9.43396C12.2442 8.92027 12.7958 8.52264 13.419 8.27755C14.1247 8 14.9541 8 16.6129 8H31.3871C33.0459 8 33.8753 8 34.581 8.27755C35.2042 8.52264 35.7558 8.92027 36.1854 9.43396C36.6719 10.0157 36.9342 10.8025 37.4587 12.3761L40 20L44 18M32 26H38M13.6 20H34.4C37.7603 20 39.4405 20 40.7239 20.654C41.8529 21.2292 42.7708 22.1471 43.346 23.2761C44 24.5595 44 26.2397 44 29.6V35C44 35.9293 44 36.394 43.9231 36.7804C43.6075 38.3671 42.3671 39.6075 40.7804 39.9231C40.394 40 39.9293 40 39 40H38C35.7909 40 34 38.2091 34 36C34 35.4477 33.5523 35 33 35H15C14.4477 35 14 35.4477 14 36C14 38.2091 12.2091 40 10 40H9C8.07069 40 7.60603 40 7.21964 39.9231C5.63288 39.6075 4.39249 38.3671 4.07686 36.7804C4 36.394 4 35.9293 4 35V29.6C4 26.2397 4 24.5595 4.65396 23.2761C5.2292 22.1471 6.14708 21.2292 7.27606 20.654C8.55953 20 10.2397 20 13.6 20Z" stroke="#A1A1A1" stroke-width="3" stroke-linecap="round" stroke-linejoin="round"/>
</svg>
