<svg width="20" height="20" viewBox="0 0 20 20" fill="none" xmlns="http://www.w3.org/2000/svg">
<path d="M4.16667 10.8333H6.66667M1.66667 7.49992L3.33333 8.33325L4.3922 5.15664C4.61076 4.50096 4.72005 4.17312 4.92274 3.93074C5.10173 3.7167 5.3316 3.55102 5.59126 3.4489C5.8853 3.33325 6.23087 3.33325 6.92203 3.33325H13.078C13.7691 3.33325 14.1147 3.33325 14.4087 3.4489C14.6684 3.55102 14.8983 3.7167 15.0773 3.93074C15.28 4.17312 15.3892 4.50096 15.6078 5.15664L16.6667 8.33325L18.3333 7.49992M13.3333 10.8333H15.8333M5.66667 8.33325H14.3333C15.7335 8.33325 16.4335 8.33325 16.9683 8.60574C17.4387 8.84542 17.8212 9.22787 18.0609 9.69828C18.3333 10.2331 18.3333 10.9331 18.3333 12.3333V14.5833C18.3333 14.9705 18.3333 15.1641 18.3013 15.3251C18.1698 15.9862 17.653 16.503 16.9918 16.6346C16.8308 16.6666 16.6372 16.6666 16.25 16.6666H15.8333C14.9129 16.6666 14.1667 15.9204 14.1667 14.9999C14.1667 14.7698 13.9801 14.5833 13.75 14.5833H6.25C6.01988 14.5833 5.83333 14.7698 5.83333 14.9999C5.83333 15.9204 5.08714 16.6666 4.16667 16.6666H3.75C3.36279 16.6666 3.16918 16.6666 3.00818 16.6346C2.34703 16.503 1.8302 15.9862 1.69869 15.3251C1.66667 15.1641 1.66667 14.9705 1.66667 14.5833V12.3333C1.66667 10.9331 1.66667 10.2331 1.93915 9.69828C2.17884 9.22787 2.56129 8.84542 3.03169 8.60574C3.56647 8.33325 4.26654 8.33325 5.66667 8.33325Z" stroke="white" stroke-width="1.5" stroke-linecap="round" stroke-linejoin="round"/>
</svg>
