<svg width="48" height="48" viewBox="0 0 48 48" fill="none" xmlns="http://www.w3.org/2000/svg">
<path d="M41.3205 34.0003C38.6682 38.5939 34.2997 41.9457 29.1761 43.3185M41.3205 34.0003C43.9726 29.4066 44.6913 23.9475 43.3185 18.8239M41.3205 34.0003L27.849 26.2223M29.1761 43.3185C24.0525 44.6913 18.5934 43.9726 13.9997 41.3205M29.1761 43.3185L25.1502 28.293M13.9997 41.3205C9.40614 38.6682 6.05428 34.2997 4.68149 29.1761M13.9997 41.3205L21.7777 27.849M43.3185 18.8239C41.9457 13.7003 38.5939 9.33184 34.0003 6.67952M43.3185 18.8239L28.293 22.8497M34.0003 6.67952C29.4066 4.0274 23.9475 3.30869 18.8239 4.68149M34.0003 6.67952L26.2223 20.151M27.849 26.2223C27.2596 27.2431 26.2888 27.9879 25.1502 28.293M27.849 26.2223C28.4384 25.2015 28.5981 23.9883 28.293 22.8497M4.68149 29.1761C3.30869 24.0525 4.0274 18.5934 6.67952 13.9997M4.68149 29.1761L19.707 25.1502M6.67952 13.9997C9.33184 9.40614 13.7003 6.05428 18.8239 4.68149M6.67952 13.9997L20.151 21.7777M21.7777 27.849C22.7985 28.4384 24.0117 28.5981 25.1502 28.293M21.7777 27.849C20.7569 27.2596 20.0121 26.2888 19.707 25.1502M18.8239 4.68149L22.8497 19.707M20.151 21.7777C19.5616 22.7985 19.4019 24.0117 19.707 25.1502M20.151 21.7777C20.7404 20.7569 21.7112 20.0121 22.8497 19.707M26.2223 20.151C27.2431 20.7404 27.9879 21.7112 28.293 22.8497M26.2223 20.151C25.2015 19.5616 23.9883 19.4019 22.8497 19.707" stroke="#A1A1A1" stroke-width="3" stroke-linecap="round" stroke-linejoin="round"/>
</svg>
