<svg width="21" height="21" viewBox="0 0 21 21" fill="none" xmlns="http://www.w3.org/2000/svg">
<path d="M18.75 19.7515L15.2605 16.2618M15.2605 16.2618L15.2501 16.2515M15.2605 16.2618C16.7986 14.7237 17.75 12.5987 17.75 10.2515M15.2605 16.2618C13.7223 17.8001 11.5972 18.7515 9.25 18.7515C4.55558 18.7515 0.75 14.9459 0.75 10.2515C0.75 5.55707 4.55558 1.75149 9.25 1.75149M15.7473 1.6143C14.9475 0.670045 13.6139 0.416043 12.6119 1.2807C11.6099 2.14535 11.4688 3.59101 12.2557 4.61364C12.7597 5.26864 14.0505 6.48327 14.9134 7.27192C15.2001 7.53401 15.3435 7.66505 15.5153 7.7176C15.6629 7.76278 15.8316 7.76278 15.9793 7.7176C16.151 7.66505 16.2944 7.53401 16.5811 7.27192C17.4441 6.48327 18.7348 5.26864 19.2388 4.61364C20.0257 3.59101 19.9019 2.13626 18.8826 1.2807C17.8634 0.425138 16.547 0.670045 15.7473 1.6143Z" stroke="black" stroke-width="1.5" stroke-linecap="round" stroke-linejoin="round"/>
</svg>
