<svg width="20" height="20" viewBox="0 0 20 20" fill="none" xmlns="http://www.w3.org/2000/svg">
<path d="M10 20C15.5228 20 20 15.5228 20 10C20 4.47715 15.5228 0 10 0C4.47715 0 0 4.47715 0 10C0 15.5228 4.47715 20 10 20Z" fill="url(#paint0_linear_2003_3258)"/>
<path d="M3.72434 10.489C4.89334 9.84508 6.19826 9.30764 7.41751 8.76748C9.51509 7.88273 11.621 7.01331 13.7482 6.20389C14.162 6.06598 14.9057 5.93113 14.9786 6.54444C14.9386 7.41261 14.7744 8.27569 14.6617 9.13878C14.3758 11.0368 14.0453 12.9283 13.723 14.82C13.6119 15.4502 12.8226 15.7764 12.3175 15.3731C11.1037 14.5532 9.8805 13.7413 8.68217 12.9024C8.28963 12.5035 8.65364 11.9307 9.00421 11.6459C10.004 10.6606 11.0642 9.82352 12.0117 8.78735C12.2673 8.17018 11.5121 8.69031 11.263 8.8497C9.89436 9.79286 8.55919 10.7936 7.11619 11.6225C6.37911 12.0283 5.52003 11.6815 4.78328 11.4551C4.1227 11.1816 3.15469 10.9061 3.72428 10.4891L3.72434 10.489Z" fill="white"/>
<defs>
<linearGradient id="paint0_linear_2003_3258" x1="13.3342" y1="3.334" x2="8.33417" y2="15" gradientUnits="userSpaceOnUse">
<stop stop-color="#37AEE2"/>
<stop offset="1" stop-color="#1E96C8"/>
</linearGradient>
</defs>
</svg>
