<svg width="48" height="48" viewBox="0 0 48 48" fill="none" xmlns="http://www.w3.org/2000/svg">
<path d="M31.2627 15.2627C30.4707 14.4707 30.0747 14.0747 29.9263 13.618C29.7958 13.2163 29.7958 12.7837 29.9263 12.382C30.0747 11.9253 30.4707 11.5293 31.2627 10.7373L36.9394 5.06051C35.433 4.37925 33.7608 4 32 4C25.3725 4 20 9.37258 20 16C20 16.9821 20.1179 17.9366 20.3405 18.8502C20.5788 19.8285 20.698 20.3176 20.6768 20.6267C20.6547 20.9502 20.6064 21.1223 20.4572 21.4102C20.3147 21.6852 20.0417 21.9583 19.4956 22.5044L6.99996 35C5.34311 36.6569 5.34311 39.3431 6.99997 41C8.65682 42.6569 11.3431 42.6569 13 41L25.4956 28.5044C26.0417 27.9583 26.3147 27.6852 26.5897 27.5427C26.8777 27.3935 27.0498 27.3453 27.3733 27.3232C27.6823 27.302 28.1715 27.4212 29.1498 27.6595C30.0634 27.882 31.0179 28 32 28C38.6274 28 44 22.6274 44 16C44 14.2392 43.6207 12.5669 42.9394 11.0605L37.2627 16.7373C36.4707 17.5293 36.0747 17.9253 35.618 18.0737C35.2163 18.2042 34.7836 18.2042 34.3819 18.0737C33.9253 17.9253 33.5293 17.5293 32.7372 16.7373L31.2627 15.2627Z" stroke="#A1A1A1" stroke-width="3" stroke-linecap="round" stroke-linejoin="round"/>
</svg>
