<svg width="20" height="20" viewBox="0 0 20 20" fill="none" xmlns="http://www.w3.org/2000/svg">
<path d="M10 20C15.5228 20 20 15.5228 20 10C20 4.47715 15.5228 0 10 0C4.47715 0 0 4.47715 0 10C0 15.5228 4.47715 20 10 20Z" fill="#25D366"/>
<path d="M10.3293 3.6665C11.92 3.66719 13.4128 4.28674 14.5354 5.41064C15.658 6.53446 16.2762 8.02804 16.2756 9.6167C16.2743 12.8945 13.6079 15.5616 10.3293 15.563H10.3274C9.3322 15.5626 8.35412 15.3131 7.4856 14.8394L4.33325 15.6665L5.177 12.5854C4.65669 11.6837 4.38267 10.6607 4.38306 9.61279C4.38436 6.33427 7.05186 3.66657 10.3293 3.6665ZM10.3313 4.67041C7.60521 4.67051 5.38804 6.88787 5.38696 9.61279C5.38658 10.5466 5.64817 11.4558 6.14282 12.2427L6.26001 12.4302L5.76099 14.2534L7.6311 13.7632L7.81177 13.8706C8.57055 14.3209 9.44058 14.5587 10.3274 14.5591H10.3293C13.0534 14.5591 15.2706 12.3419 15.2717 9.6167C15.2722 8.29616 14.7585 7.05478 13.8254 6.12061C12.8923 5.1864 11.6514 4.67087 10.3313 4.67041ZM8.50903 6.87158C8.60019 6.87616 8.72245 6.8371 8.84302 7.12646C8.96677 7.42382 9.26364 8.15499 9.30103 8.22998C9.33818 8.30436 9.36324 8.39152 9.31372 8.49072C9.26437 8.58949 9.23934 8.65128 9.16528 8.73779C9.09102 8.8245 9.00946 8.93194 8.94263 8.99854C8.86829 9.07258 8.79077 9.15269 8.8772 9.30127C8.96384 9.44998 9.26188 9.93664 9.70337 10.3306C10.2707 10.8366 10.75 10.9935 10.8987 11.0679C11.0472 11.1423 11.1343 11.1299 11.2209 11.0308C11.308 10.9311 11.5916 10.5974 11.6907 10.4487C11.7897 10.3 11.8895 10.3249 12.0256 10.3745C12.163 10.4248 12.8918 10.7836 13.0403 10.8579C13.1887 10.9322 13.2882 10.9689 13.3254 11.0308C13.3626 11.0927 13.3623 11.3907 13.2385 11.7378C13.1146 12.0848 12.521 12.4012 12.2356 12.4438C11.9797 12.4821 11.6559 12.4983 11.3 12.3853C11.0844 12.3168 10.8076 12.2257 10.4534 12.0728C8.9629 11.4292 7.98859 9.92782 7.91431 9.82861C7.83908 9.72823 7.30786 9.02203 7.30786 8.2915C7.30797 7.56044 7.6922 7.20097 7.82837 7.05225C7.96434 6.90386 8.12485 6.8668 8.22388 6.8667C8.32291 6.8667 8.42247 6.86723 8.50903 6.87158Z" fill="#FDFDFD"/>
</svg>
