<svg width="48" height="48" viewBox="0 0 48 48" fill="none" xmlns="http://www.w3.org/2000/svg">
<path d="M24 44C35.0457 44 44 35.0457 44 24C44 12.9543 35.0457 4 24 4C12.9543 4 4 12.9543 4 24C4 35.0457 12.9543 44 24 44Z" stroke="#A1A1A1" stroke-width="3"/>
<path d="M24 36C30.6274 36 36 30.6274 36 24C36 17.3726 30.6274 12 24 12C17.3726 12 12 17.3726 12 24C12 30.6274 17.3726 36 24 36Z" stroke="#A1A1A1" stroke-width="3"/>
<path d="M24 28C26.2091 28 28 26.2091 28 24C28 21.7909 26.2091 20 24 20C21.7909 20 20 21.7909 20 24C20 26.2091 21.7909 28 24 28Z" stroke="#A1A1A1" stroke-width="3"/>
<path d="M12 24H20M28 24H36M18 34.392L22 27.464M26 20.536L30 13.608M30 34.392L26 27.464M22 20.536L18 13.608" stroke="#A1A1A1" stroke-width="3" stroke-linecap="round"/>
</svg>
