<svg width="31" height="31" viewBox="0 0 31 31" fill="none" xmlns="http://www.w3.org/2000/svg">
<mask id="mask0_15_489" style="mask-type:alpha" maskUnits="userSpaceOnUse" x="0" y="0" width="31" height="31">
<rect width="30.2969" height="30.2969" fill="#D9D9D9"/>
</mask>
<g mask="url(#mask0_15_489)">
<path d="M2.52466 27.7723V5.04964C2.52466 4.35534 2.77187 3.76097 3.2663 3.26654C3.76073 2.77212 4.35509 2.5249 5.0494 2.5249H25.2473C25.9416 2.5249 26.536 2.77212 27.0304 3.26654C27.5248 3.76097 27.7721 4.35534 27.7721 5.04964V20.1981C27.7721 20.8924 27.5248 21.4867 27.0304 21.9812C26.536 22.4756 25.9416 22.7228 25.2473 22.7228H7.57414L2.52466 27.7723ZM6.50112 20.1981H25.2473V5.04964H5.0494V21.6182L6.50112 20.1981Z" fill="white" fill-opacity="0.7"/>
</g>
</svg>
