<svg width="25" height="20" viewBox="0 0 25 20" fill="none" xmlns="http://www.w3.org/2000/svg">
<path d="M24.5681 2.39613C23.6448 2.79671 22.6683 3.06151 21.6691 3.18231C22.7233 2.55253 23.5133 1.56177 23.8925 0.393827C22.9019 0.98354 21.8174 1.39903 20.6864 1.62223C19.9303 0.802361 18.9236 0.25661 17.8239 0.0705741C16.7243 -0.115462 15.5941 0.0687401 14.6104 0.59429C13.6268 1.11984 12.8454 1.95701 12.3888 2.97451C11.9322 3.992 11.8262 5.13227 12.0875 6.21647C10.0845 6.11516 8.12522 5.59362 6.33693 4.68571C4.54863 3.77781 2.97133 2.50385 1.70749 0.94661C1.2642 1.72071 1.03127 2.59737 1.03186 3.48941C1.03029 4.31783 1.23359 5.13378 1.62365 5.86461C2.01372 6.59545 2.57845 7.2185 3.26756 7.67828C2.46661 7.65649 1.68278 7.44156 0.982725 7.05179V7.11321C0.988728 8.27392 1.39546 9.39693 2.13413 10.2923C2.87279 11.1876 3.89805 11.8004 5.03647 12.0268C4.59824 12.1602 4.14326 12.2305 3.68522 12.2357C3.36816 12.232 3.05188 12.2032 2.73935 12.1497C3.06354 13.1481 3.6909 14.0207 4.53414 14.646C5.37738 15.2713 6.39456 15.6181 7.44414 15.6384C5.6718 17.0329 3.48362 17.794 1.22841 17.8003C0.817794 17.8017 0.407506 17.7771 0 17.7266C2.30256 19.2133 4.98587 20.0025 7.72668 19.9992C9.61804 20.0188 11.4944 19.6614 13.246 18.9478C14.9977 18.2342 16.5897 17.1786 17.9288 15.8429C19.268 14.5071 20.3276 12.9179 21.0457 11.1681C21.7639 9.41822 22.1261 7.54282 22.1113 5.65141C22.1113 5.44258 22.1113 5.22147 22.1113 5.00035C23.0752 4.2815 23.9066 3.40026 24.5681 2.39613Z" fill="white"/>
</svg>
