<svg width="26" height="17" viewBox="0 0 26 17" fill="none" xmlns="http://www.w3.org/2000/svg">
<path d="M23.2886 0.825558H16.7544V2.64276H23.3144L23.2886 0.825558ZM21.9096 13.3269C21.4139 13.6554 20.8285 13.822 20.2341 13.8038C19.8407 13.8448 19.443 13.8041 19.066 13.6844C18.689 13.5646 18.3408 13.3683 18.0432 13.1078C17.4929 12.4839 17.2064 11.6706 17.2441 10.8395H25.776C25.8375 9.97416 25.7636 9.1045 25.5569 8.26193C25.357 7.46032 25.0071 6.7038 24.5258 6.03231C24.0414 5.38095 23.4157 4.84779 22.6957 4.47286C21.8947 4.07789 21.0112 3.8791 20.1181 3.8929C19.2783 3.88675 18.4456 4.04889 17.6694 4.36976C16.9587 4.66939 16.3146 5.1075 15.7749 5.65855C15.2367 6.22062 14.8199 6.88744 14.5505 7.61753C14.2615 8.40569 14.1174 9.23966 14.1252 10.0791C14.112 10.9305 14.2517 11.7774 14.5376 12.5794C14.7806 13.3057 15.1662 13.9761 15.6718 14.5513C16.1949 15.116 16.8379 15.5563 17.5534 15.8401C18.3513 16.1441 19.2 16.2928 20.0537 16.2783C21.2515 16.3156 22.4342 16.002 23.4561 15.3761C24.4883 14.6426 25.2315 13.5712 25.5569 12.3474H22.7086C22.5562 12.7523 22.2756 13.0962 21.9096 13.3269ZM17.489 8.01706C17.5893 7.69573 17.7558 7.39899 17.9778 7.14594C18.1998 6.89288 18.4723 6.68914 18.7778 6.54782C19.1824 6.3657 19.623 6.27757 20.0666 6.29007C20.387 6.2627 20.7096 6.30497 21.0121 6.41397C21.3146 6.52298 21.59 6.69614 21.8194 6.92158C22.2573 7.45763 22.5383 8.10442 22.6313 8.79033H17.2828C17.3036 8.52843 17.3512 8.26933 17.4246 8.01706H17.489ZM10.6713 7.39843C11.3272 7.12529 11.8972 6.68 12.3209 6.10963C12.7104 5.5039 12.9039 4.79291 12.8751 4.07333C12.9004 3.41712 12.7724 2.76405 12.5013 2.16591C12.2736 1.64771 11.9081 1.20192 11.4445 0.87711C10.9531 0.53941 10.3949 0.310893 9.80776 0.206935C9.11286 0.061189 8.40409 -0.00795952 7.69413 0.000727341H0V16.2138H7.86167C8.57913 16.2143 9.29373 16.1234 9.98819 15.9432C10.6464 15.7729 11.2701 15.4894 11.8312 15.1054C12.3747 14.7287 12.8173 14.2242 13.12 13.6362C13.4549 12.9787 13.6189 12.2473 13.5968 11.5097C13.6212 10.5956 13.3648 9.69599 12.8622 8.9321C12.3217 8.16388 11.52 7.61871 10.6068 7.39843H10.6713ZM3.56997 2.77164H6.90796C7.21462 2.77127 7.52076 2.79714 7.82301 2.84897C8.10132 2.89022 8.3686 2.98661 8.60918 3.13251C8.84161 3.26398 9.02994 3.46129 9.15047 3.69958C9.29974 3.98533 9.37087 4.30544 9.35668 4.62751C9.38069 4.90491 9.33827 5.18404 9.23293 5.44178C9.1276 5.69952 8.96237 5.92846 8.75094 6.10963C8.28971 6.42672 7.73779 6.58505 7.17861 6.56071H3.56997V2.77164ZM9.80776 12.3603C9.67535 12.623 9.47511 12.8455 9.2278 13.0047C8.97043 13.1648 8.68685 13.2782 8.39008 13.3398C8.06022 13.4136 7.7228 13.4482 7.38482 13.4429H3.51842V8.99654H7.38482C8.04831 8.96749 8.70354 9.15276 9.25358 9.52495C9.50207 9.74795 9.69456 10.0263 9.81547 10.3376C9.93638 10.6488 9.9823 10.9841 9.94953 11.3164C9.98437 11.6707 9.93582 12.0282 9.80776 12.3603Z" fill="white"/>
</svg>
