<svg width="160" height="43" viewBox="0 0 160 43" fill="none" xmlns="http://www.w3.org/2000/svg">
<path d="M69.3982 26.065H62.4142L61.2142 29.473H58.3582L64.3342 12.769H67.5022L73.4782 29.473H70.5982L69.3982 26.065ZM68.6302 23.833L65.9182 16.081L63.1822 23.833H68.6302ZM82.7486 16.033C83.7886 16.033 84.7166 16.249 85.5326 16.681C86.3646 17.113 87.0126 17.753 87.4766 18.601C87.9406 19.449 88.1726 20.473 88.1726 21.673V29.473H85.4606V22.081C85.4606 20.897 85.1646 19.993 84.5726 19.369C83.9806 18.729 83.1726 18.409 82.1486 18.409C81.1246 18.409 80.3086 18.729 79.7006 19.369C79.1086 19.993 78.8126 20.897 78.8126 22.081V29.473H76.0766V16.249H78.8126V17.761C79.2606 17.217 79.8286 16.793 80.5166 16.489C81.2206 16.185 81.9646 16.033 82.7486 16.033ZM107.953 26.065H100.969L99.7689 29.473H96.9129L102.889 12.769H106.057L112.033 29.473H109.153L107.953 26.065ZM107.185 23.833L104.473 16.081L101.737 23.833H107.185ZM117.367 18.169C117.767 17.497 118.295 16.977 118.951 16.609C119.623 16.225 120.415 16.033 121.327 16.033V18.865H120.631C119.559 18.865 118.743 19.137 118.183 19.681C117.639 20.225 117.367 21.169 117.367 22.513V29.473H114.631V16.249H117.367V18.169ZM127.034 18.481V25.801C127.034 26.297 127.146 26.657 127.37 26.881C127.61 27.089 128.01 27.193 128.57 27.193H130.25V29.473H128.09C126.858 29.473 125.914 29.185 125.258 28.609C124.602 28.033 124.274 27.097 124.274 25.801V18.481H122.714V16.249H124.274V12.961H127.034V16.249H130.25V18.481H127.034ZM134.164 14.497C133.668 14.497 133.252 14.329 132.916 13.993C132.58 13.657 132.412 13.241 132.412 12.745C132.412 12.249 132.58 11.833 132.916 11.497C133.252 11.161 133.668 10.993 134.164 10.993C134.644 10.993 135.052 11.161 135.388 11.497C135.724 11.833 135.892 12.249 135.892 12.745C135.892 13.241 135.724 13.657 135.388 13.993C135.052 14.329 134.644 14.497 134.164 14.497ZM135.508 16.249V29.473H132.772V16.249H135.508ZM143.9 29.689C142.86 29.689 141.924 29.505 141.092 29.137C140.276 28.753 139.628 28.241 139.148 27.601C138.668 26.945 138.412 26.217 138.38 25.417H141.212C141.26 25.977 141.524 26.449 142.004 26.833C142.5 27.201 143.116 27.385 143.852 27.385C144.62 27.385 145.212 27.241 145.628 26.953C146.06 26.649 146.276 26.265 146.276 25.801C146.276 25.305 146.036 24.937 145.556 24.697C145.092 24.457 144.348 24.193 143.324 23.905C142.332 23.633 141.524 23.369 140.9 23.113C140.276 22.857 139.732 22.465 139.268 21.937C138.82 21.409 138.596 20.713 138.596 19.849C138.596 19.145 138.804 18.505 139.22 17.929C139.636 17.337 140.228 16.873 140.996 16.537C141.78 16.201 142.676 16.033 143.684 16.033C145.188 16.033 146.396 16.417 147.308 17.185C148.236 17.937 148.732 18.969 148.796 20.281H146.06C146.012 19.689 145.772 19.217 145.34 18.865C144.908 18.513 144.324 18.337 143.588 18.337C142.868 18.337 142.316 18.473 141.932 18.745C141.548 19.017 141.356 19.377 141.356 19.825C141.356 20.177 141.484 20.473 141.74 20.713C141.996 20.953 142.308 21.145 142.676 21.289C143.044 21.417 143.588 21.585 144.308 21.793C145.268 22.049 146.052 22.313 146.66 22.585C147.284 22.841 147.82 23.225 148.268 23.737C148.716 24.249 148.948 24.929 148.964 25.777C148.964 26.529 148.756 27.201 148.34 27.793C147.924 28.385 147.332 28.849 146.564 29.185C145.812 29.521 144.924 29.689 143.9 29.689ZM155.112 18.481V25.801C155.112 26.297 155.224 26.657 155.448 26.881C155.688 27.089 156.088 27.193 156.648 27.193H158.328V29.473H156.168C154.936 29.473 153.992 29.185 153.336 28.609C152.68 28.033 152.352 27.097 152.352 25.801V18.481H150.792V16.249H152.352V12.961H155.112V16.249H158.328V18.481H155.112Z" fill="white"/>
<mask id="mask0_3_7" style="mask-type:alpha" maskUnits="userSpaceOnUse" x="0" y="0" width="43" height="43">
<rect width="42.946" height="42.946" fill="#D9D9D9"/>
</mask>
<g mask="url(#mask0_3_7)">
<path d="M21.473 28.5551L14.3909 21.473L21.473 14.3909L28.5551 21.473L21.473 28.5551ZM23.7545 36.8893C23.4494 37.1944 23.0961 37.4279 22.6947 37.5898C22.2933 37.7515 21.8861 37.8323 21.473 37.8323C21.0599 37.8323 20.6527 37.7515 20.2513 37.5898C19.8498 37.4279 19.4966 37.1944 19.1915 36.8893L6.00483 23.7031C5.71137 23.4093 5.48366 23.0617 5.32172 22.6603C5.16008 22.2589 5.07925 21.8574 5.07925 21.456C5.07925 21.0543 5.16008 20.6527 5.32172 20.2513C5.48366 19.8499 5.71137 19.5024 6.00483 19.2089L19.1642 6.04957C19.4875 5.72628 19.8452 5.48366 20.2374 5.32172C20.6299 5.16008 21.0417 5.07925 21.473 5.07925C21.9042 5.07925 22.3161 5.16008 22.7086 5.32172C23.1008 5.48366 23.4585 5.72628 23.7818 6.04957L36.9412 19.2089C37.2346 19.5024 37.4623 19.8499 37.6243 20.2513C37.7859 20.6527 37.8667 21.0543 37.8667 21.456C37.8667 21.8574 37.7859 22.2589 37.6243 22.6603C37.4623 23.0617 37.2346 23.4093 36.9412 23.7031L23.7545 36.8893ZM21.7656 34.0472L34.0642 21.7481C34.1445 21.6679 34.1846 21.5705 34.1846 21.456C34.1846 21.3412 34.1445 21.2437 34.0642 21.1634L21.7656 8.86432C21.6853 8.7841 21.5878 8.74682 21.473 8.75248C21.3582 8.75845 21.2607 8.80154 21.1804 8.88177L8.86432 21.1979C8.78409 21.2781 8.74681 21.3698 8.75248 21.473C8.75844 21.5762 8.80154 21.6679 8.88177 21.7481L21.1804 34.0472C21.2607 34.1275 21.3582 34.1676 21.473 34.1676C21.5878 34.1676 21.6853 34.1275 21.7656 34.0472Z" fill="white"/>
</g>
</svg>
