<svg width="37" height="37" viewBox="0 0 37 37" fill="none" xmlns="http://www.w3.org/2000/svg">
<mask id="mask0_13_98" style="mask-type:alpha" maskUnits="userSpaceOnUse" x="0" y="0" width="37" height="37">
<rect width="36.9463" height="36.9463" fill="#D9D9D9"/>
</mask>
<g mask="url(#mask0_13_98)">
<path d="M6.50409 28.21C5.42649 26.8759 4.58621 25.3813 3.98327 23.7264C3.38033 22.0716 3.07886 20.3205 3.07886 18.4731C3.07886 14.445 4.40661 10.9813 7.06213 8.08199C9.71764 5.18274 13.0082 3.54068 16.9337 3.15582V6.23468C13.8549 6.59388 11.2891 7.92805 9.23657 10.2372C7.184 12.5463 6.15771 15.2917 6.15771 18.4731C6.15771 19.9099 6.3758 21.2634 6.81197 22.5334C7.24814 23.8034 7.87674 24.9644 8.69777 26.0163L6.50409 28.21ZM18.4731 33.8674C16.6002 33.8674 14.8298 33.5595 13.1621 32.9438C11.4944 32.328 9.99346 31.4685 8.65929 30.3652L10.8145 28.1715C11.8664 28.9926 13.0402 29.634 14.3359 30.0958C15.6316 30.5577 17.0107 30.7886 18.4731 30.7886C19.9356 30.7886 21.3147 30.5577 22.6104 30.0958C23.906 29.634 25.0799 28.9926 26.1318 28.1715L28.287 30.3652C26.9528 31.4685 25.4519 32.328 23.7842 32.9438C22.1165 33.5595 20.3461 33.8674 18.4731 33.8674ZM30.4422 28.21L28.2485 26.0163C29.0695 24.9644 29.6981 23.8034 30.1343 22.5334C30.5705 21.2634 30.7886 19.9099 30.7886 18.4731C30.7886 15.2917 29.7623 12.5463 27.7097 10.2372C25.6571 7.92805 23.0914 6.59388 20.0126 6.23468V3.15582C23.9381 3.54068 27.2286 5.18274 29.8842 8.08199C32.5397 10.9813 33.8674 14.445 33.8674 18.4731C33.8674 20.3205 33.566 22.0716 32.963 23.7264C32.3601 25.3813 31.5198 26.8759 30.4422 28.21ZM14.6246 25.4006V11.5457L25.4006 18.4731L14.6246 25.4006Z" fill="#FF6F00"/>
</g>
</svg>
