<svg xmlns="http://www.w3.org/2000/svg" version="1.1" xmlns:xlink="http://www.w3.org/1999/xlink" width="43" height="24"><svg width="43" height="24" viewBox="0 0 43 24" fill="none" xmlns="http://www.w3.org/2000/svg">
<path d="M42.4352 2.5333C42.4352 2.00905 40.2266 1.5597 37.1906 1.41673C37.0796 1.41132 36.9721 1.37622 36.8795 1.31512C36.7868 1.25401 36.7124 1.16916 36.6641 1.0695C36.5169 0.75033 36.2808 0.47991 35.9839 0.290338C35.6869 0.100765 35.3416 0 34.9889 0C34.6361 0 34.2908 0.100765 33.9938 0.290338C33.6969 0.47991 33.4608 0.75033 33.3136 1.0695C33.2179 1.27375 33.0127 1.40311 32.7871 1.41673C29.7511 1.56651 27.5425 2.00905 27.5425 2.5333C27.5425 3.09158 30.0041 3.55455 33.2999 3.6771L33.5392 6.74766C33.5392 6.74766 33.5461 6.7817 33.5529 6.80213C32.1033 7.14935 30.6605 7.39445 29.2109 7.58509C29.04 7.10169 28.5819 6.74766 28.0417 6.74766H26.5169C25.3476 5.12047 23.4399 4.02432 21.2176 4.02432C18.9953 4.02432 17.0876 5.12047 15.9183 6.74766H14.3935C13.8533 6.74766 13.3952 7.09489 13.2242 7.57828C11.7746 7.38084 10.325 7.11531 8.8891 6.7817C8.8891 6.76809 8.8891 6.75447 8.89594 6.74766L9.13526 3.6771C12.4311 3.55455 14.8927 3.09158 14.8927 2.5333C14.8927 2.00905 12.6841 1.5597 9.64809 1.41673C9.53708 1.41132 9.4296 1.37622 9.33694 1.31512C9.24428 1.25401 9.16989 1.16916 9.12158 1.0695C8.97437 0.75033 8.73829 0.47991 8.44134 0.290338C8.1444 0.100765 7.79907 0 7.44633 0C7.09359 0 6.74826 0.100765 6.45131 0.290338C6.15437 0.47991 5.91828 0.75033 5.77108 1.0695C5.67535 1.27375 5.47021 1.40311 5.24457 1.41673C2.2086 1.56651 0 2.00905 0 2.5333C0 3.09158 2.4616 3.55455 5.7574 3.6771L5.98988 6.63873C4.54712 7.19701 3.52145 8.80378 4.02744 10.431C4.13803 10.8293 4.32653 11.202 4.58212 11.5276C4.83772 11.8532 5.15538 12.1253 5.51687 12.3284C5.87837 12.5314 6.27658 12.6614 6.68865 12.7109C7.10072 12.7603 7.51855 12.7282 7.91813 12.6165C9.6686 12.1739 11.4396 11.8403 13.2106 11.5952C13.3815 12.0786 13.8396 12.4258 14.3798 12.4258H14.9542L14.9747 12.5211C15.0157 12.6913 15.0704 12.8479 15.132 13.0045C15.132 13.0045 10.5644 16.2453 10.5507 16.2589C10.3182 16.4972 10.1746 16.824 10.1746 17.1848V22.6656C10.2225 24.4289 12.814 24.4221 12.855 22.6656V17.784L17.4021 15.0198C17.6825 15.0947 17.9765 15.1492 18.2773 15.1492H24.11C24.4108 15.1492 24.7049 15.0947 24.9852 15.0198L29.5323 17.784V22.6656C29.5323 23.4009 30.134 24 30.8725 24C31.611 24 32.2127 23.4009 32.2127 22.6656V17.1848C32.2127 16.8376 32.0691 16.4768 31.7956 16.2181L27.2553 13.0045C27.3169 12.8479 27.3716 12.6913 27.4126 12.5211L27.4331 12.4258H28.0075C28.5545 12.4258 29.0126 12.0718 29.1768 11.5884C30.9477 11.8131 32.7256 12.1263 34.4965 12.6165C35.0299 12.7594 35.6179 12.773 36.1923 12.6165C39.4813 11.5816 38.9548 7.48296 36.3974 6.61149L36.6299 3.67029C39.9257 3.54774 42.3873 3.08477 42.3873 2.52649L42.4352 2.5333Z" fill="#252525"></path>
</svg><style>@media (prefers-color-scheme: light) { :root { filter: none; } }
@media (prefers-color-scheme: dark) { :root { filter: none; } }
</style></svg>