<svg width="24" height="24" viewBox="0 0 24 24" fill="none" xmlns="http://www.w3.org/2000/svg">
<path d="M13.6967 12L18.8482 6.84844C19.317 6.37969 19.317 5.62032 18.8482 5.15157C18.3795 4.68282 17.6201 4.68282 17.1514 5.15157L11.9998 10.3031L6.84824 5.15157C6.37949 4.68282 5.62012 4.68282 5.15137 5.15157C4.68262 5.62032 4.68262 6.37969 5.15137 6.84844L10.3029 12L5.15137 17.1516C4.68262 17.6203 4.68262 18.3797 5.15137 18.8484C5.38574 19.0828 5.69277 19.2 5.9998 19.2C6.30684 19.2 6.61387 19.0828 6.84824 18.8484L11.9998 13.6969L17.1514 18.8484C17.3857 19.0828 17.6928 19.2 17.9998 19.2C18.3068 19.2 18.6139 19.0828 18.8482 18.8484C19.317 18.3797 19.317 17.6203 18.8482 17.1516L13.6967 12Z" fill="#252525"/>
</svg>
