<svg width="24" height="24" viewBox="0 0 24 24" fill="none" xmlns="http://www.w3.org/2000/svg">
<path d="M21 5.99999C21 5.85605 20.9585 5.71516 20.8806 5.59414C20.8026 5.47312 20.6915 5.37709 20.5605 5.31749L12.3105 1.56749C12.2131 1.52286 12.1072 1.49976 12 1.49976C11.8928 1.49976 11.7869 1.52286 11.6895 1.56749L3.4395 5.31749C3.30856 5.37715 3.19754 5.47322 3.1197 5.59423C3.04185 5.71525 3.00046 5.8561 3.00046 5.99999C3.00046 6.14389 3.04185 6.28474 3.1197 6.40576C3.19754 6.52677 3.30856 6.62284 3.4395 6.68249L11.6895 10.4325C11.7869 10.4771 11.8928 10.5002 12 10.5002C12.1072 10.5002 12.2131 10.4771 12.3105 10.4325L20.5605 6.68249C20.6915 6.6229 20.8026 6.52687 20.8806 6.40585C20.9585 6.28483 21 6.14394 21 5.99999ZM10.8105 12.0675L2.5605 8.31749C2.44627 8.26554 2.32083 8.24308 2.19567 8.25217C2.07052 8.26126 1.94964 8.30161 1.84412 8.36952C1.73859 8.43743 1.6518 8.53074 1.59168 8.64088C1.53156 8.75103 1.50003 8.87451 1.5 8.99999V18C1.50004 18.1439 1.5415 18.2848 1.61943 18.4058C1.69736 18.5269 1.80847 18.6229 1.9395 18.6825L10.1895 22.4325C10.3038 22.4847 10.4294 22.5072 10.5547 22.4981C10.68 22.4889 10.801 22.4483 10.9065 22.38C11.0118 22.3121 11.0985 22.2188 11.1585 22.1087C11.2185 21.9987 11.25 21.8753 11.25 21.75V12.75C11.25 12.6061 11.2085 12.4652 11.1306 12.3441C11.0526 12.2231 10.9415 12.1271 10.8105 12.0675ZM22.1565 8.36999C22.051 8.30184 21.93 8.26131 21.8047 8.25213C21.6794 8.24296 21.5538 8.26543 21.4395 8.31749L13.1895 12.0675C13.0585 12.1271 12.9474 12.2231 12.8694 12.3441C12.7915 12.4652 12.75 12.6061 12.75 12.75V21.75C12.75 21.8755 12.7816 21.999 12.8417 22.1091C12.9018 22.2193 12.9886 22.3126 13.0941 22.3805C13.1996 22.4484 13.3205 22.4887 13.4457 22.4978C13.5708 22.5069 13.6963 22.4844 13.8105 22.4325L22.0605 18.6825C22.1915 18.6229 22.3026 18.5269 22.3806 18.4058C22.4585 18.2848 22.5 18.1439 22.5 18V8.99999C22.5 8.87464 22.4685 8.7513 22.4085 8.64125C22.3485 8.53119 22.2618 8.43793 22.1565 8.36999Z" fill="white"/>
</svg>
