<svg width="24" height="24" viewBox="0 0 24 24" fill="none" xmlns="http://www.w3.org/2000/svg">
<path d="M15.2537 15.1028H13.3811V9.62011C15.4177 9.02203 16.9091 7.13662 16.9091 4.90908C16.9091 2.20219 14.7069 0 12 0C9.29307 0 7.09084 2.20219 7.09084 4.90912C7.09084 7.13662 8.58221 9.02208 10.6188 9.62016V15.1028H8.74618C8.35787 15.1028 8.04306 15.4177 8.04306 15.806V17.4413H15.9569V15.806C15.9569 15.4177 15.6421 15.1028 15.2537 15.1028ZM19.6098 18.8476H4.39014C3.61351 18.8476 2.98389 19.4772 2.98389 20.2538V22.5938C2.98389 23.3704 3.61346 24 4.39014 24H19.6098C20.3865 24 21.016 23.3704 21.016 22.5938V20.2538C21.016 19.4772 20.3865 18.8476 19.6098 18.8476Z" fill="white"/>
</svg>
