<svg width="24" height="24" viewBox="0 0 24 24" fill="none" xmlns="http://www.w3.org/2000/svg">
<path d="M21.339 8.879C21.1512 8.87914 20.9711 8.95379 20.8383 9.08656C20.7054 9.21933 20.6307 9.39937 20.6304 9.58718V14.6726C20.63 14.7656 20.6481 14.8579 20.6836 14.9439C20.7191 15.0299 20.7713 15.1081 20.8373 15.1737C20.9364 15.2727 21.0627 15.3401 21.2001 15.3674C21.3375 15.3947 21.4799 15.3807 21.6093 15.3272C21.7388 15.2736 21.8495 15.1829 21.9275 15.0665C22.0054 14.9501 22.0471 14.8132 22.0474 14.6731V9.58718C22.0471 9.3994 21.9724 9.21939 21.8396 9.08663C21.7068 8.95386 21.5268 8.87919 21.339 8.879ZM18.6705 5.54393C18.4826 5.54413 18.3025 5.61884 18.1696 5.75167C18.0368 5.88451 17.962 6.06462 17.9618 6.2525V17.675C17.9621 17.8628 18.0368 18.0429 18.1697 18.1757C18.3026 18.3085 18.4827 18.3832 18.6705 18.3834C18.8583 18.3831 19.0383 18.3084 19.171 18.1756C19.3037 18.0428 19.3784 17.8628 19.3785 17.675V6.2525C19.3784 6.0647 19.3038 5.88462 19.1711 5.75178C19.0383 5.61893 18.8583 5.54418 18.6705 5.54393ZM16.0022 2.2085C15.8144 2.20874 15.6343 2.28349 15.5016 2.41633C15.3688 2.54916 15.2942 2.72925 15.294 2.91706V21.0106C15.2942 21.1984 15.3688 21.3784 15.5016 21.5112C15.6344 21.644 15.8144 21.7187 16.0022 21.7188C16.19 21.7187 16.3701 21.644 16.5029 21.5112C16.6358 21.3785 16.7105 21.1984 16.7108 21.0106V2.91706C16.7106 2.7292 16.6358 2.54909 16.503 2.41625C16.3702 2.28341 16.1901 2.20869 16.0022 2.2085ZM13.3339 4.37562C13.1461 4.37587 12.9661 4.45058 12.8333 4.58337C12.7005 4.71617 12.6258 4.8962 12.6255 5.084V18.8431C12.6257 19.0309 12.7003 19.2109 12.833 19.3437C12.9658 19.4765 13.1457 19.5512 13.3335 19.5515C13.5213 19.5513 13.7014 19.4766 13.8343 19.3438C13.9671 19.211 14.0418 19.031 14.0421 18.8431L14.0424 5.084C14.0422 4.89615 13.9675 4.71606 13.8347 4.58325C13.7018 4.45044 13.5217 4.37577 13.3339 4.37562ZM10.6659 7.33587C10.4781 7.33607 10.298 7.41076 10.1652 7.54356C10.0324 7.67635 9.95763 7.85642 9.95739 8.04425V15.8831C9.95763 16.0709 10.0324 16.2509 10.1652 16.3837C10.298 16.5165 10.4781 16.5912 10.6659 16.5914C10.8538 16.5912 11.0338 16.5164 11.1666 16.3836C11.2994 16.2508 11.3741 16.0707 11.3743 15.8829V8.04425C11.3741 7.85645 11.2994 7.67642 11.1666 7.54362C11.0338 7.41083 10.8537 7.33612 10.6659 7.33587ZM7.99764 2.87562C7.80984 2.87587 7.62981 2.95058 7.49701 3.08337C7.36422 3.21617 7.28951 3.3962 7.28926 3.584V20.3431C7.28926 20.7337 7.60707 21.0515 7.99764 21.0515C8.3882 21.0515 8.70582 20.7337 8.70582 20.3431V3.58456C8.70621 3.49143 8.6881 3.39915 8.65253 3.31308C8.61696 3.22702 8.56465 3.14887 8.49864 3.08318C8.43303 3.01714 8.35495 2.96479 8.26895 2.92916C8.18295 2.89353 8.09073 2.87533 7.99764 2.87562ZM5.32914 6.21087C5.14136 6.21112 4.96134 6.28584 4.82858 6.41864C4.69582 6.55143 4.62115 6.73147 4.62095 6.91925V17.0081C4.62115 17.1958 4.69582 17.3759 4.82858 17.5087C4.96134 17.6415 5.14136 17.7162 5.32914 17.7164C5.517 17.7162 5.69711 17.6415 5.82995 17.5087C5.96278 17.3758 6.0375 17.1957 6.0377 17.0079V6.91925C6.03745 6.73142 5.96271 6.55135 5.82988 6.41856C5.69705 6.28576 5.51697 6.21107 5.32914 6.21087ZM2.6612 8.87918C2.47337 8.87938 2.29329 8.95407 2.16046 9.08687C2.02762 9.21967 1.95288 9.39973 1.95264 9.58756V14.3397C1.95284 14.5276 2.02755 14.7077 2.16039 14.8406C2.29323 14.9734 2.47334 15.0481 2.6612 15.0483C2.84901 15.0481 3.02905 14.9733 3.16182 14.8405C3.29459 14.7076 3.36924 14.5276 3.36939 14.3397V9.58793C3.36973 9.4948 3.35158 9.40252 3.31598 9.31645C3.28038 9.23038 3.22805 9.15224 3.16201 9.08656C3.09639 9.0206 3.01834 8.96831 2.93237 8.93271C2.84641 8.89712 2.75424 8.87892 2.6612 8.87918Z" fill="white"/>
</svg>
