<svg width="32" height="32" viewBox="0 0 32 32" fill="none" xmlns="http://www.w3.org/2000/svg">
<path d="M26.2637 0H5.42652C4.34098 0 3.29991 0.431228 2.53231 1.19882C1.76472 1.96641 1.3335 3.00749 1.3335 4.09302V27.907C1.3335 28.9925 1.76472 30.0336 2.53231 30.8012C3.29991 31.5688 4.34098 32 5.42652 32H26.2637C27.3493 32 28.3903 31.5688 29.1579 30.8012C29.9255 30.0336 30.3568 28.9925 30.3568 27.907V4.09302C30.3568 3.00749 29.9255 1.96641 29.1579 1.19882C28.3903 0.431228 27.3493 0 26.2637 0ZM13.6572 23.1144L9.89164 26.8354C9.68233 27.0444 9.39861 27.1618 9.1028 27.1618C8.80698 27.1618 8.52326 27.0444 8.31396 26.8354L6.0814 24.6028C5.88422 24.3912 5.77688 24.1113 5.78198 23.8221C5.78708 23.5329 5.90424 23.257 6.10876 23.0525C6.31328 22.8479 6.5892 22.7308 6.87839 22.7257C7.16759 22.7206 7.44747 22.8279 7.65908 23.0251L9.14745 24.5135L12.1242 21.5367C12.2264 21.4271 12.3496 21.3391 12.4866 21.2781C12.6235 21.2171 12.7713 21.1843 12.9212 21.1816C13.0711 21.179 13.2199 21.2066 13.3589 21.2627C13.4979 21.3188 13.6242 21.4024 13.7302 21.5084C13.8362 21.6144 13.9198 21.7407 13.9759 21.8797C14.0321 22.0187 14.0596 22.1675 14.057 22.3174C14.0543 22.4673 14.0215 22.6151 13.9605 22.7521C13.8995 22.889 13.8115 23.0122 13.7019 23.1144H13.6572ZM13.6572 14.9284L9.89164 18.6493C9.68233 18.8583 9.39861 18.9758 9.1028 18.9758C8.80698 18.9758 8.52326 18.8583 8.31396 18.6493L6.0814 16.4167C5.88422 16.2051 5.77688 15.9253 5.78198 15.6361C5.78708 15.3469 5.90424 15.0709 6.10876 14.8664C6.31328 14.6619 6.5892 14.5447 6.87839 14.5396C7.16759 14.5345 7.44747 14.6419 7.65908 14.8391L9.14745 16.3274L12.1242 13.3507C12.3358 13.1535 12.6157 13.0462 12.9049 13.0513C13.1941 13.0564 13.47 13.1735 13.6745 13.3781C13.879 13.5826 13.9962 13.8585 14.0013 14.1477C14.0064 14.4369 13.899 14.7168 13.7019 14.9284H13.6572ZM13.6572 6.74233L9.89164 10.4633C9.68698 10.6463 9.42203 10.7475 9.14745 10.7475C8.87287 10.7475 8.60792 10.6463 8.40326 10.4633L6.17071 8.2307C6.01611 8.0179 5.94162 7.75734 5.96037 7.49498C5.97913 7.23262 6.08993 6.98531 6.27324 6.79667C6.45654 6.60803 6.70056 6.49018 6.96228 6.4639C7.22399 6.43761 7.48658 6.50459 7.70373 6.65302L9.1921 8.14139L12.1688 5.16465C12.3805 4.96747 12.6603 4.86013 12.9495 4.86523C13.2387 4.87033 13.5146 4.98748 13.7192 5.192C13.9237 5.39653 14.0408 5.67245 14.0459 5.96164C14.051 6.25083 13.9437 6.53072 13.7465 6.74233H13.6572ZM24.7754 25.6744H17.3335C17.0374 25.6744 16.7535 25.5568 16.5442 25.3475C16.3348 25.1381 16.2172 24.8542 16.2172 24.5581C16.2172 24.2621 16.3348 23.9782 16.5442 23.7688C16.7535 23.5595 17.0374 23.4419 17.3335 23.4419H24.7754C25.0714 23.4419 25.3553 23.5595 25.5647 23.7688C25.774 23.9782 25.8916 24.2621 25.8916 24.5581C25.8916 24.8542 25.774 25.1381 25.5647 25.3475C25.3553 25.5568 25.0714 25.6744 24.7754 25.6744ZM24.7754 17.4884H17.3335C17.0374 17.4884 16.7535 17.3708 16.5442 17.1614C16.3348 16.9521 16.2172 16.6681 16.2172 16.3721C16.2172 16.076 16.3348 15.7921 16.5442 15.5828C16.7535 15.3734 17.0374 15.2558 17.3335 15.2558H24.7754C25.0714 15.2558 25.3553 15.3734 25.5647 15.5828C25.774 15.7921 25.8916 16.076 25.8916 16.3721C25.8916 16.6681 25.774 16.9521 25.5647 17.1614C25.3553 17.3708 25.0714 17.4884 24.7754 17.4884ZM24.7754 9.30233H17.3335C17.0374 9.30233 16.7535 9.18472 16.5442 8.97538C16.3348 8.76603 16.2172 8.4821 16.2172 8.18605C16.2172 7.88999 16.3348 7.60606 16.5442 7.39672C16.7535 7.18738 17.0374 7.06977 17.3335 7.06977H24.7754C25.0714 7.06977 25.3553 7.18738 25.5647 7.39672C25.774 7.60606 25.8916 7.88999 25.8916 8.18605C25.8916 8.4821 25.774 8.76603 25.5647 8.97538C25.3553 9.18472 25.0714 9.30233 24.7754 9.30233Z" fill="white"/>
</svg>
