<svg width="100" height="24" viewBox="0 0 100 24" fill="none" xmlns="http://www.w3.org/2000/svg">
<path d="M42.4352 2.5333C42.4352 2.00905 40.2266 1.5597 37.1906 1.41673C37.0796 1.41132 36.9721 1.37622 36.8795 1.31512C36.7868 1.25401 36.7124 1.16916 36.6641 1.0695C36.5169 0.75033 36.2808 0.47991 35.9839 0.290338C35.6869 0.100765 35.3416 0 34.9889 0C34.6361 0 34.2908 0.100765 33.9938 0.290338C33.6969 0.47991 33.4608 0.75033 33.3136 1.0695C33.2179 1.27375 33.0127 1.40311 32.7871 1.41673C29.7511 1.56651 27.5425 2.00905 27.5425 2.5333C27.5425 3.09158 30.0041 3.55455 33.2999 3.6771L33.5392 6.74766C33.5392 6.74766 33.5461 6.7817 33.5529 6.80213C32.1033 7.14935 30.6605 7.39445 29.2109 7.58509C29.04 7.10169 28.5819 6.74766 28.0417 6.74766H26.5169C25.3476 5.12047 23.4399 4.02432 21.2176 4.02432C18.9953 4.02432 17.0876 5.12047 15.9183 6.74766H14.3935C13.8533 6.74766 13.3952 7.09489 13.2242 7.57828C11.7746 7.38084 10.325 7.11531 8.8891 6.7817C8.8891 6.76809 8.8891 6.75447 8.89594 6.74766L9.13526 3.6771C12.4311 3.55455 14.8927 3.09158 14.8927 2.5333C14.8927 2.00905 12.6841 1.5597 9.64809 1.41673C9.53708 1.41132 9.4296 1.37622 9.33694 1.31512C9.24428 1.25401 9.16989 1.16916 9.12158 1.0695C8.97437 0.75033 8.73829 0.47991 8.44134 0.290338C8.1444 0.100765 7.79907 0 7.44633 0C7.09359 0 6.74826 0.100765 6.45131 0.290338C6.15437 0.47991 5.91828 0.75033 5.77108 1.0695C5.67535 1.27375 5.47021 1.40311 5.24457 1.41673C2.2086 1.56651 0 2.00905 0 2.5333C0 3.09158 2.4616 3.55455 5.7574 3.6771L5.98988 6.63873C4.54712 7.19701 3.52145 8.80378 4.02744 10.431C4.13803 10.8293 4.32653 11.202 4.58212 11.5276C4.83772 11.8532 5.15538 12.1253 5.51687 12.3284C5.87837 12.5314 6.27658 12.6614 6.68865 12.7109C7.10072 12.7603 7.51855 12.7282 7.91813 12.6165C9.6686 12.1739 11.4396 11.8403 13.2106 11.5952C13.3815 12.0786 13.8396 12.4258 14.3798 12.4258H14.9542L14.9747 12.5211C15.0157 12.6913 15.0704 12.8479 15.132 13.0045C15.132 13.0045 10.5644 16.2453 10.5507 16.2589C10.3182 16.4972 10.1746 16.824 10.1746 17.1848V22.6656C10.2225 24.4289 12.814 24.4221 12.855 22.6656V17.784L17.4021 15.0198C17.6825 15.0947 17.9765 15.1492 18.2773 15.1492H24.11C24.4108 15.1492 24.7049 15.0947 24.9852 15.0198L29.5323 17.784V22.6656C29.5323 23.4009 30.134 24 30.8725 24C31.611 24 32.2127 23.4009 32.2127 22.6656V17.1848C32.2127 16.8376 32.0691 16.4768 31.7956 16.2181L27.2553 13.0045C27.3169 12.8479 27.3716 12.6913 27.4126 12.5211L27.4331 12.4258H28.0075C28.5545 12.4258 29.0126 12.0718 29.1768 11.5884C30.9477 11.8131 32.7256 12.1263 34.4965 12.6165C35.0299 12.7594 35.6179 12.773 36.1923 12.6165C39.4813 11.5816 38.9548 7.48296 36.3974 6.61149L36.6299 3.67029C39.9257 3.54774 42.3873 3.08477 42.3873 2.52649L42.4352 2.5333Z" fill="#252525"/>
<path d="M58.0089 11.4332C58.5445 11.8324 58.9744 12.3458 59.2986 12.9732C59.6228 13.5864 59.7849 14.2567 59.7849 14.9839C59.7849 15.6114 59.665 16.196 59.4254 16.7379C59.1999 17.2798 58.8828 17.7575 58.474 18.1711C58.0793 18.5846 57.6072 18.9126 57.0575 19.155C56.5218 19.3832 55.951 19.4973 55.3449 19.4973H52.2369L50.8627 16.8877H55.3872C55.5845 16.8877 55.7678 16.8377 55.9369 16.7379C56.1201 16.6238 56.2752 16.4884 56.402 16.3315C56.5289 16.1746 56.6276 15.9964 56.698 15.7968C56.7826 15.5971 56.8249 15.3975 56.8249 15.1978C56.8249 14.9839 56.7826 14.7772 56.698 14.5775C56.6276 14.3636 56.5218 14.1782 56.3809 14.0214C56.2399 13.8645 56.0778 13.7362 55.8946 13.6363C55.7255 13.5365 55.5422 13.4866 55.3449 13.4866H50.0381V19.4973H47.0781V4.50273H54.2878C54.8939 4.50273 55.4647 4.62394 56.0003 4.86636C56.55 5.09453 57.0222 5.41538 57.4169 5.82892C57.8256 6.22821 58.1428 6.70592 58.3683 7.26207C58.6079 7.80395 58.7277 8.38149 58.7277 8.99467C58.7277 9.45099 58.6643 9.88593 58.5374 10.2995C58.4106 10.6988 58.2344 11.0767 58.0089 11.4332ZM54.2878 10.5134C54.4851 10.5134 54.6683 10.4706 54.8375 10.385C55.0207 10.2852 55.1828 10.164 55.3238 10.0214C55.4647 9.86454 55.5704 9.68629 55.6409 9.48665C55.7255 9.27274 55.7678 9.05171 55.7678 8.82355C55.7678 8.59539 55.7255 8.38149 55.6409 8.18184C55.5704 7.96794 55.4647 7.78256 55.3238 7.6257C55.1828 7.46884 55.0207 7.34763 54.8375 7.26207C54.6683 7.16224 54.4851 7.11233 54.2878 7.11233H50.0381V10.5134H54.2878Z" fill="#252525"/>
<path d="M67.7373 4.52412C68.4561 4.52412 69.1327 4.66672 69.767 4.95193C70.4013 5.22287 70.958 5.60076 71.4373 6.08561C71.9165 6.55619 72.29 7.11233 72.5578 7.75404C72.8397 8.39575 72.9807 9.08023 72.9807 9.8075C72.9807 10.5348 72.8397 11.2193 72.5578 11.861C72.29 12.5027 71.9165 13.0588 71.4373 13.5294C70.958 14 70.4013 14.3779 69.767 14.6631C69.1327 14.934 68.4561 15.0695 67.7373 15.0695H66.0882L64.4813 12.0749H67.7373C68.0474 12.0749 68.3363 12.0178 68.6041 11.9037C68.886 11.7754 69.1257 11.6043 69.323 11.3904C69.5203 11.1622 69.6754 10.8984 69.7881 10.5989C69.915 10.2852 69.9784 9.94297 69.9784 9.57221C69.9784 9.25848 69.915 8.95902 69.7881 8.67382C69.6754 8.37436 69.5203 8.11054 69.323 7.88238C69.1257 7.65422 68.886 7.46884 68.6041 7.32624C68.3363 7.18363 68.0474 7.11233 67.7373 7.11233H63.995V19.4973H61.0562V4.52412H67.7373Z" fill="#252525"/>
<path d="M74.2497 19.4973V4.52412H77.2097V19.4973H74.2497ZM77.6537 16.5026H84.1656V19.4973H79.3028L77.6537 16.5026Z" fill="#252525"/>
<path d="M96.8286 19.4973L95.7292 16.8449H88.9635L87.843 19.4973H84.6716L90.7395 4.52412H93.932L90.0206 14.1711H94.6509L92.5578 9.03745L94.9469 6.9626L100 19.4973H96.8286Z" fill="#252525"/>
</svg>
