<svg width="140" height="41" viewBox="0 0 140 41" fill="none" xmlns="http://www.w3.org/2000/svg">
<g clip-path="url(#clip0_432_649)">
<path fill-rule="evenodd" clip-rule="evenodd" d="M84.919 15.1231V20.847C84.9236 22.1724 83.9568 23.7159 82.0184 23.7438H77.2351V11.9501C77.2769 10.2975 78.4849 9.13692 80.1195 9.09282H95.2948C95.8976 9.05336 96.4193 8.75625 96.5584 8.13187C96.6373 7.77209 96.5607 7.3775 96.3498 7.07576C96.104 6.72062 95.7214 6.55118 95.2994 6.53029H77.2374V0.5H96.9016C99.2411 0.5 101.499 1.24044 103.076 3.03235C104.384 4.51787 104.991 6.4978 104.829 8.46379C104.685 10.2186 103.932 11.8689 102.647 13.0805C101.112 14.5289 99.0904 15.1208 97.0129 15.1208H84.919V15.1231ZM56.1381 15.1231V20.847C56.0801 22.3929 55.0623 23.6115 53.3071 23.7438H48.4519V11.8851C48.5516 10.2 49.8013 9.17638 51.225 9.09514H73.3468V12.2124C73.3515 13.6608 72.271 15.0813 70.4625 15.1231H56.1358H56.1381ZM48.4542 0.5H73.3491V3.62656C73.3491 4.87997 72.4681 6.45137 70.4648 6.52797H48.4542V0.5ZM123.037 16.6342C125.615 11.7598 128.191 6.88774 130.77 2.01338C131.375 0.966547 132.27 0.502321 133.394 0.5H140.002C136.126 7.71407 132.251 14.9305 128.374 22.1445C127.843 23.0799 127.062 23.7066 125.801 23.7438H118.576L106.088 0.5H112.782C114.013 0.509285 114.855 1.19634 115.286 1.95303L123.035 16.6342H123.037Z" fill="#E30613"/>
<path fill-rule="evenodd" clip-rule="evenodd" d="M113.797 35.361C115.024 33.0724 116.248 30.7861 117.475 28.4998C117.774 27.9473 118.33 27.634 118.877 27.6642H124.062V40.4698H121.549C120.712 40.4907 119.956 39.8153 119.946 38.8543V32.2113C118.571 34.6856 117.194 37.1576 115.819 39.6319C115.497 40.1542 114.989 40.4768 114.41 40.4675H112.249L107.658 32.2113V38.8288C107.686 39.6435 107.06 40.4234 106.065 40.4675H103.542V27.6618H108.72C109.311 27.6688 109.826 27.9497 110.115 28.4719L113.8 35.3587L113.797 35.361ZM52.6742 35.7185V38.8729C52.6417 39.7247 52.0806 40.3956 51.1161 40.4675H48.4404V33.9335C48.4938 33.0051 49.1824 32.441 49.9684 32.3969H62.1573V34.1146C62.1573 34.913 61.5638 35.6953 60.5668 35.7185H52.6742ZM48.4404 27.6642H62.1573V29.3864C62.1573 30.0758 61.6727 30.9439 60.5668 30.9857H48.4404V27.6642ZM68.6518 35.7185V38.8729C68.6541 39.604 68.1231 40.4536 67.0542 40.4675H64.418V33.9707C64.4412 33.0608 65.1066 32.4202 66.0062 32.3969H74.3671C74.701 32.3761 74.9862 32.2113 75.0627 31.8677C75.1068 31.6681 75.0627 31.4522 74.9468 31.2851C74.81 31.0902 74.6013 30.995 74.3671 30.9834H64.4157V27.6618H75.2505C76.5397 27.6618 77.7824 28.0704 78.6519 29.0568C79.373 29.8762 79.7069 30.9671 79.6188 32.0488C79.54 33.0144 79.1249 33.9242 78.4177 34.5927C77.8474 35.1312 77.1518 35.4562 76.4098 35.6094L81.2441 40.4675H76.3866C75.9461 40.4814 75.5218 40.3398 75.1578 39.9499L70.9495 35.7185H68.6518ZM126.285 27.6642H140.002V29.3864C140.002 30.0758 139.518 30.9439 138.412 30.9857H126.285V27.6642ZM130.517 35.7185V37.1274H140V38.8358C140.009 39.6806 139.323 40.4373 138.409 40.4489H126.285V33.9869C126.316 33.142 126.87 32.4318 127.862 32.3946H140.002V34.103C140.012 34.9479 139.325 35.7022 138.412 35.7162H130.519L130.517 35.7185ZM91.9723 31.5799C93.3913 34.2655 94.8126 36.951 96.2316 39.6342C96.5678 40.2099 97.0594 40.4675 97.6784 40.4675H101.319C99.1832 36.4937 97.0478 32.5176 94.9123 28.5439C94.6202 28.0286 94.1889 27.6827 93.4957 27.6642H89.5146L82.6353 40.4698H86.3242C87.0012 40.4652 87.465 40.0868 87.7038 39.669L91.9723 31.5799Z" fill="#005CA9"/>
<path fill-rule="evenodd" clip-rule="evenodd" d="M31.1343 26.0974L33.9885 40.5C24.8253 35.2403 23.1072 36.1107 31.1343 26.0974Z" fill="#E30613"/>
<path fill-rule="evenodd" clip-rule="evenodd" d="M41.4661 15.7196C27.5521 22.9337 23.9304 32.6523 8.3772 40.3004C12.1936 19.2292 22.2773 13.6608 41.4661 15.7196Z" fill="#005CA9"/>
<path fill-rule="evenodd" clip-rule="evenodd" d="M21.0066 0.500002L27.0234 13.8395C6.34604 18.2497 14.5029 29.2147 0 15.7777C1.15003 15.6523 2.30006 15.5293 3.44777 15.404C17.7791 13.8535 13.9743 15.7498 19.9748 2.73293L21.0043 0.497681L21.0066 0.500002Z" fill="#B2B2B2"/>
</g>
<defs>
<clipPath id="clip0_432_649">
<rect width="140" height="40" fill="white" transform="translate(0 0.5)"/>
</clipPath>
</defs>
</svg>
