<svg width="100" height="24" viewBox="0 0 100 24" fill="none" xmlns="http://www.w3.org/2000/svg">
<path d="M42.4352 2.5333C42.4352 2.00905 40.2266 1.5597 37.1906 1.41673C37.0796 1.41132 36.9721 1.37622 36.8795 1.31512C36.7868 1.25401 36.7124 1.16916 36.6641 1.0695C36.5169 0.75033 36.2808 0.47991 35.9839 0.290338C35.6869 0.100765 35.3416 0 34.9889 0C34.6361 0 34.2908 0.100765 33.9938 0.290338C33.6969 0.47991 33.4608 0.75033 33.3136 1.0695C33.2179 1.27375 33.0127 1.40311 32.7871 1.41673C29.7511 1.56651 27.5425 2.00905 27.5425 2.5333C27.5425 3.09158 30.0041 3.55455 33.2999 3.6771L33.5392 6.74766C33.5392 6.74766 33.5461 6.7817 33.5529 6.80213C32.1033 7.14935 30.6605 7.39445 29.2109 7.58509C29.04 7.10169 28.5819 6.74766 28.0417 6.74766H26.5169C25.3476 5.12047 23.4399 4.02432 21.2176 4.02432C18.9953 4.02432 17.0876 5.12047 15.9183 6.74766H14.3935C13.8533 6.74766 13.3952 7.09489 13.2242 7.57828C11.7746 7.38084 10.325 7.11531 8.8891 6.7817C8.8891 6.76809 8.8891 6.75447 8.89594 6.74766L9.13526 3.6771C12.4311 3.55455 14.8927 3.09158 14.8927 2.5333C14.8927 2.00905 12.6841 1.5597 9.64809 1.41673C9.53708 1.41132 9.4296 1.37622 9.33694 1.31512C9.24428 1.25401 9.16989 1.16916 9.12158 1.0695C8.97437 0.75033 8.73829 0.47991 8.44134 0.290338C8.1444 0.100765 7.79907 0 7.44633 0C7.09359 0 6.74826 0.100765 6.45131 0.290338C6.15437 0.47991 5.91828 0.75033 5.77108 1.0695C5.67535 1.27375 5.47021 1.40311 5.24457 1.41673C2.2086 1.56651 0 2.00905 0 2.5333C0 3.09158 2.4616 3.55455 5.7574 3.6771L5.98988 6.63873C4.54712 7.19701 3.52145 8.80378 4.02744 10.431C4.13803 10.8293 4.32653 11.202 4.58212 11.5276C4.83772 11.8532 5.15538 12.1253 5.51687 12.3284C5.87837 12.5314 6.27658 12.6614 6.68865 12.7109C7.10072 12.7603 7.51855 12.7282 7.91813 12.6165C9.6686 12.1739 11.4396 11.8403 13.2106 11.5952C13.3815 12.0786 13.8396 12.4258 14.3798 12.4258H14.9542L14.9747 12.5211C15.0157 12.6913 15.0704 12.8479 15.132 13.0045C15.132 13.0045 10.5644 16.2453 10.5507 16.2589C10.3182 16.4972 10.1746 16.824 10.1746 17.1848V22.6656C10.2225 24.4289 12.814 24.4221 12.855 22.6656V17.784L17.4021 15.0198C17.6825 15.0947 17.9765 15.1492 18.2773 15.1492H24.11C24.4108 15.1492 24.7049 15.0947 24.9852 15.0198L29.5323 17.784V22.6656C29.5323 23.4009 30.134 24 30.8725 24C31.611 24 32.2127 23.4009 32.2127 22.6656V17.1848C32.2127 16.8376 32.0691 16.4768 31.7956 16.2181L27.2553 13.0045C27.3169 12.8479 27.3716 12.6913 27.4126 12.5211L27.4331 12.4258H28.0075C28.5545 12.4258 29.0126 12.0718 29.1768 11.5884C30.9477 11.8131 32.7256 12.1263 34.4965 12.6165C35.0299 12.7594 35.6179 12.773 36.1923 12.6165C39.4813 11.5816 38.9548 7.48296 36.3974 6.61149L36.6299 3.67029C39.9257 3.54774 42.3873 3.08477 42.3873 2.52649L42.4352 2.5333Z" fill="white"/>
<path d="M58.0089 11.4334C58.5445 11.8326 58.9744 12.346 59.2986 12.9734C59.6228 13.5866 59.7849 14.2569 59.7849 14.9841C59.7849 15.6116 59.665 16.1962 59.4254 16.7381C59.1999 17.28 58.8828 17.7577 58.474 18.1713C58.0793 18.5848 57.6072 18.9128 57.0575 19.1552C56.5218 19.3834 55.951 19.4975 55.3449 19.4975H52.2369L50.8627 16.8878H55.3872C55.5845 16.8878 55.7678 16.8379 55.9369 16.7381C56.1201 16.624 56.2752 16.4886 56.402 16.3317C56.5289 16.1748 56.6276 15.9966 56.698 15.797C56.7826 15.5973 56.8249 15.3977 56.8249 15.198C56.8249 14.9841 56.7826 14.7774 56.698 14.5777C56.6276 14.3638 56.5218 14.1784 56.3809 14.0216C56.2399 13.8647 56.0778 13.7364 55.8946 13.6365C55.7255 13.5367 55.5422 13.4868 55.3449 13.4868H50.0381V19.4975H47.0781V4.50293H54.2878C54.8939 4.50293 55.4647 4.62414 56.0003 4.86656C56.55 5.09472 57.0222 5.41558 57.4169 5.82912C57.8256 6.22841 58.1428 6.70612 58.3683 7.26226C58.6079 7.80415 58.7277 8.38168 58.7277 8.99487C58.7277 9.45119 58.6643 9.88613 58.5374 10.2997C58.4106 10.699 58.2344 11.0768 58.0089 11.4334ZM54.2878 10.5136C54.4851 10.5136 54.6683 10.4708 54.8375 10.3852C55.0207 10.2854 55.1828 10.1642 55.3238 10.0216C55.4647 9.86474 55.5704 9.68649 55.6409 9.48684C55.7255 9.27294 55.7678 9.05191 55.7678 8.82375C55.7678 8.59559 55.7255 8.38168 55.6409 8.18204C55.5704 7.96814 55.4647 7.78276 55.3238 7.6259C55.1828 7.46904 55.0207 7.34782 54.8375 7.26226C54.6683 7.16244 54.4851 7.11253 54.2878 7.11253H50.0381V10.5136H54.2878Z" fill="white"/>
<path d="M67.7373 4.52432C68.4561 4.52432 69.1327 4.66692 69.767 4.95212C70.4013 5.22307 70.958 5.60096 71.4373 6.0858C71.9165 6.55639 72.29 7.11253 72.5578 7.75424C72.8397 8.39594 72.9807 9.08043 72.9807 9.8077C72.9807 10.535 72.8397 11.2194 72.5578 11.8612C72.29 12.5029 71.9165 13.059 71.4373 13.5296C70.958 14.0002 70.4013 14.3781 69.767 14.6633C69.1327 14.9342 68.4561 15.0697 67.7373 15.0697H66.0882L64.4813 12.0751H67.7373C68.0474 12.0751 68.3363 12.018 68.6041 11.9039C68.886 11.7756 69.1257 11.6045 69.323 11.3906C69.5203 11.1624 69.6754 10.8986 69.7881 10.5991C69.915 10.2854 69.9784 9.94317 69.9784 9.57241C69.9784 9.25868 69.915 8.95922 69.7881 8.67402C69.6754 8.37455 69.5203 8.11074 69.323 7.88258C69.1257 7.65442 68.886 7.46904 68.6041 7.32644C68.3363 7.18383 68.0474 7.11253 67.7373 7.11253H63.995V19.4975H61.0562V4.52432H67.7373Z" fill="white"/>
<path d="M74.2497 19.4975V4.52432H77.2097V19.4975H74.2497ZM77.6537 16.5028H84.1656V19.4975H79.3028L77.6537 16.5028Z" fill="white"/>
<path d="M96.8286 19.4975L95.7292 16.8451H88.9635L87.843 19.4975H84.6716L90.7395 4.52432H93.932L90.0206 14.1713H94.6509L92.5578 9.03765L94.9469 6.9628L100 19.4975H96.8286Z" fill="white"/>
</svg>
