<svg width="140" height="40" viewBox="0 0 140 40" fill="none" xmlns="http://www.w3.org/2000/svg">
<g clip-path="url(#clip0_432_1067)">
<path fill-rule="evenodd" clip-rule="evenodd" d="M84.919 14.6231V20.347C84.9236 21.6724 83.9568 23.2159 82.0184 23.2438H77.2351V11.4501C77.2769 9.79748 78.4849 8.63692 80.1195 8.59282H95.2948C95.8976 8.55336 96.4193 8.25625 96.5584 7.63187C96.6373 7.27209 96.5607 6.8775 96.3498 6.57576C96.104 6.22062 95.7214 6.05118 95.2994 6.03029H77.2374V0H96.9016C99.2411 0 101.499 0.74044 103.076 2.53235C104.384 4.01787 104.991 5.99779 104.829 7.96379C104.685 9.71856 103.932 11.3689 102.647 12.5805C101.112 14.0289 99.0904 14.6208 97.0129 14.6208H84.919V14.6231ZM56.1381 14.6231V20.347C56.0801 21.8929 55.0623 23.1115 53.3071 23.2438H48.4519V11.3851C48.5516 9.69999 49.8013 8.67638 51.225 8.59514H73.3468V11.7124C73.3515 13.1608 72.271 14.5813 70.4625 14.6231H56.1358H56.1381ZM48.4542 0H73.3491V3.12656C73.3491 4.37997 72.4681 5.95137 70.4648 6.02797H48.4542V0ZM123.037 16.1342C125.615 11.2598 128.191 6.38774 130.77 1.51338C131.375 0.466547 132.27 0.00232113 133.394 0H140.002C136.126 7.21407 132.251 14.4305 128.374 21.6445C127.843 22.5799 127.062 23.2066 125.801 23.2438H118.576L106.088 0H112.782C114.013 0.00928451 114.855 0.696338 115.286 1.45303L123.035 16.1342H123.037Z" fill="white"/>
<path fill-rule="evenodd" clip-rule="evenodd" d="M113.797 34.8608C115.024 32.5722 116.248 30.2859 117.475 27.9995C117.774 27.4471 118.33 27.1338 118.877 27.1639H124.062V39.9696H121.549C120.712 39.9905 119.956 39.315 119.946 38.3541V31.711C118.571 34.1854 117.194 36.6574 115.819 39.1317C115.497 39.6539 114.989 39.9766 114.41 39.9673H112.249L107.658 31.711V38.3286C107.686 39.1433 107.06 39.9232 106.065 39.9673H103.542V27.1616H108.72C109.311 27.1686 109.826 27.4494 110.115 27.9717L113.8 34.8585L113.797 34.8608ZM52.6742 35.2183V38.3727C52.6417 39.2245 52.0806 39.8953 51.1161 39.9673H48.4404V33.4333C48.4938 32.5049 49.1824 31.9408 49.9684 31.8967H62.1573V33.6144C62.1573 34.4128 61.5638 35.195 60.5668 35.2183H52.6742ZM48.4404 27.1639H62.1573V28.8862C62.1573 29.5756 61.6727 30.4437 60.5668 30.4855H48.4404V27.1639ZM68.6518 35.2183V38.3727C68.6541 39.1038 68.1231 39.9534 67.0542 39.9673H64.418V33.4704C64.4412 32.5606 65.1066 31.9199 66.0062 31.8967H74.3671C74.701 31.8758 74.9862 31.711 75.0627 31.3675C75.1068 31.1679 75.0627 30.952 74.9468 30.7849C74.81 30.5899 74.6013 30.4948 74.3671 30.4832H64.4157V27.1616H75.2505C76.5397 27.1616 77.7824 27.5701 78.6519 28.5566C79.373 29.376 79.7069 30.4669 79.6188 31.5486C79.54 32.5141 79.1249 33.424 78.4177 34.0925C77.8474 34.631 77.1518 34.956 76.4098 35.1092L81.2441 39.9673H76.3866C75.9461 39.9812 75.5218 39.8396 75.1578 39.4497L70.9495 35.2183H68.6518ZM126.285 27.1639H140.002V28.8862C140.002 29.5756 139.518 30.4437 138.412 30.4855H126.285V27.1639ZM130.517 35.2183V36.6272H140V38.3355C140.009 39.1804 139.323 39.9371 138.409 39.9487H126.285V33.4867C126.316 32.6418 126.87 31.9315 127.862 31.8944H140.002V33.6028C140.012 34.4476 139.325 35.202 138.412 35.2159H130.519L130.517 35.2183ZM91.9723 31.0797C93.3913 33.7652 94.8126 36.4508 96.2316 39.134C96.5678 39.7096 97.0594 39.9673 97.6784 39.9673H101.319C99.1832 35.9935 97.0478 32.0174 94.9123 28.0437C94.6202 27.5284 94.1889 27.1825 93.4957 27.1639H89.5146L82.6353 39.9696H86.3242C87.0012 39.965 87.465 39.5866 87.7038 39.1688L91.9723 31.0797Z" fill="white"/>
<path fill-rule="evenodd" clip-rule="evenodd" d="M31.1343 25.5972L33.9885 39.9998C24.8253 34.7401 23.1072 35.6105 31.1343 25.5972Z" fill="white"/>
<path fill-rule="evenodd" clip-rule="evenodd" d="M41.4661 15.2195C27.5521 22.4336 23.9304 32.1522 8.3772 39.8003C12.1936 18.7291 22.2773 13.1607 41.4661 15.2195Z" fill="white"/>
<path fill-rule="evenodd" clip-rule="evenodd" d="M21.0066 -0.000120278L27.0234 13.3394C6.34604 17.7495 14.5029 28.7146 0 15.2775C1.15003 15.1522 2.30006 15.0292 3.44777 14.9038C17.7791 13.3533 13.9743 15.2497 19.9748 2.2328L21.0043 -0.00244141L21.0066 -0.000120278Z" fill="white"/>
</g>
<defs>
<clipPath id="clip0_432_1067">
<rect width="140" height="40" fill="white"/>
</clipPath>
</defs>
</svg>
