<svg width="21" height="21" viewBox="0 0 21 21" fill="none" xmlns="http://www.w3.org/2000/svg">
<g clip-path="url(#clip0_135_525)">
<path d="M12.1714 12.7536C11.6739 13.0853 11.0959 13.2607 10.5 13.2607C9.90414 13.2607 9.32617 13.0853 8.82859 12.7536L0.633164 7.28984C0.587922 7.25959 0.543517 7.22811 0.5 7.19543L0.5 16.1484C0.5 17.1749 1.33301 17.9896 2.34113 17.9896H18.6588C19.6853 17.9896 20.5 17.1566 20.5 16.1484V7.19539C20.4564 7.22816 20.4119 7.25971 20.3665 7.29L12.1714 12.7536Z" fill="white"/>
<path d="M1.2832 6.31477L9.47863 11.7786C9.78887 11.9854 10.1444 12.0888 10.5 12.0888C10.8555 12.0888 11.2111 11.9854 11.5214 11.7786L19.7168 6.31477C20.2072 5.98801 20.5 5.44113 20.5 4.8509C20.5 3.83602 19.6743 3.01039 18.6595 3.01039H2.34051C1.32567 3.01043 0.500001 3.83606 0.500001 4.85188C0.499697 5.14141 0.571056 5.42652 0.707714 5.68177C0.844372 5.93703 1.04208 6.15449 1.2832 6.31477Z" fill="white"/>
</g>
<defs>
<clipPath id="clip0_135_525">
<rect width="20" height="20" fill="white" transform="translate(0.5 0.5)"/>
</clipPath>
</defs>
</svg>
