<svg width="32" height="32" viewBox="0 0 32 32" fill="none" xmlns="http://www.w3.org/2000/svg">
<path d="M30.5998 14.2489C30.097 13.9985 29.5657 13.4403 29.9184 11.3304C30.2494 9.35104 29.6365 8.94608 28.8009 8.62237C28.752 8.60349 28.7029 8.58442 28.6535 8.56438C28.5951 8.54067 28.5838 8.44787 28.6012 8.13284C28.6258 7.68308 28.6718 6.8458 27.5346 6.69305C26.9778 6.61834 26.6035 6.702 26.3905 6.94924C26.1043 7.28145 26.235 7.73219 26.3304 8.06133C26.3539 8.13492 26.3729 8.20988 26.3873 8.28578C26.4 8.38707 26.3701 8.45682 26.3014 8.60493C26.1684 8.86212 26.099 9.1474 26.0989 9.43692C26.0989 9.881 26.0168 10.0339 25.1459 10.6468C24.9019 10.8081 24.6437 10.9471 24.3746 11.0618C23.7492 11.3505 23.0403 11.6777 22.9297 12.6921C22.8391 13.5225 22.3363 14.1018 22.1708 14.1308C22.1517 14.107 22.1364 14.0804 22.1256 14.0518C22.008 13.7723 21.8251 13.5849 21.5825 13.4947C21.0797 13.3076 20.4946 13.5983 19.9286 13.8792C19.8541 13.9162 19.7802 13.9529 19.7076 13.9878C19.2425 14.2117 18.728 14.3122 18.4654 14.3144C18.5201 14.2263 18.593 14.1325 18.6642 14.0406C18.8862 13.7547 19.2215 13.3223 18.9189 12.9002C18.6077 12.4662 18.248 12.6265 17.985 12.7435C17.7627 12.8489 17.5287 12.9275 17.2879 12.9777C16.7001 13.0983 16.4495 13.4113 16.2664 13.6398C16.1258 13.8153 16.0626 13.8873 15.9099 13.9063C15.2786 13.985 15.3047 14.6177 15.3188 14.9578C15.326 15.1345 15.337 15.4018 15.263 15.4557C14.9871 15.657 14.6979 16.0597 14.7152 16.4679C14.7167 16.5069 14.7087 16.5458 14.6919 16.5811C14.675 16.6163 14.6499 16.647 14.6185 16.6703C14.5916 16.6914 14.5598 16.7053 14.5261 16.711C14.4924 16.7167 14.4578 16.714 14.4255 16.703C14.3182 16.6664 14.3009 16.6238 14.3009 16.5361C14.2967 16.4249 14.3017 16.3135 14.3159 16.2031C14.3249 16.1945 14.3387 16.182 14.3505 16.1715C14.5126 16.0285 14.653 15.8626 14.7672 15.6791C15.3333 14.816 14.7749 14.1081 14.7507 14.0784C14.7081 14.0257 14.6501 13.9876 14.5848 13.9694C14.1178 13.8388 13.8483 14.2403 13.6318 14.5626C13.3715 14.95 13.0767 15.3891 12.4309 15.4587C11.533 15.5554 11.4504 15.4687 11.3257 15.3373C11.1392 15.1295 10.9022 14.9735 10.6376 14.8844C10.0512 14.6652 9.05215 14.8391 8.08603 15.0072C7.58161 15.095 6.8191 15.2277 6.65094 15.1605C6.64839 15.1595 6.64676 15.1586 6.64611 15.1584C6.63958 15.1462 6.57989 15.0068 6.74217 14.5666C6.74496 14.5589 6.74945 14.5519 6.75531 14.5461C6.76118 14.5403 6.76827 14.5359 6.77607 14.5332C6.78528 14.5297 6.79515 14.5282 6.80499 14.5289C6.81483 14.5296 6.82439 14.5325 6.83301 14.5373C7.22785 14.7511 7.6283 14.7634 7.99088 14.5729C8.32739 14.3959 8.50306 14.036 8.46049 13.6099C8.40471 13.0501 7.95065 12.3668 7.19095 12.144C6.54809 11.9556 6.15802 12.451 5.78127 12.9302C5.34196 13.489 4.84407 14.1223 3.8033 14.2905C3.46141 14.3403 3.13397 14.4621 2.84266 14.6478C2.55135 14.8336 2.3028 15.0791 2.11346 15.3681C1.39439 16.4292 1.33829 18.0966 1.60186 19.2784C1.76062 19.9906 1.64359 20.2587 1.58593 20.3408C1.56392 20.3761 1.53015 20.4025 1.49058 20.4154C1.29793 20.4038 0.544112 20.3936 0.180884 20.8938C-0.0558482 21.2198 -0.0602236 21.6565 0.167822 22.1917C1.11821 24.421 1.76676 25.4489 2.33596 25.6283C2.42043 25.657 2.51022 25.6665 2.59881 25.656C2.6874 25.6456 2.77255 25.6156 2.84808 25.5682C3.09291 25.4157 3.21588 25.0667 3.44928 24.3546C3.7301 23.4966 4.15523 22.2 4.886 21.984C5.25171 21.8761 5.71277 22.0387 6.25584 22.4677C6.60157 23.008 7.23079 23.8408 7.77648 23.7372C8.17282 23.662 8.30656 23.2973 8.40419 23.0311C8.47172 22.8468 8.53559 22.6727 8.64687 22.6196C8.79943 22.5439 8.94201 22.4496 9.07135 22.3388C9.11908 22.2954 9.17209 22.2581 9.22913 22.2278C9.27331 22.2356 9.31504 22.2537 9.35099 22.2805C9.40323 22.3121 9.45058 22.3416 9.49518 22.3692C9.90008 22.62 10.1076 22.7342 10.7811 22.8109C10.9223 22.827 10.9733 22.8982 11.0875 23.1527C11.1989 23.4013 11.4067 23.8642 12.0103 23.758C12.4135 23.6871 12.5241 23.8488 12.8462 24.4204L12.9068 24.5276C13.3929 25.3825 14.1944 25.8133 15.2948 25.8133C15.5297 25.8124 15.7642 25.7948 15.9967 25.7608C17.0001 25.6177 17.373 25.3683 17.5958 25.2192C17.7386 25.1238 17.7387 25.1238 17.8881 25.1658C18.2842 25.2768 18.6032 25.1094 18.8594 24.975C19.1674 24.8134 19.371 24.7069 19.7321 24.9277C20.3477 25.3043 20.7757 25.1379 21.1197 25.0043C21.3903 24.8992 21.6242 24.8084 22.0135 24.9054C22.7422 25.0869 23.0453 24.8523 23.3122 24.6452C23.5455 24.4418 23.8364 24.3161 24.1444 24.2855C24.9999 24.168 25.019 23.4128 25.0316 22.9131C25.0472 22.3048 25.1006 22.1929 25.3891 22.1646C25.9037 22.1142 25.9969 22.244 26.1381 22.4406C26.2737 22.6291 26.4785 22.9141 26.9794 22.9141C27.2074 22.9141 27.9014 22.9141 28.1543 23.2035C28.255 23.3186 28.2887 23.4863 28.2577 23.7161C28.1979 24.159 28.2496 24.5333 28.4113 24.8288C28.4902 24.971 28.6094 25.0867 28.7539 25.1612C28.8984 25.2358 29.0618 25.2659 29.2234 25.2477C29.385 25.2296 29.5376 25.164 29.662 25.0592C29.7863 24.9544 29.8769 24.8152 29.9222 24.659C30.6005 22.3128 30.2278 21.4026 29.8673 20.5224C29.7448 20.2437 29.6447 19.9556 29.5679 19.661C29.4862 19.3205 29.4388 19.1368 29.3364 19.0098C29.1563 18.7863 28.9086 18.8374 28.7607 18.8679C28.5646 18.9126 28.3625 18.9256 28.1622 18.9065C28.1265 18.906 28.0914 18.8968 28.06 18.8797C28.0286 18.8627 28.0018 18.8383 27.9819 18.8086C27.7794 18.5266 27.8505 17.7506 27.9653 17.2899C27.9811 17.2395 27.9815 17.1855 27.9664 17.1349C27.9599 17.0892 27.9215 16.7057 28.3041 16.0434C28.5765 15.5717 28.6057 15.0141 28.6272 14.6071C28.63 14.5517 28.6337 14.4885 28.6376 14.4286C28.7933 14.5774 28.9184 14.8068 29.0769 15.0973C29.251 15.4322 29.4505 15.7534 29.6735 16.058C30.2186 16.7829 30.9329 17.2957 31.4106 17.3057C31.4985 17.3104 31.5862 17.2948 31.667 17.26C31.7478 17.2252 31.8195 17.1723 31.8765 17.1053C32.0072 16.9459 32.0339 16.6957 31.9579 16.3404C31.8171 15.6834 31.3028 14.5994 30.5998 14.2489Z" fill="white"/>
</svg>
