<svg width="32" height="32" viewBox="0 0 32 32" fill="none" xmlns="http://www.w3.org/2000/svg">
<g clip-path="url(#clip0_227_788)">
<mask id="mask0_227_788" style="mask-type:luminance" maskUnits="userSpaceOnUse" x="0" y="0" width="32" height="32">
<path d="M0 0H32V32H0V0Z" fill="white"/>
</mask>
<g mask="url(#mask0_227_788)">
<path d="M28.6667 12C27.6707 12 27.0933 12.44 26.628 12.7947C26.2547 13.0787 25.9747 13.292 25.4853 13.328C25.3453 12.868 25.3653 11.2147 26.3027 7.46667C26.3655 7.21285 26.3696 6.94805 26.3148 6.69239C26.2599 6.43673 26.1475 6.19695 25.986 5.99127C25.8246 5.7856 25.6183 5.61944 25.383 5.50543C25.1477 5.39142 24.8895 5.33257 24.628 5.33334H18.6573C18.3985 5.33214 18.1453 5.40863 17.9304 5.55292C17.7155 5.6972 17.5489 5.90265 17.452 6.14267C17.354 6.38605 17.3312 6.65321 17.3866 6.90967C17.442 7.16612 17.573 7.40009 17.7627 7.58134C18.364 8.15867 18.6693 8.748 18.6693 9.33334C18.6693 10.436 17.2187 10.6667 16.0027 10.6667C14.7867 10.6667 13.336 10.436 13.336 9.33334C13.336 8.748 13.6387 8.15867 14.2387 7.58134C14.4285 7.40019 14.5596 7.16622 14.615 6.90973C14.6704 6.65323 14.6475 6.38602 14.5493 6.14267C14.4528 5.90243 14.2862 5.69679 14.0713 5.55246C13.8563 5.40812 13.6029 5.33178 13.344 5.33334H7.372C7.11052 5.33257 6.85231 5.39142 6.61699 5.50543C6.38168 5.61944 6.17545 5.7856 6.01399 5.99127C5.85253 6.19695 5.7401 6.43673 5.68523 6.69239C5.63035 6.94805 5.6345 7.21285 5.69733 7.46667C6.63467 11.2147 6.65467 12.868 6.51467 13.328C6.024 13.292 5.74533 13.0787 5.372 12.7947C4.90667 12.44 4.32933 12 3.33333 12C1.32933 12 0 14.408 0 16C0 17.592 1.32933 20 3.33333 20C4.32933 20 4.90667 19.56 5.37333 19.2053C5.74667 18.9213 6.02667 18.708 6.51467 18.672C6.65467 19.132 6.63467 20.7853 5.69733 24.5333C5.6345 24.7872 5.63035 25.052 5.68523 25.3076C5.7401 25.5633 5.85253 25.8031 6.01399 26.0087C6.17545 26.2144 6.38168 26.3806 6.61699 26.4946C6.85231 26.6086 7.11052 26.6674 7.372 26.6667H13.3453C13.6039 26.6676 13.8569 26.591 14.0715 26.4467C14.2861 26.3024 14.4526 26.0971 14.5493 25.8573C14.6473 25.614 14.6701 25.3468 14.6147 25.0903C14.5594 24.8339 14.4284 24.5999 14.2387 24.4187C13.6387 23.8413 13.3333 23.252 13.3333 22.6667C13.3333 21.564 14.7827 21.3333 16 21.3333C17.2173 21.3333 18.6667 21.564 18.6667 22.6667C18.6667 23.252 18.3627 23.8413 17.7627 24.4187C17.5728 24.5998 17.4417 24.8338 17.3863 25.0903C17.3309 25.3468 17.3538 25.614 17.452 25.8573C17.5486 26.0976 17.7151 26.3032 17.9301 26.4475C18.145 26.5919 18.3984 26.6682 18.6573 26.6667H24.6307C24.8921 26.6676 25.1503 26.6087 25.3855 26.4947C25.6208 26.3807 25.8269 26.2145 25.9881 26.0087C26.1494 25.8029 26.2616 25.5631 26.3161 25.3074C26.3706 25.0517 26.366 24.787 26.3027 24.5333C25.3653 20.7853 25.3453 19.132 25.4853 18.672C25.976 18.708 26.2547 18.9213 26.628 19.2053C27.0947 19.56 27.6707 20 28.668 20C30.6707 20 32.0013 17.592 32.0013 16C32.0013 14.408 30.6707 12 28.668 12H28.6667Z" fill="white"/>
</g>
</g>
<defs>
<clipPath id="clip0_227_788">
<rect width="32" height="32" fill="white"/>
</clipPath>
</defs>
</svg>
