<svg width="24" height="24" viewBox="0 0 24 24" fill="none" xmlns="http://www.w3.org/2000/svg">
<path d="M5.93268 4.86747L9.60766 8.54249C9.73627 8.67067 9.8959 8.76335 10.071 8.81148C10.2461 8.85962 10.4306 8.86158 10.6067 8.81717C10.7828 8.77275 10.9443 8.68348 11.0756 8.55806C11.2069 8.43264 11.3035 8.27533 11.3559 8.10149L12.9309 2.85146C12.9853 2.66989 12.9896 2.47697 12.9432 2.29318C12.8968 2.10939 12.8016 1.94157 12.6676 1.80754C12.5335 1.67351 12.3657 1.57826 12.1819 1.53189C11.9981 1.48553 11.8052 1.48978 11.6237 1.5442L6.37368 3.11921C6.20022 3.17215 6.04338 3.26897 5.91833 3.40032C5.79329 3.53166 5.70427 3.69307 5.65992 3.86891C5.61556 4.04476 5.61736 4.22907 5.66515 4.40402C5.71294 4.57896 5.80509 4.7386 5.93268 4.86747Z" fill="white"/>
<path d="M4.53283 7.96494C2.73944 9.541 2.48324 12.3414 3.95744 14.2314C5.44213 16.134 8.14692 16.4437 10.0012 14.9223L15.1252 10.7181C15.355 10.5293 15.6204 10.3887 15.9056 10.3045C16.1909 10.2204 16.4901 10.1946 16.7856 10.2284C17.081 10.2623 17.3666 10.3553 17.6254 10.5018C17.8842 10.6484 18.1109 10.8454 18.292 11.0814C19.0784 12.0894 18.9398 13.6014 17.9843 14.4414L16.8892 15.4032C16.4597 15.7812 16.4104 16.4427 16.7779 16.8837C17.1454 17.3247 17.7922 17.3751 18.2216 16.9971L19.3168 16.0353C21.1102 14.4582 21.3674 11.661 19.8911 9.76885C18.4085 7.86834 15.6995 7.55754 13.8473 9.07794L8.72336 13.2822C8.49369 13.4712 8.2283 13.6121 7.94301 13.6964C7.65773 13.7806 7.35839 13.8066 7.06286 13.7727C6.76733 13.7388 6.48165 13.6457 6.22286 13.499C5.96407 13.3523 5.73747 13.155 5.55658 12.9189C4.77223 11.913 4.90978 10.3989 5.86423 9.55885L6.43332 9.12309C6.86277 8.74509 6.91632 8.08359 6.54882 7.64259C6.4625 7.53805 6.35604 7.45191 6.23579 7.3893C6.11553 7.32669 5.98393 7.28888 5.84878 7.2781C5.71363 7.26733 5.57769 7.28382 5.44904 7.32659C5.32038 7.36936 5.20163 7.43754 5.09983 7.52709L4.53283 7.96494Z" fill="white"/>
<path d="M9.82471 19.35C9.82471 18.5145 10.1566 17.7133 10.7473 17.1226C11.3381 16.5318 12.1393 16.2 12.9747 16.2C13.8101 16.2 14.6113 16.5318 15.2021 17.1226C15.7928 17.7133 16.1247 18.5145 16.1247 19.35C16.1247 20.1854 15.7928 20.9866 15.2021 21.5774C14.6113 22.1681 13.8101 22.5 12.9747 22.5C12.1393 22.5 11.3381 22.1681 10.7473 21.5774C10.1566 20.9866 9.82471 20.1854 9.82471 19.35Z" fill="white"/>
</svg>
