<svg width="24" height="24" viewBox="0 0 24 24" fill="none" xmlns="http://www.w3.org/2000/svg">
<path d="M22.4971 18.0411L22.4923 17.9036C22.4906 17.8576 22.4889 17.8114 22.4872 17.765L22.4859 17.7303L22.4852 17.7129L22.485 17.7086L22.4846 17.6697L22.4845 17.6678L22.4839 17.6606L22.4795 17.603L22.4615 17.3716L22.4569 17.3132L22.45 17.2373L22.4357 17.0862L22.4209 16.9359L22.4134 16.8612L22.4042 16.7923C22.379 16.6101 22.3566 16.431 22.3245 16.2589C22.3093 16.1728 22.2953 16.0881 22.2796 16.0055L22.2292 15.7643C22.1982 15.6074 22.1593 15.4608 22.1265 15.3254L22.1019 15.2261L22.0757 15.1318C22.0584 15.0707 22.042 15.0127 22.0266 14.9582C22.0109 14.9038 21.997 14.8527 21.9826 14.8059L21.9417 14.6776L21.8957 14.5349C21.887 14.5081 21.8682 14.4856 21.8433 14.4723C21.8184 14.459 21.7893 14.4559 21.7621 14.4637L18.2117 15.4755C18.1856 15.4829 18.1632 15.4998 18.1489 15.5228C18.1346 15.5458 18.1295 15.5734 18.1344 15.6001L18.1476 15.6708L18.1643 15.7591C18.1701 15.7913 18.1746 15.8266 18.1805 15.8639L18.1986 15.9829C18.2017 16.0038 18.2054 16.0252 18.2083 16.0472L18.216 16.1151C18.2259 16.2076 18.2407 16.3067 18.2473 16.4131L18.2607 16.5758C18.2642 16.6314 18.2659 16.6885 18.2689 16.7462C18.2766 16.8614 18.2751 16.9814 18.2773 17.1024L18.2778 17.1475L18.2762 17.1874L18.2735 17.2673L18.2713 17.3473L18.2705 17.3873L18.2681 17.4448C18.2648 17.5222 18.2615 17.5996 18.2582 17.6767L18.2557 17.7344L18.2554 17.7417L18.2553 17.7434C18.2554 17.7521 18.2546 17.6747 18.2549 17.7081L18.2546 17.711L18.2535 17.7224L18.2514 17.7451L18.2432 17.8358L18.2354 17.9256C18.2318 17.9553 18.2283 17.9848 18.2248 18.0141C18.2172 18.0727 18.2126 18.1307 18.2033 18.1873L18.1792 18.3538L18.1516 18.5122C18.1435 18.5637 18.1327 18.6133 18.1231 18.6613C18.113 18.7093 18.105 18.7558 18.0945 18.8C18.0803 18.8615 18.0661 18.9231 18.0519 18.9847L18.0389 19.0316L18.0316 19.0586H22.374C22.4322 19.0586 22.4806 19.0129 22.4828 18.9548L22.4829 18.9538L22.494 18.705L22.499 18.4454C22.5014 18.3574 22.4988 18.2679 22.4985 18.1775C22.498 18.1323 22.4975 18.0868 22.4971 18.0411ZM21.368 13.4835C21.3818 13.478 21.3943 13.4697 21.4047 13.4591C21.4152 13.4486 21.4234 13.436 21.4288 13.4222C21.4343 13.4083 21.4368 13.3935 21.4363 13.3787C21.4358 13.3638 21.4323 13.3493 21.4259 13.3358L21.3842 13.2478C21.3678 13.2132 21.3513 13.1785 21.3349 13.1439L21.2598 12.991C21.2328 12.9367 21.2041 12.8788 21.1738 12.8179C21.1584 12.7862 21.1433 12.76 21.1275 12.7303L21.0792 12.641C21.0461 12.5804 21.0123 12.517 20.976 12.452C20.9372 12.3857 20.8985 12.3194 20.8598 12.253L20.799 12.1495L20.7339 12.0451L20.5988 11.8305C20.502 11.6879 20.4057 11.5388 20.2982 11.3937C20.2718 11.3572 20.2453 11.3205 20.2187 11.2837L20.1787 11.2286L20.137 11.1744L19.9695 10.9575C19.9126 10.8859 19.8537 10.8158 19.796 10.7455C19.7668 10.7106 19.7385 10.6752 19.7087 10.641L19.6194 10.5393C19.5897 10.5056 19.5602 10.472 19.5308 10.4386C19.5018 10.4052 19.4721 10.3724 19.4416 10.3403L19.2634 10.1505C19.2049 10.0884 19.1442 10.03 19.0865 9.97163C19.0283 9.91358 18.9718 9.85657 18.9142 9.80363L18.7479 9.64801C18.6944 9.59763 18.6399 9.55187 18.589 9.50656L18.4419 9.37793L18.3058 9.26579L18.1861 9.1676C18.149 9.13738 18.1136 9.11118 18.0824 9.08676C18.0442 9.05749 18.0061 9.02821 17.9679 8.99893C17.9455 8.98176 17.9173 8.97396 17.8893 8.97716C17.8613 8.98036 17.8356 8.99431 17.8176 9.01609L15.9121 11.3227C15.8947 11.3436 15.8859 11.3703 15.8872 11.3975C15.8885 11.4246 15.9 11.4503 15.9193 11.4695C15.9353 11.4852 15.9536 11.5034 15.9743 11.5239C15.9942 11.5438 16.0169 11.5649 16.0402 11.5895L16.1155 11.6692L16.2013 11.7593L16.293 11.8626C16.3245 11.8989 16.359 11.9349 16.3918 11.9751L16.4943 12.0983C16.5301 12.1398 16.5643 12.1849 16.5997 12.2304C16.6348 12.2763 16.6722 12.3215 16.7074 12.3699L16.8146 12.5171C16.8331 12.5419 16.8509 12.5672 16.8679 12.593L16.9206 12.6705C16.9382 12.6963 16.9559 12.7223 16.9737 12.7483C16.9914 12.7744 17.0077 12.8016 17.0248 12.8282C17.0584 12.882 17.0933 12.935 17.1264 12.9891L17.223 13.1529L17.2471 13.1935L17.2696 13.235L17.3147 13.3174C17.3765 13.4255 17.4286 13.5369 17.4832 13.6416L17.5568 13.7997L17.5925 13.876L17.6247 13.9518C17.646 14.0015 17.6668 14.0499 17.6869 14.0966L17.7405 14.2336L17.7658 14.298C17.7735 14.3184 17.7832 14.3406 17.7884 14.3576L17.8232 14.4593L17.8544 14.5481L17.8892 14.6519L17.92 14.7444C17.9247 14.7585 17.9323 14.7715 17.9422 14.7826C17.9521 14.7936 17.9642 14.8025 17.9777 14.8088C17.9911 14.815 18.0058 14.8184 18.0206 14.8188C18.0355 14.8191 18.0503 14.8165 18.064 14.8109L21.368 13.4835ZM11.6642 9.36349L11.7597 9.37654L11.8717 9.39603L11.9987 9.41785C12.0376 9.4243 12.0778 9.43368 12.1197 9.44243L13.3223 6.98252L13.1456 6.95493C13.1059 6.94903 13.0668 6.94224 13.0279 6.93738L12.9125 6.92341L12.6917 6.89717L12.4849 6.87944C12.4185 6.87436 12.3553 6.86766 12.2947 6.86479L12.1231 6.85634L11.9724 6.84922L11.8444 6.84717L11.7068 6.84551C11.6786 6.84517 11.6513 6.8558 11.6308 6.87516C11.6103 6.89452 11.5981 6.9211 11.5968 6.94929L11.4871 9.23889C11.4858 9.26608 11.4947 9.29279 11.5121 9.31375C11.5294 9.3347 11.5541 9.34838 11.581 9.35209L11.6642 9.36349ZM14.8964 10.6242C14.9287 10.6477 14.9593 10.67 14.9881 10.691L15.0689 10.7488C15.0797 10.7563 15.0975 10.7698 15.1121 10.7806L15.1549 10.8126L15.233 10.8709C15.2449 10.8798 15.2586 10.8861 15.273 10.8896C15.2875 10.893 15.3025 10.8934 15.3171 10.8908C15.3317 10.8882 15.3457 10.8827 15.3581 10.8745C15.3705 10.8663 15.3811 10.8557 15.3892 10.8433L16.9593 8.45156C16.9675 8.43916 16.9731 8.42521 16.9757 8.41057C16.9782 8.39594 16.9778 8.38093 16.9744 8.36648C16.9709 8.35202 16.9646 8.33842 16.9557 8.32652C16.9468 8.31462 16.9355 8.30466 16.9226 8.29727L16.8381 8.24879L16.7917 8.22216L16.7362 8.19075L16.5916 8.11108C16.5399 8.08294 16.4849 8.05301 16.427 8.02142C16.3691 7.9924 16.3112 7.96338 16.2533 7.93435C16.1925 7.90468 16.1305 7.87168 16.064 7.84173L15.859 7.74778C15.7891 7.7148 15.7154 7.68484 15.6405 7.65341C15.5653 7.62264 15.4897 7.589 15.4107 7.55931L15.3503 7.53641L14.6729 10.4764C14.7104 10.4999 14.7456 10.5248 14.7804 10.5473L14.8964 10.6242ZM9.55589 9.35151C9.58622 9.34751 9.61599 9.34256 9.64573 9.33942L9.73379 9.33047L9.90221 9.31298L10.0601 9.30239L10.1342 9.29733C10.1583 9.29572 10.1824 9.29366 10.2031 9.29364L10.3242 9.29048L10.4304 9.28712L10.5414 9.28639L10.6389 9.28586C10.6537 9.28577 10.6684 9.28265 10.682 9.27668C10.6956 9.27071 10.7079 9.26201 10.718 9.25113C10.7281 9.24025 10.7359 9.22742 10.7408 9.21341C10.7458 9.19941 10.7479 9.18454 10.7469 9.16972L10.6055 7.01291C10.6046 6.99809 10.6006 6.98361 10.5939 6.97038C10.5871 6.95715 10.5777 6.94544 10.5663 6.93597C10.5548 6.92651 10.5415 6.91949 10.5273 6.91534C10.513 6.9112 10.498 6.91001 10.4833 6.91187L10.3866 6.92407L10.2741 6.9384L10.1176 6.96161L9.93997 6.98866C9.90796 6.99317 9.87849 6.99916 9.84757 7.005L9.75298 7.02306L9.55235 7.06183L9.33922 7.11037L9.22827 7.13588C9.19087 7.14464 9.15335 7.15534 9.11531 7.16517L8.88299 7.22707L8.6452 7.29876C8.60515 7.31116 8.56467 7.32285 8.52444 7.33609L8.40359 7.37732L8.28201 7.41899C8.24134 7.43282 8.2006 7.44673 8.16041 7.46258L7.91807 7.55509C7.83754 7.58661 7.75834 7.62154 7.67896 7.65458C7.63939 7.67145 7.59971 7.68772 7.56061 7.70503L7.44449 7.75863L7.32952 7.81188C7.29139 7.82952 7.25341 7.8469 7.2165 7.86606L6.99723 7.97677C6.92524 8.01286 6.85662 8.0527 6.78847 8.08937C6.72063 8.12673 6.65392 8.16236 6.59099 8.20076L6.40658 8.31016C6.34685 8.34499 6.29146 8.38262 6.23717 8.41662L6.08245 8.5158L5.94589 8.60953L5.82612 8.692C5.78916 8.71749 5.75647 8.74276 5.72634 8.7646L5.62245 8.8413C5.5998 8.85803 5.58451 8.88289 5.57981 8.91065C5.57511 8.93842 5.58135 8.96692 5.59722 8.99018L6.49282 10.3069C6.50814 10.3295 6.53142 10.3455 6.55801 10.3518C6.58461 10.358 6.61258 10.354 6.63637 10.3406L6.71665 10.2953C6.74338 10.2805 6.77229 10.263 6.80494 10.246C6.83757 10.229 6.87285 10.2107 6.91054 10.191L7.03028 10.1284L7.16528 10.0637C7.21254 10.0417 7.26049 10.0165 7.31219 9.99449L7.4711 9.92474C7.52511 9.89988 7.58232 9.87815 7.64019 9.85494C7.69837 9.83239 7.75664 9.80688 7.81767 9.78533L8.00278 9.71861C8.03379 9.70683 8.06571 9.69686 8.0977 9.68665L8.19392 9.65568L8.2907 9.62438C8.32324 9.6145 8.35624 9.60566 8.38902 9.59619C8.45487 9.57798 8.52028 9.55778 8.5866 9.54084L8.78541 9.49166C8.81822 9.48293 8.85151 9.4761 8.88464 9.46927L8.98356 9.44844L9.08147 9.42766C9.11403 9.42117 9.14677 9.41615 9.17906 9.41033L9.37023 9.37715L9.55589 9.35151ZM3.44913 11.0539L3.37841 11.154L3.30732 11.2547C3.28365 11.2885 3.2615 11.3235 3.23846 11.358C3.19306 11.4273 3.1466 11.4961 3.10212 11.5662L2.97199 11.7781L2.93971 11.8309L2.90907 11.8845L2.8482 11.9911C2.76552 12.1315 2.6937 12.275 2.62071 12.4114L2.5206 12.6162L2.47245 12.7154L2.42826 12.8136L2.34389 13.0016L2.2703 13.1794C2.24718 13.2366 2.22381 13.2907 2.2039 13.3432L2.14804 13.4924L2.09914 13.6235L2.06081 13.7359L2.02232 13.8501C2.01335 13.8768 2.01503 13.9059 2.02702 13.9313C2.03901 13.9567 2.06038 13.9765 2.08665 13.9866L2.92024 14.3061C2.97329 14.3265 3.03304 14.3027 3.05756 14.2515L3.10093 14.1608L3.14675 14.0655L3.20414 13.9549C3.22456 13.9155 3.24627 13.8735 3.26917 13.8293C3.29225 13.7852 3.31882 13.74 3.34519 13.6923L3.42852 13.5441L3.52252 13.3884L3.57137 13.3073C3.58872 13.2804 3.6063 13.2533 3.62405 13.2258L3.73271 13.058C3.8111 12.947 3.88776 12.8302 3.97439 12.7175L4.0381 12.6317L4.07004 12.5887L4.10351 12.5466L4.23755 12.3778C4.28311 12.3222 4.3304 12.2681 4.37635 12.2134C4.39965 12.1863 4.42202 12.1586 4.44587 12.1322L4.51723 12.0535L4.58785 11.9754C4.61083 11.9494 4.6345 11.9241 4.65883 11.8993L4.80055 11.7525C4.84699 11.7044 4.89547 11.6598 4.94123 11.6146C4.98734 11.5698 5.03195 11.5256 5.07788 11.4851L5.20954 11.3653C5.25172 11.3263 5.29518 11.2916 5.33532 11.2567L5.45128 11.158C5.48745 11.1293 5.52176 11.1022 5.55399 11.0766C5.58392 11.0528 5.61385 11.029 5.64378 11.0051C5.65651 10.9946 5.67375 10.982 5.68832 10.9709L5.73105 10.9387L5.80881 10.88C5.82067 10.871 5.83057 10.8598 5.8379 10.8468C5.84524 10.8339 5.84984 10.8196 5.85145 10.8049C5.85305 10.7901 5.85161 10.7751 5.84722 10.761C5.84283 10.7468 5.83558 10.7336 5.82592 10.7223L4.87684 9.61045C4.8672 9.59914 4.85536 9.58992 4.84203 9.58336C4.8287 9.57679 4.81417 9.57303 4.79933 9.57229C4.78449 9.57156 4.76966 9.57387 4.75574 9.57908C4.74183 9.58429 4.72913 9.5923 4.71843 9.60261L4.64827 9.6702L4.60972 9.70732C4.59599 9.72065 4.58293 9.73278 4.5659 9.75018L4.4606 9.85646L4.3414 9.97738L4.21857 10.1104C4.1763 10.1571 4.13072 10.2042 4.08662 10.2558L3.94952 10.4147C3.90189 10.4686 3.8558 10.5265 3.80838 10.5852C3.76132 10.6443 3.71171 10.7032 3.66439 10.7656C3.61719 10.8281 3.56922 10.8915 3.52068 10.9558C3.49602 10.9879 3.47216 11.0206 3.44913 11.0539ZM1.72448 14.9522L1.70507 15.0477C1.69762 15.0844 1.69017 15.1211 1.68272 15.1577C1.67474 15.1987 1.66694 15.247 1.65823 15.2964L1.63095 15.4551C1.62631 15.4829 1.621 15.5117 1.6166 15.5407L1.60462 15.6291C1.58906 15.7497 1.56857 15.8794 1.55677 16.0179L1.5357 16.2303C1.52978 16.3029 1.52582 16.3772 1.52071 16.4526C1.50878 16.6031 1.50659 16.7593 1.50161 16.9172L1.5 16.9766L1.50029 17.0362C1.50075 17.1161 1.5012 17.196 1.50166 17.2759L1.50203 17.336L1.50433 17.3961L1.51408 17.6357L1.51653 17.6953L1.51729 17.7146L1.51835 17.7289L1.52047 17.7576L1.52891 17.8721L1.53729 17.9857L1.5487 18.1031L1.5601 18.2189L1.56581 18.2761L1.57288 18.332L1.60062 18.5502L1.63265 18.7583C1.64238 18.8259 1.65491 18.8912 1.66643 18.9544L1.66926 18.9695C1.67389 18.9945 1.68714 19.0172 1.70671 19.0334C1.72628 19.0497 1.75093 19.0586 1.77638 19.0586H2.07018C2.08504 19.0586 2.09974 19.0556 2.11338 19.0497C2.12701 19.0438 2.13931 19.0352 2.1495 19.0244C2.15969 19.0136 2.16756 19.0008 2.17264 18.9868C2.17771 18.9729 2.17988 18.958 2.17901 18.9432C2.17801 18.9265 2.17699 18.9096 2.17587 18.8926C2.1722 18.8316 2.16778 18.7688 2.16636 18.704L2.15984 18.5048C2.1593 18.4178 2.15877 18.3309 2.15825 18.2439L2.15942 18.1912L2.16176 18.0848L2.16413 17.9773L2.16943 17.8635L2.17476 17.7488L2.17611 17.72L2.17677 17.7056L2.17686 17.7038C2.17686 17.6992 2.17695 17.708 2.17699 17.7065L2.17726 17.703L2.17781 17.6961L2.18228 17.6403L2.20012 17.4167L2.20467 17.3608L2.2111 17.3051L2.22392 17.194L2.23663 17.0834L2.24293 17.0284L2.25109 16.9738C2.27346 16.8285 2.29247 16.6857 2.32032 16.5489C2.33339 16.4804 2.34508 16.4129 2.3585 16.3473L2.4013 16.1557C2.42703 16.031 2.46038 15.9151 2.48753 15.8077L2.50795 15.7289C2.51498 15.7037 2.52256 15.6797 2.52955 15.6561L2.56956 15.5221C2.5824 15.4797 2.59295 15.4418 2.60524 15.4038L2.64063 15.2972L2.67133 15.2047C2.67601 15.1906 2.67775 15.1757 2.67645 15.1609C2.67515 15.1461 2.67083 15.1317 2.66377 15.1186C2.6567 15.1056 2.64704 15.0941 2.63537 15.0849C2.6237 15.0757 2.61027 15.069 2.59591 15.0652L1.85939 14.8688C1.84503 14.8649 1.83004 14.864 1.81534 14.8662C1.80064 14.8684 1.78653 14.8735 1.77389 14.8813C1.76125 14.8891 1.75035 14.8995 1.74185 14.9117C1.73335 14.9239 1.72744 14.9377 1.72448 14.9522ZM10.0617 18.7697C10.3013 18.8869 10.5552 18.9424 10.8051 18.9424C11.4324 18.9424 12.0352 18.5929 12.3293 17.9914C12.3859 17.8756 12.4298 17.7478 12.4583 17.6274L14.1731 10.1842L14.8262 7.34955L15.2308 5.59358C15.2779 5.38922 15.1153 5.25 14.9522 5.25C14.8568 5.25 14.7611 5.29773 14.7072 5.40801L13.8838 7.09205L12.6693 9.57637L9.28333 16.5022C8.87211 17.3433 9.22062 18.3585 10.0617 18.7697ZM10.8679 16.3728C11.3268 16.3728 11.6988 16.7448 11.6988 17.2037C11.6988 17.6625 11.3268 18.0346 10.8679 18.0346C10.4091 18.0346 10.0371 17.6625 10.0371 17.2037C10.0371 16.7447 10.4091 16.3728 10.8679 16.3728Z" fill="white"/>
</svg>
