<svg width="32" height="32" viewBox="0 0 32 32" fill="none" xmlns="http://www.w3.org/2000/svg">
<g clip-path="url(#clip0_227_811)">
<path d="M10.7187 6.96219C10.9194 6.2525 10.9763 5.50986 10.886 4.77787C10.735 3.56319 10.1974 2.46338 9.33131 1.59731C9.10364 1.36984 8.85644 1.1628 8.59256 0.978562C7.676 0.338625 6.59731 0.0001875 5.47331 0C5.15071 1.69836e-05 4.82873 0.0282706 4.51106 0.0844375C4.17731 0.143562 3.90944 0.369625 3.79469 0.689C3.67944 1.00956 3.74225 1.35569 3.96269 1.61487L5.71106 3.67081L3.67088 5.711L1.615 3.96263C1.35569 3.74213 1.0095 3.67937 0.688937 3.79469C0.3695 3.90963 0.1435 4.1775 0.0844375 4.51106C0.0282517 4.82871 -2.09301e-06 5.15067 1.1629e-10 5.47325C0.00025 6.59731 0.338625 7.676 0.978562 8.59256C1.16281 8.85644 1.36985 9.10363 1.59731 9.33131C2.46338 10.1974 3.56319 10.735 4.77787 10.886C5.50986 10.9762 6.25249 10.9194 6.96219 10.7187L11.1386 14.8951L14.8951 11.1386L10.7187 6.96219ZM21.2813 25.0378C21.0806 25.7475 21.0237 26.4901 21.114 27.2221C21.265 28.4368 21.8026 29.5366 22.6687 30.4027C22.8963 30.6302 23.1435 30.8372 23.4074 31.0214C24.3241 31.6614 25.4027 31.9998 26.5268 32C26.8493 32 27.1713 31.9717 27.4889 31.9156C27.8225 31.8564 28.0904 31.6305 28.2053 31.3111C28.3207 30.9905 28.2579 30.6444 28.0374 30.3851L26.289 28.3292L28.3292 26.289L30.3851 28.0374C30.6443 28.2578 30.9905 28.3207 31.311 28.2054C31.6304 28.0906 31.8565 27.8227 31.9156 27.4889C31.9718 27.1713 32 26.8493 32 26.5268C31.9998 25.4027 31.6614 24.3241 31.0214 23.4074C30.8372 23.1436 30.6301 22.8964 30.4027 22.6687C29.5366 21.8026 28.4368 21.265 27.2221 21.114C26.4901 21.0238 25.7475 21.0806 25.0378 21.2813L20.8614 17.1049L17.1049 20.8614L21.2813 25.0378ZM31.7239 2.396L29.604 0.276125C29.2909 -0.037 28.8113 -0.089625 28.4377 0.148125L24.0623 2.93244C23.9558 3.00054 23.8641 3.08938 23.7926 3.19367C23.7212 3.29797 23.6714 3.41558 23.6464 3.5395L23.2715 5.41388L11.814 16.8714L15.1286 20.1859L26.5861 8.72844L28.4605 8.35356C28.5844 8.32851 28.702 8.27876 28.8063 8.20729C28.9106 8.13582 28.9994 8.04409 29.0675 7.93756L31.8517 3.56231C32.0896 3.18875 32.0371 2.70913 31.7239 2.396ZM15.6811 23.39L8.61 16.3189C8.24387 15.9528 7.65031 15.9528 7.28419 16.3189C6.91806 16.6851 6.91806 17.2786 7.28419 17.6448L7.50519 17.8657L1.37081 24.0001C-0.456875 25.8278 -0.456875 28.8016 1.37081 30.6292C3.1985 32.4569 6.17225 32.4569 7.99994 30.6292L14.1343 24.4949L14.3553 24.7159C14.7214 25.082 15.315 25.082 15.6811 24.7159C16.0471 24.3498 16.0471 23.7561 15.6811 23.39ZM9.43144 23.8944L4.66075 28.6651C4.29462 29.0312 3.70106 29.0312 3.33494 28.6651C2.96881 28.299 2.96881 27.7054 3.33494 27.3393L8.10563 22.5686C8.47175 22.2025 9.06531 22.2025 9.43144 22.5686C9.7975 22.9347 9.7975 23.5283 9.43144 23.8944Z" fill="white"/>
</g>
<defs>
<clipPath id="clip0_227_811">
<rect width="32" height="32" fill="white"/>
</clipPath>
</defs>
</svg>
