<svg width="21" height="21" viewBox="0 0 21 21" xmlns="http://www.w3.org/2000/svg">
<path d="M18.3885 2.7836C15.8819 3.8216 5.1345 8.2734 2.1649 9.4868C0.173295 10.264 1.3391 10.9926 1.3391 10.9926C1.3391 10.9926 3.0391 11.5754 4.4963 12.0126C5.9535 12.4498 6.7307 11.964 6.7307 11.964L13.5795 7.3494C16.0081 5.698 15.4253 7.058 14.8425 7.6408C13.5795 8.9038 11.4909 10.8952 9.7423 12.4982C8.9651 13.1782 9.35369 13.7612 9.6937 14.0526C10.9567 15.1212 14.4053 17.307 14.5997 17.4528C15.6259 18.1792 17.6443 19.225 17.9513 17.0156L19.1657 9.3896C19.5543 6.8152 19.9429 4.435 19.9915 3.755C20.1371 2.1036 18.3885 2.7836 18.3885 2.7836Z"/>
</svg>
