<svg width="24" height="24" viewBox="0 0 24 24" fill="none" xmlns="http://www.w3.org/2000/svg">
<path d="M13.5755 4.94971H2.62582C1.18162 4.94971 0 6.13133 0 7.57553V16.4245C0 17.8687 1.18162 19.0504 2.62582 19.0504H13.5755C15.0197 19.0504 16.2013 17.8687 16.2013 16.4245V7.57553C16.2013 6.10507 15.0197 4.94971 13.5755 4.94971ZM22.0569 6.39391C21.8993 6.42017 21.7418 6.49894 21.6105 6.57772L17.5142 8.94095V15.0329L21.6368 17.3961C22.3982 17.8425 23.3435 17.5799 23.7899 16.8184C23.9212 16.5821 24 16.3195 24 16.0307V7.91688C24 6.94533 23.081 6.15758 22.0569 6.39391Z" fill="white"/>
</svg>
