<svg width="264" height="102" xmlns="http://www.w3.org/2000/svg" xmlns:xlink="http://www.w3.org/1999/xlink" overflow="hidden"><g transform="translate(-463 -789)"><text fill="#2A3D35" font-family="Roboto,Roboto_MSFontService,sans-serif" font-weight="400" font-size="13" transform="translate(473.291 807)">14</text><text fill="#2A3D35" font-family="Roboto,Roboto_MSFontService,sans-serif" font-weight="400" font-size="13" transform="translate(491.624 807)">отзывов</text><text fill="#2A3D35" font-family="Roboto,Roboto_MSFontService,sans-serif" font-weight="400" font-size="13" transform="translate(473.291 831)">5,0 / 5,0</text><text fill="#2A3D35" font-family="Roboto,Roboto_MSFontService,sans-serif" font-weight="400" font-size="13" transform="translate(473.291 863)">Авито</text><text fill="#2A3D35" font-family="Roboto,Roboto_MSFontService,sans-serif" font-weight="400" font-size="13" transform="translate(511.291 863)">, Яндекс Путешествия,</text><text fill="#2A3D35" font-family="Roboto,Roboto_MSFontService,sans-serif" font-weight="400" font-size="13" transform="translate(473.291 879)">Островок,</text><text fill="#2A3D35" font-family="Roboto,Roboto_MSFontService,sans-serif" font-weight="400" font-size="13" transform="translate(539.458 879)">Суточно</text><path d="M547 823.493 553.875 823.493 556 817 558.125 823.493 565 823.493 559.438 827.507 561.562 834 556 829.987 550.438 834 552.562 827.507Z" fill="#FFC000" fill-rule="evenodd"/><path d="M565 823.493 571.875 823.493 574 817 576.125 823.493 583 823.493 577.438 827.507 579.562 834 574 829.987 568.438 834 570.562 827.507Z" fill="#FFC000" fill-rule="evenodd"/><path d="M583 823.493 589.875 823.493 592 817 594.125 823.493 601 823.493 595.438 827.507 597.562 834 592 829.987 586.438 834 588.562 827.507Z" fill="#FFC000" fill-rule="evenodd"/><path d="M529 823.493 535.875 823.493 538 817 540.125 823.493 547 823.493 541.438 827.507 543.562 834 538 829.987 532.438 834 534.562 827.507Z" fill="#FFC000" fill-rule="evenodd"/><path d="M601 823.493 607.875 823.493 610 817 612.125 823.493 619 823.493 613.438 827.507 615.562 834 610 829.987 604.438 834 606.562 827.507Z" fill="#FFC000" fill-rule="evenodd"/></g></svg>