<svg width="110" height="16" fill="none" xmlns="http://www.w3.org/2000/svg"><path d="M.743.3h6.678c1.596 0 3.003.308 4.221.924 1.232.602 2.184 1.456 2.856 2.562.686 1.106 1.029 2.394 1.029 3.864 0 1.47-.343 2.758-1.029 3.864-.672 1.106-1.624 1.967-2.856 2.583-1.218.602-2.625.903-4.221.903H.743V.3zm6.51 11.907c1.47 0 2.639-.406 3.507-1.218.882-.826 1.323-1.939 1.323-3.339s-.441-2.506-1.323-3.318c-.868-.826-2.037-1.239-3.507-1.239H4.145v9.114h3.108zm21.676-2.814c0 .042-.021.336-.063.882h-8.547c.154.7.518 1.253 1.092 1.659.574.406 1.288.609 2.142.609.588 0 1.106-.084 1.554-.252a3.902 3.902 0 001.28-.84l1.744 1.89c-1.064 1.218-2.618 1.827-4.662 1.827-1.274 0-2.401-.245-3.381-.735-.98-.504-1.736-1.197-2.268-2.079-.532-.882-.798-1.883-.798-3.003 0-1.106.259-2.1.777-2.982a5.513 5.513 0 012.163-2.079c.924-.504 1.953-.756 3.087-.756 1.106 0 2.107.238 3.003.714a5.125 5.125 0 012.1 2.058c.518.882.777 1.911.777 3.087zm-5.86-3.381c-.741 0-1.364.21-1.868.63-.504.42-.812.994-.924 1.722h5.565c-.112-.714-.42-1.281-.924-1.701-.504-.434-1.12-.651-1.848-.651zm19.05-2.31L37.352 15H33.97L29.225 3.702h3.38l3.13 7.686 3.234-7.686h3.15zM57.063 15l-.02-8.82-4.327 7.266h-1.533l-4.305-7.077V15h-3.192V.3H46.5l5.502 9.135L57.42.3h2.793l.042 14.7h-3.192zm16.361-3.15h-6.825L65.297 15h-3.486L68.363.3h3.36L78.296 15h-3.57l-1.302-3.15zm-1.071-2.583l-2.331-5.628-2.331 5.628h4.662zM93.303.3V15H90.51l-7.329-8.925V15h-3.36V.3h2.814l7.308 8.925V.3h3.36zm10.009 14.952c-2.1 0-3.738-.581-4.914-1.743-1.162-1.162-1.743-2.821-1.743-4.977V.3h3.402v8.106c0 2.632 1.092 3.948 3.276 3.948 1.064 0 1.876-.315 2.436-.945.56-.644.84-1.645.84-3.003V.3h3.36v8.232c0 2.156-.588 3.815-1.764 4.977-1.162 1.162-2.793 1.743-4.893 1.743z" fill="#494E52"/></svg>