<svg width="109" height="16" fill="none" xmlns="http://www.w3.org/2000/svg"><path d="M.47.3h6.951c1.61 0 3.038.301 4.284.903 1.246.602 2.212 1.456 2.898 2.562.686 1.106 1.029 2.401 1.029 3.885s-.343 2.779-1.029 3.885c-.686 1.106-1.652 1.96-2.898 2.562-1.246.602-2.674.903-4.284.903H.47V.3zm6.783 11.382c1.26 0 2.268-.357 3.024-1.071.77-.714 1.155-1.701 1.155-2.961 0-1.26-.385-2.247-1.155-2.961-.756-.714-1.764-1.071-3.024-1.071H4.628v8.064h2.625zm20.794-1.743h-9.24c.084 1.148.525 2.079 1.323 2.793.798.7 1.806 1.05 3.024 1.05.686 0 1.316-.119 1.89-.357a4.241 4.241 0 001.49-1.092l.84.966a4.715 4.715 0 01-1.847 1.344c-.728.308-1.533.462-2.415.462-1.134 0-2.142-.238-3.024-.714a5.317 5.317 0 01-2.037-2.016c-.49-.854-.735-1.82-.735-2.898s.23-2.044.693-2.898a5.192 5.192 0 011.932-1.995c.826-.476 1.75-.714 2.772-.714 1.022 0 1.939.238 2.75.714a5.043 5.043 0 011.912 1.995c.462.84.693 1.806.693 2.898l-.021.462zm-5.334-4.788c-1.064 0-1.96.343-2.688 1.029-.714.672-1.12 1.554-1.218 2.646h7.833c-.098-1.092-.511-1.974-1.24-2.646-.713-.686-1.61-1.029-2.687-1.029zm17.466-1.197L35.265 15h-1.533L28.84 3.954h1.554l4.137 9.408 4.18-9.408h1.47zM55.32 15l-.02-8.82-4.327 7.266H49.44l-4.305-7.077V15h-3.192V.3h2.814l5.502 9.135L55.677.3h2.793l.042 14.7H55.32zm16.36-3.15h-6.824L63.554 15h-3.486L66.62.3h3.36L76.553 15h-3.57l-1.302-3.15zm-1.07-2.583l-2.331-5.628-2.331 5.628h4.662zM91.56.3V15h-2.793l-7.329-8.925V15h-3.36V.3h2.814L88.2 9.225V.3h3.36zm10.009 14.952c-2.1 0-3.738-.581-4.914-1.743-1.162-1.162-1.743-2.821-1.743-4.977V.3h3.402v8.106c0 2.632 1.092 3.948 3.276 3.948 1.064 0 1.876-.315 2.436-.945.56-.644.84-1.645.84-3.003V.3h3.36v8.232c0 2.156-.588 3.815-1.764 4.977-1.162 1.162-2.793 1.743-4.893 1.743z" fill="#fff"/></svg>