<svg width="188" height="51" fill="none" xmlns="http://www.w3.org/2000/svg"><g filter="url(#filter0_d)"><path d="M22.87 8.334l10.527 6.31L22.87 21.17l-10.527-6.525 10.527-6.31z" fill="#FF596F"/><g filter="url(#filter1_d)"><path d="M37 12.286l25 14.987-25 15.496-25-15.496 25-14.987z" fill="#650743"/></g><g filter="url(#filter2_d)"><path d="M39.299 4.889l15.79 9.465-15.79 9.787-15.79-9.787L39.3 4.89z" fill="#CD1456"/></g></g><path d="M75.743 10.3h6.678c1.596 0 3.003.308 4.221.924 1.232.602 2.184 1.456 2.856 2.562.686 1.106 1.03 2.394 1.03 3.864 0 1.47-.344 2.758-1.03 3.864-.672 1.106-1.624 1.967-2.856 2.583-1.218.602-2.625.903-4.22.903h-6.679V10.3zm6.51 11.907c1.47 0 2.64-.406 3.507-1.218.882-.826 1.323-1.939 1.323-3.339s-.44-2.506-1.323-3.318c-.868-.826-2.037-1.239-3.507-1.239h-3.108v9.114h3.108zm21.676-2.814c0 .042-.021.336-.063.882h-8.547c.154.7.518 1.253 1.092 1.659.574.406 1.288.609 2.142.609.588 0 1.106-.084 1.554-.252a3.902 3.902 0 001.281-.84l1.743 1.89c-1.064 1.218-2.618 1.827-4.662 1.827-1.274 0-2.401-.245-3.381-.735-.98-.504-1.736-1.197-2.268-2.079-.532-.882-.798-1.883-.798-3.003 0-1.106.259-2.1.777-2.982a5.513 5.513 0 012.163-2.079c.924-.504 1.953-.756 3.087-.756 1.106 0 2.107.238 3.003.714a5.125 5.125 0 012.1 2.058c.518.882.777 1.911.777 3.087zm-5.86-3.381c-.741 0-1.364.21-1.868.63-.504.42-.812.994-.924 1.722h5.565c-.112-.714-.42-1.281-.924-1.701-.504-.434-1.12-.651-1.848-.651zm19.05-2.31L112.352 25h-3.381l-4.746-11.298h3.381l3.129 7.686 3.234-7.686h3.15zM132.063 25l-.021-8.82-4.326 7.266h-1.533l-4.305-7.077V25h-3.192V10.3h2.814l5.502 9.135 5.418-9.135h2.793l.042 14.7h-3.192zm16.361-3.15h-6.825L140.297 25h-3.486l6.552-14.7h3.36l6.573 14.7h-3.57l-1.302-3.15zm-1.071-2.583l-2.331-5.628-2.331 5.628h4.662zm20.95-8.967V25h-2.793l-7.329-8.925V25h-3.36V10.3h2.814l7.308 8.925V10.3h3.36zm10.009 14.952c-2.1 0-3.738-.581-4.914-1.743-1.162-1.162-1.743-2.821-1.743-4.977V10.3h3.402v8.106c0 2.632 1.092 3.948 3.276 3.948 1.064 0 1.876-.315 2.436-.945.56-.644.84-1.645.84-3.003V10.3h3.36v8.232c0 2.156-.588 3.815-1.764 4.977-1.162 1.162-2.793 1.743-4.893 1.743zM82.93 32.7L80.95 38h-.92l-1.53-4.02L76.95 38h-.92l-1.97-5.3h.91l1.54 4.22 1.6-4.22h.81l1.57 4.24 1.58-4.24h.86zm5.618 2.68c0 .073-.007.17-.02.29h-4.3c.06.467.263.843.61 1.13.353.28.79.42 1.31.42.633 0 1.143-.213 1.53-.64l.53.62c-.24.28-.54.493-.9.64-.354.147-.75.22-1.19.22-.56 0-1.057-.113-1.49-.34a2.528 2.528 0 01-1.01-.97 2.798 2.798 0 01-.35-1.4c0-.513.113-.977.34-1.39.233-.413.55-.733.95-.96.406-.233.863-.35 1.37-.35.506 0 .956.117 1.35.35.4.227.71.547.93.96.226.413.34.887.34 1.42zm-2.62-1.92c-.46 0-.847.14-1.16.42-.307.28-.487.647-.54 1.1h3.4a1.674 1.674 0 00-.55-1.09c-.307-.287-.69-.43-1.15-.43zm6.763-.81c.513 0 .973.113 1.38.34.406.227.723.543.95.95.233.407.35.877.35 1.41 0 .533-.117 1.007-.35 1.42a2.412 2.412 0 01-.95.95c-.407.227-.867.34-1.38.34a2.51 2.51 0 01-1.08-.23 2.078 2.078 0 01-.81-.67V38h-.92v-7.42h.96v2.92c.213-.28.48-.49.8-.63.32-.147.67-.22 1.05-.22zm-.08 4.57c.34 0 .643-.077.91-.23a1.7 1.7 0 00.64-.66c.16-.287.24-.613.24-.98s-.08-.69-.24-.97a1.608 1.608 0 00-.64-.66 1.793 1.793 0 00-.91-.23c-.334 0-.637.077-.91.23a1.607 1.607 0 00-.64.66c-.154.28-.23.603-.23.97s.076.693.23.98c.153.28.366.5.64.66.273.153.576.23.91.23zm8.292.84c-.434 0-.85-.057-1.25-.17-.4-.12-.714-.27-.94-.45l.4-.76c.233.167.516.3.85.4.333.1.67.15 1.01.15.84 0 1.26-.24 1.26-.72a.467.467 0 00-.17-.38 1.035 1.035 0 00-.43-.2 7.57 7.57 0 00-.72-.15 7.286 7.286 0 01-1.05-.23 1.615 1.615 0 01-.69-.44c-.194-.207-.29-.497-.29-.87 0-.48.2-.863.6-1.15.4-.293.936-.44 1.61-.44.353 0 .706.043 1.06.13.353.087.643.203.87.35l-.41.76c-.434-.28-.944-.42-1.53-.42-.407 0-.717.067-.93.2-.214.133-.32.31-.32.53 0 .173.06.31.18.41.12.1.266.173.44.22.18.047.43.1.75.16.426.073.77.153 1.03.24.266.08.493.22.68.42.186.2.28.48.28.84 0 .48-.207.863-.62 1.15-.407.28-.964.42-1.67.42zm3.489-5.36h.96V38h-.96v-5.3zm.48-1.02a.659.659 0 01-.47-.18.599.599 0 01-.18-.44c0-.173.06-.32.18-.44a.64.64 0 01.47-.19c.187 0 .34.06.46.18a.55.55 0 01.19.43c0 .18-.063.333-.19.46a.622.622 0 01-.46.18zm5.293 6.01a1.49 1.49 0 01-.52.28c-.206.06-.42.09-.64.09-.533 0-.946-.143-1.24-.43-.293-.287-.44-.697-.44-1.23v-2.91h-.9v-.79h.9v-1.16h.96v1.16h1.52v.79h-1.52v2.87c0 .287.07.507.21.66.147.153.354.23.62.23.294 0 .544-.083.75-.25l.3.69zm5.775-2.31c0 .073-.006.17-.02.29h-4.3c.06.467.264.843.61 1.13.354.28.79.42 1.31.42.634 0 1.144-.213 1.53-.64l.53.62c-.24.28-.54.493-.9.64a3.07 3.07 0 01-1.19.22c-.56 0-1.056-.113-1.49-.34a2.53 2.53 0 01-1.01-.97 2.801 2.801 0 01-.35-1.4c0-.513.114-.977.34-1.39a2.49 2.49 0 01.95-.96c.407-.233.864-.35 1.37-.35.507 0 .957.117 1.35.35.4.227.71.547.93.96.227.413.34.887.34 1.42zm-2.62-1.92c-.46 0-.846.14-1.16.42-.306.28-.486.647-.54 1.1h3.4a1.67 1.67 0 00-.55-1.09c-.306-.287-.69-.43-1.15-.43zm11.639-2.88V38h-.92v-.84a2.074 2.074 0 01-.81.67c-.327.153-.687.23-1.08.23-.513 0-.973-.113-1.38-.34a2.476 2.476 0 01-.96-.95c-.227-.413-.34-.887-.34-1.42 0-.533.113-1.003.34-1.41.233-.407.553-.723.96-.95.407-.227.867-.34 1.38-.34.38 0 .73.073 1.05.22.32.14.587.35.8.63v-2.92h.96zm-2.73 6.64c.333 0 .637-.077.91-.23.273-.16.487-.38.64-.66a2.05 2.05 0 00.23-.98c0-.367-.077-.69-.23-.97a1.607 1.607 0 00-.64-.66 1.828 1.828 0 00-.91-.23c-.34 0-.647.077-.92.23-.267.153-.48.373-.64.66a1.99 1.99 0 00-.23.97c0 .367.077.693.23.98.16.28.373.5.64.66.273.153.58.23.92.23zm9.336-1.84c0 .073-.006.17-.02.29h-4.3c.06.467.264.843.61 1.13.354.28.79.42 1.31.42.634 0 1.144-.213 1.53-.64l.53.62c-.24.28-.54.493-.9.64a3.07 3.07 0 01-1.19.22c-.56 0-1.056-.113-1.49-.34a2.53 2.53 0 01-1.01-.97 2.801 2.801 0 01-.35-1.4c0-.513.114-.977.34-1.39a2.49 2.49 0 01.95-.96c.407-.233.864-.35 1.37-.35.507 0 .957.117 1.35.35.4.227.71.547.93.96.227.413.34.887.34 1.42zm-2.62-1.92c-.46 0-.846.14-1.16.42-.306.28-.486.647-.54 1.1h3.4a1.67 1.67 0 00-.55-1.09c-.306-.287-.69-.43-1.15-.43zm8.546-.76l-2.32 5.3h-.98l-2.32-5.3h1l1.82 4.25 1.86-4.25h.94zm5.539 2.68c0 .073-.007.17-.02.29h-4.3c.06.467.263.843.61 1.13.353.28.79.42 1.31.42.633 0 1.143-.213 1.53-.64l.53.62c-.24.28-.54.493-.9.64a3.07 3.07 0 01-1.19.22c-.56 0-1.057-.113-1.49-.34a2.53 2.53 0 01-1.01-.97 2.801 2.801 0 01-.35-1.4c0-.513.113-.977.34-1.39a2.48 2.48 0 01.95-.96c.407-.233.863-.35 1.37-.35.507 0 .957.117 1.35.35.4.227.71.547.93.96.227.413.34.887.34 1.42zm-2.62-1.92c-.46 0-.847.14-1.16.42-.307.28-.487.647-.54 1.1h3.4a1.674 1.674 0 00-.55-1.09c-.307-.287-.69-.43-1.15-.43zm3.953-2.88h.96V38h-.96v-7.42zm5.063 7.48c-.527 0-1-.117-1.42-.35a2.585 2.585 0 01-.99-.96 2.801 2.801 0 01-.35-1.4c0-.52.117-.983.35-1.39.24-.413.57-.733.99-.96.42-.233.893-.35 1.42-.35.527 0 .997.117 1.41.35.42.227.747.547.98.96.24.407.36.87.36 1.39 0 .52-.12.987-.36 1.4a2.51 2.51 0 01-.98.96 2.82 2.82 0 01-1.41.35zm0-.84c.34 0 .643-.077.91-.23.273-.16.487-.38.64-.66a2.05 2.05 0 00.23-.98c0-.367-.077-.69-.23-.97a1.607 1.607 0 00-.64-.66 1.794 1.794 0 00-.91-.23c-.34 0-.647.077-.92.23-.267.153-.48.373-.64.66a1.99 1.99 0 00-.23.97c0 .367.077.693.23.98.16.28.373.5.64.66.273.153.58.23.92.23zm6.888-4.57c.513 0 .973.113 1.38.34.406.227.723.543.95.95.233.407.35.877.35 1.41 0 .533-.117 1.007-.35 1.42a2.418 2.418 0 01-.95.95c-.407.227-.867.34-1.38.34-.38 0-.73-.073-1.05-.22a2.18 2.18 0 01-.8-.64v2.74h-.96V32.7h.92v.84a2 2 0 01.81-.66 2.51 2.51 0 011.08-.23zm-.08 4.57c.34 0 .643-.077.91-.23a1.7 1.7 0 00.64-.66c.16-.287.24-.613.24-.98s-.08-.69-.24-.97a1.613 1.613 0 00-.64-.66 1.794 1.794 0 00-.91-.23c-.334 0-.637.08-.91.24a1.71 1.71 0 00-.64.65 1.98 1.98 0 00-.23.97c0 .367.076.693.23.98.153.28.366.5.64.66.273.153.576.23.91.23zm10.716-4.57c.667 0 1.194.193 1.58.58.394.387.59.96.59 1.72V38h-.96v-2.94c0-.513-.12-.9-.36-1.16-.233-.26-.57-.39-1.01-.39-.486 0-.873.153-1.16.46-.286.3-.43.733-.43 1.3V38h-.96v-2.94c0-.513-.12-.9-.36-1.16-.233-.26-.57-.39-1.01-.39-.486 0-.873.153-1.16.46-.286.3-.43.733-.43 1.3V38h-.96v-5.3h.92v.79a1.83 1.83 0 01.76-.62c.314-.147.67-.22 1.07-.22.414 0 .78.083 1.1.25.32.167.567.41.74.73.2-.307.477-.547.83-.72a2.76 2.76 0 011.21-.26zm8.756 2.73c0 .073-.007.17-.02.29h-4.3c.06.467.263.843.61 1.13.353.28.79.42 1.31.42.633 0 1.143-.213 1.53-.64l.53.62c-.24.28-.54.493-.9.64a3.07 3.07 0 01-1.19.22c-.56 0-1.057-.113-1.49-.34a2.53 2.53 0 01-1.01-.97 2.801 2.801 0 01-.35-1.4c0-.513.113-.977.34-1.39a2.48 2.48 0 01.95-.96c.407-.233.863-.35 1.37-.35.507 0 .957.117 1.35.35.4.227.71.547.93.96.227.413.34.887.34 1.42zm-2.62-1.92c-.46 0-.847.14-1.16.42-.307.28-.487.647-.54 1.1h3.4a1.674 1.674 0 00-.55-1.09c-.307-.287-.69-.43-1.15-.43zm6.783-.81c.673 0 1.207.197 1.6.59.4.387.6.957.6 1.71V38h-.96v-2.94c0-.513-.123-.9-.37-1.16-.247-.26-.6-.39-1.06-.39-.52 0-.93.153-1.23.46-.3.3-.45.733-.45 1.3V38h-.96v-5.3h.92v.8c.193-.273.453-.483.78-.63.333-.147.71-.22 1.13-.22zm6.957 5.04c-.14.12-.314.213-.52.28-.207.06-.42.09-.64.09-.534 0-.947-.143-1.24-.43-.294-.287-.44-.697-.44-1.23v-2.91h-.9v-.79h.9v-1.16h.96v1.16h1.52v.79h-1.52v2.87c0 .287.07.507.21.66.146.153.353.23.62.23.293 0 .543-.083.75-.25l.3.69z" fill="#494E52"/><path stroke="#3D3C55" stroke-opacity=".25" d="M67.5 5v40"/><defs><filter id="filter0_d" x="8" y="4.889" width="58" height="45.88" filterUnits="userSpaceOnUse" color-interpolation-filters="sRGB"><feFlood flood-opacity="0" result="BackgroundImageFix"/><feColorMatrix in="SourceAlpha" values="0 0 0 0 0 0 0 0 0 0 0 0 0 0 0 0 0 0 127 0"/><feOffset dy="4"/><feGaussianBlur stdDeviation="2"/><feColorMatrix values="0 0 0 0 0 0 0 0 0 0 0 0 0 0 0 0 0 0 0.25 0"/><feBlend in2="BackgroundImageFix" result="effect1_dropShadow"/><feBlend in="SourceGraphic" in2="effect1_dropShadow" result="shape"/></filter><filter id="filter1_d" x="0" y=".286" width="66" height="46.483" filterUnits="userSpaceOnUse" color-interpolation-filters="sRGB"><feFlood flood-opacity="0" result="BackgroundImageFix"/><feColorMatrix in="SourceAlpha" values="0 0 0 0 0 0 0 0 0 0 0 0 0 0 0 0 0 0 127 0"/><feOffset dx="-4" dy="-4"/><feGaussianBlur stdDeviation="4"/><feColorMatrix values="0 0 0 0 0 0 0 0 0 0 0 0 0 0 0 0 0 0 0.35 0"/><feBlend in2="BackgroundImageFix" result="effect1_dropShadow"/><feBlend in="SourceGraphic" in2="effect1_dropShadow" result="shape"/></filter><filter id="filter2_d" x="19.509" y="4.889" width="39.579" height="27.252" filterUnits="userSpaceOnUse" color-interpolation-filters="sRGB"><feFlood flood-opacity="0" result="BackgroundImageFix"/><feColorMatrix in="SourceAlpha" values="0 0 0 0 0 0 0 0 0 0 0 0 0 0 0 0 0 0 127 0"/><feOffset dy="4"/><feGaussianBlur stdDeviation="2"/><feColorMatrix values="0 0 0 0 0 0 0 0 0 0 0 0 0 0 0 0 0 0 0.3 0"/><feBlend in2="BackgroundImageFix" result="effect1_dropShadow"/><feBlend in="SourceGraphic" in2="effect1_dropShadow" result="shape"/></filter></defs></svg>