<svg width="194" height="46" fill="none" xmlns="http://www.w3.org/2000/svg"><path d="M71.909 15.9h7.314c1.748 0 3.289.337 4.623 1.012 1.35.66 2.392 1.595 3.128 2.806.751 1.211 1.127 2.622 1.127 4.232 0 1.61-.376 3.02-1.127 4.232-.736 1.211-1.779 2.154-3.128 2.829-1.334.66-2.875.989-4.623.989h-7.314V15.9zm7.13 13.041c1.61 0 2.89-.445 3.841-1.334.966-.905 1.449-2.124 1.449-3.657s-.483-2.745-1.449-3.634c-.95-.905-2.231-1.357-3.841-1.357h-3.404v9.982h3.404zm23.74-3.082c0 .046-.023.368-.069.966h-9.361a2.915 2.915 0 001.196 1.817c.629.445 1.41.667 2.346.667.644 0 1.211-.092 1.702-.276.506-.2.974-.506 1.403-.92l1.909 2.07c-1.165 1.334-2.867 2.001-5.106 2.001-1.395 0-2.63-.268-3.703-.805-1.073-.552-1.901-1.311-2.484-2.277-.583-.966-.874-2.062-.874-3.289 0-1.211.284-2.3.851-3.266a6.038 6.038 0 012.369-2.277c1.012-.552 2.139-.828 3.381-.828 1.211 0 2.308.26 3.289.782a5.615 5.615 0 012.3 2.254c.567.966.851 2.093.851 3.381zm-6.417-3.703c-.813 0-1.495.23-2.047.69-.552.46-.89 1.089-1.012 1.886h6.095c-.123-.782-.46-1.403-1.012-1.863-.552-.475-1.227-.713-2.024-.713zm20.863-2.53L112.004 32h-3.703l-5.198-12.374h3.703l3.427 8.418 3.542-8.418h3.45zM133.593 32l-.023-9.66-4.738 7.958h-1.679l-4.715-7.751V32h-3.496V15.9h3.082l6.026 10.005 5.934-10.005h3.059l.046 16.1h-3.496zm17.919-3.45h-7.475L142.611 32h-3.818l7.176-16.1h3.68l7.199 16.1h-3.91l-1.426-3.45zm-1.173-2.829l-2.553-6.164-2.553 6.164h5.106zm22.945-9.821V32h-3.059l-8.027-9.775V32h-3.68V15.9h3.082l8.004 9.775V15.9h3.68zm10.963 16.376c-2.3 0-4.094-.636-5.382-1.909-1.273-1.273-1.909-3.09-1.909-5.451V15.9h3.726v8.878c0 2.883 1.196 4.324 3.588 4.324 1.165 0 2.054-.345 2.668-1.035.613-.705.92-1.802.92-3.289V15.9h3.68v9.016c0 2.361-.644 4.178-1.932 5.451-1.273 1.273-3.059 1.909-5.359 1.909z" fill="#E9E9E9"/><path stroke="#FFFDFD" stroke-opacity=".35" d="M63.5 4v40"/><path d="M21.784 8.5l9.473 5.68-9.473 5.872-9.474-5.872 9.474-5.68z" fill="#FF596F"/><g filter="url(#filter0_d)"><path d="M34.5 12.057L57 25.546 34.5 39.492 12 25.546l22.5-13.489z" fill="#650743"/></g><g filter="url(#filter1_d)"><path d="M36.569 5.4l14.21 8.519-14.21 8.808-14.21-8.808 14.21-8.52z" fill="#CD1456"/></g><defs><filter id="filter0_d" x="0" y=".057" width="61" height="43.434" filterUnits="userSpaceOnUse" color-interpolation-filters="sRGB"><feFlood flood-opacity="0" result="BackgroundImageFix"/><feColorMatrix in="SourceAlpha" values="0 0 0 0 0 0 0 0 0 0 0 0 0 0 0 0 0 0 127 0"/><feOffset dx="-4" dy="-4"/><feGaussianBlur stdDeviation="4"/><feColorMatrix values="0 0 0 0 0 0 0 0 0 0 0 0 0 0 0 0 0 0 0.35 0"/><feBlend in2="BackgroundImageFix" result="effect1_dropShadow"/><feBlend in="SourceGraphic" in2="effect1_dropShadow" result="shape"/></filter><filter id="filter1_d" x="18.358" y="5.4" width="36.421" height="25.327" filterUnits="userSpaceOnUse" color-interpolation-filters="sRGB"><feFlood flood-opacity="0" result="BackgroundImageFix"/><feColorMatrix in="SourceAlpha" values="0 0 0 0 0 0 0 0 0 0 0 0 0 0 0 0 0 0 127 0"/><feOffset dy="4"/><feGaussianBlur stdDeviation="2"/><feColorMatrix values="0 0 0 0 0 0 0 0 0 0 0 0 0 0 0 0 0 0 0.3 0"/><feBlend in2="BackgroundImageFix" result="effect1_dropShadow"/><feBlend in="SourceGraphic" in2="effect1_dropShadow" result="shape"/></filter></defs></svg>