<svg width="188" height="51" viewBox="0 0 188 51" fill="none" xmlns="http://www.w3.org/2000/svg">
<g filter="url(#filter0_d)">
<path d="M22.8706 8.33412L33.3969 14.6443L22.8706 21.1689L12.3443 14.6443L22.8706 8.33412Z" fill="#FF596F"/>
<g filter="url(#filter1_d)">
<path d="M37 12.2861L62 27.2728L37 42.7687L12 27.2728L37 12.2861Z" fill="#650743"/>
</g>
<g filter="url(#filter2_d)">
<path d="M39.2986 4.88876L55.0881 14.3541L39.2986 24.1409L23.5092 14.3541L39.2986 4.88876Z" fill="#CD1456"/>
</g>
</g>
<path d="M75.7431 10.3H82.4211C84.0171 10.3 85.4241 10.608 86.6421 11.224C87.8741 11.826 88.8261 12.68 89.4981 13.786C90.1841 14.892 90.5271 16.18 90.5271 17.65C90.5271 19.12 90.1841 20.408 89.4981 21.514C88.8261 22.62 87.8741 23.481 86.6421 24.097C85.4241 24.699 84.0171 25 82.4211 25H75.7431V10.3ZM82.2531 22.207C83.7231 22.207 84.8921 21.801 85.7601 20.989C86.6421 20.163 87.0831 19.05 87.0831 17.65C87.0831 16.25 86.6421 15.144 85.7601 14.332C84.8921 13.506 83.7231 13.093 82.2531 13.093H79.1451V22.207H82.2531ZM103.929 19.393C103.929 19.435 103.908 19.729 103.866 20.275H95.3187C95.4727 20.975 95.8367 21.528 96.4107 21.934C96.9847 22.34 97.6987 22.543 98.5527 22.543C99.1407 22.543 99.6587 22.459 100.107 22.291C100.569 22.109 100.996 21.829 101.388 21.451L103.131 23.341C102.067 24.559 100.513 25.168 98.4687 25.168C97.1947 25.168 96.0677 24.923 95.0877 24.433C94.1077 23.929 93.3517 23.236 92.8197 22.354C92.2877 21.472 92.0217 20.471 92.0217 19.351C92.0217 18.245 92.2807 17.251 92.7987 16.369C93.3307 15.473 94.0517 14.78 94.9617 14.29C95.8857 13.786 96.9147 13.534 98.0487 13.534C99.1547 13.534 100.156 13.772 101.052 14.248C101.948 14.724 102.648 15.41 103.152 16.306C103.67 17.188 103.929 18.217 103.929 19.393ZM98.0697 16.012C97.3277 16.012 96.7047 16.222 96.2007 16.642C95.6967 17.062 95.3887 17.636 95.2767 18.364H100.842C100.73 17.65 100.422 17.083 99.9177 16.663C99.4137 16.229 98.7977 16.012 98.0697 16.012ZM117.119 13.702L112.352 25H108.971L104.225 13.702H107.606L110.735 21.388L113.969 13.702H117.119ZM132.063 25L132.042 16.18L127.716 23.446H126.183L121.878 16.369V25H118.686V10.3H121.5L127.002 19.435L132.42 10.3H135.213L135.255 25H132.063ZM148.424 21.85H141.599L140.297 25H136.811L143.363 10.3H146.723L153.296 25H149.726L148.424 21.85ZM147.353 19.267L145.022 13.639L142.691 19.267H147.353ZM168.303 10.3V25H165.51L158.181 16.075V25H154.821V10.3H157.635L164.943 19.225V10.3H168.303ZM178.312 25.252C176.212 25.252 174.574 24.671 173.398 23.509C172.236 22.347 171.655 20.688 171.655 18.532V10.3H175.057V18.406C175.057 21.038 176.149 22.354 178.333 22.354C179.397 22.354 180.209 22.039 180.769 21.409C181.329 20.765 181.609 19.764 181.609 18.406V10.3H184.969V18.532C184.969 20.688 184.381 22.347 183.205 23.509C182.043 24.671 180.412 25.252 178.312 25.252Z" fill="#494E52"/>
<path d="M82.9301 32.7L80.9501 38H80.0301L78.5001 33.98L76.9501 38H76.0301L74.0601 32.7H74.9701L76.5101 36.92L78.1101 32.7H78.9201L80.4901 36.94L82.0701 32.7H82.9301ZM88.5477 35.38C88.5477 35.4533 88.5411 35.55 88.5277 35.67H84.2277C84.2877 36.1367 84.4911 36.5133 84.8377 36.8C85.1911 37.08 85.6277 37.22 86.1477 37.22C86.7811 37.22 87.2911 37.0067 87.6777 36.58L88.2077 37.2C87.9677 37.48 87.6677 37.6933 87.3077 37.84C86.9544 37.9867 86.5577 38.06 86.1177 38.06C85.5577 38.06 85.0611 37.9467 84.6277 37.72C84.1944 37.4867 83.8577 37.1633 83.6177 36.75C83.3844 36.3367 83.2677 35.87 83.2677 35.35C83.2677 34.8367 83.3811 34.3733 83.6077 33.96C83.8411 33.5467 84.1577 33.2267 84.5577 33C84.9644 32.7667 85.4211 32.65 85.9277 32.65C86.4344 32.65 86.8844 32.7667 87.2777 33C87.6777 33.2267 87.9877 33.5467 88.2077 33.96C88.4344 34.3733 88.5477 34.8467 88.5477 35.38ZM85.9277 33.46C85.4677 33.46 85.0811 33.6 84.7677 33.88C84.4611 34.16 84.2811 34.5267 84.2277 34.98H87.6277C87.5744 34.5333 87.3911 34.17 87.0777 33.89C86.7711 33.6033 86.3877 33.46 85.9277 33.46ZM92.6908 32.65C93.2041 32.65 93.6641 32.7633 94.0708 32.99C94.4774 33.2167 94.7941 33.5333 95.0208 33.94C95.2541 34.3467 95.3708 34.8167 95.3708 35.35C95.3708 35.8833 95.2541 36.3567 95.0208 36.77C94.7941 37.1767 94.4774 37.4933 94.0708 37.72C93.6641 37.9467 93.2041 38.06 92.6908 38.06C92.2974 38.06 91.9374 37.9833 91.6108 37.83C91.2841 37.6767 91.0141 37.4533 90.8008 37.16V38H89.8808V30.58H90.8408V33.5C91.0541 33.22 91.3208 33.01 91.6408 32.87C91.9608 32.7233 92.3108 32.65 92.6908 32.65ZM92.6108 37.22C92.9508 37.22 93.2541 37.1433 93.5208 36.99C93.7941 36.83 94.0074 36.61 94.1608 36.33C94.3208 36.0433 94.4008 35.7167 94.4008 35.35C94.4008 34.9833 94.3208 34.66 94.1608 34.38C94.0074 34.0933 93.7941 33.8733 93.5208 33.72C93.2541 33.5667 92.9508 33.49 92.6108 33.49C92.2774 33.49 91.9741 33.5667 91.7008 33.72C91.4274 33.8733 91.2141 34.0933 91.0608 34.38C90.9074 34.66 90.8308 34.9833 90.8308 35.35C90.8308 35.7167 90.9074 36.0433 91.0608 36.33C91.2141 36.61 91.4274 36.83 91.7008 36.99C91.9741 37.1433 92.2774 37.22 92.6108 37.22ZM100.903 38.06C100.469 38.06 100.053 38.0033 99.6527 37.89C99.2527 37.77 98.9394 37.62 98.7127 37.44L99.1127 36.68C99.3461 36.8467 99.6294 36.98 99.9627 37.08C100.296 37.18 100.633 37.23 100.973 37.23C101.813 37.23 102.233 36.99 102.233 36.51C102.233 36.35 102.176 36.2233 102.063 36.13C101.949 36.0367 101.806 35.97 101.633 35.93C101.466 35.8833 101.226 35.8333 100.913 35.78C100.486 35.7133 100.136 35.6367 99.8627 35.55C99.5961 35.4633 99.3661 35.3167 99.1727 35.11C98.9794 34.9033 98.8827 34.6133 98.8827 34.24C98.8827 33.76 99.0827 33.3767 99.4827 33.09C99.8827 32.7967 100.419 32.65 101.093 32.65C101.446 32.65 101.799 32.6933 102.153 32.78C102.506 32.8667 102.796 32.9833 103.023 33.13L102.613 33.89C102.179 33.61 101.669 33.47 101.083 33.47C100.676 33.47 100.366 33.5367 100.153 33.67C99.9394 33.8033 99.8327 33.98 99.8327 34.2C99.8327 34.3733 99.8927 34.51 100.013 34.61C100.133 34.71 100.279 34.7833 100.453 34.83C100.633 34.8767 100.883 34.93 101.203 34.99C101.629 35.0633 101.973 35.1433 102.233 35.23C102.499 35.31 102.726 35.45 102.913 35.65C103.099 35.85 103.193 36.13 103.193 36.49C103.193 36.97 102.986 37.3533 102.573 37.64C102.166 37.92 101.609 38.06 100.903 38.06ZM104.392 32.7H105.352V38H104.392V32.7ZM104.872 31.68C104.686 31.68 104.529 31.62 104.402 31.5C104.282 31.38 104.222 31.2333 104.222 31.06C104.222 30.8867 104.282 30.74 104.402 30.62C104.529 30.4933 104.686 30.43 104.872 30.43C105.059 30.43 105.212 30.49 105.332 30.61C105.459 30.7233 105.522 30.8667 105.522 31.04C105.522 31.22 105.459 31.3733 105.332 31.5C105.212 31.62 105.059 31.68 104.872 31.68ZM110.165 37.69C110.025 37.81 109.852 37.9033 109.645 37.97C109.439 38.03 109.225 38.06 109.005 38.06C108.472 38.06 108.059 37.9167 107.765 37.63C107.472 37.3433 107.325 36.9333 107.325 36.4V33.49H106.425V32.7H107.325V31.54H108.285V32.7H109.805V33.49H108.285V36.36C108.285 36.6467 108.355 36.8667 108.495 37.02C108.642 37.1733 108.849 37.25 109.115 37.25C109.409 37.25 109.659 37.1667 109.865 37L110.165 37.69ZM115.94 35.38C115.94 35.4533 115.934 35.55 115.92 35.67H111.62C111.68 36.1367 111.884 36.5133 112.23 36.8C112.584 37.08 113.02 37.22 113.54 37.22C114.174 37.22 114.684 37.0067 115.07 36.58L115.6 37.2C115.36 37.48 115.06 37.6933 114.7 37.84C114.347 37.9867 113.95 38.06 113.51 38.06C112.95 38.06 112.454 37.9467 112.02 37.72C111.587 37.4867 111.25 37.1633 111.01 36.75C110.777 36.3367 110.66 35.87 110.66 35.35C110.66 34.8367 110.774 34.3733 111 33.96C111.234 33.5467 111.55 33.2267 111.95 33C112.357 32.7667 112.814 32.65 113.32 32.65C113.827 32.65 114.277 32.7667 114.67 33C115.07 33.2267 115.38 33.5467 115.6 33.96C115.827 34.3733 115.94 34.8467 115.94 35.38ZM113.32 33.46C112.86 33.46 112.474 33.6 112.16 33.88C111.854 34.16 111.674 34.5267 111.62 34.98H115.02C114.967 34.5333 114.784 34.17 114.47 33.89C114.164 33.6033 113.78 33.46 113.32 33.46ZM124.959 30.58V38H124.039V37.16C123.826 37.4533 123.556 37.6767 123.229 37.83C122.902 37.9833 122.542 38.06 122.149 38.06C121.636 38.06 121.176 37.9467 120.769 37.72C120.362 37.4933 120.042 37.1767 119.809 36.77C119.582 36.3567 119.469 35.8833 119.469 35.35C119.469 34.8167 119.582 34.3467 119.809 33.94C120.042 33.5333 120.362 33.2167 120.769 32.99C121.176 32.7633 121.636 32.65 122.149 32.65C122.529 32.65 122.879 32.7233 123.199 32.87C123.519 33.01 123.786 33.22 123.999 33.5V30.58H124.959ZM122.229 37.22C122.562 37.22 122.866 37.1433 123.139 36.99C123.412 36.83 123.626 36.61 123.779 36.33C123.932 36.0433 124.009 35.7167 124.009 35.35C124.009 34.9833 123.932 34.66 123.779 34.38C123.626 34.0933 123.412 33.8733 123.139 33.72C122.866 33.5667 122.562 33.49 122.229 33.49C121.889 33.49 121.582 33.5667 121.309 33.72C121.042 33.8733 120.829 34.0933 120.669 34.38C120.516 34.66 120.439 34.9833 120.439 35.35C120.439 35.7167 120.516 36.0433 120.669 36.33C120.829 36.61 121.042 36.83 121.309 36.99C121.582 37.1433 121.889 37.22 122.229 37.22ZM131.565 35.38C131.565 35.4533 131.559 35.55 131.545 35.67H127.245C127.305 36.1367 127.509 36.5133 127.855 36.8C128.209 37.08 128.645 37.22 129.165 37.22C129.799 37.22 130.309 37.0067 130.695 36.58L131.225 37.2C130.985 37.48 130.685 37.6933 130.325 37.84C129.972 37.9867 129.575 38.06 129.135 38.06C128.575 38.06 128.079 37.9467 127.645 37.72C127.212 37.4867 126.875 37.1633 126.635 36.75C126.402 36.3367 126.285 35.87 126.285 35.35C126.285 34.8367 126.399 34.3733 126.625 33.96C126.859 33.5467 127.175 33.2267 127.575 33C127.982 32.7667 128.439 32.65 128.945 32.65C129.452 32.65 129.902 32.7667 130.295 33C130.695 33.2267 131.005 33.5467 131.225 33.96C131.452 34.3733 131.565 34.8467 131.565 35.38ZM128.945 33.46C128.485 33.46 128.099 33.6 127.785 33.88C127.479 34.16 127.299 34.5267 127.245 34.98H130.645C130.592 34.5333 130.409 34.17 130.095 33.89C129.789 33.6033 129.405 33.46 128.945 33.46ZM137.491 32.7L135.171 38H134.191L131.871 32.7H132.871L134.691 36.95L136.551 32.7H137.491ZM143.03 35.38C143.03 35.4533 143.023 35.55 143.01 35.67H138.71C138.77 36.1367 138.973 36.5133 139.32 36.8C139.673 37.08 140.11 37.22 140.63 37.22C141.263 37.22 141.773 37.0067 142.16 36.58L142.69 37.2C142.45 37.48 142.15 37.6933 141.79 37.84C141.437 37.9867 141.04 38.06 140.6 38.06C140.04 38.06 139.543 37.9467 139.11 37.72C138.677 37.4867 138.34 37.1633 138.1 36.75C137.867 36.3367 137.75 35.87 137.75 35.35C137.75 34.8367 137.863 34.3733 138.09 33.96C138.323 33.5467 138.64 33.2267 139.04 33C139.447 32.7667 139.903 32.65 140.41 32.65C140.917 32.65 141.367 32.7667 141.76 33C142.16 33.2267 142.47 33.5467 142.69 33.96C142.917 34.3733 143.03 34.8467 143.03 35.38ZM140.41 33.46C139.95 33.46 139.563 33.6 139.25 33.88C138.943 34.16 138.763 34.5267 138.71 34.98H142.11C142.057 34.5333 141.873 34.17 141.56 33.89C141.253 33.6033 140.87 33.46 140.41 33.46ZM144.363 30.58H145.323V38H144.363V30.58ZM149.426 38.06C148.899 38.06 148.426 37.9433 148.006 37.71C147.586 37.4767 147.256 37.1567 147.016 36.75C146.783 36.3367 146.666 35.87 146.666 35.35C146.666 34.83 146.783 34.3667 147.016 33.96C147.256 33.5467 147.586 33.2267 148.006 33C148.426 32.7667 148.899 32.65 149.426 32.65C149.953 32.65 150.423 32.7667 150.836 33C151.256 33.2267 151.583 33.5467 151.816 33.96C152.056 34.3667 152.176 34.83 152.176 35.35C152.176 35.87 152.056 36.3367 151.816 36.75C151.583 37.1567 151.256 37.4767 150.836 37.71C150.423 37.9433 149.953 38.06 149.426 38.06ZM149.426 37.22C149.766 37.22 150.069 37.1433 150.336 36.99C150.609 36.83 150.823 36.61 150.976 36.33C151.129 36.0433 151.206 35.7167 151.206 35.35C151.206 34.9833 151.129 34.66 150.976 34.38C150.823 34.0933 150.609 33.8733 150.336 33.72C150.069 33.5667 149.766 33.49 149.426 33.49C149.086 33.49 148.779 33.5667 148.506 33.72C148.239 33.8733 148.026 34.0933 147.866 34.38C147.713 34.66 147.636 34.9833 147.636 35.35C147.636 35.7167 147.713 36.0433 147.866 36.33C148.026 36.61 148.239 36.83 148.506 36.99C148.779 37.1433 149.086 37.22 149.426 37.22ZM156.314 32.65C156.827 32.65 157.287 32.7633 157.694 32.99C158.1 33.2167 158.417 33.5333 158.644 33.94C158.877 34.3467 158.994 34.8167 158.994 35.35C158.994 35.8833 158.877 36.3567 158.644 36.77C158.417 37.1767 158.1 37.4933 157.694 37.72C157.287 37.9467 156.827 38.06 156.314 38.06C155.934 38.06 155.584 37.9867 155.264 37.84C154.95 37.6933 154.684 37.48 154.464 37.2V39.94H153.504V32.7H154.424V33.54C154.637 33.2467 154.907 33.0267 155.234 32.88C155.56 32.7267 155.92 32.65 156.314 32.65ZM156.234 37.22C156.574 37.22 156.877 37.1433 157.144 36.99C157.417 36.83 157.63 36.61 157.784 36.33C157.944 36.0433 158.024 35.7167 158.024 35.35C158.024 34.9833 157.944 34.66 157.784 34.38C157.63 34.0933 157.417 33.8733 157.144 33.72C156.877 33.5667 156.574 33.49 156.234 33.49C155.9 33.49 155.597 33.57 155.324 33.73C155.057 33.8833 154.844 34.1 154.684 34.38C154.53 34.66 154.454 34.9833 154.454 35.35C154.454 35.7167 154.53 36.0433 154.684 36.33C154.837 36.61 155.05 36.83 155.324 36.99C155.597 37.1433 155.9 37.22 156.234 37.22ZM166.95 32.65C167.617 32.65 168.144 32.8433 168.53 33.23C168.924 33.6167 169.12 34.19 169.12 34.95V38H168.16V35.06C168.16 34.5467 168.04 34.16 167.8 33.9C167.567 33.64 167.23 33.51 166.79 33.51C166.304 33.51 165.917 33.6633 165.63 33.97C165.344 34.27 165.2 34.7033 165.2 35.27V38H164.24V35.06C164.24 34.5467 164.12 34.16 163.88 33.9C163.647 33.64 163.31 33.51 162.87 33.51C162.384 33.51 161.997 33.6633 161.71 33.97C161.424 34.27 161.28 34.7033 161.28 35.27V38H160.32V32.7H161.24V33.49C161.434 33.2167 161.687 33.01 162 32.87C162.314 32.7233 162.67 32.65 163.07 32.65C163.484 32.65 163.85 32.7333 164.17 32.9C164.49 33.0667 164.737 33.31 164.91 33.63C165.11 33.3233 165.387 33.0833 165.74 32.91C166.1 32.7367 166.504 32.65 166.95 32.65ZM175.706 35.38C175.706 35.4533 175.699 35.55 175.686 35.67H171.386C171.446 36.1367 171.649 36.5133 171.996 36.8C172.349 37.08 172.786 37.22 173.306 37.22C173.939 37.22 174.449 37.0067 174.836 36.58L175.366 37.2C175.126 37.48 174.826 37.6933 174.466 37.84C174.113 37.9867 173.716 38.06 173.276 38.06C172.716 38.06 172.219 37.9467 171.786 37.72C171.353 37.4867 171.016 37.1633 170.776 36.75C170.543 36.3367 170.426 35.87 170.426 35.35C170.426 34.8367 170.539 34.3733 170.766 33.96C170.999 33.5467 171.316 33.2267 171.716 33C172.123 32.7667 172.579 32.65 173.086 32.65C173.593 32.65 174.043 32.7667 174.436 33C174.836 33.2267 175.146 33.5467 175.366 33.96C175.593 34.3733 175.706 34.8467 175.706 35.38ZM173.086 33.46C172.626 33.46 172.239 33.6 171.926 33.88C171.619 34.16 171.439 34.5267 171.386 34.98H174.786C174.733 34.5333 174.549 34.17 174.236 33.89C173.929 33.6033 173.546 33.46 173.086 33.46ZM179.869 32.65C180.542 32.65 181.076 32.8467 181.469 33.24C181.869 33.6267 182.069 34.1967 182.069 34.95V38H181.109V35.06C181.109 34.5467 180.986 34.16 180.739 33.9C180.492 33.64 180.139 33.51 179.679 33.51C179.159 33.51 178.749 33.6633 178.449 33.97C178.149 34.27 177.999 34.7033 177.999 35.27V38H177.039V32.7H177.959V33.5C178.152 33.2267 178.412 33.0167 178.739 32.87C179.072 32.7233 179.449 32.65 179.869 32.65ZM186.826 37.69C186.686 37.81 186.512 37.9033 186.306 37.97C186.099 38.03 185.886 38.06 185.666 38.06C185.132 38.06 184.719 37.9167 184.426 37.63C184.132 37.3433 183.986 36.9333 183.986 36.4V33.49H183.086V32.7H183.986V31.54H184.946V32.7H186.466V33.49H184.946V36.36C184.946 36.6467 185.016 36.8667 185.156 37.02C185.302 37.1733 185.509 37.25 185.776 37.25C186.069 37.25 186.319 37.1667 186.526 37L186.826 37.69Z" fill="#494E52"/>
<line x1="67.5" y1="5" x2="67.5" y2="45" stroke="#3D3C55" stroke-opacity="0.25"/>
<defs>
<filter id="filter0_d" x="8" y="4.88879" width="58" height="45.8798" filterUnits="userSpaceOnUse" color-interpolation-filters="sRGB">
<feFlood flood-opacity="0" result="BackgroundImageFix"/>
<feColorMatrix in="SourceAlpha" type="matrix" values="0 0 0 0 0 0 0 0 0 0 0 0 0 0 0 0 0 0 127 0"/>
<feOffset dy="4"/>
<feGaussianBlur stdDeviation="2"/>
<feColorMatrix type="matrix" values="0 0 0 0 0 0 0 0 0 0 0 0 0 0 0 0 0 0 0.25 0"/>
<feBlend mode="normal" in2="BackgroundImageFix" result="effect1_dropShadow"/>
<feBlend mode="normal" in="SourceGraphic" in2="effect1_dropShadow" result="shape"/>
</filter>
<filter id="filter1_d" x="0" y="0.286011" width="66" height="46.4826" filterUnits="userSpaceOnUse" color-interpolation-filters="sRGB">
<feFlood flood-opacity="0" result="BackgroundImageFix"/>
<feColorMatrix in="SourceAlpha" type="matrix" values="0 0 0 0 0 0 0 0 0 0 0 0 0 0 0 0 0 0 127 0"/>
<feOffset dx="-4" dy="-4"/>
<feGaussianBlur stdDeviation="4"/>
<feColorMatrix type="matrix" values="0 0 0 0 0 0 0 0 0 0 0 0 0 0 0 0 0 0 0.35 0"/>
<feBlend mode="normal" in2="BackgroundImageFix" result="effect1_dropShadow"/>
<feBlend mode="normal" in="SourceGraphic" in2="effect1_dropShadow" result="shape"/>
</filter>
<filter id="filter2_d" x="19.5092" y="4.88879" width="39.5789" height="27.2522" filterUnits="userSpaceOnUse" color-interpolation-filters="sRGB">
<feFlood flood-opacity="0" result="BackgroundImageFix"/>
<feColorMatrix in="SourceAlpha" type="matrix" values="0 0 0 0 0 0 0 0 0 0 0 0 0 0 0 0 0 0 127 0"/>
<feOffset dy="4"/>
<feGaussianBlur stdDeviation="2"/>
<feColorMatrix type="matrix" values="0 0 0 0 0 0 0 0 0 0 0 0 0 0 0 0 0 0 0.3 0"/>
<feBlend mode="normal" in2="BackgroundImageFix" result="effect1_dropShadow"/>
<feBlend mode="normal" in="SourceGraphic" in2="effect1_dropShadow" result="shape"/>
</filter>
</defs>
</svg>
