<?xml version="1.0" encoding="utf-8"?>
<!-- Generator: Adobe Illustrator 28.0.0, SVG Export Plug-In . SVG Version: 6.00 Build 0)  -->
<svg version="1.1" id="Слой_1" xmlns="http://www.w3.org/2000/svg" xmlns:xlink="http://www.w3.org/1999/xlink" x="0px" y="0px"
	 viewBox="0 0 1000 1000" style="enable-background:new 0 0 1000 1000;" xml:space="preserve">
<style type="text/css">
	.st0{clip-path:url(#SVGID_00000088820511480973407230000014537119185859683751_);}
	.st1{fill:#7F5FFF;}
	.st2{fill:#FEE14A;}
</style>
<g>
	<defs>
		<path id="SVGID_1_" d="M498.9356384,0.4175824L498.9356384,0.4175824c276.1423645,0,499.9999695,223.857605,499.9999695,500l0,0
			c0,276.1424255-223.857605,500.0000305-499.9999695,500.0000305l0,0c-276.142395,0-500-223.857605-500-500.0000305l0,0
			C-1.064366,224.2751923,222.7932434,0.4175824,498.9356384,0.4175824z"/>
	</defs>
	<clipPath id="SVGID_00000170971750928834404750000005591407837660182696_">
		<use xlink:href="#SVGID_1_"  style="overflow:visible;"/>
	</clipPath>
	<g style="clip-path:url(#SVGID_00000170971750928834404750000005591407837660182696_);">
		<path class="st1" d="M998.9106445,500.417572c0-276.2003479-223.8999634-500-499.9750061-500
			c-276.0753784,0-500,223.9246368-500,500c0,276.0750427,223.7996368,500.0000305,500,500.0000305
			c276.2000427,0,499.9999695-223.9249878,499.9999695-500.0000305H998.9106445z"/>
		<path class="st2" d="M1011.3535156,262.5736694C929.6356812,154.6922302,711.2927246,27.9834747,512.8284912,69.8693695
			c-52.9750061,11.1910629-46.717865,37.2539291-62.9142761,61.9396515
			c-22.4571533,34.2246246-89.2285767,48.2949829-94.086792,64.0678406
			c-6.8850098,22.6828613,26.0117798,61.5643005,44.8153381,68.5742798
			c29.967865,11.0410767,56.1321716-37.7546234,93.3857422-43.7631989
			c36.9785767-6.0089264,174.5285034,6.5592804,197.4606934,43.0121307
			c34.125,37.9803772,30.2178955,99.4210815,9.7893066,107.9567871
			c-21.9321289,9.1643066-72.5821533-41.6353455-107.3321533-37.7296143
			c-19.5535278,2.2531738-57.6821289,27.340332-80.2393188,24.7117615
			c-19.4285278-2.2542725-32.0963745-43.7646484-49.0213928-55.907135
			c-15.4214478-11.0410767-102.6750183,8.0114441-125.1321411,18.1764221
			c-27.3396606,12.2928467-89.379303,100.1699829-91.0317993,131.766449
			c-2.0028381,36.7285461,72.830719,110.8356934,103.0492859,116.7178345
			c31.7218018,6.1357422,87.8789368-22.8071289,107.707489-9.1607056
			c23.6821594,16.4213867,49.6464539,294.749939,101.4214172,295.124939
			c32.8464355,0.25,122.6035767-122.3499146,136.6464844-146.1856689
			c19.6785889-33.5999756,7.6356812-87.125,14.5463867-105.5535278
			c8.6393433-23.0571899,63.1928711-53.4035645,65.3214111-77.8607178
			c2.0036011-21.9321899-71.4535522-85.0000305-53.2785645-98.0428772
			c14.4214478-10.2893066,91.9071655,26.8392944,117.0964355,11.2892761
			c21.5036011-13.2678528,22.3071899-80.0892944,49.9214478-130.2128296
			c5.2321167-9.5135803,15.2214355-15.5475159,26.0856934-15.5475159c26.0643311,0,54.8322144,17.4003601,86.2785645,144.9603577
			c6.7571411,25.4606934,51.9250488-33.12146,51.9250488-33.12146l-43.9143066-142.4581909L1011.3535156,262.5736694z"/>
		<path class="st2" d="M780.9749146,682.6068726c-15.0499878-3.87854-32.4749756,34.9785767-37.4821167,49.6500244
			c-4.5036011,13.5428467-13.4178467,52.1499634,0,57.0321045c16.2999878,5.8821411,39.1071167-36.7285767,44.0142822-53.2785645
			c3.7571411-12.9178467,6.5107422-50.0214844-6.5071411-53.2785645"/>
		<path class="st2" d="M2.0428128,556.5961304c22.1821785,68.0714722,108.9578171,47.7678833,124.0049591,93.2857056
			c16.9242859,51.2714233-41.2599945,100.1679077-5.1324921,177.9072266
			C46.4320641,900.8676147-36.813652,713.6711426-36.813652,713.6711426L2.0428128,556.696167v-0.125V556.5961304z"/>
	</g>
</g>
</svg>
