<?xml version="1.0" encoding="utf-8"?><svg viewBox="0 0 1054 1054" xmlns="http://www.w3.org/2000/svg" xmlns:xlink="http://www.w3.org/1999/xlink"><style>:root>svg{display:none}:root>svg:target{display:block}</style><svg fill="none" viewBox="0 0 10 16" id="arrow-next" xmlns="http://www.w3.org/2000/svg"><path d="M.707.707l7.229 7.229-7.229 7.229" stroke="#fff" stroke-width="2"/></svg><svg fill="none" viewBox="0 0 10 16" id="arrow-prev" xmlns="http://www.w3.org/2000/svg"><path d="M8.643.707L1.414 7.936l7.229 7.229" stroke="#fff" stroke-width="2"/></svg><svg fill="none" viewBox="0 0 1054 1054" id="bg" xmlns="http://www.w3.org/2000/svg"><circle cx="526.939" cy="526.939" r="526.939" fill="url(#cpaint0_radial_15_606)"/><defs><radialGradient id="cpaint0_radial_15_606" cx="0" cy="0" r="1" gradientUnits="userSpaceOnUse" gradientTransform="rotate(90 0 526.939) scale(526.939)"><stop stop-color="red" stop-opacity=".1"/><stop offset="1" stop-color="red" stop-opacity="0"/></radialGradient></defs></svg><svg fill="none" viewBox="0 0 31 31" id="chat_bubble" xmlns="http://www.w3.org/2000/svg"><mask id="da" style="mask-type:alpha" maskUnits="userSpaceOnUse" x="0" y="0" width="31" height="31"><path fill="#D9D9D9" d="M0 0h30.297v30.297H0z"/></mask><g mask="url(#da)"><path d="M2.525 27.772V5.05c0-.695.247-1.289.741-1.783a2.431 2.431 0 011.783-.742h20.198c.695 0 1.289.247 1.783.742.495.494.742 1.088.742 1.783v15.148c0 .694-.247 1.289-.742 1.783a2.431 2.431 0 01-1.783.742H7.574l-5.05 5.05zM6.5 20.198h18.746V5.05H5.05v16.568l1.452-1.42z" fill="#fff" fill-opacity=".7"/></g></svg><svg fill="none" viewBox="0 0 1054 1054" id="ellipse-bg" xmlns="http://www.w3.org/2000/svg"><circle cx="526.939" cy="526.939" r="526.939" fill="url(#epaint0_radial_15_606)"/><defs><radialGradient id="epaint0_radial_15_606" cx="0" cy="0" r="1" gradientUnits="userSpaceOnUse" gradientTransform="rotate(90 0 526.939) scale(526.939)"><stop stop-color="red" stop-opacity=".1"/><stop offset="1" stop-color="red" stop-opacity="0"/></radialGradient></defs></svg><svg fill="none" viewBox="0 0 1054 1054" id="ellipse-bg-10" xmlns="http://www.w3.org/2000/svg"><circle cx="526.939" cy="526.939" r="526.939" fill="url(#fpaint0_radial_15_606)"/><defs><radialGradient id="fpaint0_radial_15_606" cx="0" cy="0" r="1" gradientUnits="userSpaceOnUse" gradientTransform="rotate(90 0 526.939) scale(526.939)"><stop stop-color="red" stop-opacity=".1"/><stop offset="1" stop-color="red" stop-opacity="0"/></radialGradient></defs></svg><svg fill="none" viewBox="0 0 1054 1054" id="ellipse-bg-15" xmlns="http://www.w3.org/2000/svg"><circle cx="526.939" cy="526.939" r="526.939" fill="url(#gpaint0_radial_15_608)"/><defs><radialGradient id="gpaint0_radial_15_608" cx="0" cy="0" r="1" gradientUnits="userSpaceOnUse" gradientTransform="rotate(90 0 526.939) scale(526.939)"><stop stop-color="red" stop-opacity=".15"/><stop offset="1" stop-color="red" stop-opacity="0"/></radialGradient></defs></svg><svg fill="none" viewBox="0 0 1054 1054" id="ellipse-bg-30" xmlns="http://www.w3.org/2000/svg"><circle cx="526.939" cy="526.939" r="526.939" fill="url(#hpaint0_radial_8_48)"/><defs><radialGradient id="hpaint0_radial_8_48" cx="0" cy="0" r="1" gradientUnits="userSpaceOnUse" gradientTransform="rotate(90 0 526.939) scale(526.939)"><stop stop-color="red" stop-opacity=".3"/><stop offset="1" stop-color="red" stop-opacity="0"/></radialGradient></defs></svg><svg fill="none" viewBox="0 0 32 32" id="footer-call" xmlns="http://www.w3.org/2000/svg"><path fill-rule="evenodd" clip-rule="evenodd" d="M8.72 6.667c.08 1.186.28 2.346.6 3.453l-1.6 1.6a19.767 19.767 0 01-1.013-5.053H8.72zm13.147 16.026c1.133.32 2.293.52 3.466.6v1.987a20.57 20.57 0 01-5.066-1l1.6-1.587zM10 4H5.333C4.6 4 4 4.6 4 5.333 4 17.853 14.147 28 26.667 28 27.4 28 28 27.4 28 26.667v-4.654c0-.733-.6-1.333-1.333-1.333a15.21 15.21 0 01-4.76-.76 1.12 1.12 0 00-.414-.067c-.346 0-.68.134-.946.387l-2.934 2.933a20.198 20.198 0 01-8.786-8.786l2.933-2.934c.373-.373.48-.893.333-1.36a15.148 15.148 0 01-.76-4.76C11.333 4.6 10.733 4 10 4z" fill="#fff"/></svg><svg fill="none" viewBox="0 0 32 32" id="footer-mail" xmlns="http://www.w3.org/2000/svg"><path fill-rule="evenodd" clip-rule="evenodd" d="M29.333 8c0-1.466-1.2-2.667-2.666-2.667H5.333A2.675 2.675 0 002.667 8v16c0 1.467 1.2 2.667 2.666 2.667h21.334c1.466 0 2.666-1.2 2.666-2.667V8zm-2.666 0L16 14.667 5.333 8h21.334zm0 16H5.333V10.667L16 17.333l10.667-6.666V24z" fill="#fff"/></svg><svg fill="none" viewBox="0 0 32 32" id="footer-map" xmlns="http://www.w3.org/2000/svg"><path fill-rule="evenodd" clip-rule="evenodd" d="M16 2.667A9.326 9.326 0 0125.333 12c0 7-9.333 17.333-9.333 17.333S6.667 19 6.667 12A9.327 9.327 0 0116 2.666zM9.333 12c0 3.8 3.894 9.613 6.667 13.173 2.827-3.586 6.667-9.333 6.667-13.173A6.669 6.669 0 0016 5.333 6.67 6.67 0 009.333 12zM16 15.333a3.333 3.333 0 110-6.667 3.333 3.333 0 010 6.667z" fill="#fff"/></svg><svg fill="none" viewBox="0 0 20 20" id="icon-1-footer" xmlns="http://www.w3.org/2000/svg"><path d="M10 0a10 10 0 100 20 10 10 0 000-20zm0 2a7.94 7.94 0 015.51 2.22 24.93 24.93 0 01-4.83 2.18 29.07 29.07 0 00-2.87-4.09A7.94 7.94 0 0110 2zM5.89 3.15A27.16 27.16 0 018.7 7a25.11 25.11 0 01-6 .74h-.36a8 8 0 013.55-4.59zM4 15.31A7.9 7.9 0 012 10v-.29h.68a26.67 26.67 0 007-1c.32.61.62 1.24.91 1.89a14.299 14.299 0 00-4.29 2.41l-.3.24a20.995 20.995 0 00-2 2.06zM10 18a7.92 7.92 0 01-4.47-1.37 17.919 17.919 0 011.56-1.58l.32-.27a12.63 12.63 0 014-2.27 32.01 32.01 0 011.4 5A8.08 8.08 0 0110 18zm4.63-1.49a34.88 34.88 0 00-1.28-4.46h.34c.04-.01.08-.01.12 0h.69a9.428 9.428 0 013.09.53 7.94 7.94 0 01-2.96 3.93zM14.5 10h-.62a1.56 1.56 0 00-.39 0c-.272.017-.542.05-.81.1h-.1c-.29-.67-.59-1.32-.92-2 1.79-.615 3.51-1.42 5.13-2.4A8 8 0 0118 10v.51a11.48 11.48 0 00-3.5-.51z" fill="#fff"/></svg><svg fill="none" viewBox="0 0 26 17" id="icon-2-footer" xmlns="http://www.w3.org/2000/svg"><path d="M23.289.826h-6.535v1.817h6.56L23.29.826zm-1.38 12.5a2.874 2.874 0 01-1.675.478 2.875 2.875 0 01-2.19-.696 3.21 3.21 0 01-.8-2.269h8.532a8.338 8.338 0 00-.22-2.577 6.546 6.546 0 00-1.03-2.23 5.374 5.374 0 00-1.83-1.56 5.632 5.632 0 00-2.578-.58 6.29 6.29 0 00-2.449.478c-.71.3-1.354.737-1.894 1.289a5.671 5.671 0 00-1.225 1.959 6.962 6.962 0 00-.425 2.461 7.118 7.118 0 00.413 2.5 5.75 5.75 0 001.134 1.972 5.156 5.156 0 001.881 1.29 6.703 6.703 0 002.5.437 6.148 6.148 0 003.403-.902 5.426 5.426 0 002.1-3.029H22.71a1.984 1.984 0 01-.8.98zm-4.42-5.309a2.41 2.41 0 011.289-1.47c.404-.181.845-.27 1.289-.257a2.23 2.23 0 011.752.632 3.75 3.75 0 01.812 1.868h-5.348c.02-.262.068-.52.142-.773h.064zm-6.818-.619a3.944 3.944 0 001.65-1.288c.39-.606.583-1.317.554-2.037a4.226 4.226 0 00-.374-1.907A3.093 3.093 0 0011.445.877a4.175 4.175 0 00-1.637-.67A9.718 9.718 0 007.694 0H0v16.213h7.862c.717 0 1.432-.09 2.126-.27a5.864 5.864 0 001.843-.839 4.034 4.034 0 001.289-1.469 4.396 4.396 0 00.477-2.126 4.472 4.472 0 00-.735-2.578 3.866 3.866 0 00-2.255-1.534h.064zM3.57 2.772h3.338c.307 0 .613.025.915.077.278.041.546.138.786.284.233.131.42.328.541.567.15.285.22.605.207.928A1.753 1.753 0 018.75 6.11a2.578 2.578 0 01-1.572.45H3.57V2.773zm6.238 9.588a1.65 1.65 0 01-.58.645c-.258.16-.541.273-.838.335-.33.074-.667.108-1.005.103H3.518V8.997h3.867a3.093 3.093 0 011.869.528 2.126 2.126 0 01.696 1.791c.034.355-.014.712-.142 1.044z" fill="#fff"/></svg><svg fill="none" viewBox="0 0 20 20" id="icon-3-footer" xmlns="http://www.w3.org/2000/svg"><path d="M15.34 3.46a1.2 1.2 0 100 2.4 1.2 1.2 0 000-2.4zm4.6 2.42a7.588 7.588 0 00-.46-2.43 4.94 4.94 0 00-1.16-1.77A4.7 4.7 0 0016.55.53a7.3 7.3 0 00-2.43-.47C13.06 0 12.72 0 10 0S6.94 0 5.88.06a7.3 7.3 0 00-2.43.47 4.78 4.78 0 00-1.77 1.15A4.7 4.7 0 00.53 3.45a7.3 7.3 0 00-.47 2.43C0 6.94 0 7.28 0 10s0 3.06.06 4.12a7.3 7.3 0 00.47 2.43 4.7 4.7 0 001.15 1.77 4.78 4.78 0 001.77 1.15 7.3 7.3 0 002.43.47C6.94 20 7.28 20 10 20s3.06 0 4.12-.06a7.3 7.3 0 002.43-.47 4.7 4.7 0 001.77-1.15 4.85 4.85 0 001.16-1.77c.285-.78.44-1.6.46-2.43 0-1.06.06-1.4.06-4.12s0-3.06-.06-4.12zM18.14 14a5.61 5.61 0 01-.34 1.86 3.06 3.06 0 01-.75 1.15c-.324.33-.717.586-1.15.75a5.61 5.61 0 01-1.86.34c-1 .05-1.37.06-4 .06s-3 0-4-.06a5.73 5.73 0 01-1.94-.3 3.27 3.27 0 01-1.1-.75 3 3 0 01-.74-1.15 5.54 5.54 0 01-.4-1.9c0-1-.06-1.37-.06-4s0-3 .06-4a5.54 5.54 0 01.35-1.9A3 3 0 013 3a3.14 3.14 0 011.1-.8A5.73 5.73 0 016 1.86c1 0 1.37-.06 4-.06s3 0 4 .06a5.61 5.61 0 011.86.34 3.06 3.06 0 011.19.8c.328.307.584.683.75 1.1.222.609.337 1.252.34 1.9.05 1 .06 1.37.06 4s-.01 3-.06 4zM10 4.87A5.13 5.13 0 1015.14 10 5.12 5.12 0 0010 4.87zm0 8.46a3.33 3.33 0 110-6.66 3.33 3.33 0 010 6.66z" fill="#fff"/></svg><svg fill="none" viewBox="0 0 25 20" id="icon-4-footer" xmlns="http://www.w3.org/2000/svg"><path d="M24.568 2.396c-.923.4-1.9.666-2.899.786A5.073 5.073 0 0023.892.394c-.99.59-2.075 1.005-3.206 1.228a5.037 5.037 0 00-8.598 4.594A14.298 14.298 0 011.707.946a5.11 5.11 0 00-.676 2.543 5.024 5.024 0 002.236 4.19 4.975 4.975 0 01-2.285-.627v.061a5.037 5.037 0 004.053 4.914 4.828 4.828 0 01-1.35.209 6.022 6.022 0 01-.947-.086 5.05 5.05 0 004.705 3.488A10.098 10.098 0 010 17.727a14.213 14.213 0 007.727 2.272A14.238 14.238 0 0022.11 5.651v-.65c.964-.72 1.796-1.6 2.457-2.605z" fill="#fff"/></svg><svg fill="none" viewBox="0 0 160 43" id="logo-header" xmlns="http://www.w3.org/2000/svg"><path d="M69.398 26.065h-6.984l-1.2 3.408h-2.856l5.976-16.704h3.168l5.976 16.704h-2.88l-1.2-3.408zm-.768-2.232l-2.712-7.752-2.736 7.752h5.448zm14.119-7.8c1.04 0 1.968.216 2.784.648a4.59 4.59 0 011.944 1.92c.464.848.696 1.872.696 3.072v7.8H85.46v-7.392c0-1.184-.296-2.088-.888-2.712-.592-.64-1.4-.96-2.424-.96s-1.84.32-2.448.96c-.592.624-.888 1.528-.888 2.712v7.392h-2.736V16.249h2.736v1.512a4.549 4.549 0 011.704-1.272 5.57 5.57 0 012.232-.456zm25.204 10.032h-6.984l-1.2 3.408h-2.856l5.976-16.704h3.168l5.976 16.704h-2.88l-1.2-3.408zm-.768-2.232l-2.712-7.752-2.736 7.752h5.448zm10.182-5.664c.4-.672.928-1.192 1.584-1.56.672-.384 1.464-.576 2.376-.576v2.832h-.696c-1.072 0-1.888.272-2.448.816-.544.544-.816 1.488-.816 2.832v6.96h-2.736V16.249h2.736v1.92zm9.667.312v7.32c0 .496.112.856.336 1.08.24.208.64.312 1.2.312h1.68v2.28h-2.16c-1.232 0-2.176-.288-2.832-.864-.656-.576-.984-1.512-.984-2.808v-7.32h-1.56v-2.232h1.56v-3.288h2.76v3.288h3.216v2.232h-3.216zm7.13-3.984c-.496 0-.912-.168-1.248-.504a1.695 1.695 0 01-.504-1.248c0-.496.168-.912.504-1.248a1.695 1.695 0 011.248-.504c.48 0 .888.168 1.224.504.336.336.504.752.504 1.248s-.168.912-.504 1.248a1.666 1.666 0 01-1.224.504zm1.344 1.752v13.224h-2.736V16.249h2.736zm8.392 13.44c-1.04 0-1.976-.184-2.808-.552-.816-.384-1.464-.896-1.944-1.536a3.886 3.886 0 01-.768-2.184h2.832c.048.56.312 1.032.792 1.416.496.368 1.112.552 1.848.552.768 0 1.36-.144 1.776-.432.432-.304.648-.688.648-1.152 0-.496-.24-.864-.72-1.104-.464-.24-1.208-.504-2.232-.792-.992-.272-1.8-.536-2.424-.792a4.351 4.351 0 01-1.632-1.176c-.448-.528-.672-1.224-.672-2.088 0-.704.208-1.344.624-1.92.416-.592 1.008-1.056 1.776-1.392.784-.336 1.68-.504 2.688-.504 1.504 0 2.712.384 3.624 1.152.928.752 1.424 1.784 1.488 3.096h-2.736c-.048-.592-.288-1.064-.72-1.416-.432-.352-1.016-.528-1.752-.528-.72 0-1.272.136-1.656.408-.384.272-.576.632-.576 1.08 0 .352.128.648.384.888s.568.432.936.576c.368.128.912.296 1.632.504.96.256 1.744.52 2.352.792.624.256 1.16.64 1.608 1.152.448.512.68 1.192.696 2.04 0 .752-.208 1.424-.624 2.016-.416.592-1.008 1.056-1.776 1.392-.752.336-1.64.504-2.664.504zm11.212-11.208v7.32c0 .496.112.856.336 1.08.24.208.64.312 1.2.312h1.68v2.28h-2.16c-1.232 0-2.176-.288-2.832-.864-.656-.576-.984-1.512-.984-2.808v-7.32h-1.56v-2.232h1.56v-3.288h2.76v3.288h3.216v2.232h-3.216z" fill="#fff"/><mask id="pa" style="mask-type:alpha" maskUnits="userSpaceOnUse" x="0" y="0" width="43" height="43"><path fill="#D9D9D9" d="M0 0h42.946v42.946H0z"/></mask><g mask="url(#pa)"><path d="M21.473 28.555l-7.082-7.082 7.082-7.082 7.082 7.082-7.082 7.082zm2.282 8.334a3.15 3.15 0 01-1.06.7 3.244 3.244 0 01-1.222.243c-.413 0-.82-.08-1.222-.242a3.149 3.149 0 01-1.06-.7L6.006 23.702a3.097 3.097 0 01-.683-1.043 3.203 3.203 0 01-.243-1.204c0-.402.081-.803.243-1.205.162-.401.39-.749.683-1.042l13.16-13.16a3.286 3.286 0 011.072-.727 3.213 3.213 0 011.236-.243c.431 0 .843.081 1.236.243.392.162.75.404 1.073.728l13.16 13.159c.293.293.52.64.682 1.042.162.402.243.803.243 1.205 0 .401-.081.803-.243 1.204-.162.402-.39.75-.683 1.043L23.754 36.89zm-1.99-2.842l12.3-12.299c.08-.08.12-.178.12-.292a.398.398 0 00-.12-.293l-12.3-12.299a.37.37 0 00-.292-.112.432.432 0 00-.293.13L8.864 21.198a.35.35 0 00-.112.275c.006.103.05.195.13.275l12.298 12.3c.08.08.178.12.293.12.115 0 .212-.04.293-.12z" fill="#fff"/></g></svg><svg fill="none" viewBox="0 0 23 23" id="show-link" xmlns="http://www.w3.org/2000/svg"><mask id="qa" style="mask-type:alpha" maskUnits="userSpaceOnUse" x="0" y="0" width="23" height="23"><path fill="#D9D9D9" d="M0 0h22.151v22.151H0z"/></mask><g mask="url(#qa)"><path d="M4.984 18.46l-1.292-1.292L14.398 6.46H8.307V4.615h9.23v9.23H15.69V7.753L4.984 18.46z" fill="#fff"/></g></svg><svg fill="none" viewBox="0 0 37 37" id="sound" xmlns="http://www.w3.org/2000/svg"><mask id="ra" style="mask-type:alpha" maskUnits="userSpaceOnUse" x="0" y="0" width="37" height="37"><path fill="#D9D9D9" d="M0 0h36.946v36.946H0z"/></mask><g mask="url(#ra)"><path d="M6.504 28.21a15.552 15.552 0 01-2.52-4.484c-.604-1.654-.905-3.405-.905-5.253 0-4.028 1.328-7.492 3.983-10.391 2.656-2.9 5.946-4.541 9.872-4.926v3.079c-3.08.359-5.645 1.693-7.697 4.002-2.053 2.31-3.08 5.055-3.08 8.236 0 1.437.219 2.79.655 4.06a11.906 11.906 0 001.886 3.483L6.504 28.21zm11.97 5.657c-1.874 0-3.644-.307-5.312-.923a15.353 15.353 0 01-4.503-2.579l2.155-2.193a12.5 12.5 0 003.522 1.924 12.23 12.23 0 004.137.693c1.463 0 2.842-.231 4.137-.693a12.501 12.501 0 003.522-1.924l2.155 2.193a15.353 15.353 0 01-4.503 2.579c-1.668.615-3.438.923-5.31.923zm11.968-5.657l-2.194-2.194a11.907 11.907 0 001.886-3.483c.436-1.27.655-2.623.655-4.06 0-3.181-1.027-5.927-3.08-8.236-2.052-2.309-4.618-3.643-7.696-4.002v-3.08c3.925.386 7.216 2.028 9.871 4.927 2.656 2.9 3.983 6.363 3.983 10.391 0 1.848-.301 3.599-.904 5.253a15.551 15.551 0 01-2.52 4.484zM14.625 25.4V11.547L25.4 18.473l-10.776 6.928z" fill="#FF6F00"/></g></svg></svg>