<?xml version="1.0" encoding="utf-8"?><svg viewBox="0 0 100 32" xmlns="http://www.w3.org/2000/svg" xmlns:xlink="http://www.w3.org/1999/xlink"><style>:root>svg{display:none}:root>svg:target{display:block}</style><svg fill="none" viewBox="0 0 6 12" id="arrow-left" xmlns="http://www.w3.org/2000/svg"><path d="M5.201 1.039L1.026 5.415a.857.857 0 000 1.17l4.18 4.376" stroke="#252525" stroke-width="1.034" stroke-miterlimit="10" stroke-linecap="round"/></svg><svg fill="none" viewBox="0 0 6 12" id="arrow-right" xmlns="http://www.w3.org/2000/svg"><path d="M.799 10.961l4.175-4.376a.857.857 0 000-1.17L.794 1.039" stroke="#252525" stroke-width="1.034" stroke-miterlimit="10" stroke-linecap="round"/></svg><svg fill="none" viewBox="0 0 24 24" id="close-menu" xmlns="http://www.w3.org/2000/svg"><path d="M13.697 12l5.151-5.152a1.2 1.2 0 10-1.697-1.696L12 10.303 6.848 5.152a1.2 1.2 0 10-1.697 1.696L10.303 12 5.15 17.152a1.2 1.2 0 101.697 1.696L12 13.697l5.151 5.151a1.196 1.196 0 001.697 0 1.2 1.2 0 000-1.696L13.697 12z" fill="#252525"/></svg><svg fill="none" viewBox="0 0 32 32" id="list" xmlns="http://www.w3.org/2000/svg"><path d="M26.264 0H5.427a4.093 4.093 0 00-4.093 4.093v23.814A4.093 4.093 0 005.426 32h20.837a4.093 4.093 0 004.093-4.093V4.093A4.093 4.093 0 0026.264 0zM13.657 23.114l-3.765 3.721a1.116 1.116 0 01-1.578 0l-2.233-2.232a1.116 1.116 0 011.578-1.578l1.488 1.489 2.977-2.977a1.117 1.117 0 111.578 1.577h-.045zm0-8.186L9.892 18.65a1.117 1.117 0 01-1.578 0l-2.233-2.232a1.116 1.116 0 011.578-1.578l1.488 1.488 2.977-2.976a1.116 1.116 0 011.578 1.577h-.045zm0-8.186l-3.765 3.721a1.117 1.117 0 01-1.489 0L6.171 8.231a1.116 1.116 0 011.533-1.578l1.488 1.488 2.977-2.976a1.116 1.116 0 011.577 1.577h-.089zm11.118 18.932h-7.441a1.116 1.116 0 110-2.232h7.441a1.117 1.117 0 010 2.232zm0-8.186h-7.441a1.116 1.116 0 110-2.232h7.441a1.116 1.116 0 010 2.232zm0-8.186h-7.441a1.116 1.116 0 110-2.232h7.441a1.116 1.116 0 010 2.232z" fill="#fff"/></svg><svg fill="none" viewBox="0 0 100 24" id="logo" xmlns="http://www.w3.org/2000/svg"><path d="M42.435 2.533c0-.524-2.208-.973-5.244-1.116a.62.62 0 01-.527-.348A1.838 1.838 0 0034.99 0a1.85 1.85 0 00-1.675 1.07.618.618 0 01-.527.347c-3.036.15-5.244.592-5.244 1.116 0 .559 2.461 1.022 5.757 1.144l.24 3.07a.6.6 0 00.013.055c-1.45.347-2.892.592-4.342.783a1.248 1.248 0 00-1.17-.837h-1.524a6.494 6.494 0 00-5.3-2.724 6.494 6.494 0 00-5.299 2.724h-1.524c-.54 0-.999.347-1.17.83-1.45-.197-2.899-.463-4.335-.796 0-.014 0-.028.007-.034l.24-3.07c3.295-.123 5.757-.586 5.757-1.145 0-.524-2.209-.973-5.245-1.116a.62.62 0 01-.526-.348A1.838 1.838 0 007.446 0a1.85 1.85 0 00-1.675 1.07.618.618 0 01-.526.347C2.209 1.567 0 2.009 0 2.533c0 .559 2.462 1.022 5.757 1.144L5.99 6.64c-1.443.558-2.469 2.165-1.963 3.792a3.134 3.134 0 001.49 1.897 3.164 3.164 0 002.401.289 48.994 48.994 0 015.293-1.022c.17.484.629.83 1.169.83h.574l.02.096c.042.17.096.327.158.483 0 0-4.568 3.241-4.581 3.255a1.322 1.322 0 00-.376.926v5.48c.047 1.764 2.639 1.757 2.68 0v-4.881l4.547-2.764c.28.075.575.13.875.13h5.833c.3 0 .595-.055.875-.13l4.547 2.764v4.882a1.34 1.34 0 002.68 0v-5.481c0-.347-.143-.708-.416-.967l-4.54-3.213c.06-.157.116-.314.157-.484l.02-.095h.575c.547 0 1.005-.354 1.169-.838 1.77.225 3.549.538 5.32 1.029a3.257 3.257 0 001.695 0c3.29-1.035 2.763-5.134.205-6.006l.233-2.94c3.296-.123 5.757-.586 5.757-1.145l.048.007zM58.009 11.433c.535.4.965.913 1.29 1.54.324.614.486 1.284.486 2.011 0 .628-.12 1.212-.36 1.754a4.452 4.452 0 01-.951 1.433 4.373 4.373 0 01-1.416.984 4.324 4.324 0 01-1.713.342h-3.108l-1.374-2.61h4.524c.197 0 .38-.05.55-.149a1.789 1.789 0 00.761-.941 1.525 1.525 0 000-1.22c-.07-.213-.176-.399-.317-.555a1.823 1.823 0 00-.486-.386c-.17-.1-.353-.15-.55-.15h-5.307v6.011h-2.96V4.503h7.21c.606 0 1.177.121 1.712.364.55.228 1.022.549 1.417.962.409.4.726.877.951 1.433.24.542.36 1.12.36 1.733 0 .456-.064.891-.19 1.305-.127.399-.304.777-.53 1.133zm-3.721-.92a1.2 1.2 0 00.55-.128c.183-.1.345-.22.486-.363a1.58 1.58 0 00.317-.535c.084-.214.127-.435.127-.663 0-.228-.043-.442-.127-.642a1.544 1.544 0 00-.803-.92c-.17-.1-.353-.15-.55-.15h-4.25v3.402h4.25zM67.737 4.524c.72 0 1.396.143 2.03.428a5.194 5.194 0 011.67 1.134 5.02 5.02 0 011.12 1.668c.283.642.424 1.326.424 2.054a5.05 5.05 0 01-.423 2.053 5.02 5.02 0 01-1.12 1.669c-.48.47-1.037.848-1.671 1.133-.634.271-1.31.407-2.03.407h-1.649l-1.607-2.995h3.256c.31 0 .6-.057.867-.171.282-.128.522-.3.719-.513.197-.229.352-.492.465-.792.127-.314.19-.656.19-1.027 0-.313-.063-.613-.19-.898a2.595 2.595 0 00-.465-.791 2.328 2.328 0 00-.719-.557 1.816 1.816 0 00-.867-.213h-3.742v12.384h-2.939V4.524h6.681zM74.25 19.497V4.524h2.96v14.973h-2.96zm3.404-2.994h6.512v2.994h-4.863l-1.65-2.994zM96.829 19.497l-1.1-2.652h-6.766l-1.12 2.652h-3.171L90.74 4.524h3.192l-3.911 9.647h4.63l-2.093-5.133 2.389-2.075L100 19.497h-3.171z" fill="#fff"/></svg><svg fill="none" viewBox="0 0 100 24" id="logo-dark" xmlns="http://www.w3.org/2000/svg"><path d="M42.435 2.533c0-.524-2.208-.973-5.244-1.116a.62.62 0 01-.527-.348A1.838 1.838 0 0034.99 0a1.85 1.85 0 00-1.675 1.07.618.618 0 01-.527.347c-3.036.15-5.244.592-5.244 1.116 0 .559 2.461 1.022 5.757 1.144l.24 3.07a.6.6 0 00.013.055c-1.45.347-2.892.592-4.342.783a1.248 1.248 0 00-1.17-.837h-1.524a6.494 6.494 0 00-5.3-2.724 6.494 6.494 0 00-5.299 2.724h-1.524c-.54 0-.999.347-1.17.83-1.45-.197-2.899-.463-4.335-.796 0-.014 0-.028.007-.034l.24-3.07c3.295-.123 5.757-.586 5.757-1.145 0-.524-2.209-.973-5.245-1.116a.62.62 0 01-.526-.348A1.838 1.838 0 007.446 0a1.85 1.85 0 00-1.675 1.07.618.618 0 01-.526.347C2.209 1.567 0 2.009 0 2.533c0 .559 2.462 1.022 5.757 1.144L5.99 6.64c-1.443.558-2.469 2.165-1.963 3.792a3.134 3.134 0 001.49 1.897 3.164 3.164 0 002.401.289 48.994 48.994 0 015.293-1.022c.17.484.629.83 1.169.83h.574l.02.096c.042.17.096.327.158.483 0 0-4.568 3.241-4.581 3.255a1.322 1.322 0 00-.376.926v5.48c.047 1.764 2.639 1.757 2.68 0v-4.881l4.547-2.764c.28.075.575.13.875.13h5.833c.3 0 .595-.055.875-.13l4.547 2.764v4.882a1.34 1.34 0 002.68 0v-5.481c0-.347-.143-.708-.416-.967l-4.54-3.213c.06-.157.116-.314.157-.484l.02-.095h.575c.547 0 1.005-.354 1.169-.838 1.77.225 3.549.538 5.32 1.029a3.257 3.257 0 001.695 0c3.29-1.035 2.763-5.134.205-6.006l.233-2.94c3.296-.123 5.757-.586 5.757-1.145l.048.007zM58.009 11.433c.535.4.965.913 1.29 1.54.324.613.486 1.284.486 2.01 0 .628-.12 1.213-.36 1.755a4.452 4.452 0 01-.951 1.433 4.373 4.373 0 01-1.416.984 4.324 4.324 0 01-1.713.342h-3.108l-1.374-2.61h4.524c.197 0 .38-.05.55-.15.183-.113.338-.249.465-.405.127-.157.226-.336.296-.535a1.525 1.525 0 000-1.22c-.07-.213-.176-.399-.317-.556a1.823 1.823 0 00-.486-.385c-.17-.1-.353-.15-.55-.15h-5.307v6.011h-2.96V4.503h7.21c.606 0 1.177.12 1.712.363.55.229 1.022.55 1.417.963.409.4.726.877.951 1.433.24.542.36 1.12.36 1.733 0 .456-.064.89-.19 1.305a4.87 4.87 0 01-.53 1.133zm-3.721-.92a1.2 1.2 0 00.55-.128c.183-.1.345-.221.486-.364a1.58 1.58 0 00.317-.534c.084-.214.127-.435.127-.663 0-.229-.043-.443-.127-.642a1.544 1.544 0 00-.803-.92c-.17-.1-.353-.15-.55-.15h-4.25v3.401h4.25zM67.737 4.524c.72 0 1.396.143 2.03.428.634.27 1.191.649 1.67 1.134a5.02 5.02 0 011.12 1.668c.283.642.424 1.326.424 2.053 0 .728-.141 1.412-.423 2.054a5.02 5.02 0 01-1.12 1.668c-.48.471-1.037.849-1.671 1.134-.634.271-1.31.406-2.03.406h-1.649l-1.607-2.994h3.256c.31 0 .6-.057.867-.171.282-.129.522-.3.719-.514.197-.228.352-.492.465-.791.127-.314.19-.656.19-1.027 0-.314-.063-.613-.19-.898a2.595 2.595 0 00-.465-.792 2.328 2.328 0 00-.719-.556 1.816 1.816 0 00-.867-.214h-3.742v12.385h-2.939V4.524h6.681zM74.25 19.497V4.524h2.96v14.973h-2.96zm3.404-2.994h6.512v2.994h-4.863l-1.65-2.994zM96.829 19.497l-1.1-2.652h-6.766l-1.12 2.652h-3.171L90.74 4.524h3.192l-3.911 9.647h4.63l-2.093-5.134 2.389-2.074L100 19.497h-3.171z" fill="#252525"/></svg><svg fill="none" viewBox="0 0 21 21" id="mail" xmlns="http://www.w3.org/2000/svg"><g clip-path="url(#gclip0_135_525)" fill="#fff"><path d="M12.171 12.754a3.004 3.004 0 01-3.342 0L.633 7.29A2.981 2.981 0 01.5 7.195v8.953a1.84 1.84 0 001.841 1.842H18.66a1.84 1.84 0 001.841-1.842V7.195a2.913 2.913 0 01-.134.095l-8.195 5.464z"/><path d="M1.283 6.315l8.196 5.464a1.839 1.839 0 002.042 0l8.196-5.464c.49-.327.783-.874.783-1.464 0-1.015-.826-1.84-1.84-1.84H2.34C1.327 3.01.5 3.835.5 4.85a1.754 1.754 0 00.783 1.464z"/></g><defs><clipPath id="gclip0_135_525"><path fill="#fff" transform="translate(.5 .5)" d="M0 0h20v20H0z"/></clipPath></defs></svg><svg fill="none" viewBox="0 0 32 32" id="map" xmlns="http://www.w3.org/2000/svg"><path d="M30.6 14.249c-.503-.25-1.034-.809-.682-2.919.331-1.979-.281-2.384-1.117-2.708a9.33 9.33 0 01-.147-.058c-.059-.023-.07-.116-.053-.431.025-.45.07-1.287-1.066-1.44-.557-.075-.931.009-1.145.256-.286.332-.155.783-.06 1.112.024.074.043.149.057.225.013.101-.017.17-.086.319a1.813 1.813 0 00-.202.832c0 .444-.082.597-.953 1.21-.244.161-.502.3-.771.415-.626.289-1.335.616-1.445 1.63-.09.83-.594 1.41-.76 1.439a.29.29 0 01-.044-.08c-.118-.279-.3-.466-.544-.556-.502-.187-1.087.103-1.653.384l-.221.109c-.465.224-.98.324-1.243.326.055-.088.128-.181.2-.273.221-.286.556-.719.254-1.14-.311-.435-.671-.274-.934-.158a3.107 3.107 0 01-.697.235c-.588.12-.838.433-1.022.662-.14.175-.203.247-.356.266-.631.079-.605.712-.591 1.052.007.176.018.444-.056.498-.276.201-.565.604-.548 1.012a.242.242 0 01-.097.202.205.205 0 01-.193.033c-.107-.037-.124-.08-.124-.167-.004-.111 0-.223.015-.333l.034-.031c.163-.143.303-.31.417-.493a1.36 1.36 0 00-.016-1.6.326.326 0 00-.166-.11c-.467-.13-.737.271-.953.594-.26.387-.555.826-1.201.896-.898.096-.98.01-1.105-.122a1.619 1.619 0 00-.688-.453c-.587-.219-1.586-.045-2.552.123-.504.088-1.267.22-1.435.154l-.005-.003c-.006-.012-.066-.151.096-.591a.055.055 0 01.034-.034.068.068 0 01.057.004c.395.214.795.226 1.158.036.336-.177.512-.537.47-.963-.056-.56-.51-1.243-1.27-1.466-.643-.188-1.033.307-1.41.786-.439.559-.937 1.192-1.978 1.36a2.442 2.442 0 00-1.69 1.078c-.719 1.061-.775 2.729-.511 3.91.159.713.042.98-.016 1.063a.177.177 0 01-.095.074c-.193-.011-.947-.021-1.31.479-.237.326-.241.763-.013 1.298.95 2.229 1.599 3.257 2.168 3.436a.598.598 0 00.512-.06c.245-.152.368-.501.601-1.213.281-.858.706-2.155 1.437-2.371.366-.108.827.055 1.37.484.346.54.975 1.373 1.52 1.27.397-.076.53-.44.628-.707.068-.184.132-.358.243-.411a2.06 2.06 0 00.424-.281c.048-.044.101-.08.158-.111a.288.288 0 01.122.052l.144.09c.405.25.613.364 1.286.44.141.017.192.088.306.343.112.248.32.711.923.605.404-.07.514.09.836.662l.06.108c.487.855 1.288 1.285 2.389 1.285.235 0 .47-.018.702-.052 1.003-.143 1.376-.393 1.599-.542.143-.095.143-.095.292-.053.396.11.715-.057.971-.191.308-.162.512-.268.873-.047.616.376 1.044.21 1.388.076.27-.105.504-.196.893-.099.73.182 1.032-.053 1.3-.26a1.49 1.49 0 01.831-.36c.856-.117.875-.872.888-1.372.015-.608.069-.72.357-.748.515-.05.608.079.75.276.135.188.34.473.84.473.228 0 .922 0 1.175.29.101.115.135.282.104.512-.06.443-.008.817.153 1.113a.823.823 0 001.511-.17c.678-2.346.306-3.256-.055-4.137a5.738 5.738 0 01-.3-.861c-.08-.34-.128-.524-.23-.651-.18-.224-.428-.173-.576-.142a1.887 1.887 0 01-.599.039.22.22 0 01-.18-.098c-.203-.282-.131-1.058-.017-1.52a.265.265 0 00.001-.154c-.006-.046-.044-.43.338-1.092.273-.471.302-1.029.323-1.436l.01-.178c.156.148.281.378.44.668.174.335.373.656.596.961.546.725 1.26 1.238 1.738 1.248a.57.57 0 00.465-.2c.131-.16.158-.41.082-.766-.14-.657-.655-1.74-1.358-2.091z" fill="#fff"/></svg><svg fill="none" viewBox="0 0 32 32" id="pazl" xmlns="http://www.w3.org/2000/svg"><g clip-path="url(#iclip0_227_788)"><mask id="ia" style="mask-type:luminance" maskUnits="userSpaceOnUse" x="0" y="0" width="32" height="32"><path d="M0 0h32v32H0V0z" fill="#fff"/></mask><g mask="url(#ia)"><path d="M28.667 12c-.996 0-1.574.44-2.039.795-.373.284-.653.497-1.143.533-.14-.46-.12-2.113.818-5.861a1.722 1.722 0 00-1.675-2.134h-5.97a1.293 1.293 0 00-1.206.81 1.312 1.312 0 00.31 1.438c.602.578.907 1.167.907 1.752 0 1.103-1.45 1.334-2.666 1.334s-2.667-.231-2.667-1.334c0-.585.303-1.174.903-1.752a1.311 1.311 0 00.31-1.438 1.29 1.29 0 00-1.205-.81H7.372a1.72 1.72 0 00-1.675 2.134c.938 3.748.958 5.401.818 5.861-.491-.036-.77-.25-1.143-.533C4.907 12.44 4.329 12 3.333 12 1.33 12 0 14.408 0 16s1.33 4 3.333 4c.996 0 1.574-.44 2.04-.795.374-.284.654-.497 1.142-.533.14.46.12 2.113-.818 5.861a1.72 1.72 0 001.675 2.134h5.973a1.293 1.293 0 001.204-.81 1.312 1.312 0 00-.31-1.438c-.6-.578-.906-1.167-.906-1.752 0-1.103 1.45-1.334 2.667-1.334 1.217 0 2.667.231 2.667 1.334 0 .585-.304 1.174-.904 1.752a1.31 1.31 0 00.167 2.029c.215.144.468.22.727.219h5.974a1.717 1.717 0 001.672-2.134c-.938-3.748-.958-5.401-.818-5.861.491.036.77.25 1.143.533.467.355 1.043.795 2.04.795 2.003 0 3.333-2.408 3.333-4s-1.33-4-3.333-4h-.001z" fill="#fff"/></g></g><defs><clipPath id="iclip0_227_788"><path fill="#fff" d="M0 0h32v32H0z"/></clipPath></defs></svg><svg fill="none" viewBox="0 0 32 32" id="tech" xmlns="http://www.w3.org/2000/svg"><g clip-path="url(#jclip0_227_811)"><path d="M10.719 6.962c.2-.71.257-1.452.167-2.184a5.4 5.4 0 00-1.555-3.18A5.423 5.423 0 005.473 0c-.322-.001-.644.027-.962.083a.925.925 0 00-.716.605.929.929 0 00.168.926L5.71 3.67l-2.04 2.04-2.056-1.748a.929.929 0 00-.926-.168.925.925 0 00-.605.716C.028 4.83 0 5.151 0 5.473a5.424 5.424 0 001.597 3.858 5.4 5.4 0 003.18 1.555c.733.09 1.475.033 2.185-.167l4.177 4.176 3.756-3.756-4.176-4.177zM21.28 25.038c-.2.71-.257 1.452-.167 2.184a5.4 5.4 0 001.555 3.18A5.424 5.424 0 0026.527 32c.322.001.644-.027.962-.083a.925.925 0 00.716-.605.929.929 0 00-.168-.926L26.29 28.33l2.04-2.04 2.056 1.748c.26.22.605.284.926.168a.925.925 0 00.605-.716c.056-.318.084-.64.084-.962a5.424 5.424 0 00-1.597-3.858 5.4 5.4 0 00-3.18-1.555 5.538 5.538 0 00-2.185.167l-4.177-4.176-3.756 3.756 4.176 4.177zM31.724 2.396l-2.12-2.12a.932.932 0 00-1.166-.128l-4.376 2.784a.943.943 0 00-.416.607l-.375 1.875L11.814 16.87l3.315 3.315L26.586 8.728l1.875-.374a.942.942 0 00.607-.416l2.784-4.376a.932.932 0 00-.128-1.166zM15.68 23.39L8.61 16.319a.938.938 0 10-1.326 1.326l.221.22L1.371 24a4.693 4.693 0 000 6.63 4.693 4.693 0 006.629 0l6.134-6.135.221.22a.937.937 0 101.326-1.325zm-6.25.504l-4.77 4.771a.938.938 0 01-1.326-1.326l4.77-4.77a.938.938 0 011.326 1.325z" fill="#fff"/></g><defs><clipPath id="jclip0_227_811"><path fill="#fff" d="M0 0h32v32H0z"/></clipPath></defs></svg><svg viewBox="0 0 21 21" id="telegram" xmlns="http://www.w3.org/2000/svg"><path d="M18.389 2.784C15.882 3.822 5.133 8.274 2.165 9.487c-1.992.777-.826 1.506-.826 1.506s1.7.582 3.157 1.02c1.457.437 2.235-.049 2.235-.049l6.848-4.615c2.43-1.651 1.846-.291 1.263.292a185.724 185.724 0 01-5.1 4.857c-.777.68-.388 1.263-.048 1.555 1.263 1.068 4.711 3.254 4.906 3.4 1.026.726 3.044 1.772 3.351-.437l1.215-7.626c.388-2.575.777-4.955.825-5.635.146-1.651-1.602-.971-1.602-.971z"/></svg></svg>