<?xml version="1.0" encoding="utf-8"?><svg viewBox="0 0 100 32" xmlns="http://www.w3.org/2000/svg" xmlns:xlink="http://www.w3.org/1999/xlink"><style>:root>svg{display:none}:root>svg:target{display:block}</style><svg fill="none" viewBox="0 0 6 12" id="arrow-left" xmlns="http://www.w3.org/2000/svg"><path d="M5.201 1.039L1.026 5.415a.857.857 0 000 1.17l4.18 4.376" stroke="#252525" stroke-width="1.034" stroke-miterlimit="10" stroke-linecap="round"/></svg><svg fill="none" viewBox="0 0 6 12" id="arrow-right" xmlns="http://www.w3.org/2000/svg"><path d="M.799 10.961l4.175-4.376a.857.857 0 000-1.17L.794 1.039" stroke="#252525" stroke-width="1.034" stroke-miterlimit="10" stroke-linecap="round"/></svg><svg fill="none" viewBox="0 0 24 24" id="close-menu" xmlns="http://www.w3.org/2000/svg"><path d="M13.697 12l5.151-5.152a1.2 1.2 0 10-1.697-1.696L12 10.303 6.848 5.152a1.2 1.2 0 10-1.697 1.696L10.303 12 5.15 17.152a1.2 1.2 0 101.697 1.696L12 13.697l5.151 5.151a1.196 1.196 0 001.697 0 1.2 1.2 0 000-1.696L13.697 12z" fill="#252525"/></svg><svg fill="none" viewBox="0 0 24 24" id="component" xmlns="http://www.w3.org/2000/svg"><path d="M21 6a.75.75 0 00-.44-.683l-8.25-3.75a.745.745 0 00-.62 0l-8.25 3.75a.75.75 0 000 1.365l8.25 3.75a.746.746 0 00.62 0l8.25-3.75A.75.75 0 0021 6zm-10.19 6.068l-8.25-3.75A.75.75 0 001.5 9v9a.75.75 0 00.44.683l8.25 3.75a.749.749 0 001.06-.683v-9a.75.75 0 00-.44-.682zM22.157 8.37a.75.75 0 00-.718-.053l-8.25 3.75a.75.75 0 00-.439.683v9a.75.75 0 001.06.683l8.25-3.75A.75.75 0 0022.5 18V9a.75.75 0 00-.343-.63z" fill="#fff"/></svg><svg fill="none" viewBox="0 0 24 24" id="control" xmlns="http://www.w3.org/2000/svg"><path d="M15.254 15.103H13.38V9.62a4.918 4.918 0 003.528-4.71A4.915 4.915 0 0012 0a4.915 4.915 0 00-4.91 4.91 4.918 4.918 0 003.529 4.71v5.483H8.746a.703.703 0 00-.703.703v1.635h7.914v-1.635a.703.703 0 00-.703-.703zm4.356 3.745H4.39c-.776 0-1.406.63-1.406 1.406v2.34c0 .776.63 1.406 1.406 1.406h15.22c.777 0 1.406-.63 1.406-1.406v-2.34c0-.777-.63-1.406-1.406-1.406z" fill="#fff"/></svg><svg fill="none" viewBox="0 0 24 24" id="frequency" xmlns="http://www.w3.org/2000/svg"><path d="M21.339 8.879a.709.709 0 00-.709.708v5.086a.703.703 0 00.57.694.71.71 0 00.847-.694V9.587a.71.71 0 00-.708-.708zm-2.668-3.335a.71.71 0 00-.71.709v11.422a.71.71 0 001.418 0V6.253a.709.709 0 00-.709-.71zm-2.669-3.335a.709.709 0 00-.708.708v18.094a.709.709 0 001.417 0V2.917a.71.71 0 00-.709-.708zm-2.668 2.167a.71.71 0 00-.708.708v13.76a.71.71 0 001.416 0V5.083a.71.71 0 00-.708-.708zm-2.668 2.96a.71.71 0 00-.709.708v7.84a.71.71 0 001.417-.001V8.044a.71.71 0 00-.708-.708zm-2.668-4.46a.71.71 0 00-.709.708v16.76a.71.71 0 001.417 0V3.583a.703.703 0 00-.437-.655.703.703 0 00-.271-.053zM5.329 6.21a.71.71 0 00-.708.708v10.09a.71.71 0 001.417-.001V6.919a.71.71 0 00-.709-.708zM2.661 8.879a.71.71 0 00-.708.709v4.752a.71.71 0 001.416 0V9.588a.704.704 0 00-.437-.655.704.704 0 00-.27-.054z" fill="#fff"/></svg><svg fill="none" viewBox="0 0 32 32" id="list" xmlns="http://www.w3.org/2000/svg"><path d="M26.264 0H5.427a4.093 4.093 0 00-4.093 4.093v23.814A4.093 4.093 0 005.426 32h20.837a4.093 4.093 0 004.093-4.093V4.093A4.093 4.093 0 0026.264 0zM13.657 23.114l-3.765 3.721a1.116 1.116 0 01-1.578 0l-2.233-2.232a1.116 1.116 0 011.578-1.578l1.488 1.489 2.977-2.977a1.117 1.117 0 111.578 1.577h-.045zm0-8.186L9.892 18.65a1.117 1.117 0 01-1.578 0l-2.233-2.232a1.116 1.116 0 011.578-1.578l1.488 1.488 2.977-2.976a1.116 1.116 0 011.578 1.577h-.045zm0-8.186l-3.765 3.721a1.117 1.117 0 01-1.489 0L6.171 8.231a1.116 1.116 0 011.533-1.578l1.488 1.488 2.977-2.976a1.116 1.116 0 011.577 1.577h-.089zm11.118 18.932h-7.441a1.116 1.116 0 110-2.232h7.441a1.117 1.117 0 010 2.232zm0-8.186h-7.441a1.116 1.116 0 110-2.232h7.441a1.116 1.116 0 010 2.232zm0-8.186h-7.441a1.116 1.116 0 110-2.232h7.441a1.116 1.116 0 010 2.232z" fill="#fff"/></svg><svg fill="none" viewBox="0 0 100 24" id="logo" xmlns="http://www.w3.org/2000/svg"><path d="M42.435 2.533c0-.524-2.208-.973-5.244-1.116a.62.62 0 01-.527-.348A1.838 1.838 0 0034.99 0a1.85 1.85 0 00-1.675 1.07.618.618 0 01-.527.347c-3.036.15-5.244.592-5.244 1.116 0 .559 2.461 1.022 5.757 1.144l.24 3.07a.6.6 0 00.013.055c-1.45.347-2.892.592-4.342.783a1.248 1.248 0 00-1.17-.837h-1.524a6.494 6.494 0 00-5.3-2.724 6.494 6.494 0 00-5.299 2.724h-1.524c-.54 0-.999.347-1.17.83-1.45-.197-2.899-.463-4.335-.796 0-.014 0-.028.007-.034l.24-3.07c3.295-.123 5.757-.586 5.757-1.145 0-.524-2.209-.973-5.245-1.116a.62.62 0 01-.526-.348A1.838 1.838 0 007.446 0a1.85 1.85 0 00-1.675 1.07.618.618 0 01-.526.347C2.209 1.567 0 2.009 0 2.533c0 .559 2.462 1.022 5.757 1.144L5.99 6.64c-1.443.558-2.469 2.165-1.963 3.792a3.134 3.134 0 001.49 1.897 3.164 3.164 0 002.401.289 48.994 48.994 0 015.293-1.022c.17.484.629.83 1.169.83h.574l.02.096c.042.17.096.327.158.483 0 0-4.568 3.241-4.581 3.255a1.322 1.322 0 00-.376.926v5.48c.047 1.764 2.639 1.757 2.68 0v-4.881l4.547-2.764c.28.075.575.13.875.13h5.833c.3 0 .595-.055.875-.13l4.547 2.764v4.882a1.34 1.34 0 002.68 0v-5.481c0-.347-.143-.708-.416-.967l-4.54-3.213c.06-.157.116-.314.157-.484l.02-.095h.575c.547 0 1.005-.354 1.169-.838 1.77.225 3.549.538 5.32 1.029a3.257 3.257 0 001.695 0c3.29-1.035 2.763-5.134.205-6.006l.233-2.94c3.296-.123 5.757-.586 5.757-1.145l.048.007zM58.009 11.433c.535.4.965.913 1.29 1.54.324.614.486 1.284.486 2.011 0 .628-.12 1.212-.36 1.754a4.452 4.452 0 01-.951 1.433 4.373 4.373 0 01-1.416.984 4.324 4.324 0 01-1.713.342h-3.108l-1.374-2.61h4.524c.197 0 .38-.05.55-.149a1.789 1.789 0 00.761-.941 1.525 1.525 0 000-1.22c-.07-.213-.176-.399-.317-.555a1.823 1.823 0 00-.486-.386c-.17-.1-.353-.15-.55-.15h-5.307v6.011h-2.96V4.503h7.21c.606 0 1.177.121 1.712.364.55.228 1.022.549 1.417.962.409.4.726.877.951 1.433.24.542.36 1.12.36 1.733 0 .456-.064.891-.19 1.305-.127.399-.304.777-.53 1.133zm-3.721-.92a1.2 1.2 0 00.55-.128c.183-.1.345-.22.486-.363a1.58 1.58 0 00.317-.535c.084-.214.127-.435.127-.663 0-.228-.043-.442-.127-.642a1.544 1.544 0 00-.803-.92c-.17-.1-.353-.15-.55-.15h-4.25v3.402h4.25zM67.737 4.524c.72 0 1.396.143 2.03.428a5.194 5.194 0 011.67 1.134 5.02 5.02 0 011.12 1.668c.283.642.424 1.326.424 2.054a5.05 5.05 0 01-.423 2.053 5.02 5.02 0 01-1.12 1.669c-.48.47-1.037.848-1.671 1.133-.634.271-1.31.407-2.03.407h-1.649l-1.607-2.995h3.256c.31 0 .6-.057.867-.171.282-.128.522-.3.719-.513.197-.229.352-.492.465-.792.127-.314.19-.656.19-1.027 0-.313-.063-.613-.19-.898a2.595 2.595 0 00-.465-.791 2.328 2.328 0 00-.719-.557 1.816 1.816 0 00-.867-.213h-3.742v12.384h-2.939V4.524h6.681zM74.25 19.497V4.524h2.96v14.973h-2.96zm3.404-2.994h6.512v2.994h-4.863l-1.65-2.994zM96.829 19.497l-1.1-2.652h-6.766l-1.12 2.652h-3.171L90.74 4.524h3.192l-3.911 9.647h4.63l-2.093-5.133 2.389-2.075L100 19.497h-3.171z" fill="#fff"/></svg><svg fill="none" viewBox="0 0 100 24" id="logo-dark" xmlns="http://www.w3.org/2000/svg"><path d="M42.435 2.533c0-.524-2.208-.973-5.244-1.116a.62.62 0 01-.527-.348A1.838 1.838 0 0034.99 0a1.85 1.85 0 00-1.675 1.07.618.618 0 01-.527.347c-3.036.15-5.244.592-5.244 1.116 0 .559 2.461 1.022 5.757 1.144l.24 3.07a.6.6 0 00.013.055c-1.45.347-2.892.592-4.342.783a1.248 1.248 0 00-1.17-.837h-1.524a6.494 6.494 0 00-5.3-2.724 6.494 6.494 0 00-5.299 2.724h-1.524c-.54 0-.999.347-1.17.83-1.45-.197-2.899-.463-4.335-.796 0-.014 0-.028.007-.034l.24-3.07c3.295-.123 5.757-.586 5.757-1.145 0-.524-2.209-.973-5.245-1.116a.62.62 0 01-.526-.348A1.838 1.838 0 007.446 0a1.85 1.85 0 00-1.675 1.07.618.618 0 01-.526.347C2.209 1.567 0 2.009 0 2.533c0 .559 2.462 1.022 5.757 1.144L5.99 6.64c-1.443.558-2.469 2.165-1.963 3.792a3.134 3.134 0 001.49 1.897 3.164 3.164 0 002.401.289 48.994 48.994 0 015.293-1.022c.17.484.629.83 1.169.83h.574l.02.096c.042.17.096.327.158.483 0 0-4.568 3.241-4.581 3.255a1.322 1.322 0 00-.376.926v5.48c.047 1.764 2.639 1.757 2.68 0v-4.881l4.547-2.764c.28.075.575.13.875.13h5.833c.3 0 .595-.055.875-.13l4.547 2.764v4.882a1.34 1.34 0 002.68 0v-5.481c0-.347-.143-.708-.416-.967l-4.54-3.213c.06-.157.116-.314.157-.484l.02-.095h.575c.547 0 1.005-.354 1.169-.838 1.77.225 3.549.538 5.32 1.029a3.257 3.257 0 001.695 0c3.29-1.035 2.763-5.134.205-6.006l.233-2.94c3.296-.123 5.757-.586 5.757-1.145l.048.007zM58.009 11.433c.535.4.965.913 1.29 1.54.324.613.486 1.284.486 2.01 0 .628-.12 1.213-.36 1.755a4.452 4.452 0 01-.951 1.433 4.373 4.373 0 01-1.416.984 4.324 4.324 0 01-1.713.342h-3.108l-1.374-2.61h4.524c.197 0 .38-.05.55-.15.183-.113.338-.249.465-.405.127-.157.226-.336.296-.535a1.525 1.525 0 000-1.22c-.07-.213-.176-.399-.317-.556a1.823 1.823 0 00-.486-.385c-.17-.1-.353-.15-.55-.15h-5.307v6.011h-2.96V4.503h7.21c.606 0 1.177.12 1.712.363.55.229 1.022.55 1.417.963.409.4.726.877.951 1.433.24.542.36 1.12.36 1.733 0 .456-.064.89-.19 1.305a4.87 4.87 0 01-.53 1.133zm-3.721-.92a1.2 1.2 0 00.55-.128c.183-.1.345-.221.486-.364a1.58 1.58 0 00.317-.534c.084-.214.127-.435.127-.663 0-.229-.043-.443-.127-.642a1.544 1.544 0 00-.803-.92c-.17-.1-.353-.15-.55-.15h-4.25v3.401h4.25zM67.737 4.524c.72 0 1.396.143 2.03.428.634.27 1.191.649 1.67 1.134a5.02 5.02 0 011.12 1.668c.283.642.424 1.326.424 2.053 0 .728-.141 1.412-.423 2.054a5.02 5.02 0 01-1.12 1.668c-.48.471-1.037.849-1.671 1.134-.634.271-1.31.406-2.03.406h-1.649l-1.607-2.994h3.256c.31 0 .6-.057.867-.171.282-.129.522-.3.719-.514.197-.228.352-.492.465-.791.127-.314.19-.656.19-1.027 0-.314-.063-.613-.19-.898a2.595 2.595 0 00-.465-.792 2.328 2.328 0 00-.719-.556 1.816 1.816 0 00-.867-.214h-3.742v12.385h-2.939V4.524h6.681zM74.25 19.497V4.524h2.96v14.973h-2.96zm3.404-2.994h6.512v2.994h-4.863l-1.65-2.994zM96.829 19.497l-1.1-2.652h-6.766l-1.12 2.652h-3.171L90.74 4.524h3.192l-3.911 9.647h4.63l-2.093-5.134 2.389-2.074L100 19.497h-3.171z" fill="#252525"/></svg><svg fill="none" viewBox="0 0 21 21" id="mail" xmlns="http://www.w3.org/2000/svg"><g clip-path="url(#jclip0_135_525)" fill="#fff"><path d="M12.171 12.754a3.004 3.004 0 01-3.342 0L.633 7.29A2.981 2.981 0 01.5 7.195v8.953a1.84 1.84 0 001.841 1.842H18.66a1.84 1.84 0 001.841-1.842V7.195a2.913 2.913 0 01-.134.095l-8.195 5.464z"/><path d="M1.283 6.315l8.196 5.464a1.839 1.839 0 002.042 0l8.196-5.464c.49-.327.783-.874.783-1.464 0-1.015-.826-1.84-1.84-1.84H2.34C1.327 3.01.5 3.835.5 4.85a1.754 1.754 0 00.783 1.464z"/></g><defs><clipPath id="jclip0_135_525"><path fill="#fff" transform="translate(.5 .5)" d="M0 0h20v20H0z"/></clipPath></defs></svg><svg fill="none" viewBox="0 0 32 32" id="map" xmlns="http://www.w3.org/2000/svg"><path d="M30.6 14.249c-.503-.25-1.034-.809-.682-2.919.331-1.979-.281-2.384-1.117-2.708a9.33 9.33 0 01-.147-.058c-.059-.023-.07-.116-.053-.431.025-.45.07-1.287-1.066-1.44-.557-.075-.931.009-1.145.256-.286.332-.155.783-.06 1.112.024.074.043.149.057.225.013.101-.017.17-.086.319a1.813 1.813 0 00-.202.832c0 .444-.082.597-.953 1.21-.244.161-.502.3-.771.415-.626.289-1.335.616-1.445 1.63-.09.83-.594 1.41-.76 1.439a.29.29 0 01-.044-.08c-.118-.279-.3-.466-.544-.556-.502-.187-1.087.103-1.653.384l-.221.109c-.465.224-.98.324-1.243.326.055-.088.128-.181.2-.273.221-.286.556-.719.254-1.14-.311-.435-.671-.274-.934-.158a3.107 3.107 0 01-.697.235c-.588.12-.838.433-1.022.662-.14.175-.203.247-.356.266-.631.079-.605.712-.591 1.052.007.176.018.444-.056.498-.276.201-.565.604-.548 1.012a.242.242 0 01-.097.202.205.205 0 01-.193.033c-.107-.037-.124-.08-.124-.167-.004-.111 0-.223.015-.333l.034-.031c.163-.143.303-.31.417-.493a1.36 1.36 0 00-.016-1.6.326.326 0 00-.166-.11c-.467-.13-.737.271-.953.594-.26.387-.555.826-1.201.896-.898.096-.98.01-1.105-.122a1.619 1.619 0 00-.688-.453c-.587-.219-1.586-.045-2.552.123-.504.088-1.267.22-1.435.154l-.005-.003c-.006-.012-.066-.151.096-.591a.055.055 0 01.034-.034.068.068 0 01.057.004c.395.214.795.226 1.158.036.336-.177.512-.537.47-.963-.056-.56-.51-1.243-1.27-1.466-.643-.188-1.033.307-1.41.786-.439.559-.937 1.192-1.978 1.36a2.442 2.442 0 00-1.69 1.078c-.719 1.061-.775 2.729-.511 3.91.159.713.042.98-.016 1.063a.177.177 0 01-.095.074c-.193-.011-.947-.021-1.31.479-.237.326-.241.763-.013 1.298.95 2.229 1.599 3.257 2.168 3.436a.598.598 0 00.512-.06c.245-.152.368-.501.601-1.213.281-.858.706-2.155 1.437-2.371.366-.108.827.055 1.37.484.346.54.975 1.373 1.52 1.27.397-.076.53-.44.628-.707.068-.184.132-.358.243-.411a2.06 2.06 0 00.424-.281c.048-.044.101-.08.158-.111a.288.288 0 01.122.052l.144.09c.405.25.613.364 1.286.44.141.017.192.088.306.343.112.248.32.711.923.605.404-.07.514.09.836.662l.06.108c.487.855 1.288 1.285 2.389 1.285.235 0 .47-.018.702-.052 1.003-.143 1.376-.393 1.599-.542.143-.095.143-.095.292-.053.396.11.715-.057.971-.191.308-.162.512-.268.873-.047.616.376 1.044.21 1.388.076.27-.105.504-.196.893-.099.73.182 1.032-.053 1.3-.26a1.49 1.49 0 01.831-.36c.856-.117.875-.872.888-1.372.015-.608.069-.72.357-.748.515-.05.608.079.75.276.135.188.34.473.84.473.228 0 .922 0 1.175.29.101.115.135.282.104.512-.06.443-.008.817.153 1.113a.823.823 0 001.511-.17c.678-2.346.306-3.256-.055-4.137a5.738 5.738 0 01-.3-.861c-.08-.34-.128-.524-.23-.651-.18-.224-.428-.173-.576-.142a1.887 1.887 0 01-.599.039.22.22 0 01-.18-.098c-.203-.282-.131-1.058-.017-1.52a.265.265 0 00.001-.154c-.006-.046-.044-.43.338-1.092.273-.471.302-1.029.323-1.436l.01-.178c.156.148.281.378.44.668.174.335.373.656.596.961.546.725 1.26 1.238 1.738 1.248a.57.57 0 00.465-.2c.131-.16.158-.41.082-.766-.14-.657-.655-1.74-1.358-2.091z" fill="#fff"/></svg><svg fill="none" viewBox="0 0 32 32" id="pazl" xmlns="http://www.w3.org/2000/svg"><g clip-path="url(#lclip0_227_788)"><mask id="la" style="mask-type:luminance" maskUnits="userSpaceOnUse" x="0" y="0" width="32" height="32"><path d="M0 0h32v32H0V0z" fill="#fff"/></mask><g mask="url(#la)"><path d="M28.667 12c-.996 0-1.574.44-2.039.795-.373.284-.653.497-1.143.533-.14-.46-.12-2.113.818-5.861a1.722 1.722 0 00-1.675-2.134h-5.97a1.293 1.293 0 00-1.206.81 1.312 1.312 0 00.31 1.438c.602.578.907 1.167.907 1.752 0 1.103-1.45 1.334-2.666 1.334s-2.667-.231-2.667-1.334c0-.585.303-1.174.903-1.752a1.311 1.311 0 00.31-1.438 1.29 1.29 0 00-1.205-.81H7.372a1.72 1.72 0 00-1.675 2.134c.938 3.748.958 5.401.818 5.861-.491-.036-.77-.25-1.143-.533C4.907 12.44 4.329 12 3.333 12 1.33 12 0 14.408 0 16s1.33 4 3.333 4c.996 0 1.574-.44 2.04-.795.374-.284.654-.497 1.142-.533.14.46.12 2.113-.818 5.861a1.72 1.72 0 001.675 2.134h5.973a1.293 1.293 0 001.204-.81 1.312 1.312 0 00-.31-1.438c-.6-.578-.906-1.167-.906-1.752 0-1.103 1.45-1.334 2.667-1.334 1.217 0 2.667.231 2.667 1.334 0 .585-.304 1.174-.904 1.752a1.31 1.31 0 00.167 2.029c.215.144.468.22.727.219h5.974a1.717 1.717 0 001.672-2.134c-.938-3.748-.958-5.401-.818-5.861.491.036.77.25 1.143.533.467.355 1.043.795 2.04.795 2.003 0 3.333-2.408 3.333-4s-1.33-4-3.333-4h-.001z" fill="#fff"/></g></g><defs><clipPath id="lclip0_227_788"><path fill="#fff" d="M0 0h32v32H0z"/></clipPath></defs></svg><svg fill="none" viewBox="0 0 24 24" id="range" xmlns="http://www.w3.org/2000/svg"><path d="M5.933 4.867l3.675 3.675a1.05 1.05 0 001.748-.44l1.575-5.25a1.05 1.05 0 00-1.307-1.308L6.374 3.12a1.053 1.053 0 00-.441 1.748z" fill="#fff"/><path d="M4.533 7.965c-1.794 1.576-2.05 4.376-.576 6.266 1.485 1.903 4.19 2.213 6.044.691l5.124-4.204a2.219 2.219 0 013.167.363c.786 1.008.648 2.52-.308 3.36l-1.095.962a1.069 1.069 0 00-.111 1.48 1.005 1.005 0 001.444.114l1.095-.962c1.793-1.577 2.05-4.374.574-6.266-1.482-1.9-4.191-2.211-6.044-.691l-5.124 4.204a2.217 2.217 0 01-3.166-.363c-.785-1.006-.647-2.52.307-3.36l.57-.436a1.07 1.07 0 00.115-1.48 1.012 1.012 0 00-1.45-.116l-.566.438z" fill="#fff"/><path d="M9.825 19.35a3.15 3.15 0 116.3 0 3.15 3.15 0 01-6.3 0z" fill="#fff"/></svg><svg fill="none" viewBox="0 0 24 24" id="speed" xmlns="http://www.w3.org/2000/svg"><path d="M22.497 18.041l-.005-.137a435.93 435.93 0 01-.005-.139l-.001-.035v-.017l-.001-.004v-.041l-.001-.007-.005-.058-.017-.231-.005-.059-.007-.076-.014-.15-.015-.151-.008-.075-.009-.069c-.025-.182-.047-.361-.08-.533l-.044-.253-.05-.242c-.032-.157-.07-.303-.104-.439l-.024-.099-.026-.094-.05-.174-.043-.152-.041-.128-.046-.143a.11.11 0 00-.134-.071l-3.55 1.011a.109.109 0 00-.078.125l.014.07.016.09c.006.031.01.067.016.104l.019.119.01.064.007.068c.01.093.025.192.031.298l.014.163.008.17c.008.115.006.235.008.356v.086l-.004.08-.002.08v.04l-.003.057-.01.232-.002.057V17.743l-.001-.035v.003l-.002.011-.002.023-.008.09-.008.09-.01.09c-.008.058-.012.116-.022.172l-.024.167-.027.158c-.009.052-.02.101-.029.15-.01.047-.018.094-.029.138l-.042.185-.013.047-.007.027h4.342a.109.109 0 00.109-.104v-.001l.011-.249.005-.26c.002-.088 0-.177 0-.268l-.002-.136zm-1.129-4.558a.107.107 0 00.06-.06.108.108 0 00-.002-.087l-.042-.088-.05-.104-.074-.153-.086-.173-.046-.088-.049-.089-.103-.189-.116-.199-.061-.104-.065-.104-.135-.214c-.097-.143-.193-.292-.3-.437l-.08-.11-.04-.055-.042-.055-.168-.216c-.056-.072-.115-.142-.173-.213-.03-.034-.058-.07-.087-.104l-.09-.102-.088-.1a2.96 2.96 0 00-.09-.099l-.178-.19c-.058-.062-.119-.12-.177-.178-.058-.058-.114-.115-.172-.168l-.166-.156c-.054-.05-.108-.096-.159-.141l-.147-.13-.136-.111-.12-.098-.104-.081-.114-.088a.109.109 0 00-.15.017l-1.906 2.307a.109.109 0 00.007.146l.055.055c.02.02.043.04.066.066l.076.08.085.09.092.103c.032.036.066.072.099.112l.102.123c.036.042.07.087.106.132.035.046.072.091.107.14l.108.147.053.076.053.078.053.077.05.08c.034.054.07.107.102.161l.097.164.024.04.023.042.045.082c.061.108.114.22.168.325l.074.158.036.076.032.076.062.145.053.137.026.064c.008.02.017.043.022.06l.035.101.031.09.035.103.031.092a.11.11 0 00.1.075c.015 0 .03-.003.044-.008l3.304-1.328zm-9.704-4.12l.096.014.112.019.127.022c.039.006.079.016.12.024l1.203-2.46-.176-.027-.118-.018-.116-.014-.22-.026-.207-.018c-.066-.005-.13-.011-.19-.014l-.172-.009-.15-.007-.129-.002-.137-.001a.109.109 0 00-.11.103l-.11 2.29a.109.109 0 00.094.113l.083.011zm3.232 1.261l.092.067.08.058c.012.007.03.02.044.032l.043.032.078.058a.11.11 0 00.084.02.109.109 0 00.072-.048l1.57-2.391a.109.109 0 00-.036-.155l-.085-.048-.046-.027-.056-.031-.144-.08-.165-.09-.174-.087c-.06-.03-.122-.062-.189-.092l-.205-.094c-.07-.033-.144-.063-.219-.095-.075-.03-.15-.064-.23-.094l-.06-.023-.677 2.94.107.071.116.077zm-5.34-1.272c.03-.004.06-.01.09-.013l.088-.009.168-.017.158-.01.074-.006.07-.003.12-.004.106-.003h.111l.098-.001a.109.109 0 00.108-.116l-.142-2.157a.109.109 0 00-.122-.101l-.096.012-.113.014-.156.024-.178.027c-.032.004-.062.01-.092.016l-.095.018-.2.039-.214.048-.11.026-.114.03-.232.061-.238.072-.12.037-.121.041-.122.042c-.04.014-.081.028-.122.044l-.242.092c-.08.032-.16.067-.239.1l-.118.05-.117.054-.114.053c-.039.018-.077.035-.114.054l-.219.11c-.072.037-.14.077-.209.113-.067.038-.134.073-.197.112l-.184.11c-.06.034-.116.072-.17.106l-.155.099-.136.094-.12.082c-.037.025-.07.05-.1.073l-.104.076a.109.109 0 00-.025.15l.896 1.316a.11.11 0 00.143.034l.08-.046c.027-.014.056-.032.089-.049l.106-.055.12-.063.134-.064c.048-.022.095-.047.147-.07l.16-.07c.053-.024.11-.046.168-.07.058-.022.117-.047.178-.069l.185-.066c.03-.012.063-.022.095-.032l.096-.031.097-.032.098-.028c.066-.018.131-.038.198-.055l.198-.05.1-.022.099-.02.097-.021.098-.018.191-.033.186-.025zm-6.107 1.702l-.07.1-.072.1-.069.104-.136.208-.13.212-.032.053-.03.053-.062.107c-.082.14-.154.284-.227.42l-.1.205-.049.1-.044.098-.084.188-.074.177-.066.164-.056.15-.049.13-.038.113-.039.114a.109.109 0 00.065.137l.833.32a.109.109 0 00.138-.056l.043-.09.046-.095.057-.111.065-.126c.023-.044.05-.089.076-.137l.084-.148.094-.156.048-.08.053-.082.109-.168c.078-.111.155-.228.241-.34l.064-.086.032-.043.034-.042.134-.17.138-.164.07-.08.071-.08.07-.078a2 2 0 01.072-.076l.142-.146c.046-.049.094-.093.14-.138.046-.045.091-.09.137-.13l.132-.12c.042-.039.085-.073.125-.108l.116-.099.103-.081.09-.072.044-.034.043-.032.078-.059a.109.109 0 00.017-.158l-.95-1.112a.109.109 0 00-.158-.007l-.07.067-.038.037-.044.043-.105.106-.12.121-.122.133c-.043.047-.088.094-.132.146l-.137.159c-.048.054-.094.112-.142.17-.047.06-.096.118-.144.18l-.143.19a2.428 2.428 0 00-.072.099zm-1.725 3.898l-.019.096-.022.11-.025.138-.027.16-.014.085-.012.088c-.016.12-.036.25-.048.389l-.021.212c-.006.073-.01.147-.015.223-.012.15-.014.306-.02.464l-.001.06v.06l.002.239v.06l.002.06.01.24.003.06v.019l.001.014.002.029.009.114.008.114.012.117.011.116.006.057.007.056.028.218.032.208c.01.068.022.133.033.196l.003.015a.109.109 0 00.107.09h.294a.109.109 0 00.109-.116 8.467 8.467 0 00-.003-.05c-.004-.061-.008-.124-.01-.189l-.006-.2-.002-.26.001-.053.003-.106.002-.108.005-.114.006-.114.001-.029v-.016c0-.005.001.004.001.002v-.01l.005-.056.018-.223.005-.056.006-.056.013-.111.013-.11.006-.056.008-.054c.022-.146.041-.288.07-.425l.037-.202.043-.191c.026-.125.06-.24.087-.348l.02-.08.022-.072.04-.134.035-.118.036-.107.03-.092a.109.109 0 00-.075-.14l-.737-.196a.107.107 0 00-.085.012.109.109 0 00-.05.071zm8.338 3.818a1.695 1.695 0 002.397-1.142l1.714-7.444.653-2.834.405-1.756c.047-.205-.116-.344-.279-.344a.267.267 0 00-.245.158l-.823 1.684-1.215 2.484-3.386 6.926a1.695 1.695 0 00.779 2.268zm.806-2.397a.83.83 0 110 1.662.83.83 0 010-1.662z" fill="#fff"/></svg><svg fill="none" viewBox="0 0 32 32" id="tech" xmlns="http://www.w3.org/2000/svg"><g clip-path="url(#oclip0_227_811)"><path d="M10.719 6.962c.2-.71.257-1.452.167-2.184a5.4 5.4 0 00-1.555-3.18A5.423 5.423 0 005.473 0c-.322-.001-.644.027-.962.083a.925.925 0 00-.716.605.929.929 0 00.168.926L5.71 3.67l-2.04 2.04-2.056-1.748a.929.929 0 00-.926-.168.925.925 0 00-.605.716C.028 4.83 0 5.151 0 5.473a5.424 5.424 0 001.597 3.858 5.4 5.4 0 003.18 1.555c.733.09 1.475.033 2.185-.167l4.177 4.176 3.756-3.756-4.176-4.177zM21.28 25.038c-.2.71-.257 1.452-.167 2.184a5.4 5.4 0 001.555 3.18A5.424 5.424 0 0026.527 32c.322.001.644-.027.962-.083a.925.925 0 00.716-.605.929.929 0 00-.168-.926L26.29 28.33l2.04-2.04 2.056 1.748c.26.22.605.284.926.168a.925.925 0 00.605-.716c.056-.318.084-.64.084-.962a5.424 5.424 0 00-1.597-3.858 5.4 5.4 0 00-3.18-1.555 5.538 5.538 0 00-2.185.167l-4.177-4.176-3.756 3.756 4.176 4.177zM31.724 2.396l-2.12-2.12a.932.932 0 00-1.166-.128l-4.376 2.784a.943.943 0 00-.416.607l-.375 1.875L11.814 16.87l3.315 3.315L26.586 8.728l1.875-.374a.942.942 0 00.607-.416l2.784-4.376a.932.932 0 00-.128-1.166zM15.68 23.39L8.61 16.319a.938.938 0 10-1.326 1.326l.221.22L1.371 24a4.693 4.693 0 000 6.63 4.693 4.693 0 006.629 0l6.134-6.135.221.22a.937.937 0 101.326-1.325zm-6.25.504l-4.77 4.771a.938.938 0 01-1.326-1.326l4.77-4.77a.938.938 0 011.326 1.325z" fill="#fff"/></g><defs><clipPath id="oclip0_227_811"><path fill="#fff" d="M0 0h32v32H0z"/></clipPath></defs></svg><svg viewBox="0 0 21 21" id="telegram" xmlns="http://www.w3.org/2000/svg"><path d="M18.389 2.784C15.882 3.822 5.133 8.274 2.165 9.487c-1.992.777-.826 1.506-.826 1.506s1.7.582 3.157 1.02c1.457.437 2.235-.049 2.235-.049l6.848-4.615c2.43-1.651 1.846-.291 1.263.292a185.724 185.724 0 01-5.1 4.857c-.777.68-.388 1.263-.048 1.555 1.263 1.068 4.711 3.254 4.906 3.4 1.026.726 3.044 1.772 3.351-.437l1.215-7.626c.388-2.575.777-4.955.825-5.635.146-1.651-1.602-.971-1.602-.971z"/></svg><svg fill="none" viewBox="0 0 24 24" id="videosignal" xmlns="http://www.w3.org/2000/svg"><path d="M13.575 4.95H2.626A2.634 2.634 0 000 7.576v8.848a2.634 2.634 0 002.626 2.626h10.95a2.634 2.634 0 002.625-2.626V7.576a2.617 2.617 0 00-2.626-2.626zm8.482 1.444a1.337 1.337 0 00-.447.184L17.514 8.94v6.092l4.123 2.363c.761.447 1.706.184 2.153-.578.131-.236.21-.498.21-.787V7.917a1.58 1.58 0 00-1.943-1.523z" fill="#fff"/></svg></svg>