<?xml version="1.0" encoding="utf-8"?><svg viewBox="0 0 100 24" xmlns="http://www.w3.org/2000/svg" xmlns:xlink="http://www.w3.org/1999/xlink"><style>:root>svg{display:none}:root>svg:target{display:block}</style><svg fill="none" viewBox="0 0 6 12" id="arrow-left" xmlns="http://www.w3.org/2000/svg"><path d="M5.201 1.039L1.026 5.415a.857.857 0 000 1.17l4.18 4.376" stroke="#252525" stroke-width="1.034" stroke-miterlimit="10" stroke-linecap="round"/></svg><svg fill="none" viewBox="0 0 6 12" id="arrow-right" xmlns="http://www.w3.org/2000/svg"><path d="M.799 10.961l4.175-4.376a.857.857 0 000-1.17L.794 1.039" stroke="#252525" stroke-width="1.034" stroke-miterlimit="10" stroke-linecap="round"/></svg><svg fill="none" viewBox="0 0 24 24" id="close-menu" xmlns="http://www.w3.org/2000/svg"><path d="M13.697 12l5.151-5.152a1.2 1.2 0 10-1.697-1.696L12 10.303 6.848 5.152a1.2 1.2 0 10-1.697 1.696L10.303 12 5.15 17.152a1.2 1.2 0 101.697 1.696L12 13.697l5.151 5.151a1.196 1.196 0 001.697 0 1.2 1.2 0 000-1.696L13.697 12z" fill="#252525"/></svg><svg fill="none" viewBox="0 0 100 24" id="logo" xmlns="http://www.w3.org/2000/svg"><path d="M42.435 2.533c0-.524-2.208-.973-5.244-1.116a.62.62 0 01-.527-.348A1.838 1.838 0 0034.99 0a1.85 1.85 0 00-1.675 1.07.618.618 0 01-.527.347c-3.036.15-5.244.592-5.244 1.116 0 .559 2.461 1.022 5.757 1.144l.24 3.07a.6.6 0 00.013.055c-1.45.347-2.892.592-4.342.783a1.248 1.248 0 00-1.17-.837h-1.524a6.494 6.494 0 00-5.3-2.724 6.494 6.494 0 00-5.299 2.724h-1.524c-.54 0-.999.347-1.17.83-1.45-.197-2.899-.463-4.335-.796 0-.014 0-.028.007-.034l.24-3.07c3.295-.123 5.757-.586 5.757-1.145 0-.524-2.209-.973-5.245-1.116a.62.62 0 01-.526-.348A1.838 1.838 0 007.446 0a1.85 1.85 0 00-1.675 1.07.618.618 0 01-.526.347C2.209 1.567 0 2.009 0 2.533c0 .559 2.462 1.022 5.757 1.144L5.99 6.64c-1.443.558-2.469 2.165-1.963 3.792a3.134 3.134 0 001.49 1.897 3.164 3.164 0 002.401.289 48.994 48.994 0 015.293-1.022c.17.484.629.83 1.169.83h.574l.02.096c.042.17.096.327.158.483 0 0-4.568 3.241-4.581 3.255a1.322 1.322 0 00-.376.926v5.48c.047 1.764 2.639 1.757 2.68 0v-4.881l4.547-2.764c.28.075.575.13.875.13h5.833c.3 0 .595-.055.875-.13l4.547 2.764v4.882a1.34 1.34 0 002.68 0v-5.481c0-.347-.143-.708-.416-.967l-4.54-3.213c.06-.157.116-.314.157-.484l.02-.095h.575c.547 0 1.005-.354 1.169-.838 1.77.225 3.549.538 5.32 1.029a3.257 3.257 0 001.695 0c3.29-1.035 2.763-5.134.205-6.006l.233-2.94c3.296-.123 5.757-.586 5.757-1.145l.048.007zM58.009 11.433c.535.4.965.913 1.29 1.54.324.614.486 1.284.486 2.011 0 .628-.12 1.212-.36 1.754a4.452 4.452 0 01-.951 1.433 4.373 4.373 0 01-1.416.984 4.324 4.324 0 01-1.713.342h-3.108l-1.374-2.61h4.524c.197 0 .38-.05.55-.149a1.789 1.789 0 00.761-.941 1.525 1.525 0 000-1.22c-.07-.213-.176-.399-.317-.555a1.823 1.823 0 00-.486-.386c-.17-.1-.353-.15-.55-.15h-5.307v6.011h-2.96V4.503h7.21c.606 0 1.177.121 1.712.364.55.228 1.022.549 1.417.962.409.4.726.877.951 1.433.24.542.36 1.12.36 1.733 0 .456-.064.891-.19 1.305-.127.399-.304.777-.53 1.133zm-3.721-.92a1.2 1.2 0 00.55-.128c.183-.1.345-.22.486-.363a1.58 1.58 0 00.317-.535c.084-.214.127-.435.127-.663 0-.228-.043-.442-.127-.642a1.544 1.544 0 00-.803-.92c-.17-.1-.353-.15-.55-.15h-4.25v3.402h4.25zM67.737 4.524c.72 0 1.396.143 2.03.428a5.194 5.194 0 011.67 1.134 5.02 5.02 0 011.12 1.668c.283.642.424 1.326.424 2.054a5.05 5.05 0 01-.423 2.053 5.02 5.02 0 01-1.12 1.669c-.48.47-1.037.848-1.671 1.133-.634.271-1.31.407-2.03.407h-1.649l-1.607-2.995h3.256c.31 0 .6-.057.867-.171.282-.128.522-.3.719-.513.197-.229.352-.492.465-.792.127-.314.19-.656.19-1.027 0-.313-.063-.613-.19-.898a2.595 2.595 0 00-.465-.791 2.328 2.328 0 00-.719-.557 1.816 1.816 0 00-.867-.213h-3.742v12.384h-2.939V4.524h6.681zM74.25 19.497V4.524h2.96v14.973h-2.96zm3.404-2.994h6.512v2.994h-4.863l-1.65-2.994zM96.829 19.497l-1.1-2.652h-6.766l-1.12 2.652h-3.171L90.74 4.524h3.192l-3.911 9.647h4.63l-2.093-5.133 2.389-2.075L100 19.497h-3.171z" fill="#fff"/></svg><svg fill="none" viewBox="0 0 100 24" id="logo-dark" xmlns="http://www.w3.org/2000/svg"><path d="M42.435 2.533c0-.524-2.208-.973-5.244-1.116a.62.62 0 01-.527-.348A1.838 1.838 0 0034.99 0a1.85 1.85 0 00-1.675 1.07.618.618 0 01-.527.347c-3.036.15-5.244.592-5.244 1.116 0 .559 2.461 1.022 5.757 1.144l.24 3.07a.6.6 0 00.013.055c-1.45.347-2.892.592-4.342.783a1.248 1.248 0 00-1.17-.837h-1.524a6.494 6.494 0 00-5.3-2.724 6.494 6.494 0 00-5.299 2.724h-1.524c-.54 0-.999.347-1.17.83-1.45-.197-2.899-.463-4.335-.796 0-.014 0-.028.007-.034l.24-3.07c3.295-.123 5.757-.586 5.757-1.145 0-.524-2.209-.973-5.245-1.116a.62.62 0 01-.526-.348A1.838 1.838 0 007.446 0a1.85 1.85 0 00-1.675 1.07.618.618 0 01-.526.347C2.209 1.567 0 2.009 0 2.533c0 .559 2.462 1.022 5.757 1.144L5.99 6.64c-1.443.558-2.469 2.165-1.963 3.792a3.134 3.134 0 001.49 1.897 3.164 3.164 0 002.401.289 48.994 48.994 0 015.293-1.022c.17.484.629.83 1.169.83h.574l.02.096c.042.17.096.327.158.483 0 0-4.568 3.241-4.581 3.255a1.322 1.322 0 00-.376.926v5.48c.047 1.764 2.639 1.757 2.68 0v-4.881l4.547-2.764c.28.075.575.13.875.13h5.833c.3 0 .595-.055.875-.13l4.547 2.764v4.882a1.34 1.34 0 002.68 0v-5.481c0-.347-.143-.708-.416-.967l-4.54-3.213c.06-.157.116-.314.157-.484l.02-.095h.575c.547 0 1.005-.354 1.169-.838 1.77.225 3.549.538 5.32 1.029a3.257 3.257 0 001.695 0c3.29-1.035 2.763-5.134.205-6.006l.233-2.94c3.296-.123 5.757-.586 5.757-1.145l.048.007zM58.009 11.433c.535.4.965.913 1.29 1.54.324.613.486 1.284.486 2.01 0 .628-.12 1.213-.36 1.755a4.452 4.452 0 01-.951 1.433 4.373 4.373 0 01-1.416.984 4.324 4.324 0 01-1.713.342h-3.108l-1.374-2.61h4.524c.197 0 .38-.05.55-.15.183-.113.338-.249.465-.405.127-.157.226-.336.296-.535a1.525 1.525 0 000-1.22c-.07-.213-.176-.399-.317-.556a1.823 1.823 0 00-.486-.385c-.17-.1-.353-.15-.55-.15h-5.307v6.011h-2.96V4.503h7.21c.606 0 1.177.12 1.712.363.55.229 1.022.55 1.417.963.409.4.726.877.951 1.433.24.542.36 1.12.36 1.733 0 .456-.064.89-.19 1.305a4.87 4.87 0 01-.53 1.133zm-3.721-.92a1.2 1.2 0 00.55-.128c.183-.1.345-.221.486-.364a1.58 1.58 0 00.317-.534c.084-.214.127-.435.127-.663 0-.229-.043-.443-.127-.642a1.544 1.544 0 00-.803-.92c-.17-.1-.353-.15-.55-.15h-4.25v3.401h4.25zM67.737 4.524c.72 0 1.396.143 2.03.428.634.27 1.191.649 1.67 1.134a5.02 5.02 0 011.12 1.668c.283.642.424 1.326.424 2.053 0 .728-.141 1.412-.423 2.054a5.02 5.02 0 01-1.12 1.668c-.48.471-1.037.849-1.671 1.134-.634.271-1.31.406-2.03.406h-1.649l-1.607-2.994h3.256c.31 0 .6-.057.867-.171.282-.129.522-.3.719-.514.197-.228.352-.492.465-.791.127-.314.19-.656.19-1.027 0-.314-.063-.613-.19-.898a2.595 2.595 0 00-.465-.792 2.328 2.328 0 00-.719-.556 1.816 1.816 0 00-.867-.214h-3.742v12.385h-2.939V4.524h6.681zM74.25 19.497V4.524h2.96v14.973h-2.96zm3.404-2.994h6.512v2.994h-4.863l-1.65-2.994zM96.829 19.497l-1.1-2.652h-6.766l-1.12 2.652h-3.171L90.74 4.524h3.192l-3.911 9.647h4.63l-2.093-5.134 2.389-2.074L100 19.497h-3.171z" fill="#252525"/></svg><svg fill="none" viewBox="0 0 21 21" id="mail" xmlns="http://www.w3.org/2000/svg"><g clip-path="url(#fclip0_135_525)" fill="#fff"><path d="M12.171 12.754a3.004 3.004 0 01-3.342 0L.633 7.29A2.981 2.981 0 01.5 7.195v8.953a1.84 1.84 0 001.841 1.842H18.66a1.84 1.84 0 001.841-1.842V7.195a2.913 2.913 0 01-.134.095l-8.195 5.464z"/><path d="M1.283 6.315l8.196 5.464a1.839 1.839 0 002.042 0l8.196-5.464c.49-.327.783-.874.783-1.464 0-1.015-.826-1.84-1.84-1.84H2.34C1.327 3.01.5 3.835.5 4.85a1.754 1.754 0 00.783 1.464z"/></g><defs><clipPath id="fclip0_135_525"><path fill="#fff" transform="translate(.5 .5)" d="M0 0h20v20H0z"/></clipPath></defs></svg><svg viewBox="0 0 21 21" id="telegram" xmlns="http://www.w3.org/2000/svg"><path d="M18.389 2.784C15.882 3.822 5.133 8.274 2.165 9.487c-1.992.777-.826 1.506-.826 1.506s1.7.582 3.157 1.02c1.457.437 2.235-.049 2.235-.049l6.848-4.615c2.43-1.651 1.846-.291 1.263.292a185.724 185.724 0 01-5.1 4.857c-.777.68-.388 1.263-.048 1.555 1.263 1.068 4.711 3.254 4.906 3.4 1.026.726 3.044 1.772 3.351-.437l1.215-7.626c.388-2.575.777-4.955.825-5.635.146-1.651-1.602-.971-1.602-.971z"/></svg></svg>