<?xml version="1.0" standalone="no"?>
<!DOCTYPE svg PUBLIC "-//W3C//DTD SVG 20010904//EN"
 "http://www.w3.org/TR/2001/REC-SVG-20010904/DTD/svg10.dtd">
<svg version="1.0" xmlns="http://www.w3.org/2000/svg"
 width="552.000000pt" height="552.000000pt" viewBox="0 0 552.000000 552.000000"
 preserveAspectRatio="xMidYMid meet">
<metadata>
Created by potrace 1.11, written by Peter Selinger 2001-2013
</metadata>
<g transform="translate(0.000000,552.000000) scale(0.100000,-0.100000)"
fill="#000000" stroke="none">
<path d="M2600 4565 c-261 -156 -484 -290 -495 -297 -11 -7 -56 -34 -100 -59
l-79 -47 -46 26 c-25 14 -56 33 -70 42 -14 9 -32 20 -40 24 -23 10 -52 29 -87
54 -17 12 -34 22 -38 22 -5 0 -37 19 -131 77 -10 7 -47 28 -82 48 l-63 37 -72
-44 c-40 -23 -81 -48 -92 -55 -11 -7 -26 -15 -34 -19 -8 -4 -61 -36 -118 -71
-57 -35 -108 -63 -113 -63 -6 0 -10 -4 -10 -8 0 -5 -18 -17 -40 -27 -22 -10
-40 -22 -40 -27 0 -4 -4 -8 -10 -8 -9 0 -537 -314 -552 -329 -4 -3 25 -27 65
-51 39 -24 75 -49 79 -55 4 -5 8 -6 8 -1 0 5 8 2 18 -6 24 -22 313 -198 323
-198 5 0 9 -4 9 -10 0 -5 7 -10 15 -10 8 0 15 -4 15 -10 0 -5 4 -10 10 -10 9
0 123 -69 147 -90 7 -5 15 -10 18 -10 3 0 33 -18 66 -40 33 -22 65 -40 70 -40
5 0 9 -4 9 -9 0 -5 8 -12 18 -15 34 -13 67 -36 64 -47 -1 -6 2 -8 6 -5 9 5
102 -50 102 -61 0 -2 -4 -1 -10 2 -5 3 -10 1 -10 -5 0 -6 -4 -9 -9 -6 -5 3
-20 -4 -33 -17 -14 -12 -32 -23 -39 -25 -8 -2 -16 -8 -17 -13 -2 -5 -8 -7 -13
-3 -5 3 -9 0 -9 -5 0 -6 -5 -11 -11 -11 -6 0 -18 -7 -26 -16 -9 -8 -24 -13
-34 -11 -11 3 -22 0 -26 -5 -3 -7 -1 -8 5 -4 7 4 12 3 12 -2 0 -7 -64 -44 -81
-46 -3 -1 -13 -9 -23 -18 -10 -10 -26 -18 -36 -18 -10 0 -20 -6 -23 -14 -4 -9
-14 -13 -29 -9 -18 4 -20 3 -8 -6 13 -10 8 -15 -13 -12 -4 0 -7 -4 -7 -10 0
-6 -7 -8 -16 -5 -9 3 -12 2 -9 -5 4 -6 -2 -13 -14 -16 -12 -3 -21 -9 -21 -14
0 -5 -5 -9 -11 -9 -5 0 -7 6 -4 13 4 6 -2 1 -13 -12 -12 -15 -25 -22 -35 -18
-11 4 -14 2 -11 -7 6 -15 -22 -30 -37 -20 -5 3 -9 -1 -9 -9 0 -18 -30 -31 -31
-14 0 7 -4 2 -9 -10 -5 -13 -14 -24 -20 -24 -5 -1 -14 -2 -18 -3 -5 0 -16 -9
-26 -18 -10 -10 -24 -18 -32 -18 -8 0 -14 -4 -14 -10 0 -5 -5 -10 -11 -10 -6
0 -24 -9 -39 -20 -27 -19 -29 -20 -40 -3 -10 16 -10 16 -5 -4 6 -21 1 -25 -82
-67 -13 -6 -23 -15 -23 -19 0 -5 -4 -5 -10 -2 -5 3 -10 1 -10 -4 0 -6 -7 -11
-15 -11 -8 0 -15 -4 -15 -9 0 -5 -8 -12 -17 -15 -10 -4 -27 -14 -38 -24 -11
-9 -18 -16 -16 -15 8 5 61 -28 61 -38 0 -6 4 -8 9 -5 5 3 14 -1 21 -9 7 -8 19
-15 26 -15 8 0 14 -5 14 -11 0 -5 4 -8 9 -5 5 4 11 2 13 -2 1 -5 29 -23 61
-41 31 -18 57 -37 57 -42 0 -5 4 -8 8 -6 5 1 37 -16 73 -39 35 -23 80 -50 99
-60 19 -10 43 -27 54 -36 11 -10 26 -18 33 -18 7 0 13 -4 13 -10 0 -5 7 -10
16 -10 8 0 12 -4 9 -10 -3 -5 0 -7 8 -4 8 3 20 -2 27 -11 7 -8 19 -15 26 -15
8 0 14 -4 14 -10 0 -5 7 -10 15 -10 8 0 15 -4 15 -10 0 -5 7 -10 15 -10 8 0
15 -4 15 -8 0 -4 12 -13 28 -19 26 -12 62 -33 72 -43 3 -3 17 -11 32 -19 15
-8 26 -17 23 -20 -2 -4 5 -8 17 -8 11 -1 27 -10 36 -20 10 -10 24 -19 32 -21
8 -2 22 -9 30 -16 8 -7 37 -26 64 -42 27 -16 60 -37 75 -46 14 -10 37 -23 51
-30 14 -7 43 -25 64 -40 21 -16 45 -28 53 -28 8 0 11 -5 8 -10 -3 -6 -2 -10 3
-10 15 0 132 -72 132 -82 0 -5 4 -6 10 -3 5 3 20 -3 32 -14 12 -12 28 -21 35
-21 7 0 13 -4 13 -10 0 -5 7 -10 15 -10 8 0 15 -4 15 -10 0 -5 4 -10 9 -10 10
0 202 -117 211 -129 3 -3 11 -7 18 -9 15 -3 73 -42 83 -55 3 -5 10 -9 15 -10
5 -1 8 -4 7 -7 -1 -3 8 -7 19 -7 12 -1 24 -6 27 -11 3 -5 13 -12 21 -15 8 -4
35 -21 60 -37 25 -17 53 -33 63 -36 9 -4 17 -10 17 -15 0 -5 4 -9 9 -9 12 0
222 -128 236 -144 6 -6 15 -12 22 -13 6 -1 31 -16 56 -33 25 -16 50 -30 56
-30 6 0 11 -4 11 -10 0 -5 4 -10 10 -10 5 0 29 -13 52 -29 31 -21 46 -27 55
-19 7 6 13 7 13 4 0 -4 15 4 33 17 17 14 46 32 62 41 17 9 42 24 56 34 39 26
137 85 167 101 14 8 35 22 46 33 11 10 23 18 27 18 4 0 58 32 120 71 63 39
127 79 142 88 16 9 61 37 100 62 40 25 88 54 106 65 19 10 42 25 50 32 9 7 19
12 24 12 4 0 17 9 29 20 12 11 28 20 35 20 7 0 13 4 13 10 0 5 11 12 25 16 14
3 25 9 25 13 0 8 38 28 54 29 5 0 12 5 15 10 7 11 234 155 291 184 14 7 33 20
42 28 9 8 34 24 55 35 21 11 43 23 48 28 34 26 102 67 112 67 6 0 13 4 15 8 2
5 36 28 76 53 40 24 85 52 100 61 15 10 34 21 42 25 8 3 17 9 20 13 3 3 39 26
80 50 41 24 77 47 80 50 3 4 12 10 20 14 17 8 38 21 97 59 24 15 47 27 52 27
5 0 11 4 13 8 2 4 44 32 93 62 50 30 92 57 95 61 3 3 10 8 15 10 33 13 95 56
95 65 0 7 -11 15 -25 18 -14 4 -25 10 -25 15 0 5 -13 14 -30 21 -17 7 -27 17
-23 24 3 6 3 8 -2 4 -7 -7 -75 27 -127 63 -14 11 -31 19 -37 19 -6 0 -11 5
-11 10 0 6 -6 10 -14 10 -7 0 -21 10 -30 23 -9 12 -14 16 -11 10 4 -8 1 -11
-9 -7 -9 3 -16 14 -16 23 0 14 -2 14 -10 1 -6 -10 -10 -11 -10 -2 0 6 -4 12
-9 12 -15 0 -122 68 -138 87 -8 10 -11 12 -8 5 6 -11 3 -12 -14 -2 -12 6 -19
15 -16 21 4 5 3 8 -2 7 -12 -4 -83 24 -83 32 0 4 -20 17 -45 30 -25 13 -45 27
-45 32 0 4 -7 8 -16 8 -16 0 -76 38 -82 52 -2 5 -8 6 -13 2 -5 -3 -9 0 -9 5 0
6 -7 11 -15 11 -9 0 -28 12 -42 28 -15 15 -23 21 -19 15 5 -9 2 -11 -8 -7 -9
3 -16 10 -16 16 0 5 -4 6 -10 3 -5 -3 -10 -1 -10 4 0 6 -7 11 -15 11 -8 0 -15
4 -15 8 0 5 -16 14 -35 22 -19 8 -35 17 -35 20 0 4 -22 17 -50 30 -27 13 -50
26 -50 29 0 3 -14 12 -30 20 -27 11 -29 15 -18 30 12 14 11 15 -5 2 -16 -13
-20 -13 -28 0 -5 8 -9 10 -9 4 0 -7 -3 -7 -8 0 -4 6 -25 20 -47 32 -22 12 -40
26 -40 30 -2 32 -18 53 -40 51 -13 -1 -21 -6 -19 -10 3 -4 12 -4 21 -1 12 5
14 3 8 -7 -5 -8 -4 -11 2 -7 6 4 13 0 17 -8 7 -20 4 -19 -40 7 l-38 22 30 13
c16 6 25 12 19 13 -5 0 2 8 18 16 15 8 31 12 36 10 5 -3 11 4 14 15 3 12 10
18 16 14 6 -3 11 -1 11 4 0 6 7 11 15 11 8 0 15 4 15 8 0 11 56 43 64 35 3 -3
6 -1 6 5 0 7 4 12 10 12 5 0 7 -8 3 -17 -3 -10 -3 -15 1 -11 4 3 9 14 11 25 1
10 8 17 14 15 6 -1 11 3 11 9 0 6 7 9 15 5 8 -3 14 0 12 7 -1 7 6 11 15 11 10
-1 16 1 15 5 -1 3 2 7 6 8 4 1 14 8 22 15 31 28 44 38 51 38 3 0 17 9 31 20
20 16 29 17 47 9 17 -9 19 -9 9 2 -10 10 -5 18 29 41 31 20 44 24 50 15 5 -9
12 -7 25 7 16 18 16 19 1 7 -10 -8 -18 -9 -18 -3 0 16 98 74 111 66 7 -4 9 -3
5 4 -3 5 -1 12 6 14 8 3 7 11 -5 28 -9 14 -17 21 -17 16 0 -5 -8 -2 -17 6 -10
9 -23 17 -28 19 -6 2 -93 54 -193 114 -101 61 -202 121 -225 134 -23 13 -44
28 -47 32 -3 4 -17 12 -30 18 -14 6 -42 21 -62 33 -30 19 -172 104 -299 181
-16 9 -42 25 -58 35 -16 9 -71 41 -122 71 -52 30 -95 58 -97 63 -2 4 -8 8 -13
8 -5 0 -46 23 -90 50 -44 28 -83 50 -85 50 -3 0 -25 14 -49 30 -24 17 -46 30
-49 30 -3 0 -30 16 -61 35 -30 20 -61 38 -68 40 -6 3 -226 -123 -487 -280z"/>
<path d="M4650 3780 c0 -5 5 -10 11 -10 5 0 7 5 4 10 -3 6 -8 10 -11 10 -2 0
-4 -4 -4 -10z"/>
<path d="M4517 3723 c-10 -9 -9 -23 1 -23 5 0 9 7 9 15 0 17 -1 18 -10 8z"/>
<path d="M4573 3695 c0 -8 4 -12 9 -9 5 3 6 10 3 15 -9 13 -12 11 -12 -6z"/>
<path d="M4455 3680 c3 -5 8 -10 11 -10 2 0 4 5 4 10 0 6 -5 10 -11 10 -5 0
-7 -4 -4 -10z"/>
<path d="M4430 3661 c0 -5 8 -15 18 -22 15 -12 16 -12 5 2 -7 9 -10 19 -6 22
3 4 1 7 -5 7 -7 0 -12 -4 -12 -9z"/>
<path d="M4179 3513 c-13 -17 -13 -17 6 -3 11 8 22 16 24 17 2 2 0 3 -6 3 -6
0 -17 -8 -24 -17z"/>
<path d="M4250 3506 c0 -2 7 -7 16 -10 8 -3 12 -2 9 4 -6 10 -25 14 -25 6z"/>
<path d="M4153 3455 c0 -8 4 -12 9 -9 5 3 6 10 3 15 -9 13 -12 11 -12 -6z"/>
<path d="M4064 3430 c0 -13 4 -16 10 -10 7 7 7 13 0 20 -6 6 -10 3 -10 -10z"/>
<path d="M4119 3440 c-1 -5 -2 -15 -3 -20 0 -6 -8 -15 -16 -20 -9 -6 -10 -10
-3 -10 6 0 15 6 20 13 9 15 15 47 8 47 -3 0 -6 -4 -6 -10z"/>
<path d="M1204 3203 c4 -4 16 -8 28 -10 28 -4 18 6 -12 12 -12 2 -20 1 -16 -2z"/>
<path d="M1266 3202 c-3 -5 1 -9 9 -9 8 0 12 4 9 9 -3 4 -7 8 -9 8 -2 0 -6 -4
-9 -8z"/>
<path d="M1217 3159 c4 -13 8 -18 11 -10 2 7 -1 18 -6 23 -8 8 -9 4 -5 -13z"/>
<path d="M1139 3153 c-13 -17 -13 -17 6 -3 11 8 22 16 24 17 2 2 0 3 -6 3 -6
0 -17 -8 -24 -17z"/>
<path d="M1191 3153 c7 -12 15 -20 18 -17 3 2 -3 12 -13 22 -17 16 -18 16 -5
-5z"/>
<path d="M1163 3138 c-16 -26 -12 -38 8 -28 24 13 25 22 2 13 -16 -6 -16 -5
-4 10 7 9 11 17 8 17 -3 0 -9 -6 -14 -12z"/>
<path d="M4534 3098 c-4 -7 -4 -10 1 -6 4 4 15 2 24 -5 14 -11 14 -10 2 6 -16
20 -18 21 -27 5z"/>
<path d="M1053 3087 c0 -7 9 -14 20 -14 11 -1 18 -1 16 0 -2 2 -11 8 -20 15
-12 9 -16 9 -16 -1z"/>
<path d="M991 3087 c2 -1 13 -9 24 -17 19 -14 19 -14 6 3 -7 9 -18 17 -24 17
-6 0 -8 -1 -6 -3z"/>
<path d="M1130 3079 c0 -5 5 -7 10 -4 6 3 10 8 10 11 0 2 -4 4 -10 4 -5 0 -10
-5 -10 -11z"/>
<path d="M935 3061 c-3 -5 -2 -12 3 -15 5 -3 9 1 9 9 0 17 -3 19 -12 6z"/>
<path d="M1050 3049 c0 -5 -6 -7 -12 -3 -7 4 -9 3 -5 -1 13 -15 36 -14 30 1
-6 17 -13 18 -13 3z"/>
<path d="M856 3018 c3 -5 10 -6 15 -3 13 9 11 12 -6 12 -8 0 -12 -4 -9 -9z"/>
<path d="M947 3019 c7 -7 15 -10 18 -7 3 3 -2 9 -12 12 -14 6 -15 5 -6 -5z"/>
<path d="M895 3009 c-4 -6 -5 -12 -2 -15 2 -3 7 2 10 11 7 17 1 20 -8 4z"/>
<path d="M976 2993 c-6 -14 -5 -15 5 -6 7 7 10 15 7 18 -3 3 -9 -2 -12 -12z"/>
<path d="M907 2986 c-4 -10 -1 -13 8 -9 8 3 12 9 9 14 -7 12 -11 11 -17 -5z"/>
<path d="M846 2958 c3 -5 9 -7 12 -4 3 3 12 0 21 -6 13 -10 14 -10 4 2 -15 16
-46 23 -37 8z"/>
<path d="M830 2929 c0 -5 5 -7 10 -4 6 3 10 8 10 11 0 2 -4 4 -10 4 -5 0 -10
-5 -10 -11z"/>
<path d="M725 2900 c-3 -6 1 -7 9 -4 18 7 21 14 7 14 -6 0 -13 -4 -16 -10z"/>
<path d="M540 2886 c0 -2 8 -10 18 -17 15 -13 16 -12 3 4 -13 16 -21 21 -21
13z"/>
<path d="M750 2879 c0 -5 5 -7 10 -4 6 3 10 8 10 11 0 2 -4 4 -10 4 -5 0 -10
-5 -10 -11z"/>
<path d="M665 2860 c-3 -6 1 -7 9 -4 18 7 21 14 7 14 -6 0 -13 -4 -16 -10z"/>
<path d="M4934 2858 c-4 -7 -4 -10 1 -6 4 4 15 2 24 -5 14 -11 14 -10 2 6 -16
20 -18 21 -27 5z"/>
<path d="M691 2851 c-8 -5 -9 -11 -3 -15 5 -3 12 1 16 9 6 17 6 18 -13 6z"/>
<path d="M731 2844 c0 -11 3 -14 6 -6 3 7 2 16 -1 19 -3 4 -6 -2 -5 -13z"/>
<path d="M533 2823 c4 -3 1 -13 -6 -22 -11 -14 -10 -14 5 -2 16 12 16 31 1 31
-4 0 -3 -3 0 -7z"/>
<path d="M593 2816 c1 -6 -3 -10 -9 -9 -7 1 -20 -8 -30 -20 -19 -22 -19 -22 2
-4 11 9 23 15 26 12 3 -3 12 3 21 13 14 15 14 19 3 19 -8 0 -14 -5 -13 -11z"/>
<path d="M450 2780 c0 -5 5 -10 11 -10 5 0 7 5 4 10 -3 6 -8 10 -11 10 -2 0
-4 -4 -4 -10z"/>
<path d="M577 2761 c-4 -17 -3 -21 5 -13 5 5 8 16 6 23 -3 8 -7 3 -11 -10z"/>
<path d="M479 2755 c-1 -3 -2 -8 -3 -12 -1 -5 -5 -15 -10 -23 -7 -12 -6 -13 4
-3 13 12 23 43 14 43 -2 0 -5 -2 -5 -5z"/>
<path d="M440 2740 c-9 -6 -10 -10 -3 -10 6 0 15 5 18 10 8 12 4 12 -15 0z"/>
<path d="M506 2741 c-4 -5 3 -7 14 -4 23 6 26 13 6 13 -8 0 -17 -4 -20 -9z"/>
<path d="M5140 2740 c-12 -7 -10 -9 7 -7 12 0 19 5 17 9 -6 10 -6 10 -24 -2z"/>
<path d="M510 2720 c-9 -6 -10 -10 -3 -10 6 0 15 5 18 10 8 12 4 12 -15 0z"/>
<path d="M330 2681 c0 -6 4 -13 10 -16 6 -3 7 1 4 9 -7 18 -14 21 -14 7z"/>
<path d="M290 2641 c0 -6 4 -13 10 -16 6 -3 7 1 4 9 -7 18 -14 21 -14 7z"/>
<path d="M367 2639 c7 -7 15 -10 18 -7 3 3 -2 9 -12 12 -14 6 -15 5 -6 -5z"/>
<path d="M193 2565 c0 -8 4 -12 9 -9 5 3 6 10 3 15 -9 13 -12 11 -12 -6z"/>
</g>
</svg>
