<svg version="1.0" xmlns="http://www.w3.org/2000/svg" width="736" height="736" viewBox="0 0 552 552"><path d="M260 95.5c-26.1 15.6-48.4 29-49.5 29.7-1.1.7-5.6 3.4-10 5.9l-7.9 4.7-4.6-2.6c-2.5-1.4-5.6-3.3-7-4.2-1.4-.9-3.2-2-4-2.4-2.3-1-5.2-2.9-8.7-5.4-1.7-1.2-3.4-2.2-3.8-2.2-.5 0-3.7-1.9-13.1-7.7-1-.7-4.7-2.8-8.2-4.8l-6.3-3.7-7.2 4.4c-4 2.3-8.1 4.8-9.2 5.5-1.1.7-2.6 1.5-3.4 1.9-.8.4-6.1 3.6-11.8 7.1-5.7 3.5-10.8 6.3-11.3 6.3-.6 0-1 .4-1 .8 0 .5-1.8 1.7-4 2.7-2.2 1-4 2.2-4 2.7 0 .4-.4.8-1 .8-.9 0-53.7 31.4-55.2 32.9-.4.3 2.5 2.7 6.5 5.1 3.9 2.4 7.5 4.9 7.9 5.5.4.5.8.6.8.1s.8-.2 1.8.6c2.4 2.2 31.3 19.8 32.3 19.8.5 0 .9.4.9 1 0 .5.7 1 1.5 1s1.5.4 1.5 1c0 .5.4 1 1 1 .9 0 12.3 6.9 14.7 9 .7.5 1.5 1 1.8 1 .3 0 3.3 1.8 6.6 4s6.5 4 7 4 .9.4.9.9.8 1.2 1.8 1.5c3.4 1.3 6.7 3.6 6.4 4.7-.1.6.2.8.6.5.9-.5 10.2 5 10.2 6.1 0 .2-.4.1-1-.2-.5-.3-1-.1-1 .5s-.4.9-.9.6c-.5-.3-2 .4-3.3 1.7-1.4 1.2-3.2 2.3-3.9 2.5-.8.2-1.6.8-1.7 1.3-.2.5-.8.7-1.3.3-.5-.3-.9 0-.9.5 0 .6-.5 1.1-1.1 1.1-.6 0-1.8.7-2.6 1.6-.9.8-2.4 1.3-3.4 1.1-1.1-.3-2.2 0-2.6.5-.3.7-.1.8.5.4.7-.4 1.2-.3 1.2.2 0 .7-6.4 4.4-8.1 4.6-.3.1-1.3.9-2.3 1.8-1 1-2.6 1.8-3.6 1.8s-2 .6-2.3 1.4c-.4.9-1.4 1.3-2.9.9-1.8-.4-2-.3-.8.6 1.3 1 .8 1.5-1.3 1.2-.4 0-.7.4-.7 1s-.7.8-1.6.5c-.9-.3-1.2-.2-.9.5.4.6-.2 1.3-1.4 1.6-1.2.3-2.1.9-2.1 1.4 0 .5-.5.9-1.1.9-.5 0-.7-.6-.4-1.3.4-.6-.2-.1-1.3 1.2-1.2 1.5-2.5 2.2-3.5 1.8-1.1-.4-1.4-.2-1.1.7.6 1.5-2.2 3-3.7 2-.5-.3-.9.1-.9.9 0 1.8-3 3.1-3.1 1.4 0-.7-.4-.2-.9 1-.5 1.3-1.4 2.4-2 2.4-.5.1-1.4.2-1.8.3-.5 0-1.6.9-2.6 1.8-1 1-2.4 1.8-3.2 1.8-.8 0-1.4.4-1.4 1 0 .5-.5 1-1.1 1-.6 0-2.4.9-3.9 2-2.7 1.9-2.9 2-4 .3-1-1.6-1-1.6-.5.4.6 2.1.1 2.5-8.2 6.7-1.3.6-2.3 1.5-2.3 1.9 0 .5-.4.5-1 .2-.5-.3-1-.1-1 .4 0 .6-.7 1.1-1.5 1.1s-1.5.4-1.5.9-.8 1.2-1.7 1.5c-1 .4-2.7 1.4-3.8 2.4-1.1.9-1.8 1.6-1.6 1.5.8-.5 6.1 2.8 6.1 3.8 0 .6.4.8.9.5.5-.3 1.4.1 2.1.9.7.8 1.9 1.5 2.6 1.5.8 0 1.4.5 1.4 1.1 0 .5.4.8.9.5.5-.4 1.1-.2 1.3.2.1.5 2.9 2.3 6.1 4.1 3.1 1.8 5.7 3.7 5.7 4.2s.4.8.8.6c.5-.1 3.7 1.6 7.3 3.9 3.5 2.3 8 5 9.9 6 1.9 1 4.3 2.7 5.4 3.6 1.1 1 2.6 1.8 3.3 1.8.7 0 1.3.4 1.3 1 0 .5.7 1 1.6 1 .8 0 1.2.4.9 1-.3.5 0 .7.8.4.8-.3 2 .2 2.7 1.1.7.8 1.9 1.5 2.6 1.5.8 0 1.4.4 1.4 1 0 .5.7 1 1.5 1s1.5.4 1.5 1c0 .5.7 1 1.5 1s1.5.4 1.5.8 1.2 1.3 2.8 1.9c2.6 1.2 6.2 3.3 7.2 4.3.3.3 1.7 1.1 3.2 1.9 1.5.8 2.6 1.7 2.3 2-.2.4.5.8 1.7.8 1.1.1 2.7 1 3.6 2 1 1 2.4 1.9 3.2 2.1.8.2 2.2.9 3 1.6.8.7 3.7 2.6 6.4 4.2s6 3.7 7.5 4.6c1.4 1 3.7 2.3 5.1 3 1.4.7 4.3 2.5 6.4 4 2.1 1.6 4.5 2.8 5.3 2.8.8 0 1.1.5.8 1-.3.6-.2 1 .3 1 1.5 0 13.2 7.2 13.2 8.2 0 .5.4.6 1 .3.5-.3 2 .3 3.2 1.4 1.2 1.2 2.8 2.1 3.5 2.1.7 0 1.3.4 1.3 1 0 .5.7 1 1.5 1s1.5.4 1.5 1c0 .5.4 1 .9 1 1 0 20.2 11.7 21.1 12.9.3.3 1.1.7 1.8.9 1.5.3 7.3 4.2 8.3 5.5.3.5 1 .9 1.5 1 .5.1.8.4.7.7-.1.3.8.7 1.9.7 1.2.1 2.4.6 2.7 1.1.3.5 1.3 1.2 2.1 1.5.8.4 3.5 2.1 6 3.7 2.5 1.7 5.3 3.3 6.3 3.6.9.4 1.7 1 1.7 1.5s.4.9.9.9c1.2 0 22.2 12.8 23.6 14.4.6.6 1.5 1.2 2.2 1.3.6.1 3.1 1.6 5.6 3.3 2.5 1.6 5 3 5.6 3 .6 0 1.1.4 1.1 1 0 .5.4 1 1 1 .5 0 2.9 1.3 5.2 2.9 3.1 2.1 4.6 2.7 5.5 1.9.7-.6 1.3-.7 1.3-.4 0 .4 1.5-.4 3.3-1.7 1.7-1.4 4.6-3.2 6.2-4.1 1.7-.9 4.2-2.4 5.6-3.4 3.9-2.6 13.7-8.5 16.7-10.1 1.4-.8 3.5-2.2 4.6-3.3 1.1-1 2.3-1.8 2.7-1.8.4 0 5.8-3.2 12-7.1 6.3-3.9 12.7-7.9 14.2-8.8 1.6-.9 6.1-3.7 10-6.2 4-2.5 8.8-5.4 10.6-6.5 1.9-1 4.2-2.5 5-3.2.9-.7 1.9-1.2 2.4-1.2.4 0 1.7-.9 2.9-2s2.8-2 3.5-2c.7 0 1.3-.4 1.3-1 0-.5 1.1-1.2 2.5-1.6 1.4-.3 2.5-.9 2.5-1.3 0-.8 3.8-2.8 5.4-2.9.5 0 1.2-.5 1.5-1 .7-1.1 23.4-15.5 29.1-18.4 1.4-.7 3.3-2 4.2-2.8.9-.8 3.4-2.4 5.5-3.5s4.3-2.3 4.8-2.8c3.4-2.6 10.2-6.7 11.2-6.7.6 0 1.3-.4 1.5-.8.2-.5 3.6-2.8 7.6-5.3 4-2.4 8.5-5.2 10-6.1 1.5-1 3.4-2.1 4.2-2.5.8-.3 1.7-.9 2-1.3.3-.3 3.9-2.6 8-5s7.7-4.7 8-5c.3-.4 1.2-1 2-1.4 1.7-.8 3.8-2.1 9.7-5.9 2.4-1.5 4.7-2.7 5.2-2.7s1.1-.4 1.3-.8c.2-.4 4.4-3.2 9.3-6.2 5-3 9.2-5.7 9.5-6.1.3-.3 1-.8 1.5-1 3.3-1.3 9.5-5.6 9.5-6.5 0-.7-1.1-1.5-2.5-1.8-1.4-.4-2.5-1-2.5-1.5s-1.3-1.4-3-2.1c-1.7-.7-2.7-1.7-2.3-2.4.3-.6.3-.8-.2-.4-.7.7-7.5-2.7-12.7-6.3-1.4-1.1-3.1-1.9-3.7-1.9-.6 0-1.1-.5-1.1-1 0-.6-.6-1-1.4-1-.7 0-2.1-1-3-2.3-.9-1.2-1.4-1.6-1.1-1 .4.8.1 1.1-.9.7-.9-.3-1.6-1.4-1.6-2.3 0-1.4-.2-1.4-1-.1-.6 1-1 1.1-1 .2 0-.6-.4-1.2-.9-1.2-1.5 0-12.2-6.8-13.8-8.7-.8-1-1.1-1.2-.8-.5.6 1.1.3 1.2-1.4.2-1.2-.6-1.9-1.5-1.6-2.1.4-.5.3-.8-.2-.7-1.2.4-8.3-2.4-8.3-3.2 0-.4-2-1.7-4.5-3s-4.5-2.7-4.5-3.2c0-.4-.7-.8-1.6-.8-1.6 0-7.6-3.8-8.2-5.2-.2-.5-.8-.6-1.3-.2-.5.3-.9 0-.9-.5 0-.6-.7-1.1-1.5-1.1-.9 0-2.8-1.2-4.2-2.8-1.5-1.5-2.3-2.1-1.9-1.5.5.9.2 1.1-.8.7-.9-.3-1.6-1-1.6-1.6 0-.5-.4-.6-1-.3-.5.3-1 .1-1-.4 0-.6-.7-1.1-1.5-1.1s-1.5-.4-1.5-.8c0-.5-1.6-1.4-3.5-2.2-1.9-.8-3.5-1.7-3.5-2 0-.4-2.2-1.7-5-3-2.7-1.3-5-2.6-5-2.9 0-.3-1.4-1.2-3-2-2.7-1.1-2.9-1.5-1.8-3 1.2-1.4 1.1-1.5-.5-.2s-2 1.3-2.8 0c-.5-.8-.9-1-.9-.4 0 .7-.3.7-.8 0-.4-.6-2.5-2-4.7-3.2-2.2-1.2-4-2.6-4-3-.2-3.2-1.8-5.3-4-5.1-1.3.1-2.1.6-1.9 1 .3.4 1.2.4 2.1.1 1.2-.5 1.4-.3.8.7-.5.8-.4 1.1.2.7.6-.4 1.3 0 1.7.8.7 2 .4 1.9-4-.7l-3.8-2.2 3-1.3c1.6-.6 2.5-1.2 1.9-1.3-.5 0 .2-.8 1.8-1.6 1.5-.8 3.1-1.2 3.6-1 .5.3 1.1-.4 1.4-1.5.3-1.2 1-1.8 1.6-1.4.6.3 1.1.1 1.1-.4 0-.6.7-1.1 1.5-1.1s1.5-.4 1.5-.8c0-1.1 5.6-4.3 6.4-3.5.3.3.6.1.6-.5 0-.7.4-1.2 1-1.2.5 0 .7.8.3 1.7-.3 1-.3 1.5.1 1.1.4-.3.9-1.4 1.1-2.5.1-1 .8-1.7 1.4-1.5.6.1 1.1-.3 1.1-.9 0-.6.7-.9 1.5-.5.8.3 1.4 0 1.2-.7-.1-.7.6-1.1 1.5-1.1 1 .1 1.6-.1 1.5-.5-.1-.3.2-.7.6-.8.4-.1 1.4-.8 2.2-1.5 3.1-2.8 4.4-3.8 5.1-3.8.3 0 1.7-.9 3.1-2 2-1.6 2.9-1.7 4.7-.9 1.7.9 1.9.9.9-.2-1-1-.5-1.8 2.9-4.1 3.1-2 4.4-2.4 5-1.5.5.9 1.2.7 2.5-.7 1.6-1.8 1.6-1.9.1-.7-1 .8-1.8.9-1.8.3 0-1.6 9.8-7.4 11.1-6.6.7.4.9.3.5-.4-.3-.5-.1-1.2.6-1.4.8-.3.7-1.1-.5-2.8-.9-1.4-1.7-2.1-1.7-1.6s-.8.2-1.7-.6c-1-.9-2.3-1.7-2.8-1.9-.6-.2-9.3-5.4-19.3-11.4-10.1-6.1-20.2-12.1-22.5-13.4-2.3-1.3-4.4-2.8-4.7-3.2-.3-.4-1.7-1.2-3-1.8-1.4-.6-4.2-2.1-6.2-3.3-3-1.9-17.2-10.4-29.9-18.1-1.6-.9-4.2-2.5-5.8-3.5-1.6-.9-7.1-4.1-12.2-7.1-5.2-3-9.5-5.8-9.7-6.3-.2-.4-.8-.8-1.3-.8s-4.6-2.3-9-5c-4.4-2.8-8.3-5-8.5-5-.3 0-2.5-1.4-4.9-3-2.4-1.7-4.6-3-4.9-3-.3 0-3-1.6-6.1-3.5-3-2-6.1-3.8-6.8-4-.6-.3-22.6 12.3-48.7 28z"/><path d="M465 174c0 .5.5 1 1.1 1 .5 0 .7-.5.4-1-.3-.6-.8-1-1.1-1-.2 0-.4.4-.4 1zm-13.3 5.7c-1 .9-.9 2.3.1 2.3.5 0 .9-.7.9-1.5 0-1.7-.1-1.8-1-.8zm5.6 2.8c0 .8.4 1.2.9.9.5-.3.6-1 .3-1.5-.9-1.3-1.2-1.1-1.2.6zm-11.8 1.5c.3.5.8 1 1.1 1 .2 0 .4-.5.4-1 0-.6-.5-1-1.1-1-.5 0-.7.4-.4 1zm-2.5 1.9c0 .5.8 1.5 1.8 2.2 1.5 1.2 1.6 1.2.5-.2-.7-.9-1-1.9-.6-2.2.3-.4.1-.7-.5-.7-.7 0-1.2.4-1.2.9zm-25.1 14.8c-1.3 1.7-1.3 1.7.6.3 1.1-.8 2.2-1.6 2.4-1.7.2-.2 0-.3-.6-.3s-1.7.8-2.4 1.7zm7.1.7c0 .2.7.7 1.6 1 .8.3 1.2.2.9-.4-.6-1-2.5-1.4-2.5-.6zm-9.7 5.1c0 .8.4 1.2.9.9.5-.3.6-1 .3-1.5-.9-1.3-1.2-1.1-1.2.6zm-8.9 2.5c0 1.3.4 1.6 1 1 .7-.7.7-1.3 0-2-.6-.6-1-.3-1 1zm5.5-1c-.1.5-.2 1.5-.3 2 0 .6-.8 1.5-1.6 2-.9.6-1 1-.3 1 .6 0 1.5-.6 2-1.3.9-1.5 1.5-4.7.8-4.7-.3 0-.6.4-.6 1zm-291.5 23.7c.4.4 1.6.8 2.8 1 2.8.4 1.8-.6-1.2-1.2-1.2-.2-2-.1-1.6.2zm6.2.1c-.3.5.1.9.9.9s1.2-.4.9-.9c-.3-.4-.7-.8-.9-.8-.2 0-.6.4-.9.8zm-4.9 4.3c.4 1.3.8 1.8 1.1 1 .2-.7-.1-1.8-.6-2.3-.8-.8-.9-.4-.5 1.3zm-7.8.6c-1.3 1.7-1.3 1.7.6.3 1.1-.8 2.2-1.6 2.4-1.7.2-.2 0-.3-.6-.3s-1.7.8-2.4 1.7zm5.2 0c.7 1.2 1.5 2 1.8 1.7.3-.2-.3-1.2-1.3-2.2-1.7-1.6-1.8-1.6-.5.5zm-2.8 1.5c-1.6 2.6-1.2 3.8.8 2.8 2.4-1.3 2.5-2.2.2-1.3-1.6.6-1.6.5-.4-1 .7-.9 1.1-1.7.8-1.7-.3 0-.9.6-1.4 1.2zm337.1 4c-.4.7-.4 1 .1.6.4-.4 1.5-.2 2.4.5 1.4 1.1 1.4 1 .2-.6-1.6-2-1.8-2.1-2.7-.5zm-348.1 1.1c0 .7.9 1.4 2 1.4 1.1.1 1.8.1 1.6 0-.2-.2-1.1-.8-2-1.5-1.2-.9-1.6-.9-1.6.1zm-6.2 0c.2.1 1.3.9 2.4 1.7 1.9 1.4 1.9 1.4.6-.3-.7-.9-1.8-1.7-2.4-1.7-.6 0-.8.1-.6.3zm13.9.8c0 .5.5.7 1 .4.6-.3 1-.8 1-1.1 0-.2-.4-.4-1-.4-.5 0-1 .5-1 1.1zm-19.5 1.8c-.3.5-.2 1.2.3 1.5.5.3.9-.1.9-.9 0-1.7-.3-1.9-1.2-.6zm11.5 1.2c0 .5-.6.7-1.2.3-.7-.4-.9-.3-.5.1 1.3 1.5 3.6 1.4 3-.1-.6-1.7-1.3-1.8-1.3-.3zm-19.4 3.1c.3.5 1 .6 1.5.3 1.3-.9 1.1-1.2-.6-1.2-.8 0-1.2.4-.9.9zm9.1-.1c.7.7 1.5 1 1.8.7.3-.3-.2-.9-1.2-1.2-1.4-.6-1.5-.5-.6.5zm-5.2 1c-.4.6-.5 1.2-.2 1.5.2.3.7-.2 1-1.1.7-1.7.1-2-.8-.4zm8.1 1.6c-.6 1.4-.5 1.5.5.6.7-.7 1-1.5.7-1.8-.3-.3-.9.2-1.2 1.2zm-6.9.7c-.4 1-.1 1.3.8.9.8-.3 1.2-.9.9-1.4-.7-1.2-1.1-1.1-1.7.5zm-6.1 2.8c.3.5.9.7 1.2.4.3-.3 1.2 0 2.1.6 1.3 1 1.4 1 .4-.2-1.5-1.6-4.6-2.3-3.7-.8zm-1.6 2.9c0 .5.5.7 1 .4.6-.3 1-.8 1-1.1 0-.2-.4-.4-1-.4-.5 0-1 .5-1 1.1zM72.5 262c-.3.6.1.7.9.4 1.8-.7 2.1-1.4.7-1.4-.6 0-1.3.4-1.6 1zM54 263.4c0 .2.8 1 1.8 1.7 1.5 1.3 1.6 1.2.3-.4s-2.1-2.1-2.1-1.3zm21 .7c0 .5.5.7 1 .4.6-.3 1-.8 1-1.1 0-.2-.4-.4-1-.4-.5 0-1 .5-1 1.1zm-8.5 1.9c-.3.6.1.7.9.4 1.8-.7 2.1-1.4.7-1.4-.6 0-1.3.4-1.6 1zm426.9.2c-.4.7-.4 1 .1.6.4-.4 1.5-.2 2.4.5 1.4 1.1 1.4 1 .2-.6-1.6-2-1.8-2.1-2.7-.5zm-424.3.7c-.8.5-.9 1.1-.3 1.5.5.3 1.2-.1 1.6-.9.6-1.7.6-1.8-1.3-.6zm4 .7c0 1.1.3 1.4.6.6.3-.7.2-1.6-.1-1.9-.3-.4-.6.2-.5 1.3zm-19.8 2.1c.4.3.1 1.3-.6 2.2-1.1 1.4-1 1.4.5.2 1.6-1.2 1.6-3.1.1-3.1-.4 0-.3.3 0 .7zm6 .7c.1.6-.3 1-.9.9-.7-.1-2 .8-3 2-1.9 2.2-1.9 2.2.2.4 1.1-.9 2.3-1.5 2.6-1.2.3.3 1.2-.3 2.1-1.3 1.4-1.5 1.4-1.9.3-1.9-.8 0-1.4.5-1.3 1.1zM45 274c0 .5.5 1 1.1 1 .5 0 .7-.5.4-1-.3-.6-.8-1-1.1-1-.2 0-.4.4-.4 1zm12.7 1.9c-.4 1.7-.3 2.1.5 1.3.5-.5.8-1.6.6-2.3-.3-.8-.7-.3-1.1 1zm-9.8.6c-.1.3-.2.8-.3 1.2-.1.5-.5 1.5-1 2.3-.7 1.2-.6 1.3.4.3 1.3-1.2 2.3-4.3 1.4-4.3-.2 0-.5.2-.5.5zM44 278c-.9.6-1 1-.3 1 .6 0 1.5-.5 1.8-1 .8-1.2.4-1.2-1.5 0zm6.6-.1c-.4.5.3.7 1.4.4 2.3-.6 2.6-1.3.6-1.3-.8 0-1.7.4-2 .9zm463.4.1c-1.2.7-1 .9.7.7 1.2 0 1.9-.5 1.7-.9-.6-1-.6-1-2.4.2zm-463 2c-.9.6-1 1-.3 1 .6 0 1.5-.5 1.8-1 .8-1.2.4-1.2-1.5 0zm-18 3.9c0 .6.4 1.3 1 1.6.6.3.7-.1.4-.9-.7-1.8-1.4-2.1-1.4-.7zm-4 4c0 .6.4 1.3 1 1.6.6.3.7-.1.4-.9-.7-1.8-1.4-2.1-1.4-.7zm7.7.2c.7.7 1.5 1 1.8.7.3-.3-.2-.9-1.2-1.2-1.4-.6-1.5-.5-.6.5zm-17.4 7.4c0 .8.4 1.2.9.9.5-.3.6-1 .3-1.5-.9-1.3-1.2-1.1-1.2.6z"/></svg>