<svg xmlns="http://www.w3.org/2000/svg" version="1.1" xmlns:xlink="http://www.w3.org/1999/xlink" width="33" height="33"><svg width="33" height="33" viewBox="0 0 33 33" fill="none" xmlns="http://www.w3.org/2000/svg">
<path d="M16.3937 23.4758L9.31168 16.3937L16.3937 9.31168L23.4758 16.3937L16.3937 23.4758ZM18.6753 31.81C18.3702 32.1151 18.0169 32.3486 17.6155 32.5106C17.214 32.6722 16.8068 32.753 16.3937 32.753C15.9807 32.753 15.5734 32.6722 15.172 32.5106C14.7706 32.3486 14.4173 32.1151 14.1122 31.81L0.925576 18.6238C0.632111 18.33 0.404408 17.9825 0.242466 17.581C0.0808219 17.1796 0 16.7782 0 16.3767C0 15.975 0.0808219 15.5734 0.242466 15.172C0.404408 14.7706 0.632111 14.4232 0.925576 14.1297L14.0849 0.970312C14.4082 0.647024 14.766 0.40441 15.1582 0.242468C15.5506 0.080824 15.9625 0 16.3937 0C16.825 0 17.2369 0.080824 17.6293 0.242468C18.0215 0.40441 18.3793 0.647024 18.7025 0.970312L31.8619 14.1297C32.1554 14.4232 32.3831 14.7706 32.545 15.172C32.7067 15.5734 32.7875 15.975 32.7875 16.3767C32.7875 16.7782 32.7067 17.1796 32.545 17.581C32.3831 17.9825 32.1554 18.33 31.8619 18.6238L18.6753 31.81ZM16.6863 28.968L28.985 16.6689C29.0652 16.5886 29.1053 16.4913 29.1053 16.3767C29.1053 16.2619 29.0652 16.1644 28.985 16.0842L16.6863 3.78507C16.6061 3.70484 16.5086 3.66756 16.3937 3.67323C16.2789 3.67919 16.1814 3.72229 16.1012 3.80251L3.78506 16.1186C3.70484 16.1988 3.66756 16.2906 3.67323 16.3937C3.67919 16.4969 3.72229 16.5886 3.80251 16.6689L16.1012 28.968C16.1814 29.0482 16.2789 29.0883 16.3937 29.0883C16.5086 29.0883 16.6061 29.0482 16.6863 28.968Z" fill="#737373"></path>
</svg><style>@media (prefers-color-scheme: light) { :root { filter: none; } }
@media (prefers-color-scheme: dark) { :root { filter: none; } }
</style></svg>