<svg width="163" height="52" viewBox="0 0 163 52" fill="none" xmlns="http://www.w3.org/2000/svg">
<path fill-rule="evenodd" clip-rule="evenodd" d="M0 11.3198C0 5.5838 4.64996 0.933838 10.386 0.933838H32.6495L25.5055 10.2454H11.6196C10.3449 10.2454 9.31158 11.2787 9.31158 12.5534V17.249C9.31158 18.5237 10.3449 19.557 11.6196 19.557H39.2758C45.0118 19.557 49.6617 24.2069 49.6617 29.943V37.1057C49.6617 42.8418 45.0118 47.4917 39.2758 47.4917H26.3828L33.5217 38.1801H38.0422C39.3168 38.1801 40.3502 37.1468 40.3502 35.8721V31.1766C40.3502 29.9019 39.3168 28.8686 38.0422 28.8686H10.386C4.64997 28.8686 0 24.2186 0 18.4826V11.3198ZM12.4154 31.3516H24.1984L18.9335 38.1801H30.4178L23.2789 47.4917H0L12.4154 31.3516ZM47.4887 0.933838H35.694L23.2786 17.0739H35.0732L47.4887 0.933838Z" fill="white"/>
<path d="M163.002 46.692C159.832 47.031 157.035 47.2005 154.611 47.2005C153.459 47.2005 152.535 46.853 151.84 46.158C151.145 45.4631 150.797 44.5393 150.797 43.3866V37.5388C150.797 36.2675 151.153 35.2759 151.865 34.564C152.594 33.8351 153.594 33.4707 154.865 33.4707H163.002V36.9031H156.264C155.586 36.9031 155.247 37.2422 155.247 37.9202V42.8781C155.247 43.1324 155.332 43.3443 155.501 43.5138C155.671 43.6833 155.883 43.768 156.137 43.768C157.662 43.768 159.951 43.6409 163.002 43.3866V46.692Z" fill="white"/>
<path d="M148.502 33.9782V46.9452H144.052V37.4106H142.145V33.9782H148.502ZM144.052 28.8931H148.502V32.4526H144.052V28.8931Z" fill="white"/>
<path d="M141.61 46.9455C139.966 47.115 138.356 47.1998 136.78 47.1998C135.627 47.1998 134.703 46.8523 134.008 46.1573C133.313 45.4624 132.966 44.5386 132.966 43.386V36.9025H131.44V33.47H132.966L133.474 30.4189H137.415V33.47H140.593V36.9025H137.415V42.7503C137.415 43.0046 137.5 43.2164 137.669 43.386C137.839 43.5555 138.051 43.6402 138.305 43.6402H141.61V46.9455Z" fill="white"/>
<path d="M116.948 43.3866C120.389 43.6409 123.101 43.768 125.084 43.768C125.339 43.768 125.55 43.6833 125.72 43.5138C125.889 43.3443 125.974 43.1324 125.974 42.8781V41.9882H120.508C119.355 41.9882 118.431 41.6408 117.736 40.9458C117.041 40.2508 116.694 39.327 116.694 38.1744V37.2845C116.694 36.1319 117.041 35.2081 117.736 34.5131C118.431 33.8182 119.355 33.4707 120.508 33.4707H129.152V36.776H122.033C121.779 36.776 121.567 36.8608 121.398 37.0303C121.228 37.1998 121.143 37.4117 121.143 37.6659C121.143 37.9202 121.228 38.132 121.398 38.3015C121.567 38.4711 121.779 38.5558 122.033 38.5558H126.61C127.762 38.5558 128.686 38.9033 129.381 39.5982C130.076 40.2932 130.424 41.217 130.424 42.3696V43.3866C130.424 44.5393 130.076 45.4631 129.381 46.158C128.686 46.853 127.762 47.2005 126.61 47.2005C123.61 47.2005 120.389 47.031 116.948 46.692V43.3866Z" fill="white"/>
<path d="M114.903 33.9782V46.9452H110.454V37.4106H108.547V33.9782H114.903ZM110.454 28.8931H114.903V32.4526H110.454V28.8931Z" fill="white"/>
<path d="M102.318 45.9292C100.674 46.2682 99.2329 46.4377 97.9955 46.4377H97.1056C95.953 46.4377 95.0292 46.0902 94.3342 45.3953C93.6393 44.7003 93.2918 43.7765 93.2918 42.6239V37.5388C93.2918 36.2675 93.6477 35.2759 94.3597 34.564C95.0885 33.8351 96.0886 33.4707 97.3599 33.4707H106.767V47.709C106.767 48.8616 106.42 49.7854 105.725 50.4804C105.03 51.1753 104.106 51.5228 102.953 51.5228C100.292 51.5228 97.326 51.3533 94.0546 51.0143V47.709C97.2921 47.9632 99.7499 48.0904 101.428 48.0904C101.682 48.0904 101.894 48.0056 102.064 47.8361C102.233 47.6666 102.318 47.4547 102.318 47.2005V45.9292ZM99.2668 43.0053C100.335 43.0053 101.352 42.9205 102.318 42.751V36.9031H98.7583C98.0803 36.9031 97.7413 37.2422 97.7413 37.9202V42.1154C97.7413 42.3696 97.826 42.5815 97.9955 42.751C98.165 42.9205 98.3769 43.0053 98.6311 43.0053H99.2668Z" fill="white"/>
<path d="M91.2644 43.1315C91.2644 44.4028 90.9 45.4029 90.1711 46.1317C89.4592 46.8436 88.4676 47.1996 87.1964 47.1996H81.3485C80.0772 47.1996 79.0772 46.8436 78.3483 46.1317C77.6364 45.4029 77.2804 44.4028 77.2804 43.1315V37.2837C77.2804 36.0124 77.6364 35.0208 78.3483 34.3089C79.0772 33.58 80.0772 33.2156 81.3485 33.2156H87.1964C88.4676 33.2156 89.4592 33.58 90.1711 34.3089C90.9 35.0208 91.2644 36.0124 91.2644 37.2837V43.1315ZM86.815 37.665C86.815 36.987 86.476 36.648 85.798 36.648H82.7469C82.0689 36.648 81.7299 36.987 81.7299 37.665V42.7501C81.7299 43.4282 82.0689 43.7672 82.7469 43.7672H85.798C86.476 43.7672 86.815 43.4282 86.815 42.7501V37.665Z" fill="white"/>
<path d="M66.7204 43.3884H76.0008V46.948H62.1439V29.1501H66.7204V43.3884Z" fill="white"/>
<path d="M129.251 8.65817C128.573 8.65817 128.234 8.99717 128.234 9.67519V11.0736H132.557V9.67519C132.557 8.99717 132.218 8.65817 131.54 8.65817H129.251ZM136.498 18.9555C133.226 19.2945 130.26 19.464 127.599 19.464C126.446 19.464 125.522 19.1165 124.827 18.4216C124.132 17.7266 123.785 16.8028 123.785 15.6502V9.54806C123.785 8.27679 124.141 7.28519 124.853 6.57328C125.582 5.84441 126.582 5.47998 127.853 5.47998H132.938C134.209 5.47998 135.201 5.84441 135.913 6.57328C136.642 7.28519 137.006 8.27679 137.006 9.54806V14.2518H128.234V15.2688C128.234 15.5231 128.319 15.7349 128.489 15.9044C128.658 16.0739 128.87 16.1587 129.124 16.1587C130.802 16.1587 133.26 16.0316 136.498 15.7773V18.9555Z" fill="white"/>
<path d="M122.009 18.9547C118.839 19.2937 116.042 19.4632 113.618 19.4632C112.466 19.4632 111.542 19.1157 110.847 18.4207C110.152 17.7258 109.804 16.802 109.804 15.6493V9.80148C109.804 8.5302 110.16 7.53861 110.872 6.82669C111.601 6.09783 112.601 5.7334 113.872 5.7334H122.009V9.16584H115.271C114.593 9.16584 114.254 9.50485 114.254 10.1829V15.1408C114.254 15.3951 114.339 15.607 114.508 15.7765C114.678 15.946 114.889 16.0307 115.144 16.0307C116.669 16.0307 118.958 15.9036 122.009 15.6493V18.9547Z" fill="white"/>
<path d="M100.278 15.9044C101.177 15.9044 102.194 15.7349 103.33 15.3959V13.8704H99.6429C99.3886 13.8704 99.1767 13.9551 99.0072 14.1247C98.8377 14.2942 98.753 14.506 98.753 14.7603V15.0145C98.753 15.2688 98.8377 15.4807 99.0072 15.6502C99.1767 15.8197 99.3886 15.9044 99.6429 15.9044H100.278ZM95.5748 5.98849C98.6767 5.64948 101.473 5.47998 103.965 5.47998C105.118 5.47998 106.042 5.82746 106.737 6.52243C107.432 7.21739 107.779 8.14118 107.779 9.29381V19.2098H103.838L103.584 17.9385C102.787 18.4639 101.965 18.8538 101.118 19.1081C100.287 19.3454 99.5835 19.464 99.0072 19.464H98.1173C96.9647 19.464 96.0409 19.1165 95.3459 18.4216C94.651 17.7266 94.3035 16.8028 94.3035 15.6502V14.506C94.3035 13.3534 94.651 12.4296 95.3459 11.7347C96.0409 11.0397 96.9647 10.6922 98.1173 10.6922H103.33V9.67519C103.33 9.42093 103.245 9.20905 103.075 9.03955C102.906 8.87005 102.694 8.7853 102.44 8.7853C101.338 8.7853 100.117 8.83615 98.7784 8.93785C97.4563 9.03955 96.3884 9.11583 95.5748 9.16668V5.98849Z" fill="white"/>
<path d="M86.4196 9.16668C85.5213 9.16668 84.5042 9.33618 83.3686 9.67519V15.7773H87.1824C87.8604 15.7773 88.1994 15.4383 88.1994 14.7603V10.0566C88.1994 9.80232 88.1147 9.59044 87.9452 9.42093C87.7757 9.25143 87.5638 9.16668 87.3095 9.16668H86.4196ZM83.3686 19.2098V23.5321H78.9191V5.73424H82.8601L83.1143 7.00551C83.911 6.48005 84.7246 6.09867 85.5552 5.86136C86.4027 5.60711 87.1146 5.47998 87.6909 5.47998H88.8351C89.9877 5.47998 90.9115 5.82746 91.6064 6.52243C92.3014 7.21739 92.6489 8.14118 92.6489 9.29381V15.1417C92.6489 16.4129 92.2844 17.413 91.5556 18.1419C90.8437 18.8538 89.8521 19.2098 88.5808 19.2098H83.3686Z" fill="white"/>
<path d="M61.6089 15.522C66.2533 15.7763 69.3976 15.9034 71.0418 15.9034C71.4316 15.9034 71.7367 15.7932 71.9571 15.5729C72.1944 15.3356 72.313 15.022 72.313 14.6321V12.3439H66.4652C64.6854 12.3439 63.3887 11.9455 62.5751 11.1489C61.7784 10.3352 61.3801 9.03854 61.3801 7.25875V6.49599C61.3801 4.7162 61.7784 3.42798 62.5751 2.63131C63.3887 1.8177 64.6854 1.41089 66.4652 1.41089H75.3895V4.97046H67.4822C66.4652 4.97046 65.9567 5.47897 65.9567 6.49599V7.0045C65.9567 8.02152 66.4652 8.53003 67.4822 8.53003H72.0588C73.7199 8.53003 74.9403 8.91989 75.72 9.6996C76.4998 10.4793 76.8896 11.6997 76.8896 13.3609V14.6321C76.8896 16.2933 76.4998 17.5137 75.72 18.2934C74.9403 19.0731 73.7199 19.463 72.0588 19.463C71.1943 19.463 70.279 19.446 69.3128 19.4121L66.9737 19.3104C65.2447 19.2257 63.4565 19.107 61.6089 18.9545V15.522Z" fill="white"/>
</svg>
