<svg width="159" height="28" viewBox="0 0 159 28" fill="none" xmlns="http://www.w3.org/2000/svg">
<path d="M0.731129 27.9947C0.731129 27.9947 -0.137442 28.0706 0.0219791 27.1548C0.186898 26.1793 4.88708 2.85594 4.95854 1.59331C5.03001 0.330682 4.47478 -0.026973 6.12397 0.0109601L11.8796 0.0326361C11.8796 0.0326361 12.5723 -0.184124 12.5998 1.57705C12.6163 2.61208 12.9351 10.112 12.9351 10.112C12.9351 10.112 12.9901 11.8461 13.9191 9.52673C13.9191 9.52673 16.9591 2.43867 17.19 1.88594C17.4539 1.25191 17.9266 0.0272171 18.7073 0.00012207L25.5679 0.0109601C25.5679 0.0109601 25.9967 -0.059487 25.8922 0.417385C25.8427 0.639565 25.5624 1.00264 25.4249 1.54996L23.6273 10.4371C23.6273 10.4371 21.6373 20.0017 21.7747 20.3918C21.9177 20.7766 21.6318 20.847 21.17 20.847H15.9421C15.9421 20.847 15.4803 20.7061 15.8377 19.6928C15.8377 19.6928 18.6963 5.46248 18.7402 5.1265C18.6468 4.74717 17.8277 6.69259 17.8277 6.69259L12.3249 19.2051C12.3249 19.2051 11.7477 20.8199 10.9946 20.8199H8.24042C8.24042 20.8199 7.75666 20.8362 7.6687 19.5952C7.58075 18.3326 7.0695 5.54918 7.05301 5.43538C7.03102 5.28365 6.8606 4.28656 6.34386 6.94187L3.23789 22.6841C3.23789 22.6841 2.97402 23.524 3.8206 23.5186H67.3692C67.3692 23.5186 68.2103 23.3723 67.886 24.7108L67.3527 27.3065C67.3527 27.3065 67.2758 28.0272 66.7095 27.9947L0.731129 28.0055V27.9947Z" fill="#ED1C2E"/>
<path d="M54.0328 20.8361C54.0328 20.8361 53.3236 20.8361 53.6425 19.9257C53.9613 19.0099 56.1987 6.60578 56.1987 6.60578C56.1987 6.60578 56.2867 5.59784 56.8034 5.58701H61.3881C61.3881 5.58701 61.8884 5.51114 61.674 6.63829C61.4431 7.86299 60.2117 13.6234 60.2117 13.6234L59.3541 18.4951C59.3541 18.4951 59.3102 19.4651 59.2992 20.007C59.2937 20.3592 59.2992 20.8361 58.9693 20.8361H54.0328Z" fill="#ED1C2E"/>
<path d="M62.3885 11.0385C62.3885 11.0385 62.4544 10.5779 62.8502 10.5833H70.1121C70.1121 10.5833 70.5354 10.5833 70.398 11.1794C70.2551 11.7755 69.6174 15.2003 69.6174 15.2003C69.6174 15.2003 69.5844 15.7639 69.1886 15.7639H62.0476C62.0476 15.7639 61.4429 15.8506 61.6903 14.7126L62.3885 11.0385Z" fill="#ED1C2E"/>
<path d="M69.8099 27.9946C69.8099 27.9946 68.8479 28.2059 69.2382 26.2768C69.6285 24.3476 73.4326 5.07218 73.4326 5.07218L73.7515 3.18095L73.768 0.536476C73.768 0.536476 73.6635 0.00541349 74.4441 0.00541349H82.2668C82.2668 0.00541349 82.6626 -0.0108435 82.2338 1.15966L81.7115 2.82871C81.7115 2.82871 81.4862 3.92335 81.3762 4.43274C81.2773 4.87168 77.836 22.0662 77.836 22.0662C77.836 22.0662 77.4457 23.5131 78.1823 23.5076C78.1823 23.5076 84.3118 23.4805 85.0704 23.4805C86.3952 23.4805 86.8515 23.4047 87.83 23.3451C88.5392 23.3017 88.2478 23.9466 88.1324 24.7052C88.1104 24.8624 87.5497 27.6749 87.5497 27.6749C87.5497 27.6749 87.4947 27.9892 86.945 27.9892H69.8044L69.8099 27.9946Z" fill="#ED1C2E"/>
<path d="M80.6286 20.8307C80.6286 20.8307 79.826 20.9282 80.1998 19.568L82.7066 7.2127L82.7341 5.98259C82.7341 5.98259 82.6846 5.56533 83.2783 5.59784H87.8246C87.8246 5.59784 88.4293 5.45695 88.1819 6.54617C87.9345 7.63539 85.6916 18.7443 85.6916 18.7443L85.6037 20.408C85.6037 20.408 85.6312 20.8307 85.1914 20.8307H80.6231H80.6286Z" fill="#ED1C2E"/>
<path d="M89.2536 8.37779H90.5399C91.0622 8.37237 90.9852 8.71919 90.9852 8.71919C90.9852 8.71919 89.1491 18.5601 88.7918 19.7523C88.44 20.9445 89.0667 20.8198 89.0667 20.8198H92.7663C94.0857 20.8198 94.0362 19.9257 94.0362 19.9257L96.2021 9.16896C96.3725 8.22606 97.0212 8.36153 97.0212 8.36153H101.001C101.672 8.33444 101.573 8.71377 101.573 8.71377L100.43 14.9944C99.1762 21.3888 102.65 20.8252 102.65 20.8252H109.176C110.022 20.8252 110.16 19.2917 110.27 18.533C110.297 18.3379 110.391 18.2187 109.692 18.2187C109.445 18.2187 109.132 18.2187 109.132 18.2187H106.751C105.163 18.2187 105.526 16.9398 105.526 16.9398C105.526 16.9398 106.933 9.8626 107.076 9.19606C107.219 8.5241 107.301 8.36153 107.697 8.36153H111.32C111.715 8.36153 111.792 7.77628 112.034 6.51907C112.249 5.40817 111.699 5.59242 111.699 5.59242H108.159C107.834 5.59242 107.884 5.32147 107.884 5.32147L108.28 3.18096C108.511 2.16219 107.977 2.26515 107.977 2.26515L104.019 2.54694C102.722 2.59029 102.595 3.7337 102.595 3.7337C102.326 5.13722 102.216 5.58158 102.216 5.58158H96.9333C97.0487 5.00717 97.1257 4.48694 97.2246 4.10219C97.5325 2.93711 98.478 3.02923 98.478 3.02923H101.43C101.842 3.02923 101.914 2.26515 102.178 0.753249C102.315 -0.0325072 101.925 6.84278e-06 101.925 6.84278e-06H95.4875C92.409 6.84278e-06 91.8703 4.57907 91.8703 4.57907C91.8208 4.85002 91.6889 5.59784 91.6889 5.59784L89.8418 5.58158C89.457 5.58158 89.3855 5.9013 89.3855 5.9013C89.2371 6.62203 89.0392 7.52159 88.9292 8.0093C88.9292 8.0093 88.8028 8.36695 89.27 8.36695L89.2536 8.37779Z" fill="#ED1C2E"/>
<path d="M119.423 1.45772C119.423 1.45772 119.28 -0.0162477 119.923 0.0216854H124.651C124.651 0.0216854 125.118 0.162579 124.794 1.10549L121.105 19.4759C121.105 19.4759 121.072 19.7198 121.061 19.9961C121.045 20.3863 121.017 20.8415 120.715 20.8415H115.773C115.773 20.8415 115.355 20.8307 115.624 19.9636C115.668 19.8227 115.855 19.3946 115.927 18.9394L119.428 1.4523L119.423 1.45772Z" fill="#ED1C2E"/>
<path d="M125.354 7.6733L125.294 6.00424C125.294 6.00424 125.217 5.57072 126.052 5.58156C127.212 5.5924 130.329 5.60865 130.329 5.60865C130.329 5.60865 130.863 5.5653 130.863 6.25352L131.06 6.26435C131.06 6.26435 131.456 5.60865 132.127 5.60865H136.338C136.338 5.60865 137.058 5.60865 137.547 5.82C137.877 5.96631 139.708 6.61117 139.323 9.92218L137.685 18.6576L137.624 19.4217L137.646 20.2346C137.646 20.2346 137.668 20.8415 137.135 20.8415H132.275C132.275 20.8415 131.467 20.8306 132.017 19.7956C132.077 19.6872 132.264 19.335 132.369 18.8364L134.046 10.372C134.046 10.372 134.606 8.37777 133.298 8.37777H131.451C131.451 8.37777 130.489 8.329 130.098 10.3069C129.708 12.3065 128.383 18.5763 128.383 18.5763L128.24 20.5055C128.24 20.5055 128.207 20.8903 127.74 20.8577H122.798C122.798 20.8577 122.32 20.8577 122.661 20.0178C122.705 19.904 122.727 19.8119 122.798 19.5951C122.798 19.5951 125.25 8.07972 125.349 7.68955L125.354 7.6733Z" fill="#ED1C2E"/>
<path d="M140.879 9.81382C140.879 9.81382 141.164 5.99342 143.935 5.57074H152.791C152.791 5.57074 153.649 5.48946 153.429 6.83337L153.275 7.97136C153.275 7.97136 153.236 8.53494 152.978 8.53494C152.978 8.53494 152.659 8.57829 152.494 8.35611H147.448C147.448 8.35611 146.414 8.30192 146.095 10.2473L144.842 16.6363C144.842 16.6363 144.523 18.1428 146.051 18.2133H150.895C150.895 18.2133 151.285 18.1808 151.131 18.8094L150.79 20.5109C150.79 20.5109 150.724 20.8361 150.301 20.8361H141.835C141.835 20.8361 138.735 20.7494 139.614 16.1812L140.879 9.8084V9.81382Z" fill="#ED1C2E"/>
<path d="M152.995 16.2191C152.995 16.2191 153.033 15.5905 153.709 15.5526H158.327C158.327 15.5526 158.684 15.6555 158.508 16.3925C158.327 17.1295 157.7 20.4568 157.7 20.4568C157.7 20.4568 157.59 20.8252 157.222 20.8252L152.571 20.8415C152.571 20.8415 152.093 20.8415 152.285 19.9311C152.434 19.2483 152.995 16.2137 152.995 16.2137V16.2191Z" fill="#ED1C2E"/>
<path d="M89.6714 27.9892C89.6714 27.9892 89.1987 28.0108 89.3966 26.9379C89.49 26.4447 89.7374 24.9708 89.9573 24.2067C90.1662 23.4643 90.3861 23.5022 90.7214 23.5022L156.546 23.5185C156.546 23.5185 157.233 23.5293 156.947 24.7594L156.342 27.5285C156.342 27.5285 156.244 27.9783 155.787 27.9837H89.6714V27.9892Z" fill="#ED1C2E"/>
<path d="M49.1894 11.8188L54.8626 6.19934C55.3629 5.71163 54.9286 5.60866 54.9286 5.60866L52.5373 5.59241C51.8776 5.58157 51.7182 5.86878 51.7182 5.86878L48.4363 9.14727C48.1119 9.53202 47.8975 8.99012 47.8975 8.99012L46.8091 6.14515C46.6332 5.51654 46.1659 5.59241 46.1659 5.59241H40.949C40.2618 5.59241 40.894 6.65995 40.894 6.65995C41.0039 6.958 43.1754 12.7292 43.1754 12.7292C43.7471 13.813 43.1424 14.3766 43.1424 14.3766L39.5472 17.9423C37.92 19.6601 38.3378 17.5901 38.3378 17.5901L39.7506 10.4912C40.6961 5.60866 37.1833 5.59241 37.1833 5.59241H27.2387C26.5296 5.59241 26.3867 6.22643 26.3867 6.22643L26.0458 8.04722C25.9414 8.7842 26.9034 8.37778 27.2332 8.37778C27.4476 8.37778 27.8874 8.36694 27.8874 8.36694C27.8874 8.36694 31.8675 8.37778 34.2973 8.3561C34.6821 8.3561 34.9514 8.53493 34.9075 8.83297C34.836 9.29359 34.803 9.77046 34.6271 10.2202C34.5281 10.4804 34.2753 10.605 34.0389 10.605C33.5936 10.605 27.1233 10.5941 27.1233 10.5941C26.3317 10.5941 25.0343 10.9735 24.2207 15.3846C23.1982 20.9336 26.5736 20.8415 26.5736 20.8415H30.9439C31.9059 20.9336 32.1808 20.0449 32.5381 19.801C32.89 19.5518 32.9614 19.6927 32.9999 20.2887C33.0329 20.8848 33.5826 20.8307 33.5826 20.8307H39.4152C40.1024 20.8307 40.4432 20.4242 40.4432 20.4242L43.6646 17.2758C44.7366 16.1432 44.8246 17.0915 44.8246 17.0915L45.8965 19.9365C46.2154 20.874 46.7431 20.8361 46.7431 20.8361H51.5697C52.5043 20.8361 51.9161 19.7848 51.9161 19.7848L49.2389 12.5775C48.964 11.9164 49.1784 11.8297 49.1784 11.8297L49.1894 11.8188ZM33.742 14.6855C33.5166 15.7747 33.2253 17.2379 33.2253 17.2379C33.2253 17.2379 33.0769 17.9748 32.1368 17.9369H30.4327C30.4327 17.9369 29.2617 18.0128 29.6136 16.1486C30.0204 14.019 30.1523 13.3687 30.9329 13.3307C31.7685 13.2874 33.3682 13.3307 33.3682 13.3307C33.3682 13.3307 34.0279 13.2657 33.7365 14.6747L33.742 14.6855Z" fill="#ED1C2E"/>
<path d="M84.0201 0.704476C84.0201 0.704476 84.1081 0.0108438 84.7018 0.0162628H88.9402C88.9402 0.0162628 89.5009 -0.0433463 89.3415 0.74241L88.7533 3.60906C88.7533 3.60906 88.6928 4.02633 88.2091 4.03175H83.8497C83.8497 4.03175 83.355 4.02091 83.5474 3.19722L84.0201 0.709895V0.704476Z" fill="#ED1C2E"/>
<path d="M57.441 0.704476C57.441 0.704476 57.529 0.0108438 58.1227 0.0162628H62.3611C62.3611 0.0162628 62.9218 -0.0433463 62.7624 0.74241L62.1742 3.60906C62.1742 3.60906 62.1137 4.02633 61.63 4.03175H57.2706C57.2706 4.03175 56.7759 4.02091 56.9683 3.19722L57.441 0.709895V0.704476Z" fill="#ED1C2E"/>
</svg>
