<svg width="159" height="28" viewBox="0 0 159 28" fill="none" xmlns="http://www.w3.org/2000/svg">
<path d="M0.731312 27.9947C0.731312 27.9947 -0.137259 28.0706 0.0221622 27.1548C0.187081 26.1793 4.88726 2.85594 4.95872 1.59331C5.03019 0.330682 4.47496 -0.026973 6.12415 0.0109601L11.8798 0.0326361C11.8798 0.0326361 12.5725 -0.184124 12.6 1.57705C12.6164 2.61208 12.9353 10.112 12.9353 10.112C12.9353 10.112 12.9903 11.8461 13.9193 9.52673C13.9193 9.52673 16.9593 2.43867 17.1902 1.88594C17.4541 1.25191 17.9268 0.0272171 18.7074 0.00012207L25.568 0.0109601C25.568 0.0109601 25.9968 -0.059487 25.8924 0.417385C25.8429 0.639565 25.5625 1.00264 25.4251 1.54996L23.6275 10.4371C23.6275 10.4371 21.6375 20.0017 21.7749 20.3918C21.9178 20.7766 21.632 20.847 21.1702 20.847H15.9423C15.9423 20.847 15.4805 20.7061 15.8379 19.6928C15.8379 19.6928 18.6964 5.46248 18.7404 5.1265C18.647 4.74717 17.8279 6.69259 17.8279 6.69259L12.3251 19.2051C12.3251 19.2051 11.7479 20.8199 10.9947 20.8199H8.2406C8.2406 20.8199 7.75684 20.8362 7.66889 19.5952C7.58093 18.3326 7.06968 5.54918 7.05319 5.43538C7.0312 5.28365 6.86079 4.28656 6.34404 6.94187L3.23807 22.6841C3.23807 22.6841 2.9742 23.524 3.82079 23.5186H67.3694C67.3694 23.5186 68.2105 23.3723 67.8861 24.7108L67.3529 27.3065C67.3529 27.3065 67.2759 28.0272 66.7097 27.9947L0.731312 28.0055V27.9947Z" fill="white"/>
<path d="M54.0328 20.8361C54.0328 20.8361 53.3236 20.8361 53.6425 19.9257C53.9613 19.0099 56.1987 6.60578 56.1987 6.60578C56.1987 6.60578 56.2867 5.59784 56.8034 5.58701H61.3881C61.3881 5.58701 61.8884 5.51114 61.674 6.63829C61.4431 7.86299 60.2117 13.6234 60.2117 13.6234L59.3541 18.4951C59.3541 18.4951 59.3102 19.4651 59.2992 20.007C59.2937 20.3592 59.2992 20.8361 58.9693 20.8361H54.0328Z" fill="white"/>
<path d="M62.3886 11.0385C62.3886 11.0385 62.4546 10.5779 62.8504 10.5833H70.1123C70.1123 10.5833 70.5356 10.5833 70.3982 11.1794C70.2553 11.7755 69.6176 15.2003 69.6176 15.2003C69.6176 15.2003 69.5846 15.7639 69.1888 15.7639H62.0478C62.0478 15.7639 61.4431 15.8506 61.6905 14.7126L62.3886 11.0385Z" fill="white"/>
<path d="M69.81 27.9946C69.81 27.9946 68.848 28.2059 69.2383 26.2768C69.6286 24.3476 73.4327 5.07218 73.4327 5.07218L73.7515 3.18095L73.768 0.536476C73.768 0.536476 73.6636 0.00541349 74.4442 0.00541349H82.2668C82.2668 0.00541349 82.6626 -0.0108435 82.2338 1.15966L81.7116 2.82871C81.7116 2.82871 81.4862 3.92335 81.3763 4.43274C81.2773 4.87168 77.836 22.0662 77.836 22.0662C77.836 22.0662 77.4457 23.5131 78.1824 23.5076C78.1824 23.5076 84.3118 23.4805 85.0704 23.4805C86.3953 23.4805 86.8516 23.4047 87.8301 23.3451C88.5392 23.3017 88.2479 23.9466 88.1324 24.7052C88.1104 24.8624 87.5497 27.6749 87.5497 27.6749C87.5497 27.6749 87.4948 27.9892 86.945 27.9892H69.8045L69.81 27.9946Z" fill="white"/>
<path d="M80.6286 20.8307C80.6286 20.8307 79.826 20.9282 80.1998 19.568L82.7066 7.2127L82.7341 5.98259C82.7341 5.98259 82.6846 5.56533 83.2783 5.59784H87.8246C87.8246 5.59784 88.4293 5.45695 88.1819 6.54617C87.9345 7.63539 85.6916 18.7443 85.6916 18.7443L85.6037 20.408C85.6037 20.408 85.6312 20.8307 85.1914 20.8307H80.6231H80.6286Z" fill="white"/>
<path d="M89.2539 8.37779H90.5403C91.0625 8.37237 90.9856 8.71919 90.9856 8.71919C90.9856 8.71919 89.1495 18.5601 88.7922 19.7523C88.4403 20.9445 89.067 20.8198 89.067 20.8198H92.7667C94.086 20.8198 94.0366 19.9257 94.0366 19.9257L96.2025 9.16896C96.3729 8.22606 97.0216 8.36153 97.0216 8.36153H101.002C101.672 8.33444 101.573 8.71377 101.573 8.71377L100.43 14.9944C99.1765 21.3888 102.651 20.8252 102.651 20.8252H109.176C110.023 20.8252 110.16 19.2917 110.27 18.533C110.298 18.3379 110.391 18.2187 109.693 18.2187C109.445 18.2187 109.132 18.2187 109.132 18.2187H106.752C105.163 18.2187 105.526 16.9398 105.526 16.9398C105.526 16.9398 106.933 9.8626 107.076 9.19606C107.219 8.5241 107.302 8.36153 107.697 8.36153H111.32C111.716 8.36153 111.793 7.77628 112.035 6.51907C112.249 5.40817 111.699 5.59242 111.699 5.59242H108.159C107.835 5.59242 107.884 5.32147 107.884 5.32147L108.28 3.18096C108.511 2.16219 107.978 2.26515 107.978 2.26515L104.02 2.54694C102.722 2.59029 102.596 3.7337 102.596 3.7337C102.326 5.13722 102.217 5.58158 102.217 5.58158H96.9336C97.0491 5.00717 97.126 4.48694 97.225 4.10219C97.5328 2.93711 98.4784 3.02923 98.4784 3.02923H101.43C101.843 3.02923 101.914 2.26515 102.178 0.753249C102.315 -0.0325072 101.925 6.84278e-06 101.925 6.84278e-06H95.4878C92.4094 6.84278e-06 91.8706 4.57907 91.8706 4.57907C91.8212 4.85002 91.6892 5.59784 91.6892 5.59784L89.8421 5.58158C89.4573 5.58158 89.3859 5.9013 89.3859 5.9013C89.2374 6.62203 89.0395 7.52159 88.9296 8.0093C88.9296 8.0093 88.8031 8.36695 89.2704 8.36695L89.2539 8.37779Z" fill="white"/>
<path d="M119.423 1.45772C119.423 1.45772 119.28 -0.0162477 119.923 0.0216854H124.651C124.651 0.0216854 125.118 0.162579 124.794 1.10549L121.105 19.4759C121.105 19.4759 121.072 19.7198 121.061 19.9961C121.045 20.3863 121.017 20.8415 120.715 20.8415H115.773C115.773 20.8415 115.355 20.8307 115.624 19.9636C115.668 19.8227 115.855 19.3946 115.927 18.9394L119.428 1.4523L119.423 1.45772Z" fill="white"/>
<path d="M125.355 7.6733L125.294 6.00424C125.294 6.00424 125.217 5.57072 126.053 5.58156C127.213 5.5924 130.33 5.60865 130.33 5.60865C130.33 5.60865 130.863 5.5653 130.863 6.25352L131.061 6.26435C131.061 6.26435 131.457 5.60865 132.127 5.60865H136.338C136.338 5.60865 137.058 5.60865 137.548 5.82C137.877 5.96631 139.708 6.61117 139.323 9.92218L137.685 18.6576L137.624 19.4217L137.646 20.2346C137.646 20.2346 137.668 20.8415 137.135 20.8415H132.276C132.276 20.8415 131.468 20.8306 132.017 19.7956C132.078 19.6872 132.265 19.335 132.369 18.8364L134.046 10.372C134.046 10.372 134.606 8.37777 133.298 8.37777H131.451C131.451 8.37777 130.489 8.329 130.099 10.3069C129.708 12.3065 128.384 18.5763 128.384 18.5763L128.241 20.5055C128.241 20.5055 128.208 20.8903 127.74 20.8577H122.798C122.798 20.8577 122.32 20.8577 122.661 20.0178C122.705 19.904 122.727 19.8119 122.798 19.5951C122.798 19.5951 125.25 8.07972 125.349 7.68955L125.355 7.6733Z" fill="white"/>
<path d="M140.879 9.81382C140.879 9.81382 141.165 5.99342 143.935 5.57074H152.791C152.791 5.57074 153.649 5.48946 153.429 6.83337L153.275 7.97136C153.275 7.97136 153.237 8.53494 152.978 8.53494C152.978 8.53494 152.66 8.57829 152.495 8.35611H147.448C147.448 8.35611 146.415 8.30192 146.096 10.2473L144.842 16.6363C144.842 16.6363 144.524 18.1428 146.052 18.2133H150.895C150.895 18.2133 151.285 18.1808 151.131 18.8094L150.79 20.5109C150.79 20.5109 150.725 20.8361 150.301 20.8361H141.835C141.835 20.8361 138.735 20.7494 139.615 16.1812L140.879 9.8084V9.81382Z" fill="white"/>
<path d="M152.995 16.2191C152.995 16.2191 153.033 15.5905 153.71 15.5526H158.327C158.327 15.5526 158.685 15.6555 158.509 16.3925C158.327 17.1295 157.701 20.4568 157.701 20.4568C157.701 20.4568 157.591 20.8252 157.222 20.8252L152.572 20.8415C152.572 20.8415 152.093 20.8415 152.286 19.9311C152.434 19.2483 152.995 16.2137 152.995 16.2137V16.2191Z" fill="white"/>
<path d="M89.6717 27.9892C89.6717 27.9892 89.1989 28.0108 89.3968 26.9379C89.4903 26.4447 89.7376 24.9708 89.9575 24.2067C90.1664 23.4643 90.3863 23.5022 90.7217 23.5022L156.546 23.5185C156.546 23.5185 157.233 23.5293 156.947 24.7594L156.343 27.5285C156.343 27.5285 156.244 27.9783 155.788 27.9837H89.6717V27.9892Z" fill="white"/>
<path d="M49.1897 11.8188L54.8629 6.19934C55.3632 5.71163 54.9289 5.60866 54.9289 5.60866L52.5376 5.59241C51.8779 5.58157 51.7185 5.86878 51.7185 5.86878L48.4366 9.14727C48.1122 9.53202 47.8978 8.99012 47.8978 8.99012L46.8094 6.14515C46.6335 5.51654 46.1662 5.59241 46.1662 5.59241H40.9493C40.2621 5.59241 40.8943 6.65995 40.8943 6.65995C41.0043 6.958 43.1757 12.7292 43.1757 12.7292C43.7474 13.813 43.1427 14.3766 43.1427 14.3766L39.5475 17.9423C37.9203 19.6601 38.3381 17.5901 38.3381 17.5901L39.7509 10.4912C40.6964 5.60866 37.1836 5.59241 37.1836 5.59241H27.2391C26.5299 5.59241 26.387 6.22643 26.387 6.22643L26.0461 8.04722C25.9417 8.7842 26.9037 8.37778 27.2336 8.37778C27.4479 8.37778 27.8877 8.36694 27.8877 8.36694C27.8877 8.36694 31.8678 8.37778 34.2976 8.3561C34.6824 8.3561 34.9517 8.53493 34.9078 8.83297C34.8363 9.29359 34.8033 9.77046 34.6274 10.2202C34.5285 10.4804 34.2756 10.605 34.0392 10.605C33.5939 10.605 27.1236 10.5941 27.1236 10.5941C26.332 10.5941 25.0346 10.9735 24.221 15.3846C23.1985 20.9336 26.5739 20.8415 26.5739 20.8415H30.9442C31.9062 20.9336 32.1811 20.0449 32.5384 19.801C32.8903 19.5518 32.9617 19.6927 33.0002 20.2887C33.0332 20.8848 33.5829 20.8307 33.5829 20.8307H39.4155C40.1027 20.8307 40.4435 20.4242 40.4435 20.4242L43.6649 17.2758C44.7369 16.1432 44.8249 17.0915 44.8249 17.0915L45.8968 19.9365C46.2157 20.874 46.7434 20.8361 46.7434 20.8361H51.57C52.5046 20.8361 51.9164 19.7848 51.9164 19.7848L49.2392 12.5775C48.9643 11.9164 49.1787 11.8297 49.1787 11.8297L49.1897 11.8188ZM33.7423 14.6855C33.517 15.7747 33.2256 17.2379 33.2256 17.2379C33.2256 17.2379 33.0772 17.9748 32.1371 17.9369H30.433C30.433 17.9369 29.2621 18.0128 29.6139 16.1486C30.0207 14.019 30.1526 13.3687 30.9332 13.3307C31.7688 13.2874 33.3685 13.3307 33.3685 13.3307C33.3685 13.3307 34.0282 13.2657 33.7368 14.6747L33.7423 14.6855Z" fill="white"/>
<path d="M84.0205 0.704476C84.0205 0.704476 84.1085 0.0108438 84.7022 0.0162628H88.9406C88.9406 0.0162628 89.5013 -0.0433463 89.3419 0.74241L88.7537 3.60906C88.7537 3.60906 88.6932 4.02633 88.2094 4.03175H83.8501C83.8501 4.03175 83.3553 4.02091 83.5477 3.19722L84.0205 0.709895V0.704476Z" fill="white"/>
<path d="M57.4411 0.704476C57.4411 0.704476 57.529 0.0108438 58.1228 0.0162628H62.3612C62.3612 0.0162628 62.9219 -0.0433463 62.7625 0.74241L62.1743 3.60906C62.1743 3.60906 62.1138 4.02633 61.63 4.03175H57.2707C57.2707 4.03175 56.7759 4.02091 56.9683 3.19722L57.4411 0.709895V0.704476Z" fill="white"/>
</svg>
