<svg width="20" height="20" viewBox="0 0 20 20" fill="none" xmlns="http://www.w3.org/2000/svg">
<path d="M16.25 18.75C16.913 18.75 17.5489 18.4866 18.0178 18.0178C18.4866 17.5489 18.75 16.9131 18.75 16.25V9.43835L13.0175 12.79L15.9217 14.3534C16.0676 14.432 16.1764 14.5655 16.224 14.7243C16.2716 14.8832 16.2541 15.0545 16.1754 15.2004C16.0967 15.3464 15.9633 15.4552 15.8044 15.5027C15.6456 15.5503 15.4743 15.5329 15.3283 15.4542L10.5925 12.9042C10.4104 12.8062 10.2068 12.7548 10 12.7548C9.79319 12.7548 9.5896 12.8062 9.4075 12.9042L4.67167 15.4542C4.5261 15.5295 4.35675 15.5447 4.20013 15.4963C4.0435 15.448 3.91213 15.3401 3.83431 15.1958C3.7565 15.0516 3.73847 14.8825 3.78411 14.7251C3.82976 14.5677 3.93542 14.4345 4.07833 14.3542L6.9825 12.79L1.25 9.43835V16.25C1.25 16.9131 1.51339 17.5489 1.98223 18.0178C2.45107 18.4866 3.08696 18.75 3.75 18.75H16.25Z" fill="#2D2926"/>
<path d="M1.25 7.99083V7.36999C1.24994 6.91847 1.37216 6.47535 1.60369 6.0877C1.83522 5.70006 2.16742 5.38235 2.565 5.16833L8.815 1.80333C9.17921 1.60727 9.58637 1.50464 10 1.50464C10.4136 1.50464 10.8208 1.60727 11.185 1.80333L17.435 5.16833C17.8326 5.38235 18.1648 5.70006 18.3963 6.0877C18.6278 6.47535 18.7501 6.91847 18.75 7.36999V7.99083L11.7283 12.0958L11.185 11.8033C10.8208 11.6073 10.4136 11.5046 10 11.5046C9.58637 11.5046 9.17921 11.6073 8.815 11.8033L8.27167 12.0958L1.25 7.99083Z" fill="#2D2926"/>
</svg>
