<?xml version="1.0" encoding="utf-8"?><svg viewBox="0 0 163 52" xmlns="http://www.w3.org/2000/svg" xmlns:xlink="http://www.w3.org/1999/xlink"><style>:root>svg{display:none}:root>svg:target{display:block}</style><svg fill="none" viewBox="0 0 18 16" id="arrow-link" xmlns="http://www.w3.org/2000/svg"><path d="M1.5 7a1 1 0 000 2V7zm15.707 1.707a1 1 0 000-1.414L10.843.929A1 1 0 109.43 2.343L15.086 8l-5.657 5.657a1 1 0 001.414 1.414l6.364-6.364zM1.5 9h15V7h-15v2z" fill="#5100FF"/></svg><svg fill="none" viewBox="0 0 163 52" id="space-logistic" xmlns="http://www.w3.org/2000/svg"><path fill-rule="evenodd" clip-rule="evenodd" d="M0 11.32C0 5.584 4.65.934 10.386.934H32.65l-7.144 9.311H11.62a2.308 2.308 0 00-2.308 2.308v4.696a2.308 2.308 0 002.308 2.308h27.656c5.736 0 10.386 4.65 10.386 10.386v7.163c0 5.736-4.65 10.386-10.386 10.386H26.383l7.139-9.312h4.52a2.308 2.308 0 002.308-2.308v-4.695a2.308 2.308 0 00-2.308-2.308H10.386C4.65 28.869 0 24.219 0 18.483V11.32zm12.415 20.032h11.783l-5.265 6.828h11.485l-7.14 9.312H0l12.415-16.14zM47.49.934H35.694l-12.415 16.14h11.794L47.49.934z" fill="#fff"/><path d="M163.002 46.692c-3.17.339-5.967.508-8.391.508-1.152 0-2.076-.347-2.771-1.042-.695-.695-1.043-1.619-1.043-2.771v-5.848c0-1.272.356-2.263 1.068-2.975.729-.729 1.729-1.093 3-1.093h8.137v3.432h-6.738c-.678 0-1.017.34-1.017 1.017v4.958c0 .254.085.466.254.636.17.17.382.254.636.254 1.525 0 3.814-.127 6.865-.381v3.305zM148.502 33.978v12.967h-4.45v-9.534h-1.907v-3.433h6.357zm-4.45-5.085h4.45v3.56h-4.45v-3.56zM141.61 46.946c-1.644.169-3.254.254-4.83.254-1.153 0-2.077-.348-2.772-1.043-.695-.695-1.042-1.618-1.042-2.771v-6.483h-1.526V33.47h1.526l.508-3.051h3.941v3.051h3.178v3.433h-3.178v5.847c0 .255.085.466.254.636.17.17.382.254.636.254h3.305v3.306zM116.948 43.387c3.441.254 6.153.381 8.136.381a.863.863 0 00.636-.254.864.864 0 00.254-.636v-.89h-5.466c-1.153 0-2.077-.347-2.772-1.042-.695-.695-1.042-1.619-1.042-2.772v-.89c0-1.152.347-2.076 1.042-2.77.695-.696 1.619-1.043 2.772-1.043h8.644v3.305h-7.119a.86.86 0 00-.635.254.861.861 0 00-.255.636.86.86 0 00.255.636.86.86 0 00.635.254h4.577c1.152 0 2.076.347 2.771 1.042.695.695 1.043 1.619 1.043 2.772v1.017c0 1.152-.348 2.076-1.043 2.771-.695.695-1.619 1.042-2.771 1.042-3 0-6.221-.169-9.662-.508v-3.305zM114.903 33.978v12.967h-4.449v-9.534h-1.907v-3.433h6.356zm-4.449-5.085h4.449v3.56h-4.449v-3.56zM102.318 45.93c-1.644.338-3.085.508-4.322.508h-.89c-1.153 0-2.077-.348-2.772-1.043-.695-.695-1.042-1.619-1.042-2.771v-5.085c0-1.272.356-2.263 1.068-2.975.728-.729 1.729-1.093 3-1.093h9.407v14.238c0 1.153-.347 2.076-1.042 2.771-.695.695-1.619 1.043-2.772 1.043-2.661 0-5.627-.17-8.898-.509V47.71c3.237.254 5.695.381 7.373.381a.864.864 0 00.636-.254.864.864 0 00.254-.636v-1.27zm-3.051-2.925a17.64 17.64 0 003.051-.254v-5.848h-3.56c-.678 0-1.017.34-1.017 1.017v4.195c0 .255.085.466.255.636.169.17.38.254.635.254h.636zM91.264 43.132c0 1.27-.364 2.27-1.093 3-.712.712-1.703 1.068-2.975 1.068H81.35c-1.272 0-2.272-.356-3-1.068-.713-.73-1.069-1.73-1.069-3v-5.848c0-1.272.356-2.263 1.068-2.975.73-.729 1.73-1.093 3-1.093h5.848c1.272 0 2.263.364 2.975 1.093.729.712 1.093 1.703 1.093 2.975v5.848zm-4.449-5.467c0-.678-.339-1.017-1.017-1.017h-3.051c-.678 0-1.017.339-1.017 1.017v5.085c0 .678.339 1.017 1.017 1.017h3.051c.678 0 1.017-.339 1.017-1.017v-5.085zM66.72 43.388H76v3.56H62.145V29.15h4.576v14.238zM129.251 8.658c-.678 0-1.017.34-1.017 1.017v1.399h4.323V9.675c0-.678-.339-1.017-1.017-1.017h-2.289zm7.247 10.298c-3.272.338-6.238.508-8.899.508-1.153 0-2.077-.348-2.772-1.042-.695-.695-1.042-1.62-1.042-2.772V9.548c0-1.271.356-2.263 1.068-2.975.729-.729 1.729-1.093 3-1.093h5.085c1.271 0 2.263.364 2.975 1.093.729.712 1.093 1.704 1.093 2.975v4.704h-8.772v1.017a.86.86 0 00.255.635.86.86 0 00.635.255c1.678 0 4.136-.127 7.374-.382v3.179zM122.009 18.955c-3.17.339-5.967.508-8.391.508-1.152 0-2.076-.347-2.771-1.042-.695-.695-1.043-1.619-1.043-2.772V9.801c0-1.27.356-2.262 1.068-2.974.729-.73 1.729-1.094 3-1.094h8.137v3.433h-6.738c-.678 0-1.017.339-1.017 1.017v4.958c0 .254.085.466.254.636.17.169.381.254.636.254 1.525 0 3.814-.127 6.865-.382v3.306zM100.278 15.904c.899 0 1.916-.17 3.052-.508V13.87h-3.687a.862.862 0 00-.636.255.862.862 0 00-.254.635v.255c0 .254.085.466.254.635.17.17.382.254.636.254h.635zm-4.703-9.916c3.102-.339 5.898-.508 8.39-.508 1.153 0 2.077.347 2.772 1.042.695.695 1.042 1.62 1.042 2.772v9.916h-3.941l-.254-1.271a9.368 9.368 0 01-2.466 1.17c-.831.236-1.534.355-2.11.355h-.89c-1.153 0-2.077-.348-2.772-1.042-.695-.695-1.043-1.62-1.043-2.772v-1.144c0-1.153.348-2.076 1.043-2.771.695-.695 1.619-1.043 2.771-1.043h5.213V9.675a.861.861 0 00-.255-.635.86.86 0 00-.635-.255c-1.102 0-2.323.051-3.662.153-1.322.102-2.39.178-3.203.229V5.988zM86.42 9.167c-.899 0-1.916.17-3.051.508v6.102h3.813c.678 0 1.017-.339 1.017-1.017v-4.703a.862.862 0 00-.254-.636.862.862 0 00-.635-.254h-.89zM83.369 19.21v4.322h-4.45V5.734h3.941l.254 1.272a8.845 8.845 0 012.441-1.145c.848-.254 1.56-.381 2.136-.381h1.144c1.153 0 2.077.347 2.771 1.042.695.695 1.043 1.62 1.043 2.772v5.848c0 1.27-.365 2.271-1.093 3-.712.712-1.704 1.068-2.975 1.068h-5.212zM61.609 15.522c4.644.254 7.789.381 9.433.381.39 0 .695-.11.915-.33.237-.237.356-.551.356-.94v-2.29h-5.848c-1.78 0-3.076-.398-3.89-1.194-.797-.814-1.195-2.11-1.195-3.89v-.763c0-1.78.398-3.068 1.195-3.865.814-.813 2.11-1.22 3.89-1.22h8.924v3.56h-7.907c-1.017 0-1.525.508-1.525 1.525v.508c0 1.018.508 1.526 1.525 1.526h4.577c1.66 0 2.881.39 3.661 1.17.78.78 1.17 2 1.17 3.66v1.272c0 1.661-.39 2.882-1.17 3.661-.78.78-2 1.17-3.661 1.17-.865 0-1.78-.017-2.746-.05l-2.34-.103a161.098 161.098 0 01-5.364-.355v-3.433z" fill="#fff"/></svg></svg>