<svg width="191" height="50" viewBox="0 0 191 50" fill="none" xmlns="http://www.w3.org/2000/svg">
<path d="M82.93 33.7L80.95 39H80.03L78.5 34.98L76.95 39H76.03L74.06 33.7H74.97L76.51 37.92L78.11 33.7H78.92L80.49 37.94L82.07 33.7H82.93ZM88.5477 36.38C88.5477 36.4533 88.541 36.55 88.5277 36.67H84.2277C84.2877 37.1367 84.491 37.5133 84.8377 37.8C85.191 38.08 85.6277 38.22 86.1477 38.22C86.781 38.22 87.291 38.0067 87.6777 37.58L88.2077 38.2C87.9677 38.48 87.6677 38.6933 87.3077 38.84C86.9543 38.9867 86.5577 39.06 86.1177 39.06C85.5577 39.06 85.061 38.9467 84.6277 38.72C84.1943 38.4867 83.8577 38.1633 83.6177 37.75C83.3843 37.3367 83.2677 36.87 83.2677 36.35C83.2677 35.8367 83.381 35.3733 83.6077 34.96C83.841 34.5467 84.1577 34.2267 84.5577 34C84.9643 33.7667 85.421 33.65 85.9277 33.65C86.4343 33.65 86.8843 33.7667 87.2777 34C87.6777 34.2267 87.9877 34.5467 88.2077 34.96C88.4343 35.3733 88.5477 35.8467 88.5477 36.38ZM85.9277 34.46C85.4677 34.46 85.081 34.6 84.7677 34.88C84.461 35.16 84.281 35.5267 84.2277 35.98H87.6277C87.5743 35.5333 87.391 35.17 87.0777 34.89C86.771 34.6033 86.3877 34.46 85.9277 34.46ZM92.6907 33.65C93.204 33.65 93.664 33.7633 94.0707 33.99C94.4774 34.2167 94.794 34.5333 95.0207 34.94C95.254 35.3467 95.3707 35.8167 95.3707 36.35C95.3707 36.8833 95.254 37.3567 95.0207 37.77C94.794 38.1767 94.4774 38.4933 94.0707 38.72C93.664 38.9467 93.204 39.06 92.6907 39.06C92.2974 39.06 91.9374 38.9833 91.6107 38.83C91.284 38.6767 91.014 38.4533 90.8007 38.16V39H89.8807V31.58H90.8407V34.5C91.054 34.22 91.3207 34.01 91.6407 33.87C91.9607 33.7233 92.3107 33.65 92.6907 33.65ZM92.6107 38.22C92.9507 38.22 93.254 38.1433 93.5207 37.99C93.794 37.83 94.0074 37.61 94.1607 37.33C94.3207 37.0433 94.4007 36.7167 94.4007 36.35C94.4007 35.9833 94.3207 35.66 94.1607 35.38C94.0074 35.0933 93.794 34.8733 93.5207 34.72C93.254 34.5667 92.9507 34.49 92.6107 34.49C92.2774 34.49 91.974 34.5667 91.7007 34.72C91.4274 34.8733 91.214 35.0933 91.0607 35.38C90.9074 35.66 90.8307 35.9833 90.8307 36.35C90.8307 36.7167 90.9074 37.0433 91.0607 37.33C91.214 37.61 91.4274 37.83 91.7007 37.99C91.974 38.1433 92.2774 38.22 92.6107 38.22ZM100.903 39.06C100.469 39.06 100.053 39.0033 99.6527 38.89C99.2527 38.77 98.9393 38.62 98.7127 38.44L99.1127 37.68C99.346 37.8467 99.6293 37.98 99.9627 38.08C100.296 38.18 100.633 38.23 100.973 38.23C101.813 38.23 102.233 37.99 102.233 37.51C102.233 37.35 102.176 37.2233 102.063 37.13C101.949 37.0367 101.806 36.97 101.633 36.93C101.466 36.8833 101.226 36.8333 100.913 36.78C100.486 36.7133 100.136 36.6367 99.8627 36.55C99.596 36.4633 99.366 36.3167 99.1727 36.11C98.9793 35.9033 98.8827 35.6133 98.8827 35.24C98.8827 34.76 99.0827 34.3767 99.4827 34.09C99.8827 33.7967 100.419 33.65 101.093 33.65C101.446 33.65 101.799 33.6933 102.153 33.78C102.506 33.8667 102.796 33.9833 103.023 34.13L102.613 34.89C102.179 34.61 101.669 34.47 101.083 34.47C100.676 34.47 100.366 34.5367 100.153 34.67C99.9393 34.8033 99.8327 34.98 99.8327 35.2C99.8327 35.3733 99.8927 35.51 100.013 35.61C100.133 35.71 100.279 35.7833 100.453 35.83C100.633 35.8767 100.883 35.93 101.203 35.99C101.629 36.0633 101.973 36.1433 102.233 36.23C102.499 36.31 102.726 36.45 102.913 36.65C103.099 36.85 103.193 37.13 103.193 37.49C103.193 37.97 102.986 38.3533 102.573 38.64C102.166 38.92 101.609 39.06 100.903 39.06ZM104.392 33.7H105.352V39H104.392V33.7ZM104.872 32.68C104.686 32.68 104.529 32.62 104.402 32.5C104.282 32.38 104.222 32.2333 104.222 32.06C104.222 31.8867 104.282 31.74 104.402 31.62C104.529 31.4933 104.686 31.43 104.872 31.43C105.059 31.43 105.212 31.49 105.332 31.61C105.459 31.7233 105.522 31.8667 105.522 32.04C105.522 32.22 105.459 32.3733 105.332 32.5C105.212 32.62 105.059 32.68 104.872 32.68ZM110.165 38.69C110.025 38.81 109.852 38.9033 109.645 38.97C109.439 39.03 109.225 39.06 109.005 39.06C108.472 39.06 108.059 38.9167 107.765 38.63C107.472 38.3433 107.325 37.9333 107.325 37.4V34.49H106.425V33.7H107.325V32.54H108.285V33.7H109.805V34.49H108.285V37.36C108.285 37.6467 108.355 37.8667 108.495 38.02C108.642 38.1733 108.849 38.25 109.115 38.25C109.409 38.25 109.659 38.1667 109.865 38L110.165 38.69ZM115.94 36.38C115.94 36.4533 115.934 36.55 115.92 36.67H111.62C111.68 37.1367 111.884 37.5133 112.23 37.8C112.584 38.08 113.02 38.22 113.54 38.22C114.174 38.22 114.684 38.0067 115.07 37.58L115.6 38.2C115.36 38.48 115.06 38.6933 114.7 38.84C114.347 38.9867 113.95 39.06 113.51 39.06C112.95 39.06 112.454 38.9467 112.02 38.72C111.587 38.4867 111.25 38.1633 111.01 37.75C110.777 37.3367 110.66 36.87 110.66 36.35C110.66 35.8367 110.774 35.3733 111 34.96C111.234 34.5467 111.55 34.2267 111.95 34C112.357 33.7667 112.814 33.65 113.32 33.65C113.827 33.65 114.277 33.7667 114.67 34C115.07 34.2267 115.38 34.5467 115.6 34.96C115.827 35.3733 115.94 35.8467 115.94 36.38ZM113.32 34.46C112.86 34.46 112.474 34.6 112.16 34.88C111.854 35.16 111.674 35.5267 111.62 35.98H115.02C114.967 35.5333 114.784 35.17 114.47 34.89C114.164 34.6033 113.78 34.46 113.32 34.46ZM124.959 31.58V39H124.039V38.16C123.825 38.4533 123.555 38.6767 123.229 38.83C122.902 38.9833 122.542 39.06 122.149 39.06C121.635 39.06 121.175 38.9467 120.769 38.72C120.362 38.4933 120.042 38.1767 119.809 37.77C119.582 37.3567 119.469 36.8833 119.469 36.35C119.469 35.8167 119.582 35.3467 119.809 34.94C120.042 34.5333 120.362 34.2167 120.769 33.99C121.175 33.7633 121.635 33.65 122.149 33.65C122.529 33.65 122.879 33.7233 123.199 33.87C123.519 34.01 123.785 34.22 123.999 34.5V31.58H124.959ZM122.229 38.22C122.562 38.22 122.865 38.1433 123.139 37.99C123.412 37.83 123.625 37.61 123.779 37.33C123.932 37.0433 124.009 36.7167 124.009 36.35C124.009 35.9833 123.932 35.66 123.779 35.38C123.625 35.0933 123.412 34.8733 123.139 34.72C122.865 34.5667 122.562 34.49 122.229 34.49C121.889 34.49 121.582 34.5667 121.309 34.72C121.042 34.8733 120.829 35.0933 120.669 35.38C120.515 35.66 120.439 35.9833 120.439 36.35C120.439 36.7167 120.515 37.0433 120.669 37.33C120.829 37.61 121.042 37.83 121.309 37.99C121.582 38.1433 121.889 38.22 122.229 38.22ZM131.565 36.38C131.565 36.4533 131.559 36.55 131.545 36.67H127.245C127.305 37.1367 127.509 37.5133 127.855 37.8C128.209 38.08 128.645 38.22 129.165 38.22C129.799 38.22 130.309 38.0067 130.695 37.58L131.225 38.2C130.985 38.48 130.685 38.6933 130.325 38.84C129.972 38.9867 129.575 39.06 129.135 39.06C128.575 39.06 128.079 38.9467 127.645 38.72C127.212 38.4867 126.875 38.1633 126.635 37.75C126.402 37.3367 126.285 36.87 126.285 36.35C126.285 35.8367 126.399 35.3733 126.625 34.96C126.859 34.5467 127.175 34.2267 127.575 34C127.982 33.7667 128.439 33.65 128.945 33.65C129.452 33.65 129.902 33.7667 130.295 34C130.695 34.2267 131.005 34.5467 131.225 34.96C131.452 35.3733 131.565 35.8467 131.565 36.38ZM128.945 34.46C128.485 34.46 128.099 34.6 127.785 34.88C127.479 35.16 127.299 35.5267 127.245 35.98H130.645C130.592 35.5333 130.409 35.17 130.095 34.89C129.789 34.6033 129.405 34.46 128.945 34.46ZM137.491 33.7L135.171 39H134.191L131.871 33.7H132.871L134.691 37.95L136.551 33.7H137.491ZM143.03 36.38C143.03 36.4533 143.023 36.55 143.01 36.67H138.71C138.77 37.1367 138.973 37.5133 139.32 37.8C139.673 38.08 140.11 38.22 140.63 38.22C141.263 38.22 141.773 38.0067 142.16 37.58L142.69 38.2C142.45 38.48 142.15 38.6933 141.79 38.84C141.437 38.9867 141.04 39.06 140.6 39.06C140.04 39.06 139.543 38.9467 139.11 38.72C138.677 38.4867 138.34 38.1633 138.1 37.75C137.867 37.3367 137.75 36.87 137.75 36.35C137.75 35.8367 137.863 35.3733 138.09 34.96C138.323 34.5467 138.64 34.2267 139.04 34C139.447 33.7667 139.903 33.65 140.41 33.65C140.917 33.65 141.367 33.7667 141.76 34C142.16 34.2267 142.47 34.5467 142.69 34.96C142.917 35.3733 143.03 35.8467 143.03 36.38ZM140.41 34.46C139.95 34.46 139.563 34.6 139.25 34.88C138.943 35.16 138.763 35.5267 138.71 35.98H142.11C142.057 35.5333 141.873 35.17 141.56 34.89C141.253 34.6033 140.87 34.46 140.41 34.46ZM144.363 31.58H145.323V39H144.363V31.58ZM149.426 39.06C148.899 39.06 148.426 38.9433 148.006 38.71C147.586 38.4767 147.256 38.1567 147.016 37.75C146.783 37.3367 146.666 36.87 146.666 36.35C146.666 35.83 146.783 35.3667 147.016 34.96C147.256 34.5467 147.586 34.2267 148.006 34C148.426 33.7667 148.899 33.65 149.426 33.65C149.953 33.65 150.423 33.7667 150.836 34C151.256 34.2267 151.583 34.5467 151.816 34.96C152.056 35.3667 152.176 35.83 152.176 36.35C152.176 36.87 152.056 37.3367 151.816 37.75C151.583 38.1567 151.256 38.4767 150.836 38.71C150.423 38.9433 149.953 39.06 149.426 39.06ZM149.426 38.22C149.766 38.22 150.069 38.1433 150.336 37.99C150.609 37.83 150.823 37.61 150.976 37.33C151.129 37.0433 151.206 36.7167 151.206 36.35C151.206 35.9833 151.129 35.66 150.976 35.38C150.823 35.0933 150.609 34.8733 150.336 34.72C150.069 34.5667 149.766 34.49 149.426 34.49C149.086 34.49 148.779 34.5667 148.506 34.72C148.239 34.8733 148.026 35.0933 147.866 35.38C147.713 35.66 147.636 35.9833 147.636 36.35C147.636 36.7167 147.713 37.0433 147.866 37.33C148.026 37.61 148.239 37.83 148.506 37.99C148.779 38.1433 149.086 38.22 149.426 38.22ZM156.314 33.65C156.827 33.65 157.287 33.7633 157.694 33.99C158.1 34.2167 158.417 34.5333 158.644 34.94C158.877 35.3467 158.994 35.8167 158.994 36.35C158.994 36.8833 158.877 37.3567 158.644 37.77C158.417 38.1767 158.1 38.4933 157.694 38.72C157.287 38.9467 156.827 39.06 156.314 39.06C155.934 39.06 155.584 38.9867 155.264 38.84C154.95 38.6933 154.684 38.48 154.464 38.2V40.94H153.504V33.7H154.424V34.54C154.637 34.2467 154.907 34.0267 155.234 33.88C155.56 33.7267 155.92 33.65 156.314 33.65ZM156.234 38.22C156.574 38.22 156.877 38.1433 157.144 37.99C157.417 37.83 157.63 37.61 157.784 37.33C157.944 37.0433 158.024 36.7167 158.024 36.35C158.024 35.9833 157.944 35.66 157.784 35.38C157.63 35.0933 157.417 34.8733 157.144 34.72C156.877 34.5667 156.574 34.49 156.234 34.49C155.9 34.49 155.597 34.57 155.324 34.73C155.057 34.8833 154.844 35.1 154.684 35.38C154.53 35.66 154.454 35.9833 154.454 36.35C154.454 36.7167 154.53 37.0433 154.684 37.33C154.837 37.61 155.05 37.83 155.324 37.99C155.597 38.1433 155.9 38.22 156.234 38.22ZM166.95 33.65C167.617 33.65 168.143 33.8433 168.53 34.23C168.923 34.6167 169.12 35.19 169.12 35.95V39H168.16V36.06C168.16 35.5467 168.04 35.16 167.8 34.9C167.567 34.64 167.23 34.51 166.79 34.51C166.303 34.51 165.917 34.6633 165.63 34.97C165.343 35.27 165.2 35.7033 165.2 36.27V39H164.24V36.06C164.24 35.5467 164.12 35.16 163.88 34.9C163.647 34.64 163.31 34.51 162.87 34.51C162.383 34.51 161.997 34.6633 161.71 34.97C161.423 35.27 161.28 35.7033 161.28 36.27V39H160.32V33.7H161.24V34.49C161.433 34.2167 161.687 34.01 162 33.87C162.313 33.7233 162.67 33.65 163.07 33.65C163.483 33.65 163.85 33.7333 164.17 33.9C164.49 34.0667 164.737 34.31 164.91 34.63C165.11 34.3233 165.387 34.0833 165.74 33.91C166.1 33.7367 166.503 33.65 166.95 33.65ZM175.706 36.38C175.706 36.4533 175.699 36.55 175.686 36.67H171.386C171.446 37.1367 171.649 37.5133 171.996 37.8C172.349 38.08 172.786 38.22 173.306 38.22C173.939 38.22 174.449 38.0067 174.836 37.58L175.366 38.2C175.126 38.48 174.826 38.6933 174.466 38.84C174.113 38.9867 173.716 39.06 173.276 39.06C172.716 39.06 172.219 38.9467 171.786 38.72C171.353 38.4867 171.016 38.1633 170.776 37.75C170.543 37.3367 170.426 36.87 170.426 36.35C170.426 35.8367 170.539 35.3733 170.766 34.96C170.999 34.5467 171.316 34.2267 171.716 34C172.123 33.7667 172.579 33.65 173.086 33.65C173.593 33.65 174.043 33.7667 174.436 34C174.836 34.2267 175.146 34.5467 175.366 34.96C175.593 35.3733 175.706 35.8467 175.706 36.38ZM173.086 34.46C172.626 34.46 172.239 34.6 171.926 34.88C171.619 35.16 171.439 35.5267 171.386 35.98H174.786C174.733 35.5333 174.549 35.17 174.236 34.89C173.929 34.6033 173.546 34.46 173.086 34.46ZM179.869 33.65C180.542 33.65 181.076 33.8467 181.469 34.24C181.869 34.6267 182.069 35.1967 182.069 35.95V39H181.109V36.06C181.109 35.5467 180.986 35.16 180.739 34.9C180.492 34.64 180.139 34.51 179.679 34.51C179.159 34.51 178.749 34.6633 178.449 34.97C178.149 35.27 177.999 35.7033 177.999 36.27V39H177.039V33.7H177.959V34.5C178.152 34.2267 178.412 34.0167 178.739 33.87C179.072 33.7233 179.449 33.65 179.869 33.65ZM186.826 38.69C186.686 38.81 186.512 38.9033 186.306 38.97C186.099 39.03 185.886 39.06 185.666 39.06C185.132 39.06 184.719 38.9167 184.426 38.63C184.132 38.3433 183.986 37.9333 183.986 37.4V34.49H183.086V33.7H183.986V32.54H184.946V33.7H186.466V34.49H184.946V37.36C184.946 37.6467 185.016 37.8667 185.156 38.02C185.302 38.1733 185.509 38.25 185.776 38.25C186.069 38.25 186.319 38.1667 186.526 38L186.826 38.69Z" fill="white"/>
<path d="M75.47 11.3H82.421C84.031 11.3 85.459 11.601 86.705 12.203C87.951 12.805 88.917 13.659 89.603 14.765C90.289 15.871 90.632 17.166 90.632 18.65C90.632 20.134 90.289 21.429 89.603 22.535C88.917 23.641 87.951 24.495 86.705 25.097C85.459 25.699 84.031 26 82.421 26H75.47V11.3ZM82.253 22.682C83.513 22.682 84.521 22.325 85.277 21.611C86.047 20.897 86.432 19.91 86.432 18.65C86.432 17.39 86.047 16.403 85.277 15.689C84.521 14.975 83.513 14.618 82.253 14.618H79.628V22.682H82.253ZM103.047 20.939H93.8066C93.8906 22.087 94.3316 23.018 95.1296 23.732C95.9276 24.432 96.9356 24.782 98.1536 24.782C98.8396 24.782 99.4696 24.663 100.044 24.425C100.618 24.173 101.115 23.809 101.535 23.333L102.375 24.299C101.885 24.887 101.269 25.335 100.527 25.643C99.7986 25.951 98.9936 26.105 98.1116 26.105C96.9776 26.105 95.9696 25.867 95.0876 25.391C94.2196 24.901 93.5406 24.229 93.0506 23.375C92.5606 22.521 92.3156 21.555 92.3156 20.477C92.3156 19.399 92.5466 18.433 93.0086 17.579C93.4846 16.725 94.1286 16.06 94.9406 15.584C95.7666 15.108 96.6906 14.87 97.7126 14.87C98.7346 14.87 99.6516 15.108 100.464 15.584C101.276 16.06 101.913 16.725 102.375 17.579C102.837 18.419 103.068 19.385 103.068 20.477L103.047 20.939ZM97.7126 16.151C96.6486 16.151 95.7526 16.494 95.0246 17.18C94.3106 17.852 93.9046 18.734 93.8066 19.826H101.64C101.542 18.734 101.129 17.852 100.401 17.18C99.6866 16.494 98.7906 16.151 97.7126 16.151ZM115.179 14.954L110.265 26H108.732L103.839 14.954H105.393L109.53 24.362L113.709 14.954H115.179ZM130.32 26L130.299 17.18L125.973 24.446H124.44L120.135 17.369V26H116.943V11.3H119.757L125.259 20.435L130.677 11.3H133.47L133.512 26H130.32ZM146.681 22.85H139.856L138.554 26H135.068L141.62 11.3H144.98L151.553 26H147.983L146.681 22.85ZM145.61 20.267L143.279 14.639L140.948 20.267H145.61ZM166.56 11.3V26H163.767L156.438 17.075V26H153.078V11.3H155.892L163.2 20.225V11.3H166.56ZM176.569 26.252C174.469 26.252 172.831 25.671 171.655 24.509C170.493 23.347 169.912 21.688 169.912 19.532V11.3H173.314V19.406C173.314 22.038 174.406 23.354 176.59 23.354C177.654 23.354 178.466 23.039 179.026 22.409C179.586 21.765 179.866 20.764 179.866 19.406V11.3H183.226V19.532C183.226 21.688 182.638 23.347 181.462 24.509C180.3 25.671 178.669 26.252 176.569 26.252Z" fill="white"/>
<path d="M22.8706 8.33406L33.3969 14.6443L22.8706 21.1688L12.3443 14.6443L22.8706 8.33406Z" fill="#FF596F"/>
<g filter="url(#filter0_d)">
<path d="M37 12.286L62 27.2727L37 42.7686L12 27.2727L37 12.286Z" fill="#650743"/>
</g>
<g filter="url(#filter1_d)">
<path d="M39.2986 4.88876L55.0881 14.3541L39.2986 24.1409L23.5092 14.3541L39.2986 4.88876Z" fill="#CD1456"/>
</g>
<line x1="67.5" y1="5" x2="67.5" y2="45" stroke="#FFFDFD" stroke-opacity="0.5"/>
<defs>
<filter id="filter0_d" x="0" y="0.286011" width="66" height="46.4826" filterUnits="userSpaceOnUse" color-interpolation-filters="sRGB">
<feFlood flood-opacity="0" result="BackgroundImageFix"/>
<feColorMatrix in="SourceAlpha" type="matrix" values="0 0 0 0 0 0 0 0 0 0 0 0 0 0 0 0 0 0 127 0"/>
<feOffset dx="-4" dy="-4"/>
<feGaussianBlur stdDeviation="4"/>
<feColorMatrix type="matrix" values="0 0 0 0 0 0 0 0 0 0 0 0 0 0 0 0 0 0 0.35 0"/>
<feBlend mode="normal" in2="BackgroundImageFix" result="effect1_dropShadow"/>
<feBlend mode="normal" in="SourceGraphic" in2="effect1_dropShadow" result="shape"/>
</filter>
<filter id="filter1_d" x="19.5092" y="4.88873" width="39.5789" height="27.2522" filterUnits="userSpaceOnUse" color-interpolation-filters="sRGB">
<feFlood flood-opacity="0" result="BackgroundImageFix"/>
<feColorMatrix in="SourceAlpha" type="matrix" values="0 0 0 0 0 0 0 0 0 0 0 0 0 0 0 0 0 0 127 0"/>
<feOffset dy="4"/>
<feGaussianBlur stdDeviation="2"/>
<feColorMatrix type="matrix" values="0 0 0 0 0 0 0 0 0 0 0 0 0 0 0 0 0 0 0.3 0"/>
<feBlend mode="normal" in2="BackgroundImageFix" result="effect1_dropShadow"/>
<feBlend mode="normal" in="SourceGraphic" in2="effect1_dropShadow" result="shape"/>
</filter>
</defs>
</svg>
