<?xml version="1.0" encoding="utf-8"?><svg viewBox="0 0 264 102" xmlns="http://www.w3.org/2000/svg" xmlns:xlink="http://www.w3.org/1999/xlink"><style>:root>svg{display:none}:root>svg:target{display:block}</style><svg overflow="hidden" viewBox="0 0 264 102" id="star" xmlns="http://www.w3.org/2000/svg"><text fill="#2A3D35" font-family="Roboto,Roboto_MSFontService,sans-serif" font-weight="400" font-size="13" transform="translate(10.291 18)">14</text><text fill="#2A3D35" font-family="Roboto,Roboto_MSFontService,sans-serif" font-weight="400" font-size="13" transform="translate(28.624 18)">отзывов</text><text fill="#2A3D35" font-family="Roboto,Roboto_MSFontService,sans-serif" font-weight="400" font-size="13" transform="translate(10.291 42)">5,0 / 5,0</text><text fill="#2A3D35" font-family="Roboto,Roboto_MSFontService,sans-serif" font-weight="400" font-size="13" transform="translate(10.291 74)">Авито</text><text fill="#2A3D35" font-family="Roboto,Roboto_MSFontService,sans-serif" font-weight="400" font-size="13" transform="translate(48.291 74)">, Яндекс Путешествия,</text><text fill="#2A3D35" font-family="Roboto,Roboto_MSFontService,sans-serif" font-weight="400" font-size="13" transform="translate(10.291 90)">Островок,</text><text fill="#2A3D35" font-family="Roboto,Roboto_MSFontService,sans-serif" font-weight="400" font-size="13" transform="translate(76.458 90)">Суточно</text><path d="M84 34.493h6.875L93 28l2.125 6.493H102l-5.562 4.014L98.562 45 93 40.987 87.438 45l2.124-6.493zM102 34.493h6.875L111 28l2.125 6.493H120l-5.562 4.014L116.562 45 111 40.987 105.438 45l2.124-6.493zM120 34.493h6.875L129 28l2.125 6.493H138l-5.562 4.014L134.562 45 129 40.987 123.438 45l2.124-6.493zM66 34.493h6.875L75 28l2.125 6.493H84l-5.562 4.014L80.562 45 75 40.987 69.438 45l2.124-6.493zM138 34.493h6.875L147 28l2.125 6.493H156l-5.562 4.014L152.562 45 147 40.987 141.438 45l2.124-6.493z" fill="#FFC000" fill-rule="evenodd"/></svg></svg>